<svg width="58" height="58" viewBox="0 0 58 58" fill="none" xmlns="http://www.w3.org/2000/svg">
<g filter="url(#filter0_d_1408:2030)">
<path d="M21.8832 36.5855C22.198 38.0458 22.7887 39.264 23.5193 40.1048C24.3035 41.0076 25.1458 41.3705 25.8864 41.3705C26.6269 41.3705 27.4692 41.0076 28.2535 40.1048C28.984 39.264 29.5747 38.0458 29.8895 36.5855H21.8832Z" fill="url(#paint0_linear_1408:2030)"/>
<path fill-rule="evenodd" clip-rule="evenodd" d="M17 1C8.16344 1 1 8.16344 1 17V35C1 43.8366 8.16344 51 17 51H35C43.8366 51 51 43.8366 51 35V17C51 8.16344 43.8366 1 35 1H17ZM20.0433 7.47728C21.4305 6.99901 23.0574 6.99941 25.6013 7.00005H26.1714C28.7154 6.99941 30.3422 6.99901 31.7294 7.47728C32.4924 7.74032 33.2079 8.10509 33.8593 8.5567C33.0539 9.06722 32.3667 9.74758 31.8482 10.5474C31.5263 10.3634 31.1857 10.2085 30.83 10.0858C29.9373 9.77806 28.8148 9.75935 25.8864 9.75935C22.958 9.75935 21.8354 9.77806 20.9427 10.0858C19.4227 10.6099 18.1779 11.7241 17.4892 13.1769C17.0847 14.0301 16.9422 15.1438 16.6188 18.0542L16.0987 22.7349C15.9382 24.182 15.8345 25.1163 15.5325 26.0109C15.2305 26.9056 14.7468 27.7115 13.9975 28.9599L11.4956 33.1297C11.3337 33.3995 11.1988 33.6245 11.0854 33.8219C11.313 33.8262 11.5754 33.8262 11.8899 33.8262H39.8828C40.1974 33.8262 40.4597 33.8262 40.6874 33.8219C40.5739 33.6245 40.439 33.3995 40.2772 33.1297L37.7753 28.9599C37.026 27.7116 36.5422 26.9056 36.2402 26.0109C35.9382 25.1163 35.8346 24.182 35.674 22.7349L35.417 20.4215C36.038 20.6153 36.6984 20.7197 37.3833 20.7197C37.6669 20.7197 37.9463 20.7018 38.2205 20.6671L38.3998 22.2806C38.5828 23.9273 38.6592 24.5497 38.8546 25.1285C39.0499 25.7072 39.3663 26.2486 40.2188 27.6694L42.6886 31.7858C43.0196 32.3371 43.3432 32.8762 43.5353 33.3393C43.7399 33.8328 43.9594 34.622 43.5082 35.419C43.057 36.216 42.2672 36.4338 41.7388 36.5122C41.2428 36.5858 40.6141 36.5857 39.971 36.5855H32.9353C32.9316 36.6378 32.925 36.6905 32.9156 36.7433C32.5507 38.7857 31.7347 40.6722 30.5181 42.0724C29.2946 43.4807 27.6767 44.3705 25.8864 44.3705C24.0961 44.3705 22.4782 43.4807 21.2546 42.0724C20.0381 40.6722 19.222 38.7857 18.8572 36.7433C18.8477 36.6905 18.8412 36.6378 18.8374 36.5855H11.8017C11.1587 36.5857 10.5299 36.5858 10.034 36.5122C9.50553 36.4338 8.71578 36.216 8.26454 35.419C7.81331 34.622 8.03282 33.8328 8.23747 33.3393C8.42954 32.8762 8.75316 32.3371 9.08414 31.7858L11.554 27.6694C12.4064 26.2486 12.7228 25.7072 12.9182 25.1285C13.1135 24.5497 13.19 23.9273 13.373 22.2806L13.9078 17.4662C14.1881 14.9378 14.3674 13.3208 14.9959 11.9949C16.0025 9.8716 17.8218 8.2432 20.0433 7.47728ZM33.9106 12.5053C34.3176 11.6357 35.0417 10.9442 35.934 10.5794C36.3811 10.3966 36.8704 10.2959 37.3833 10.2959C39.4998 10.2959 41.2156 12.0117 41.2156 14.1282C41.2156 16.0641 39.7802 17.6647 37.9157 17.9238C37.7417 17.948 37.564 17.9605 37.3833 17.9605C36.5075 17.9605 35.7004 17.6667 35.055 17.1724C34.1406 16.472 33.551 15.3689 33.551 14.1282C33.551 13.5481 33.6799 12.9981 33.9106 12.5053Z" fill="url(#paint1_linear_1408:2030)"/>
<path d="M34.127 8.97902L34.7638 8.57536L34.1442 8.14579C33.4554 7.66833 32.699 7.28267 31.8924 7.00458C30.4256 6.49886 28.7242 6.49934 26.2599 6.50002L26.1714 6.50005H26.1713H25.6014H25.6013L25.5128 6.50002C23.0485 6.49934 21.3472 6.49886 19.8804 7.00458C17.5317 7.81433 15.6083 9.53592 14.5441 11.7807C13.8795 13.1827 13.6921 14.8738 13.4206 17.3231L13.4109 17.411L13.4109 17.4111L12.876 22.2254C12.6906 23.8941 12.6185 24.4529 12.4444 24.9686C12.2704 25.4842 11.9891 25.9724 11.1252 27.4121L8.65545 31.5284L8.65539 31.5285L8.64153 31.5516C8.32107 32.0854 7.98192 32.6503 7.77561 33.1478C7.55299 33.6845 7.26177 34.6628 7.82944 35.6654C8.39711 36.668 9.38575 36.9215 9.96058 37.0068C10.4934 37.0859 11.1523 37.0857 11.775 37.0855L11.8017 37.0855H11.8018H18.4128C18.8111 39.1014 19.6416 40.9782 20.8772 42.4003C22.1736 43.8925 23.9207 44.8705 25.8864 44.8705C27.8521 44.8705 29.5992 43.8925 30.8956 42.4003C32.1312 40.9782 32.9616 39.1014 33.36 37.0855H39.9709H39.971L39.9978 37.0855C40.6204 37.0857 41.2794 37.0859 41.8122 37.0068C42.387 36.9215 43.3756 36.668 43.9433 35.6654C44.511 34.6628 44.2198 33.6845 43.9971 33.1478C43.7908 32.6502 43.4516 32.0853 43.1311 31.5514L43.1174 31.5285L43.1173 31.5284L40.6475 27.4121C39.7837 25.9724 39.5024 25.4842 39.3283 24.9686C39.1543 24.4529 39.0822 23.8941 38.8967 22.2254L38.7175 20.6119L38.6614 20.1072L38.1576 20.171C37.9043 20.2032 37.6458 20.2197 37.3833 20.2197C36.7495 20.2197 36.1393 20.1231 35.566 19.9442L34.8356 19.7162L34.9201 20.4767L35.1771 22.7901L35.1771 22.7902L35.1822 22.836C35.3382 24.2428 35.4472 25.2249 35.7665 26.1708C36.0858 27.1168 36.5943 27.964 37.3228 29.1776L37.3465 29.2172L37.3466 29.2172L39.812 33.3262H11.9608L14.4262 29.2172L14.4263 29.2171L14.4499 29.1777C15.1784 27.964 15.687 27.1168 16.0063 26.1708C16.3256 25.2249 16.4345 24.2428 16.5906 22.8359L16.5957 22.7901L16.5957 22.7901L17.1157 18.1095C17.2779 16.65 17.3928 15.6594 17.5166 14.9275C17.6397 14.1994 17.7668 13.7585 17.941 13.391C18.5721 12.0598 19.7128 11.0388 21.1057 10.5585C21.4901 10.426 21.9423 10.3483 22.6796 10.3064C23.4207 10.2642 24.4179 10.2594 25.8864 10.2594C27.3548 10.2594 28.352 10.2642 29.0932 10.3064C29.8304 10.3483 30.2826 10.426 30.6671 10.5585C30.993 10.6709 31.3051 10.8129 31.6001 10.9815L32.0106 11.2161L32.2678 10.8194C32.7471 10.08 33.3824 9.45094 34.127 8.97902ZM1.5 17C1.5 8.43959 8.43959 1.5 17 1.5H35C43.5604 1.5 50.5 8.43959 50.5 17V35C50.5 43.5604 43.5604 50.5 35 50.5H17C8.43959 50.5 1.5 43.5604 1.5 35V17ZM23.8967 39.7769C23.3309 39.1257 22.8415 38.2054 22.523 37.0855H29.2498C28.9312 38.2054 28.4418 39.1257 27.876 39.7769C27.1657 40.5945 26.4529 40.8705 25.8864 40.8705C25.3198 40.8705 24.607 40.5945 23.8967 39.7769ZM35.7448 10.1166C34.7358 10.5291 33.9179 11.3104 33.4577 12.2933C33.1966 12.8511 33.051 13.4733 33.051 14.1282C33.051 15.5311 33.7184 16.7784 34.7509 17.5693C35.4805 18.1282 36.3938 18.4605 37.3833 18.4605C37.5871 18.4605 37.7878 18.4464 37.9845 18.419C40.0928 18.126 41.7156 16.317 41.7156 14.1282C41.7156 11.7355 39.776 9.79589 37.3833 9.79589C36.8044 9.79589 36.2509 9.90968 35.7448 10.1166Z" stroke="#FF0000" stroke-opacity="0.2"/>
</g>
<ellipse cx="37.3833" cy="14.1282" rx="3.8323" ry="3.83231" fill="#73BF41"/>
<defs>
<filter id="filter0_d_1408:2030" x="0" y="0" width="58" height="58" filterUnits="userSpaceOnUse" color-interpolation-filters="sRGB">
<feFlood flood-opacity="0" result="BackgroundImageFix"/>
<feColorMatrix in="SourceAlpha" type="matrix" values="0 0 0 0 0 0 0 0 0 0 0 0 0 0 0 0 0 0 127 0" result="hardAlpha"/>
<feOffset dx="3" dy="3"/>
<feGaussianBlur stdDeviation="2"/>
<feColorMatrix type="matrix" values="0 0 0 0 0 0 0 0 0 0 0 0 0 0 0 0 0 0 0.05 0"/>
<feBlend mode="normal" in2="BackgroundImageFix" result="effect1_dropShadow_1408:2030"/>
<feBlend mode="normal" in="SourceGraphic" in2="effect1_dropShadow_1408:2030" result="shape"/>
</filter>
<linearGradient id="paint0_linear_1408:2030" x1="8.37069" y1="1" x2="61.7256" y2="24.2225" gradientUnits="userSpaceOnUse">
<stop stop-color="white" stop-opacity="0.5"/>
<stop offset="1" stop-color="white" stop-opacity="0.7"/>
</linearGradient>
<linearGradient id="paint1_linear_1408:2030" x1="8.37069" y1="1" x2="61.7256" y2="24.2225" gradientUnits="userSpaceOnUse">
<stop stop-color="white" stop-opacity="0.5"/>
<stop offset="1" stop-color="white" stop-opacity="0.7"/>
</linearGradient>
</defs>
</svg>
