<svg width="70" height="70" viewBox="0 0 70 70" fill="none" xmlns="http://www.w3.org/2000/svg">
  <mask id="path-1-inside-1_2011_1878" fill="white">
    <path
      d="M16 57C12.5 54.0575 10 50 7.5 44.5C6.5 41.5 6.5 39.5 6 35C6.5 26.5 9.00004 20.5 14.5 14.5C20.5 9.00003 28 5.99999 36.1483 6.07294C40.5546 6.42697 46 8.00004 47 9.00004C47.2319 9.7671 43.3954 12.1504 37.3078 14.7466C23.973 20.4111 17.8274 26.4295 16.436 35.0442C15.9142 38.4075 16.436 43.8949 17.6535 47.0221C18.2333 48.6152 18.2912 48.6152 19.4508 45.134C20.5524 41.7117 23.2773 37.3454 25.5964 35.2212C26.2921 34.5722 26.9299 32.979 27.1618 31.3859C27.3357 29.8518 27.9735 27.5506 28.5532 26.2525L29.5968 23.8923L29.3069 28.0226L29.0171 32.094L31.4521 29.9698C33.7132 28.0226 40.0907 24.1873 41.1343 24.1873C41.3662 24.1873 39.6269 25.5444 37.2499 27.1966C33.3654 29.9108 25.1326 37.5224 25.1326 38.4074C25.1326 38.5844 26.64 38.9385 28.4953 39.1155C30.2925 39.3515 32.9595 39.8826 34.409 40.3546L37.0179 41.2397L31.8579 40.9447C23.915 40.5316 23.2193 40.7676 21.422 44.78C20.6103 46.7271 19.6247 50.4444 19.2189 53.5716C18.813 56.5808 18.6739 58.5 18.5 58.5C18.2681 58.5 17.3335 58.1211 16 57Z"/>
    <path
      d="M28.1497 63C24 62 20 60 20 59.5154C20 59.1089 20.7848 57.7731 21.8111 56.4374C23.7429 53.8239 29.5986 50.8039 38.2916 47.9001C44.6303 45.7512 48.4335 42.9635 50.9086 38.6078C52.7196 35.3555 52.9007 34.6586 53.0818 28.3863C53.2629 23.9144 53.0214 20.0813 52.3574 16.829C51.8744 14.1574 51.8793 11.8515 52 11.7353C52.5 11.2353 58.25 16.7354 60 20.2354C63 26.2354 64 29.7354 63.9481 36.517C63.3444 47.7839 56 57.5 46.5 61.5C40 64 34.5 64.5303 28.1497 63Z"/>
    <path
      d="M70 35C70 54.33 54.33 70 35 70C15.67 70 0 54.33 0 35C0 15.67 15.67 0 35 0C54.33 0 70 15.67 70 35ZM6.17732 35C6.17732 50.9183 19.0817 63.8227 35 63.8227C50.9183 63.8227 63.8227 50.9183 63.8227 35C63.8227 19.0817 50.9183 6.17732 35 6.17732C19.0817 6.17732 6.17732 19.0817 6.17732 35Z"/>
  </mask>
  <path
    d="M16 57C12.5 54.0575 10 50 7.5 44.5C6.5 41.5 6.5 39.5 6 35C6.5 26.5 9.00004 20.5 14.5 14.5C20.5 9.00003 28 5.99999 36.1483 6.07294C40.5546 6.42697 46 8.00004 47 9.00004C47.2319 9.7671 43.3954 12.1504 37.3078 14.7466C23.973 20.4111 17.8274 26.4295 16.436 35.0442C15.9142 38.4075 16.436 43.8949 17.6535 47.0221C18.2333 48.6152 18.2912 48.6152 19.4508 45.134C20.5524 41.7117 23.2773 37.3454 25.5964 35.2212C26.2921 34.5722 26.9299 32.979 27.1618 31.3859C27.3357 29.8518 27.9735 27.5506 28.5532 26.2525L29.5968 23.8923L29.3069 28.0226L29.0171 32.094L31.4521 29.9698C33.7132 28.0226 40.0907 24.1873 41.1343 24.1873C41.3662 24.1873 39.6269 25.5444 37.2499 27.1966C33.3654 29.9108 25.1326 37.5224 25.1326 38.4074C25.1326 38.5844 26.64 38.9385 28.4953 39.1155C30.2925 39.3515 32.9595 39.8826 34.409 40.3546L37.0179 41.2397L31.8579 40.9447C23.915 40.5316 23.2193 40.7676 21.422 44.78C20.6103 46.7271 19.6247 50.4444 19.2189 53.5716C18.813 56.5808 18.6739 58.5 18.5 58.5C18.2681 58.5 17.3335 58.1211 16 57Z"
    fill="#73BF41"/>
  <path
    d="M28.1497 63C24 62 20 60 20 59.5154C20 59.1089 20.7848 57.7731 21.8111 56.4374C23.7429 53.8239 29.5986 50.8039 38.2916 47.9001C44.6303 45.7512 48.4335 42.9635 50.9086 38.6078C52.7196 35.3555 52.9007 34.6586 53.0818 28.3863C53.2629 23.9144 53.0214 20.0813 52.3574 16.829C51.8744 14.1574 51.8793 11.8515 52 11.7353C52.5 11.2353 58.25 16.7354 60 20.2354C63 26.2354 64 29.7354 63.9481 36.517C63.3444 47.7839 56 57.5 46.5 61.5C40 64 34.5 64.5303 28.1497 63Z"
    fill="#427475"/>
  <path
    d="M70 35C70 54.33 54.33 70 35 70C15.67 70 0 54.33 0 35C0 15.67 15.67 0 35 0C54.33 0 70 15.67 70 35ZM6.17732 35C6.17732 50.9183 19.0817 63.8227 35 63.8227C50.9183 63.8227 63.8227 50.9183 63.8227 35C63.8227 19.0817 50.9183 6.17732 35 6.17732C19.0817 6.17732 6.17732 19.0817 6.17732 35Z"
    fill="white" fill-opacity="0.4"/>
  <path
    d="M16 57L15.3565 57.7654L16 57ZM7.5 44.5L6.55132 44.8162L6.56792 44.866L6.58963 44.9138L7.5 44.5ZM6 35L5.00173 34.9413L4.99674 35.026L5.00612 35.1104L6 35ZM14.5 14.5L13.8243 13.7628L13.7923 13.7922L13.7629 13.8243L14.5 14.5ZM36.1483 6.07294L36.2284 5.07616L36.1929 5.0733L36.1572 5.07298L36.1483 6.07294ZM47 9.00004L47.9572 8.71064L47.8846 8.4704L47.7071 8.29293L47 9.00004ZM37.3078 14.7466L37.6988 15.667L37.7001 15.6665L37.3078 14.7466ZM16.436 35.0442L15.4487 34.8847L15.4478 34.8909L16.436 35.0442ZM17.6535 47.0221L18.5932 46.6801L18.5894 46.6697L18.5853 46.6593L17.6535 47.0221ZM19.4508 45.134L20.3996 45.45L20.4027 45.4404L19.4508 45.134ZM25.5964 35.2212L26.2718 35.9587L26.2785 35.9524L25.5964 35.2212ZM27.1618 31.3859L28.1513 31.53L28.1536 31.5143L28.1554 31.4986L27.1618 31.3859ZM28.5532 26.2525L29.4663 26.6603L29.4678 26.6569L28.5532 26.2525ZM29.5968 23.8923L30.5944 23.9623L28.6823 23.4879L29.5968 23.8923ZM29.3069 28.0226L30.3044 28.0937L30.3045 28.0927L29.3069 28.0226ZM29.0171 32.094L28.0196 32.0229L27.8474 34.4413L29.6744 32.8475L29.0171 32.094ZM31.4521 29.9698L30.7996 29.212L30.7948 29.2162L31.4521 29.9698ZM37.2499 27.1966L36.6791 26.3754L36.6771 26.3768L37.2499 27.1966ZM28.4953 39.1155L28.6255 38.124L28.6079 38.1217L28.5902 38.12L28.4953 39.1155ZM34.409 40.3546L34.7302 39.4075L34.7186 39.4038L34.409 40.3546ZM37.0179 41.2397L36.9609 42.2381L37.3392 40.2927L37.0179 41.2397ZM31.8579 40.9447L31.915 39.9463L31.9099 39.946L31.8579 40.9447ZM21.422 44.78L20.5094 44.3711L20.504 44.3831L20.499 44.3952L21.422 44.78ZM19.2189 53.5716L20.2099 53.7053L20.2106 53.7003L19.2189 53.5716ZM28.1497 63L27.9155 63.9722L27.9155 63.9722L28.1497 63ZM21.8111 56.4374L22.6041 57.0466L22.6097 57.0393L22.6152 57.0318L21.8111 56.4374ZM38.2916 47.9001L38.6084 48.8486L38.6126 48.8471L38.2916 47.9001ZM50.9086 38.6078L51.778 39.1018L51.7822 39.0943L50.9086 38.6078ZM53.0818 28.3863L52.0826 28.3458L52.0822 28.3574L53.0818 28.3863ZM52.3574 16.829L51.3733 17.0069L51.3753 17.018L51.3776 17.029L52.3574 16.829ZM52 11.7353L52.6933 12.456L52.7003 12.4493L52.7071 12.4425L52 11.7353ZM60 20.2354L59.1056 20.6826L59.1056 20.6826L60 20.2354ZM63.9481 36.517L64.9467 36.5705L64.9479 36.5476L64.9481 36.5247L63.9481 36.517ZM46.5 61.5L46.859 62.4333L46.8736 62.4277L46.8881 62.4216L46.5 61.5ZM16.6435 56.2346C13.3141 53.4354 10.8891 49.5395 8.41037 44.0862L6.58963 44.9138C9.11087 50.4605 11.6859 54.6795 15.3565 57.7654L16.6435 56.2346ZM8.44868 44.1838C7.49262 41.3156 7.50412 39.4817 6.99388 34.8896L5.00612 35.1104C5.49588 39.5183 5.50738 41.6844 6.55132 44.8162L8.44868 44.1838ZM6.99828 35.0587C7.48535 26.7784 9.89912 20.9991 15.2372 15.1757L13.7629 13.8243C8.10095 20.0009 5.51465 26.2215 5.00173 34.9413L6.99828 35.0587ZM15.1758 15.2371C20.9966 9.90138 28.2545 7.00231 36.1393 7.0729L36.1572 5.07298C27.7456 4.99767 20.0034 8.09869 13.8243 13.7628L15.1758 15.2371ZM36.0682 7.06973C38.1971 7.24078 40.597 7.70913 42.5853 8.25818C43.5786 8.53245 44.4513 8.82197 45.1246 9.09654C45.8472 9.39127 46.2004 9.61465 46.2929 9.70714L47.7071 8.29293C47.2996 7.88542 46.5971 7.53717 45.8798 7.24463C45.1131 6.93195 44.1616 6.61857 43.1177 6.33032C41.0317 5.75433 38.5058 5.25914 36.2284 5.07616L36.0682 7.06973ZM46.0428 9.28943C45.9389 8.94562 46.114 8.73587 46.0647 8.81071C46.0404 8.84752 45.9605 8.94581 45.7786 9.10605C45.4228 9.41942 44.834 9.83429 44.0087 10.3303C42.3697 11.3152 39.9332 12.5398 36.9155 13.8268L37.7001 15.6665C40.77 14.3572 43.2956 13.0921 45.0388 12.0445C45.9046 11.5243 46.6119 11.0372 47.1005 10.6069C47.3408 10.3952 47.5701 10.1612 47.735 9.9107C47.8749 9.69824 48.1192 9.24622 47.9572 8.71064L46.0428 9.28943ZM36.9168 13.8262C23.4757 19.5358 16.9235 25.7544 15.4488 34.8847L17.4232 35.2037C18.7313 27.1046 24.4704 21.2863 37.6988 15.667L36.9168 13.8262ZM15.4478 34.8909C15.1698 36.6828 15.1748 38.9856 15.3974 41.2208C15.6197 43.4534 16.0677 45.7054 16.7216 47.3849L18.5853 46.6593C18.0217 45.2116 17.6 43.1563 17.3876 41.0226C17.1753 38.8914 17.1804 36.7688 17.4241 35.1975L15.4478 34.8909ZM16.7138 47.3641C16.843 47.7192 16.9931 48.1367 17.1657 48.4154C17.2356 48.5281 17.4489 48.8621 17.8677 48.9955C18.4341 49.176 18.8633 48.8698 19.048 48.6818C19.2213 48.5055 19.3405 48.289 19.4218 48.1246C19.5123 47.9416 19.6031 47.723 19.6964 47.4786C19.8832 46.9899 20.1112 46.3156 20.3995 45.45L18.502 44.818C18.2106 45.693 17.9965 46.3242 17.8282 46.7647C17.744 46.985 17.679 47.137 17.629 47.238C17.5699 47.3576 17.5641 47.3384 17.6214 47.2801C17.6902 47.2101 18.0124 46.9426 18.4747 47.0899C18.649 47.1454 18.7558 47.2392 18.8015 47.2849C18.8266 47.31 18.8432 47.3307 18.8522 47.3426C18.8613 47.3547 18.8658 47.3619 18.8659 47.3621C18.8662 47.3625 18.8637 47.3585 18.8587 47.349C18.8537 47.3397 18.847 47.3265 18.8386 47.3089C18.8216 47.2731 18.8009 47.2257 18.7757 47.1639C18.7245 47.0381 18.6661 46.8806 18.5932 46.6801L16.7138 47.3641ZM20.4027 45.4404C21.4574 42.1639 24.095 37.9525 26.2718 35.9586L24.9209 34.4838C22.4596 36.7383 19.6474 41.2596 18.4989 44.8276L20.4027 45.4404ZM26.2785 35.9524C26.7823 35.4824 27.1826 34.7655 27.4796 34.0336C27.7863 33.2781 28.0242 32.4034 28.1513 31.53L26.1722 31.2419C26.0674 31.9615 25.8706 32.68 25.6264 33.2815C25.3726 33.9068 25.1062 34.3109 24.9142 34.49L26.2785 35.9524ZM28.1554 31.4986C28.3178 30.0664 28.9284 27.8647 29.4663 26.6603L27.6402 25.8447C27.0186 27.2365 26.3536 29.6372 26.1681 31.2733L28.1554 31.4986ZM29.4678 26.6569L30.5114 24.2967L28.6823 23.4879L27.6387 25.8481L29.4678 26.6569ZM28.5993 23.8223L28.3094 27.9526L30.3045 28.0927L30.5944 23.9623L28.5993 23.8223ZM28.3095 27.9516L28.0196 32.0229L30.0145 32.165L30.3044 28.0937L28.3095 27.9516ZM29.6744 32.8475L32.1095 30.7234L30.7948 29.2162L28.3597 31.3404L29.6744 32.8475ZM32.1047 30.7275C33.1678 29.812 35.2671 28.402 37.2636 27.2063C38.2544 26.6129 39.1967 26.0863 39.9464 25.7115C40.3226 25.5234 40.6359 25.3807 40.8747 25.2876C41.1614 25.1758 41.2141 25.1873 41.1343 25.1873V23.1873C40.7937 23.1873 40.4188 23.3187 40.1481 23.4243C39.8295 23.5485 39.4557 23.7207 39.052 23.9226C38.2417 24.3277 37.2526 24.8816 36.236 25.4905C34.2176 26.6992 31.9975 28.1804 30.7996 29.212L32.1047 30.7275ZM41.1343 25.1873C41.0542 25.1873 40.7968 25.179 40.5445 24.9869C40.2257 24.7441 40.1428 24.3929 40.1566 24.147C40.1677 23.9483 40.237 23.8085 40.2592 23.7652C40.2892 23.7069 40.3177 23.6674 40.3292 23.652C40.3617 23.6083 40.3672 23.6118 40.2851 23.6868C40.1481 23.8119 39.9039 24.0133 39.5572 24.2825C38.8723 24.8143 37.8584 25.5558 36.6791 26.3754L37.8206 28.0177C39.0184 27.1852 40.0627 26.4221 40.7837 25.8623C41.14 25.5857 41.4357 25.3446 41.6338 25.1636C41.7193 25.0856 41.8413 24.9702 41.9338 24.8458C41.9603 24.8102 42.0003 24.7529 42.0381 24.6793C42.0682 24.6207 42.1417 24.468 42.1535 24.259C42.1678 24.0027 42.0819 23.6437 41.7562 23.3957C41.497 23.1983 41.229 23.1873 41.1343 23.1873V25.1873ZM36.6771 26.3768C34.6778 27.7738 31.6085 30.3925 29.0555 32.7538C27.775 33.9382 26.6067 35.0741 25.753 35.977C25.3283 36.4262 24.9668 36.8331 24.7056 37.1676C24.5764 37.3332 24.4556 37.5015 24.3621 37.6617C24.3153 37.742 24.265 37.8378 24.2241 37.9433C24.1874 38.0377 24.1326 38.2039 24.1326 38.4074H26.1326C26.1326 38.5557 26.0938 38.6534 26.0886 38.6669C26.079 38.6915 26.0754 38.6941 26.0898 38.6692C26.1189 38.6194 26.1787 38.5308 26.2822 38.3982C26.4865 38.1365 26.7985 37.7823 27.2063 37.3511C28.0176 36.493 29.1503 35.3905 30.4135 34.2221C32.9481 31.8777 35.9375 29.3335 37.8226 28.0163L36.6771 26.3768ZM24.1326 38.4074C24.1326 38.7805 24.3268 39.0259 24.4176 39.1236C24.5186 39.2322 24.6236 39.3011 24.6856 39.3384C24.8144 39.4158 24.9527 39.471 25.0606 39.5096C25.2893 39.5912 25.583 39.6683 25.9051 39.7385C26.5588 39.8811 27.4395 40.0193 28.4003 40.111L28.5902 38.12C27.6957 38.0347 26.8951 37.9074 26.3313 37.7844C26.0446 37.7219 25.8455 37.6662 25.7335 37.6262C25.6712 37.6039 25.6773 37.601 25.7163 37.6244C25.7335 37.6348 25.8043 37.6778 25.8823 37.7616C25.9501 37.8346 26.1326 38.0565 26.1326 38.4074H24.1326ZM28.3651 40.107C30.1296 40.3387 32.7303 40.8596 34.0993 41.3055L34.7186 39.4038C33.1888 38.9055 30.4555 38.3643 28.6255 38.124L28.3651 40.107ZM34.0877 41.3016L36.6967 42.1867L37.3392 40.2927L34.7302 39.4076L34.0877 41.3016ZM37.075 40.2413L31.915 39.9463L31.8009 41.943L36.9609 42.2381L37.075 40.2413ZM31.9099 39.946C29.9279 39.8429 28.3597 39.778 27.1071 39.8057C25.8609 39.8332 24.8426 39.9525 23.9919 40.2636C22.1639 40.9322 21.3987 42.3859 20.5094 44.3711L22.3346 45.1888C23.2427 43.1617 23.7239 42.4912 24.6789 42.142C25.2196 41.9442 25.9769 41.8311 27.1512 41.8052C28.3192 41.7794 29.8165 41.8399 31.806 41.9433L31.9099 39.946ZM20.499 44.3952C19.647 46.439 18.6422 50.245 18.2272 53.4429L20.2106 53.7003C20.6072 50.6438 21.5736 47.0153 22.345 45.1647L20.499 44.3952ZM18.2278 53.438C18.0245 54.946 17.8849 56.2049 17.7802 57.0399C17.7263 57.4702 17.6835 57.7733 17.6468 57.9634C17.627 58.0658 17.6176 58.0886 17.6245 58.0696C17.6257 58.0663 17.6525 57.988 17.7213 57.8926C17.7676 57.8285 18.0171 57.5 18.5 57.5V59.5C19.0046 59.5 19.2756 59.1565 19.3432 59.0628C19.4334 58.9378 19.4814 58.8154 19.5039 58.7537C19.5533 58.618 19.5864 58.4673 19.6105 58.3428C19.6614 58.079 19.7114 57.7143 19.7647 57.2886C19.8746 56.4118 20.0074 55.2065 20.2099 53.7053L18.2278 53.438ZM18.5 57.5C18.634 57.5 18.6757 57.5341 18.551 57.4872C18.463 57.4542 18.326 57.3932 18.143 57.2931C17.7788 57.0939 17.2661 56.758 16.6435 56.2346L15.3565 57.7654C16.0674 58.3631 16.6887 58.7772 17.1832 59.0477C17.4295 59.1825 17.6529 59.2863 17.8471 59.3593C18.0045 59.4185 18.25 59.5 18.5 59.5V57.5ZM28.384 62.0279C26.3783 61.5445 24.4002 60.8166 22.9302 60.153C22.1934 59.8204 21.6054 59.5135 21.2148 59.2726C21.0154 59.1496 20.8963 59.0614 20.8393 59.0114C20.8093 58.9851 20.8238 58.9929 20.8536 59.0338C20.8657 59.0503 21 59.227 21 59.5154H19C19 59.8644 19.1656 60.1136 19.2383 60.2131C19.3288 60.337 19.4333 60.4385 19.5207 60.5152C19.6986 60.6712 19.9245 60.8266 20.1649 60.9749C20.654 61.2765 21.3253 61.6229 22.1073 61.9759C23.6747 62.6835 25.7715 63.4556 27.9155 63.9722L28.384 62.0279ZM21 59.5154C21 59.6446 20.9645 59.6566 21.0537 59.4542C21.1222 59.2988 21.2318 59.0884 21.3827 58.8318C21.6829 58.3214 22.1115 57.6877 22.6041 57.0466L21.0181 55.8281C20.4843 56.5228 20.0075 57.2249 19.6587 57.8179C19.4851 58.1131 19.3344 58.3963 19.2237 58.6474C19.1337 58.8515 19 59.183 19 59.5154H21ZM22.6152 57.0318C23.4381 55.9185 25.2105 54.5964 27.9754 53.1658C30.7065 51.7526 34.2918 50.2905 38.6084 48.8486L37.9748 46.9516C33.5983 48.4135 29.9093 49.9133 27.0563 51.3895C24.2372 52.8482 22.1158 54.3428 21.0069 55.843L22.6152 57.0318ZM38.6126 48.8471C45.102 46.6472 49.1452 43.7352 51.778 39.1018L50.0391 38.1137C47.7218 42.1919 44.1585 44.8553 37.9705 46.953L38.6126 48.8471ZM51.7822 39.0943C52.6921 37.4604 53.2559 36.3616 53.584 34.8403C53.9014 33.3681 53.9915 31.5277 54.0814 28.4151L52.0822 28.3574C51.991 31.5172 51.9 33.1613 51.6289 34.4187C51.3683 35.627 50.9361 36.5029 50.0349 38.1213L51.7822 39.0943ZM54.081 28.4267C54.2643 23.8998 54.0218 19.982 53.3372 16.6289L51.3776 17.029C52.0211 20.1805 52.2615 23.9289 52.0826 28.3458L54.081 28.4267ZM53.3414 16.6511C53.1085 15.3625 52.9934 14.1619 52.9512 13.2763C52.93 12.8323 52.9278 12.4789 52.9364 12.2406C52.9408 12.1185 52.9474 12.0451 52.9519 12.0121C52.9544 11.9932 52.9533 12.0099 52.9433 12.0464C52.9384 12.0645 52.9258 12.1078 52.9009 12.1632C52.882 12.2052 52.8225 12.3317 52.6933 12.456L51.3067 11.0147C51.17 11.1462 51.1032 11.2843 51.0772 11.342C51.0452 11.413 51.0258 11.4762 51.0143 11.5183C50.9912 11.6026 50.9781 11.6834 50.9699 11.7439C50.9529 11.8696 50.9431 12.0163 50.9377 12.1685C50.9265 12.4787 50.9305 12.8905 50.9535 13.3715C50.9994 14.3357 51.1233 15.6239 51.3733 17.0069L53.3414 16.6511ZM52.7071 12.4425C52.3772 12.7724 51.9921 12.6974 51.9614 12.6914C51.8921 12.6779 51.8806 12.6621 51.951 12.699C52.0789 12.7661 52.2951 12.9096 52.5973 13.1468C53.1889 13.6115 53.9764 14.3294 54.8178 15.1861C56.5187 16.9179 58.3029 19.0772 59.1056 20.6826L60.8945 19.7882C59.9472 17.8936 57.9814 15.5529 56.2447 13.7847C55.3674 12.8914 54.5142 12.1093 53.8325 11.5739C53.4979 11.3111 53.1692 11.0796 52.8801 10.9279C52.742 10.8555 52.554 10.7694 52.3447 10.7285C52.174 10.6951 51.6854 10.6358 51.2929 11.0282L52.7071 12.4425ZM59.1056 20.6826C60.5924 23.6562 61.5557 25.9562 62.1484 28.3258C62.7399 30.6903 62.9737 33.1706 62.9481 36.5094L64.9481 36.5247C64.9744 33.0818 64.7342 30.4213 64.0886 27.8405C63.4443 25.2647 62.4077 22.8146 60.8945 19.7882L59.1056 20.6826ZM62.9495 36.4635C62.367 47.3363 55.2699 56.7224 46.112 60.5784L46.8881 62.4216C56.7301 58.2776 64.3219 48.2315 64.9467 36.5705L62.9495 36.4635ZM46.141 60.5667C39.804 63.004 34.5114 63.5044 28.384 62.0279L27.9155 63.9722C34.4886 65.5562 40.1961 64.996 46.859 62.4333L46.141 60.5667ZM69 35C69 53.7777 53.7777 69 35 69V71C54.8823 71 71 54.8823 71 35H69ZM35 69C16.2223 69 1 53.7777 1 35H-1C-1 54.8823 15.1177 71 35 71V69ZM1 35C1 16.2223 16.2223 1 35 1V-1C15.1177 -1 -1 15.1177 -1 35H1ZM35 1C53.7777 1 69 16.2223 69 35H71C71 15.1177 54.8823 -1 35 -1V1ZM5.17732 35C5.17732 51.4706 18.5294 64.8227 35 64.8227V62.8227C19.634 62.8227 7.17732 50.366 7.17732 35H5.17732ZM35 64.8227C51.4706 64.8227 64.8227 51.4706 64.8227 35H62.8227C62.8227 50.366 50.366 62.8227 35 62.8227V64.8227ZM64.8227 35C64.8227 18.5294 51.4706 5.17732 35 5.17732V7.17732C50.366 7.17732 62.8227 19.634 62.8227 35H64.8227ZM35 5.17732C18.5294 5.17732 5.17732 18.5294 5.17732 35H7.17732C7.17732 19.634 19.634 7.17732 35 7.17732V5.17732Z"
    fill="white" fill-opacity="0.2" mask="url(#path-1-inside-1_2011_1878)"/>
</svg>
