<svg width="56" height="56" viewBox="0 0 56 56" fill="none" xmlns="http://www.w3.org/2000/svg">
<g filter="url(#filter0_d_2021_1885)">
<mask id="path-1-inside-1_2021_1885" fill="white">
<path fill-rule="evenodd" clip-rule="evenodd" d="M18 2C9.16344 2 2 9.16344 2 18V36C2 44.8366 9.16344 52 18 52H36C44.8366 52 52 44.8366 52 36V18C52 9.16344 44.8366 2 36 2H18ZM26.8165 9C27.9211 9 28.8165 9.89543 28.8165 11V27.8165C28.8165 28.9211 27.9211 29.8165 26.8165 29.8165H26.6532C25.5486 29.8165 24.6532 28.9211 24.6532 27.8165V11C24.6532 9.89543 25.5486 9 26.6532 9H26.8165ZM37.5663 12.8218C38.3032 12.0849 39.4915 12.0298 40.2163 12.7787C43.4694 16.14 45.4697 20.6935 45.4697 25.7349C45.4697 36.0807 37.0807 44.4697 26.7349 44.4697C16.3891 44.4697 8 36.0807 8 25.7349C8 20.6935 10.0003 16.14 13.2535 12.7787C13.9782 12.0298 15.1665 12.0849 15.9034 12.8218L15.9685 12.8869C16.8062 13.7246 16.7252 15.0971 15.9298 15.975C13.5941 18.5533 12.1633 21.9741 12.1633 25.7349C12.1633 33.7909 18.6789 40.3064 26.7349 40.3064C34.7909 40.3064 41.3064 33.7909 41.3064 25.7349C41.3064 21.9795 39.8798 18.5632 37.5384 15.9979C36.7361 15.1188 36.6497 13.7383 37.4913 12.8967L37.5663 12.8218Z"/>
</mask>
<path fill-rule="evenodd" clip-rule="evenodd" d="M18 2C9.16344 2 2 9.16344 2 18V36C2 44.8366 9.16344 52 18 52H36C44.8366 52 52 44.8366 52 36V18C52 9.16344 44.8366 2 36 2H18ZM26.8165 9C27.9211 9 28.8165 9.89543 28.8165 11V27.8165C28.8165 28.9211 27.9211 29.8165 26.8165 29.8165H26.6532C25.5486 29.8165 24.6532 28.9211 24.6532 27.8165V11C24.6532 9.89543 25.5486 9 26.6532 9H26.8165ZM37.5663 12.8218C38.3032 12.0849 39.4915 12.0298 40.2163 12.7787C43.4694 16.14 45.4697 20.6935 45.4697 25.7349C45.4697 36.0807 37.0807 44.4697 26.7349 44.4697C16.3891 44.4697 8 36.0807 8 25.7349C8 20.6935 10.0003 16.14 13.2535 12.7787C13.9782 12.0298 15.1665 12.0849 15.9034 12.8218L15.9685 12.8869C16.8062 13.7246 16.7252 15.0971 15.9298 15.975C13.5941 18.5533 12.1633 21.9741 12.1633 25.7349C12.1633 33.7909 18.6789 40.3064 26.7349 40.3064C34.7909 40.3064 41.3064 33.7909 41.3064 25.7349C41.3064 21.9795 39.8798 18.5632 37.5384 15.9979C36.7361 15.1188 36.6497 13.7383 37.4913 12.8967L37.5663 12.8218Z" fill="white" fill-opacity="0.6" shape-rendering="crispEdges"/>
<path d="M40.2163 12.7787L39.4977 13.4741L39.4977 13.4741L40.2163 12.7787ZM37.5663 12.8218L36.8592 12.1147L36.8592 12.1147L37.5663 12.8218ZM13.2535 12.7787L13.972 13.4741L13.972 13.4741L13.2535 12.7787ZM15.9034 12.8218L16.6105 12.1147L16.6105 12.1147L15.9034 12.8218ZM15.9685 12.8869L16.6757 12.1798L16.6757 12.1798L15.9685 12.8869ZM15.9298 15.975L15.1887 15.3037L15.1887 15.3037L15.9298 15.975ZM37.5384 15.9979L38.277 15.3237L38.277 15.3237L37.5384 15.9979ZM37.4913 12.8967L38.1984 13.6039L38.1984 13.6038L37.4913 12.8967ZM3 18C3 9.71573 9.71573 3 18 3V1C8.61116 1 1 8.61116 1 18H3ZM3 36V18H1V36H3ZM18 51C9.71573 51 3 44.2843 3 36H1C1 45.3888 8.61116 53 18 53V51ZM36 51H18V53H36V51ZM51 36C51 44.2843 44.2843 51 36 51V53C45.3888 53 53 45.3888 53 36H51ZM51 18V36H53V18H51ZM36 3C44.2843 3 51 9.71573 51 18H53C53 8.61116 45.3888 1 36 1V3ZM18 3H36V1H18V3ZM29.8165 11C29.8165 9.34314 28.4734 8 26.8165 8V10C27.3688 10 27.8165 10.4477 27.8165 11H29.8165ZM29.8165 27.8165V11H27.8165V27.8165H29.8165ZM26.8165 30.8165C28.4734 30.8165 29.8165 29.4734 29.8165 27.8165H27.8165C27.8165 28.3688 27.3688 28.8165 26.8165 28.8165V30.8165ZM26.6532 30.8165H26.8165V28.8165H26.6532V30.8165ZM23.6532 27.8165C23.6532 29.4734 24.9964 30.8165 26.6532 30.8165V28.8165C26.1009 28.8165 25.6532 28.3688 25.6532 27.8165H23.6532ZM23.6532 11V27.8165H25.6532V11H23.6532ZM26.6532 8C24.9964 8 23.6532 9.34314 23.6532 11H25.6532C25.6532 10.4477 26.1009 10 26.6532 10V8ZM26.8165 8H26.6532V10H26.8165V8ZM40.9348 12.0832C39.7777 10.8876 37.9451 11.0288 36.8592 12.1147L38.2734 13.5289C38.6614 13.1409 39.2053 13.1721 39.4977 13.4741L40.9348 12.0832ZM46.4697 25.7349C46.4697 20.4222 44.3602 15.6224 40.9348 12.0832L39.4977 13.4741C42.5786 16.6575 44.4697 20.9647 44.4697 25.7349H46.4697ZM26.7349 45.4697C37.633 45.4697 46.4697 36.633 46.4697 25.7349H44.4697C44.4697 35.5284 36.5284 43.4697 26.7349 43.4697V45.4697ZM7 25.7349C7 36.633 15.8368 45.4697 26.7349 45.4697V43.4697C16.9413 43.4697 9 35.5284 9 25.7349H7ZM12.5349 12.0832C9.10953 15.6224 7 20.4222 7 25.7349H9C9 20.9647 10.8911 16.6575 13.972 13.4741L12.5349 12.0832ZM16.6105 12.1147C15.5247 11.0288 13.692 10.8876 12.5349 12.0832L13.972 13.4741C14.2644 13.1721 14.8084 13.1409 15.1963 13.5289L16.6105 12.1147ZM16.6757 12.1798L16.6105 12.1147L15.1963 13.5289L15.2614 13.594L16.6757 12.1798ZM16.6709 16.6464C17.7588 15.4455 17.9555 13.4596 16.6757 12.1798L15.2614 13.594C15.6569 13.9895 15.6915 14.7487 15.1887 15.3037L16.6709 16.6464ZM13.1633 25.7349C13.1633 22.233 14.4945 19.0489 16.6709 16.6464L15.1887 15.3037C12.6937 18.0578 11.1633 21.7152 11.1633 25.7349H13.1633ZM26.7349 39.3064C19.2312 39.3064 13.1633 33.2386 13.1633 25.7349H11.1633C11.1633 34.3431 18.1266 41.3064 26.7349 41.3064V39.3064ZM40.3064 25.7349C40.3064 33.2386 34.2386 39.3064 26.7349 39.3064V41.3064C35.3431 41.3064 42.3064 34.3431 42.3064 25.7349H40.3064ZM36.7998 16.672C38.979 19.0597 40.3064 22.2378 40.3064 25.7349H42.3064C42.3064 21.7212 40.7805 18.0667 38.277 15.3237L36.7998 16.672ZM36.7842 12.1896C35.498 13.4758 35.7042 15.4716 36.7998 16.672L38.277 15.3237C37.7679 14.766 37.8015 14.0008 38.1984 13.6039L36.7842 12.1896ZM36.8592 12.1147L36.7842 12.1896L38.1984 13.6038L38.2734 13.5289L36.8592 12.1147Z" fill="#FF0000" fill-opacity="0.65" mask="url(#path-1-inside-1_2021_1885)"/>
</g>
<defs>
<filter id="filter0_d_2021_1885" x="0" y="0" width="56" height="56" filterUnits="userSpaceOnUse" color-interpolation-filters="sRGB">
<feFlood flood-opacity="0" result="BackgroundImageFix"/>
<feColorMatrix in="SourceAlpha" type="matrix" values="0 0 0 0 0 0 0 0 0 0 0 0 0 0 0 0 0 0 127 0" result="hardAlpha"/>
<feOffset dx="1" dy="1"/>
<feGaussianBlur stdDeviation="1.5"/>
<feComposite in2="hardAlpha" operator="out"/>
<feColorMatrix type="matrix" values="0 0 0 0 0 0 0 0 0 0 0 0 0 0 0 0 0 0 0.15 0"/>
<feBlend mode="normal" in2="BackgroundImageFix" result="effect1_dropShadow_2021_1885"/>
<feBlend mode="normal" in="SourceGraphic" in2="effect1_dropShadow_2021_1885" result="shape"/>
</filter>
</defs>
</svg>
