<svg width="51" height="50" viewBox="0 0 51 50" fill="none" xmlns="http://www.w3.org/2000/svg">
<rect width="50" height="50" rx="16" fill="white" fill-opacity="0.6"/>
<rect x="0.5" y="0.5" width="49" height="49" rx="15.5" stroke="#FF0000" stroke-opacity="0.7"/>
<g filter="url(#filter0_d_1427:1899)">
<path d="M26.8165 9.08165C26.8165 7.93199 25.8845 7 24.7349 7C23.5852 7 22.6532 7.93199 22.6532 9.08165V25.7349C22.6532 26.8845 23.5852 27.8165 24.7349 27.8165C25.8845 27.8165 26.8165 26.8845 26.8165 25.7349V9.08165ZM38.2496 10.8132C37.508 10.043 36.2884 10.0996 35.5324 10.8557C34.6689 11.7192 34.7578 13.1355 35.5774 14.0408C37.8956 16.6013 39.3064 20.0004 39.3064 23.7349C39.3064 31.7909 32.7909 38.3064 24.7349 38.3064C16.6789 38.3064 10.1633 31.7909 10.1633 23.7349C10.1633 19.9922 11.5804 16.5863 13.8961 14.0123C14.7065 13.1117 14.7897 11.708 13.933 10.8514C13.1794 10.0978 11.9639 10.0413 11.2244 10.8088C7.98838 14.1671 6 18.7085 6 23.7349C6 34.0807 14.3891 42.4697 24.7349 42.4697C35.0807 42.4697 43.4697 34.0807 43.4697 23.7349C43.4697 18.7107 41.4831 14.1711 38.2496 10.8132Z" fill="#FC2929" fill-opacity="0.7"/>
<path d="M26.8165 9.08165C26.8165 7.93199 25.8845 7 24.7349 7C23.5852 7 22.6532 7.93199 22.6532 9.08165V25.7349C22.6532 26.8845 23.5852 27.8165 24.7349 27.8165C25.8845 27.8165 26.8165 26.8845 26.8165 25.7349V9.08165ZM38.2496 10.8132C37.508 10.043 36.2884 10.0996 35.5324 10.8557C34.6689 11.7192 34.7578 13.1355 35.5774 14.0408C37.8956 16.6013 39.3064 20.0004 39.3064 23.7349C39.3064 31.7909 32.7909 38.3064 24.7349 38.3064C16.6789 38.3064 10.1633 31.7909 10.1633 23.7349C10.1633 19.9922 11.5804 16.5863 13.8961 14.0123C14.7065 13.1117 14.7897 11.708 13.933 10.8514C13.1794 10.0978 11.9639 10.0413 11.2244 10.8088C7.98838 14.1671 6 18.7085 6 23.7349C6 34.0807 14.3891 42.4697 24.7349 42.4697C35.0807 42.4697 43.4697 34.0807 43.4697 23.7349C43.4697 18.7107 41.4831 14.1711 38.2496 10.8132Z" stroke="#FF0000" stroke-opacity="0.7"/>
</g>
<defs>
<filter id="filter0_d_1427:1899" x="4.5" y="5.5" width="46.4697" height="44.4697" filterUnits="userSpaceOnUse" color-interpolation-filters="sRGB">
<feFlood flood-opacity="0" result="BackgroundImageFix"/>
<feColorMatrix in="SourceAlpha" type="matrix" values="0 0 0 0 0 0 0 0 0 0 0 0 0 0 0 0 0 0 127 0" result="hardAlpha"/>
<feOffset dx="3" dy="3"/>
<feGaussianBlur stdDeviation="2"/>
<feColorMatrix type="matrix" values="0 0 0 0 0 0 0 0 0 0 0 0 0 0 0 0 0 0 0.05 0"/>
<feBlend mode="normal" in2="BackgroundImageFix" result="effect1_dropShadow_1427:1899"/>
<feBlend mode="normal" in="SourceGraphic" in2="effect1_dropShadow_1427:1899" result="shape"/>
</filter>
</defs>
</svg>
