<svg width="58" height="58" viewBox="0 0 58 58" fill="none" xmlns="http://www.w3.org/2000/svg">
<g filter="url(#filter0_d_1708:1912)">
<rect x="1" y="1" width="50" height="50" rx="16" fill="white" fill-opacity="0.6"/>
<rect x="1.5" y="1.5" width="49" height="49" rx="15.5" stroke="#2B7D2B" stroke-opacity="0.65"/>
</g>
<g filter="url(#filter1_d_1708:1912)">
<path d="M27.8165 10.0817C27.8165 8.93199 26.8845 8 25.7349 8C24.5852 8 23.6532 8.93199 23.6532 10.0817V26.7349C23.6532 27.8845 24.5852 28.8165 25.7349 28.8165C26.8845 28.8165 27.8165 27.8845 27.8165 26.7349V10.0817ZM39.2496 11.8132C38.508 11.043 37.2884 11.0996 36.5324 11.8557C35.6689 12.7192 35.7578 14.1355 36.5774 15.0408C38.8956 17.6013 40.3064 21.0004 40.3064 24.7349C40.3064 32.7909 33.7909 39.3064 25.7349 39.3064C17.6789 39.3064 11.1633 32.7909 11.1633 24.7349C11.1633 20.9922 12.5804 17.5863 14.8961 15.0123C15.7065 14.1117 15.7897 12.708 14.933 11.8514C14.1794 11.0978 12.9639 11.0413 12.2244 11.8088C8.98838 15.1671 7 19.7085 7 24.7349C7 35.0807 15.3891 43.4697 25.7349 43.4697C36.0807 43.4697 44.4697 35.0807 44.4697 24.7349C44.4697 19.7107 42.4831 15.1711 39.2496 11.8132Z" fill="#2B7D2B" fill-opacity="0.7"/>
<path d="M27.8165 10.0817C27.8165 8.93199 26.8845 8 25.7349 8C24.5852 8 23.6532 8.93199 23.6532 10.0817V26.7349C23.6532 27.8845 24.5852 28.8165 25.7349 28.8165C26.8845 28.8165 27.8165 27.8845 27.8165 26.7349V10.0817ZM39.2496 11.8132C38.508 11.043 37.2884 11.0996 36.5324 11.8557C35.6689 12.7192 35.7578 14.1355 36.5774 15.0408C38.8956 17.6013 40.3064 21.0004 40.3064 24.7349C40.3064 32.7909 33.7909 39.3064 25.7349 39.3064C17.6789 39.3064 11.1633 32.7909 11.1633 24.7349C11.1633 20.9922 12.5804 17.5863 14.8961 15.0123C15.7065 14.1117 15.7897 12.708 14.933 11.8514C14.1794 11.0978 12.9639 11.0413 12.2244 11.8088C8.98838 15.1671 7 19.7085 7 24.7349C7 35.0807 15.3891 43.4697 25.7349 43.4697C36.0807 43.4697 44.4697 35.0807 44.4697 24.7349C44.4697 19.7107 42.4831 15.1711 39.2496 11.8132Z" stroke="#2B7D2B" stroke-opacity="0.8"/>
</g>
<defs>
<filter id="filter0_d_1708:1912" x="0" y="0" width="58" height="58" filterUnits="userSpaceOnUse" color-interpolation-filters="sRGB">
<feFlood flood-opacity="0" result="BackgroundImageFix"/>
<feColorMatrix in="SourceAlpha" type="matrix" values="0 0 0 0 0 0 0 0 0 0 0 0 0 0 0 0 0 0 127 0" result="hardAlpha"/>
<feOffset dx="3" dy="3"/>
<feGaussianBlur stdDeviation="2"/>
<feColorMatrix type="matrix" values="0 0 0 0 0 0 0 0 0 0 0 0 0 0 0 0 0 0 0.05 0"/>
<feBlend mode="normal" in2="BackgroundImageFix" result="effect1_dropShadow_1708:1912"/>
<feBlend mode="normal" in="SourceGraphic" in2="effect1_dropShadow_1708:1912" result="shape"/>
</filter>
<filter id="filter1_d_1708:1912" x="5.5" y="6.5" width="46.4697" height="44.4697" filterUnits="userSpaceOnUse" color-interpolation-filters="sRGB">
<feFlood flood-opacity="0" result="BackgroundImageFix"/>
<feColorMatrix in="SourceAlpha" type="matrix" values="0 0 0 0 0 0 0 0 0 0 0 0 0 0 0 0 0 0 127 0" result="hardAlpha"/>
<feOffset dx="3" dy="3"/>
<feGaussianBlur stdDeviation="2"/>
<feColorMatrix type="matrix" values="0 0 0 0 0 0 0 0 0 0 0 0 0 0 0 0 0 0 0.05 0"/>
<feBlend mode="normal" in2="BackgroundImageFix" result="effect1_dropShadow_1708:1912"/>
<feBlend mode="normal" in="SourceGraphic" in2="effect1_dropShadow_1708:1912" result="shape"/>
</filter>
</defs>
</svg>
