<svg width="56" height="56" viewBox="0 0 56 56" fill="none" xmlns="http://www.w3.org/2000/svg">
  <g filter="url(#filter0_d_2021_1867)">
    <mask id="path-1-inside-1_2021_1867" fill="white">
      <path
        d="M30.9782 39.5933C30.4448 39.8236 29.0538 40.126 28.0231 40.2483C27.2808 40.3275 25.5942 40.3275 24.8591 40.2411C24.0807 40.1548 22.8914 39.8956 22.1851 39.6581C21.3851 39.3918 20.8517 39.1686 20.8517 39.0966C20.8517 39.0534 21.3635 38.1537 22.7977 35.6776C23.2374 34.9074 23.8068 33.9284 24.1527 33.3382C24.369 32.9639 24.6284 32.5176 24.7221 32.3593C24.8205 32.1841 25.0222 32.0942 25.2182 32.1381L25.3059 32.1577C25.8249 32.2801 27.0213 32.2873 27.6051 32.1649C27.8759 32.1048 28.1547 32.2257 28.296 32.4645L28.3403 32.5392C28.4044 32.6491 28.4764 32.7719 28.544 32.8873C28.6359 33.0442 28.7198 33.1874 28.7655 33.2662C29.1691 33.9788 30.4448 36.1886 31.3386 37.729L31.3796 37.7995C32.1316 39.0897 32.1364 39.098 32.0161 39.1758C31.9584 39.2118 31.735 39.3054 31.5187 39.3846C31.3025 39.4637 31.0575 39.5573 30.9782 39.5933Z"/>
      <path
        d="M20.7652 33.5542C20.5346 33.9644 19.0571 36.5269 18.6751 37.1748C18.5165 37.4411 18.358 37.657 18.3219 37.657C18.2138 37.657 17.2192 36.8149 16.693 36.2822C15.8281 35.3969 15.6047 35.1305 15.057 34.3099C14.0407 32.7984 13.392 31.3659 13.0317 29.8832C12.8947 29.2929 12.7722 28.6019 12.7578 28.2852C12.7499 28.0768 12.9165 27.9034 13.1251 27.903L16.7507 27.8965C18.9562 27.8893 20.7869 27.9037 20.8301 27.9325C20.8661 27.9541 20.9382 28.1196 20.9887 28.2996C21.1761 28.9474 21.731 29.8832 22.2356 30.4302C22.3639 30.5669 22.3874 30.7716 22.2933 30.9339L21.8968 31.6179C21.5869 32.1505 21.2481 32.7264 21.14 32.9063C21.0319 33.0863 20.8589 33.3742 20.7652 33.5542Z"/>
      <path
        d="M36.9892 35.512C36.4486 36.131 35.3531 37.146 34.8558 37.4987C34.7333 37.585 34.6107 37.657 34.5891 37.657C34.5675 37.657 34.4233 37.4411 34.272 37.1748C33.2053 35.3393 32.9386 34.8786 32.5999 34.274C32.521 34.1375 32.4307 33.9799 32.3396 33.8212C32.1811 33.5447 32.0205 33.2646 31.9151 33.0863C31.6196 32.5968 31.3169 32.0714 31.0863 31.6683C31.0286 31.5603 30.8701 31.2868 30.7403 31.0708C30.6017 30.8329 30.626 30.5339 30.8012 30.3214L30.9133 30.1855C31.3241 29.6888 32.0233 28.386 32.0233 28.1052C32.0233 27.9757 32.0737 27.9397 32.3332 27.9037C32.499 27.8821 34.3441 27.8749 36.4342 27.8821L40.0814 27.9028C40.169 27.9033 40.2397 27.9744 40.2397 28.0621C40.2397 28.3068 39.9587 29.7176 39.8001 30.279C39.2812 32.1001 38.1928 34.13 36.9892 35.512Z"/>
      <path
        d="M28.5853 28.5803C28.1168 29.0698 27.5835 29.3433 26.9276 29.4513C26.4591 29.5304 26.4375 29.5305 25.9114 29.4441C25.0681 29.3001 24.196 28.6307 23.7852 27.8029C23.5689 27.3566 23.5545 27.2919 23.5545 26.5001C23.5545 25.7515 23.5761 25.6291 23.7491 25.262C23.9221 24.8877 24.1816 24.5422 24.5636 24.1823C24.8374 23.9232 25.5654 23.6137 26.0411 23.5633C28.1096 23.3257 29.6953 24.9165 29.4142 26.9464C29.3277 27.5726 29.0754 28.0764 28.5853 28.5803Z"/>
      <path
        d="M20.9887 24.7006C20.9382 24.8805 20.8589 25.0461 20.8157 25.0821C20.7797 25.1109 18.949 25.1253 16.7507 25.1181C13.6947 25.1037 12.7506 25.0749 12.729 25.0101C12.6136 24.715 13.1902 22.354 13.6587 21.2239C14.0695 20.2234 15.2588 18.2511 15.8209 17.6393C15.9507 17.5025 16.1597 17.2722 16.275 17.1354C16.9453 16.3796 18.2859 15.2711 18.4012 15.3863C18.4733 15.4583 19.4247 17.0922 20.2607 18.5822C20.5562 19.1149 20.8229 19.5684 20.8445 19.59C20.8661 19.6116 20.9382 19.7267 21.0031 19.8419C21.068 19.9643 21.4139 20.5689 21.7815 21.1879L22.1286 21.7796C22.3184 22.1031 22.2863 22.5106 22.0482 22.8003C21.6157 23.3185 21.14 24.1823 20.9887 24.7006Z"/>
      <path
        d="M39.3965 21.5118C39.7568 22.426 40.2397 24.3911 40.2397 24.9597C40.2397 25.051 40.1655 25.125 40.0742 25.1247L36.1964 25.1109C33.9765 25.1037 32.1314 25.0821 32.1025 25.0605C32.0737 25.0389 32.0088 24.8805 31.9584 24.7006C31.8287 24.2399 31.3241 23.297 31.0647 23.0234C30.9494 22.8939 30.7692 22.6851 30.6683 22.5628C30.4953 22.3324 30.4953 22.3252 30.625 22.1309C30.6971 22.0157 30.8052 21.8358 30.8701 21.7134C31.0791 21.3319 32.1314 19.5108 32.7224 18.5247C32.8882 18.2367 33.0323 17.9848 33.0323 17.9704C33.0323 17.9488 33.126 17.7833 33.2413 17.5961C33.5224 17.1354 33.7747 16.6964 34.0774 16.1349C34.2215 15.8758 34.3945 15.5879 34.4666 15.4871C34.5441 15.3893 34.6834 15.3669 34.7877 15.4355L34.9207 15.5231C35.3819 15.8398 37.1477 17.6177 37.4865 18.1144C37.5295 18.176 37.5788 18.2468 37.631 18.3218C37.7801 18.5359 37.9529 18.7841 38.0703 18.9493C38.4379 19.4676 39.0865 20.7201 39.3965 21.5118Z"/>
      <path
        d="M27.6051 20.8424C27.3601 20.792 26.8483 20.7488 26.4735 20.7488C26.0987 20.7488 25.587 20.792 25.342 20.8424C25.0712 20.8982 24.7954 20.7733 24.6587 20.533L24.5564 20.353C24.4627 20.1946 24.3383 19.9841 24.214 19.7735C24.0897 19.563 23.9653 19.3524 23.8716 19.1941C23.6843 18.8774 23.086 17.8408 22.5455 16.8907C21.9977 15.9406 21.4139 14.94 21.2481 14.6593C20.9813 14.2204 20.8576 14.029 20.9061 13.905C20.9468 13.8013 21.1079 13.7448 21.4067 13.63C24.1888 12.5647 27.1222 12.3919 29.9331 13.1117C31.0214 13.3925 32.0953 13.7955 32.0953 13.9179C32.0953 13.9539 31.8719 14.3642 31.598 14.8249L31.5124 14.9727C31.2074 15.4995 30.618 16.5176 30.1349 17.3586C29.9337 17.7041 29.7376 18.0427 29.5661 18.3387C29.2767 18.8381 29.0576 19.2162 29.0033 19.302C28.9241 19.4388 28.7943 19.6691 28.7223 19.8059C28.5493 20.1154 28.4195 20.3458 28.2177 20.6769C28.1226 20.8324 27.9402 20.9115 27.7616 20.8747L27.6051 20.8424Z"/>
      <path fill-rule="evenodd" clip-rule="evenodd"
            d="M17 2C8.71573 2 2 8.71573 2 17V37C2 45.2843 8.71573 52 17 52H37C45.2843 52 52 45.2843 52 37V17C52 8.71573 45.2843 2 37 2H17ZM15.8281 44.5959C17.3201 45.4885 19.3238 46.3235 20.9959 46.7625L21.5634 46.9076C21.7489 46.9551 21.9384 46.846 21.9905 46.6618C22.5599 44.6535 23.9437 43.3867 25.8681 43.1203C28.2105 42.7892 30.3728 44.3008 30.9494 46.6618C30.9928 46.8472 31.1805 46.9604 31.3649 46.9123L31.8287 46.7913C33.3999 46.3811 34.827 45.834 36.1675 45.1214C36.6384 44.876 36.7474 44.8114 37.345 44.457L37.4505 44.3944L37.5899 44.3114C37.6968 44.2478 37.7257 44.1061 37.6523 44.0057C37.1333 43.2643 36.9027 42.4797 36.8955 41.436C36.8883 40.1763 37.2703 39.219 38.1424 38.312C38.719 37.7074 39.2451 37.3619 40.0019 37.1028C40.492 36.93 40.6722 36.9084 41.429 36.9084C42.402 36.9084 42.8272 37.0164 43.6993 37.4915C44.0401 37.6706 44.3419 37.5674 44.5345 37.234C44.8178 36.7439 45.214 36.0015 45.4579 35.4904C46.0273 34.3099 46.4309 33.2014 46.7553 31.9778L46.8843 31.4887C46.9484 31.2461 46.8033 30.9976 46.5607 30.9341C46.4768 30.9119 46.3937 30.8897 46.3193 30.8698C46.1764 30.8317 46.0654 30.802 46.0417 30.7973C45.7174 30.7253 44.8597 30.1711 44.4705 29.7824C42.6614 28.0045 42.5894 25.154 44.3119 23.3833C45.0399 22.6347 45.7895 22.2172 46.7769 22.0085C46.8989 21.981 46.9736 21.8576 46.9415 21.7367L46.7481 21.008C46.2652 19.1725 45.4147 17.2074 44.3552 15.4727C44.2675 15.3294 44.0805 15.2839 43.9367 15.3709L43.7209 15.5015C43.0146 15.9262 42.3876 16.0917 41.429 16.0917C40.7659 16.0917 40.5352 16.0629 40.0235 15.9046C38.6325 15.4583 37.5081 14.2994 37.0468 12.8382C36.9315 12.4711 36.8955 12.1688 36.8955 11.5642C36.8955 10.6284 37.0685 9.96619 37.5009 9.25359C37.782 8.79291 37.782 8.74253 37.5009 8.62736C37.4433 8.59857 37.2342 8.4834 37.0324 8.36103C35.5045 7.45408 33.6521 6.69109 31.807 6.20162L31.2004 6.0474C31.0982 6.02143 30.9947 6.08454 30.971 6.18723C30.7331 7.25254 30.3728 7.92915 29.7025 8.59137C28.261 10.0094 26.2285 10.3333 24.405 9.43354C23.3239 8.90088 22.5383 7.96514 22.1275 6.73428C21.9995 6.33591 21.9403 6.1475 21.8176 6.08606C21.7052 6.02982 21.5396 6.07995 21.2193 6.17283C19.2084 6.74867 17.4931 7.44688 16.0372 8.29625C15.6119 8.54098 15.2516 8.74973 15.2371 8.76412C15.2155 8.78572 15.338 9.04484 15.4966 9.35436C15.857 10.031 16.0155 10.5636 16.0732 11.2978C16.2174 13.2341 14.8551 15.2855 13.0317 15.8686C11.6911 16.3005 10.5451 16.1925 9.30542 15.5375C8.9955 15.3791 8.73603 15.2567 8.72162 15.2783C8.318 15.8398 7.33779 17.7473 7.01346 18.5822C6.88372 18.9205 6.73957 19.2948 6.68912 19.41C6.54497 19.7483 6.38641 20.2738 6.15577 21.1519C6.02259 21.6674 5.9591 21.8611 6.02915 21.9523C6.08041 22.019 6.20317 22.0307 6.42245 22.0733C6.55218 22.1021 6.84768 22.2029 7.08553 22.2964C8.41891 22.8363 9.48561 24.1319 9.78832 25.5715C10.1991 27.5006 9.26938 29.5233 7.54681 30.4662C7.22968 30.6389 6.94859 30.7901 6.90534 30.7973C6.30155 30.9243 6.02804 31.3721 6.19097 31.9672C6.39841 32.7248 6.74473 33.7882 7.02787 34.4755C7.46032 35.5408 8.63513 37.7218 8.77207 37.729C8.80811 37.729 8.9955 37.6282 9.1901 37.5131C9.99013 37.0164 11.3595 36.7573 12.2388 36.93C13.3488 37.1532 14.0191 37.5131 14.7759 38.2833C15.9795 39.5141 16.3831 41.2345 15.8426 42.8612C15.7417 43.1707 15.5471 43.6026 15.4101 43.8113C15.2758 44.0245 15.3433 44.3064 15.5596 44.4356L15.8281 44.5959Z"/>
    </mask>
    <path
      d="M30.9782 39.5933C30.4448 39.8236 29.0538 40.126 28.0231 40.2483C27.2808 40.3275 25.5942 40.3275 24.8591 40.2411C24.0807 40.1548 22.8914 39.8956 22.1851 39.6581C21.3851 39.3918 20.8517 39.1686 20.8517 39.0966C20.8517 39.0534 21.3635 38.1537 22.7977 35.6776C23.2374 34.9074 23.8068 33.9284 24.1527 33.3382C24.369 32.9639 24.6284 32.5176 24.7221 32.3593C24.8205 32.1841 25.0222 32.0942 25.2182 32.1381L25.3059 32.1577C25.8249 32.2801 27.0213 32.2873 27.6051 32.1649C27.8759 32.1048 28.1547 32.2257 28.296 32.4645L28.3403 32.5392C28.4044 32.6491 28.4764 32.7719 28.544 32.8873C28.6359 33.0442 28.7198 33.1874 28.7655 33.2662C29.1691 33.9788 30.4448 36.1886 31.3386 37.729L31.3796 37.7995C32.1316 39.0897 32.1364 39.098 32.0161 39.1758C31.9584 39.2118 31.735 39.3054 31.5187 39.3846C31.3025 39.4637 31.0575 39.5573 30.9782 39.5933Z"
      fill="white" fill-opacity="0.6" shape-rendering="crispEdges"/>
    <path
      d="M20.7652 33.5542C20.5346 33.9644 19.0571 36.5269 18.6751 37.1748C18.5165 37.4411 18.358 37.657 18.3219 37.657C18.2138 37.657 17.2192 36.8149 16.693 36.2822C15.8281 35.3969 15.6047 35.1305 15.057 34.3099C14.0407 32.7984 13.392 31.3659 13.0317 29.8832C12.8947 29.2929 12.7722 28.6019 12.7578 28.2852C12.7499 28.0768 12.9165 27.9034 13.1251 27.903L16.7507 27.8965C18.9562 27.8893 20.7869 27.9037 20.8301 27.9325C20.8661 27.9541 20.9382 28.1196 20.9887 28.2996C21.1761 28.9474 21.731 29.8832 22.2356 30.4302C22.3639 30.5669 22.3874 30.7716 22.2933 30.9339L21.8968 31.6179C21.5869 32.1505 21.2481 32.7264 21.14 32.9063C21.0319 33.0863 20.8589 33.3742 20.7652 33.5542Z"
      fill="white" fill-opacity="0.6" shape-rendering="crispEdges"/>
    <path
      d="M36.9892 35.512C36.4486 36.131 35.3531 37.146 34.8558 37.4987C34.7333 37.585 34.6107 37.657 34.5891 37.657C34.5675 37.657 34.4233 37.4411 34.272 37.1748C33.2053 35.3393 32.9386 34.8786 32.5999 34.274C32.521 34.1375 32.4307 33.9799 32.3396 33.8212C32.1811 33.5447 32.0205 33.2646 31.9151 33.0863C31.6196 32.5968 31.3169 32.0714 31.0863 31.6683C31.0286 31.5603 30.8701 31.2868 30.7403 31.0708C30.6017 30.8329 30.626 30.5339 30.8012 30.3214L30.9133 30.1855C31.3241 29.6888 32.0233 28.386 32.0233 28.1052C32.0233 27.9757 32.0737 27.9397 32.3332 27.9037C32.499 27.8821 34.3441 27.8749 36.4342 27.8821L40.0814 27.9028C40.169 27.9033 40.2397 27.9744 40.2397 28.0621C40.2397 28.3068 39.9587 29.7176 39.8001 30.279C39.2812 32.1001 38.1928 34.13 36.9892 35.512Z"
      fill="white" fill-opacity="0.6" shape-rendering="crispEdges"/>
    <path
      d="M28.5853 28.5803C28.1168 29.0698 27.5835 29.3433 26.9276 29.4513C26.4591 29.5304 26.4375 29.5305 25.9114 29.4441C25.0681 29.3001 24.196 28.6307 23.7852 27.8029C23.5689 27.3566 23.5545 27.2919 23.5545 26.5001C23.5545 25.7515 23.5761 25.6291 23.7491 25.262C23.9221 24.8877 24.1816 24.5422 24.5636 24.1823C24.8374 23.9232 25.5654 23.6137 26.0411 23.5633C28.1096 23.3257 29.6953 24.9165 29.4142 26.9464C29.3277 27.5726 29.0754 28.0764 28.5853 28.5803Z"
      fill="white" fill-opacity="0.6" shape-rendering="crispEdges"/>
    <path
      d="M20.9887 24.7006C20.9382 24.8805 20.8589 25.0461 20.8157 25.0821C20.7797 25.1109 18.949 25.1253 16.7507 25.1181C13.6947 25.1037 12.7506 25.0749 12.729 25.0101C12.6136 24.715 13.1902 22.354 13.6587 21.2239C14.0695 20.2234 15.2588 18.2511 15.8209 17.6393C15.9507 17.5025 16.1597 17.2722 16.275 17.1354C16.9453 16.3796 18.2859 15.2711 18.4012 15.3863C18.4733 15.4583 19.4247 17.0922 20.2607 18.5822C20.5562 19.1149 20.8229 19.5684 20.8445 19.59C20.8661 19.6116 20.9382 19.7267 21.0031 19.8419C21.068 19.9643 21.4139 20.5689 21.7815 21.1879L22.1286 21.7796C22.3184 22.1031 22.2863 22.5106 22.0482 22.8003C21.6157 23.3185 21.14 24.1823 20.9887 24.7006Z"
      fill="white" fill-opacity="0.6" shape-rendering="crispEdges"/>
    <path
      d="M39.3965 21.5118C39.7568 22.426 40.2397 24.3911 40.2397 24.9597C40.2397 25.051 40.1655 25.125 40.0742 25.1247L36.1964 25.1109C33.9765 25.1037 32.1314 25.0821 32.1025 25.0605C32.0737 25.0389 32.0088 24.8805 31.9584 24.7006C31.8287 24.2399 31.3241 23.297 31.0647 23.0234C30.9494 22.8939 30.7692 22.6851 30.6683 22.5628C30.4953 22.3324 30.4953 22.3252 30.625 22.1309C30.6971 22.0157 30.8052 21.8358 30.8701 21.7134C31.0791 21.3319 32.1314 19.5108 32.7224 18.5247C32.8882 18.2367 33.0323 17.9848 33.0323 17.9704C33.0323 17.9488 33.126 17.7833 33.2413 17.5961C33.5224 17.1354 33.7747 16.6964 34.0774 16.1349C34.2215 15.8758 34.3945 15.5879 34.4666 15.4871C34.5441 15.3893 34.6834 15.3669 34.7877 15.4355L34.9207 15.5231C35.3819 15.8398 37.1477 17.6177 37.4865 18.1144C37.5295 18.176 37.5788 18.2468 37.631 18.3218C37.7801 18.5359 37.9529 18.7841 38.0703 18.9493C38.4379 19.4676 39.0865 20.7201 39.3965 21.5118Z"
      fill="white" fill-opacity="0.6" shape-rendering="crispEdges"/>
    <path
      d="M27.6051 20.8424C27.3601 20.792 26.8483 20.7488 26.4735 20.7488C26.0987 20.7488 25.587 20.792 25.342 20.8424C25.0712 20.8982 24.7954 20.7733 24.6587 20.533L24.5564 20.353C24.4627 20.1946 24.3383 19.9841 24.214 19.7735C24.0897 19.563 23.9653 19.3524 23.8716 19.1941C23.6843 18.8774 23.086 17.8408 22.5455 16.8907C21.9977 15.9406 21.4139 14.94 21.2481 14.6593C20.9813 14.2204 20.8576 14.029 20.9061 13.905C20.9468 13.8013 21.1079 13.7448 21.4067 13.63C24.1888 12.5647 27.1222 12.3919 29.9331 13.1117C31.0214 13.3925 32.0953 13.7955 32.0953 13.9179C32.0953 13.9539 31.8719 14.3642 31.598 14.8249L31.5124 14.9727C31.2074 15.4995 30.618 16.5176 30.1349 17.3586C29.9337 17.7041 29.7376 18.0427 29.5661 18.3387C29.2767 18.8381 29.0576 19.2162 29.0033 19.302C28.9241 19.4388 28.7943 19.6691 28.7223 19.8059C28.5493 20.1154 28.4195 20.3458 28.2177 20.6769C28.1226 20.8324 27.9402 20.9115 27.7616 20.8747L27.6051 20.8424Z"
      fill="white" fill-opacity="0.6" shape-rendering="crispEdges"/>
    <path fill-rule="evenodd" clip-rule="evenodd"
          d="M17 2C8.71573 2 2 8.71573 2 17V37C2 45.2843 8.71573 52 17 52H37C45.2843 52 52 45.2843 52 37V17C52 8.71573 45.2843 2 37 2H17ZM15.8281 44.5959C17.3201 45.4885 19.3238 46.3235 20.9959 46.7625L21.5634 46.9076C21.7489 46.9551 21.9384 46.846 21.9905 46.6618C22.5599 44.6535 23.9437 43.3867 25.8681 43.1203C28.2105 42.7892 30.3728 44.3008 30.9494 46.6618C30.9928 46.8472 31.1805 46.9604 31.3649 46.9123L31.8287 46.7913C33.3999 46.3811 34.827 45.834 36.1675 45.1214C36.6384 44.876 36.7474 44.8114 37.345 44.457L37.4505 44.3944L37.5899 44.3114C37.6968 44.2478 37.7257 44.1061 37.6523 44.0057C37.1333 43.2643 36.9027 42.4797 36.8955 41.436C36.8883 40.1763 37.2703 39.219 38.1424 38.312C38.719 37.7074 39.2451 37.3619 40.0019 37.1028C40.492 36.93 40.6722 36.9084 41.429 36.9084C42.402 36.9084 42.8272 37.0164 43.6993 37.4915C44.0401 37.6706 44.3419 37.5674 44.5345 37.234C44.8178 36.7439 45.214 36.0015 45.4579 35.4904C46.0273 34.3099 46.4309 33.2014 46.7553 31.9778L46.8843 31.4887C46.9484 31.2461 46.8033 30.9976 46.5607 30.9341C46.4768 30.9119 46.3937 30.8897 46.3193 30.8698C46.1764 30.8317 46.0654 30.802 46.0417 30.7973C45.7174 30.7253 44.8597 30.1711 44.4705 29.7824C42.6614 28.0045 42.5894 25.154 44.3119 23.3833C45.0399 22.6347 45.7895 22.2172 46.7769 22.0085C46.8989 21.981 46.9736 21.8576 46.9415 21.7367L46.7481 21.008C46.2652 19.1725 45.4147 17.2074 44.3552 15.4727C44.2675 15.3294 44.0805 15.2839 43.9367 15.3709L43.7209 15.5015C43.0146 15.9262 42.3876 16.0917 41.429 16.0917C40.7659 16.0917 40.5352 16.0629 40.0235 15.9046C38.6325 15.4583 37.5081 14.2994 37.0468 12.8382C36.9315 12.4711 36.8955 12.1688 36.8955 11.5642C36.8955 10.6284 37.0685 9.96619 37.5009 9.25359C37.782 8.79291 37.782 8.74253 37.5009 8.62736C37.4433 8.59857 37.2342 8.4834 37.0324 8.36103C35.5045 7.45408 33.6521 6.69109 31.807 6.20162L31.2004 6.0474C31.0982 6.02143 30.9947 6.08454 30.971 6.18723C30.7331 7.25254 30.3728 7.92915 29.7025 8.59137C28.261 10.0094 26.2285 10.3333 24.405 9.43354C23.3239 8.90088 22.5383 7.96514 22.1275 6.73428C21.9995 6.33591 21.9403 6.1475 21.8176 6.08606C21.7052 6.02982 21.5396 6.07995 21.2193 6.17283C19.2084 6.74867 17.4931 7.44688 16.0372 8.29625C15.6119 8.54098 15.2516 8.74973 15.2371 8.76412C15.2155 8.78572 15.338 9.04484 15.4966 9.35436C15.857 10.031 16.0155 10.5636 16.0732 11.2978C16.2174 13.2341 14.8551 15.2855 13.0317 15.8686C11.6911 16.3005 10.5451 16.1925 9.30542 15.5375C8.9955 15.3791 8.73603 15.2567 8.72162 15.2783C8.318 15.8398 7.33779 17.7473 7.01346 18.5822C6.88372 18.9205 6.73957 19.2948 6.68912 19.41C6.54497 19.7483 6.38641 20.2738 6.15577 21.1519C6.02259 21.6674 5.9591 21.8611 6.02915 21.9523C6.08041 22.019 6.20317 22.0307 6.42245 22.0733C6.55218 22.1021 6.84768 22.2029 7.08553 22.2964C8.41891 22.8363 9.48561 24.1319 9.78832 25.5715C10.1991 27.5006 9.26938 29.5233 7.54681 30.4662C7.22968 30.6389 6.94859 30.7901 6.90534 30.7973C6.30155 30.9243 6.02804 31.3721 6.19097 31.9672C6.39841 32.7248 6.74473 33.7882 7.02787 34.4755C7.46032 35.5408 8.63513 37.7218 8.77207 37.729C8.80811 37.729 8.9955 37.6282 9.1901 37.5131C9.99013 37.0164 11.3595 36.7573 12.2388 36.93C13.3488 37.1532 14.0191 37.5131 14.7759 38.2833C15.9795 39.5141 16.3831 41.2345 15.8426 42.8612C15.7417 43.1707 15.5471 43.6026 15.4101 43.8113C15.2758 44.0245 15.3433 44.3064 15.5596 44.4356L15.8281 44.5959Z"
          fill="white" fill-opacity="0.6" shape-rendering="crispEdges"/>
    <path
      d="M30.9782 39.5933C30.4448 39.8236 29.0538 40.126 28.0231 40.2483C27.2808 40.3275 25.5942 40.3275 24.8591 40.2411C24.0807 40.1548 22.8914 39.8956 22.1851 39.6581C21.3851 39.3918 20.8517 39.1686 20.8517 39.0966C20.8517 39.0534 21.3635 38.1537 22.7977 35.6776C23.2374 34.9074 23.8068 33.9284 24.1527 33.3382C24.369 32.9639 24.6284 32.5176 24.7221 32.3593C24.8205 32.1841 25.0222 32.0942 25.2182 32.1381L25.3059 32.1577C25.8249 32.2801 27.0213 32.2873 27.6051 32.1649C27.8759 32.1048 28.1547 32.2257 28.296 32.4645L28.3403 32.5392C28.4044 32.6491 28.4764 32.7719 28.544 32.8873C28.6359 33.0442 28.7198 33.1874 28.7655 33.2662C29.1691 33.9788 30.4448 36.1886 31.3386 37.729L31.3796 37.7995C32.1316 39.0897 32.1364 39.098 32.0161 39.1758C31.9584 39.2118 31.735 39.3054 31.5187 39.3846C31.3025 39.4637 31.0575 39.5573 30.9782 39.5933Z"
      stroke="black" stroke-opacity="0.2" stroke-width="2" shape-rendering="crispEdges"
      mask="url(#path-1-inside-1_2021_1867)"/>
    <path
      d="M20.7652 33.5542C20.5346 33.9644 19.0571 36.5269 18.6751 37.1748C18.5165 37.4411 18.358 37.657 18.3219 37.657C18.2138 37.657 17.2192 36.8149 16.693 36.2822C15.8281 35.3969 15.6047 35.1305 15.057 34.3099C14.0407 32.7984 13.392 31.3659 13.0317 29.8832C12.8947 29.2929 12.7722 28.6019 12.7578 28.2852C12.7499 28.0768 12.9165 27.9034 13.1251 27.903L16.7507 27.8965C18.9562 27.8893 20.7869 27.9037 20.8301 27.9325C20.8661 27.9541 20.9382 28.1196 20.9887 28.2996C21.1761 28.9474 21.731 29.8832 22.2356 30.4302C22.3639 30.5669 22.3874 30.7716 22.2933 30.9339L21.8968 31.6179C21.5869 32.1505 21.2481 32.7264 21.14 32.9063C21.0319 33.0863 20.8589 33.3742 20.7652 33.5542Z"
      stroke="black" stroke-opacity="0.2" stroke-width="2" shape-rendering="crispEdges"
      mask="url(#path-1-inside-1_2021_1867)"/>
    <path
      d="M36.9892 35.512C36.4486 36.131 35.3531 37.146 34.8558 37.4987C34.7333 37.585 34.6107 37.657 34.5891 37.657C34.5675 37.657 34.4233 37.4411 34.272 37.1748C33.2053 35.3393 32.9386 34.8786 32.5999 34.274C32.521 34.1375 32.4307 33.9799 32.3396 33.8212C32.1811 33.5447 32.0205 33.2646 31.9151 33.0863C31.6196 32.5968 31.3169 32.0714 31.0863 31.6683C31.0286 31.5603 30.8701 31.2868 30.7403 31.0708C30.6017 30.8329 30.626 30.5339 30.8012 30.3214L30.9133 30.1855C31.3241 29.6888 32.0233 28.386 32.0233 28.1052C32.0233 27.9757 32.0737 27.9397 32.3332 27.9037C32.499 27.8821 34.3441 27.8749 36.4342 27.8821L40.0814 27.9028C40.169 27.9033 40.2397 27.9744 40.2397 28.0621C40.2397 28.3068 39.9587 29.7176 39.8001 30.279C39.2812 32.1001 38.1928 34.13 36.9892 35.512Z"
      stroke="black" stroke-opacity="0.2" stroke-width="2" shape-rendering="crispEdges"
      mask="url(#path-1-inside-1_2021_1867)"/>
    <path
      d="M28.5853 28.5803C28.1168 29.0698 27.5835 29.3433 26.9276 29.4513C26.4591 29.5304 26.4375 29.5305 25.9114 29.4441C25.0681 29.3001 24.196 28.6307 23.7852 27.8029C23.5689 27.3566 23.5545 27.2919 23.5545 26.5001C23.5545 25.7515 23.5761 25.6291 23.7491 25.262C23.9221 24.8877 24.1816 24.5422 24.5636 24.1823C24.8374 23.9232 25.5654 23.6137 26.0411 23.5633C28.1096 23.3257 29.6953 24.9165 29.4142 26.9464C29.3277 27.5726 29.0754 28.0764 28.5853 28.5803Z"
      stroke="black" stroke-opacity="0.2" stroke-width="2" shape-rendering="crispEdges"
      mask="url(#path-1-inside-1_2021_1867)"/>
    <path
      d="M20.9887 24.7006C20.9382 24.8805 20.8589 25.0461 20.8157 25.0821C20.7797 25.1109 18.949 25.1253 16.7507 25.1181C13.6947 25.1037 12.7506 25.0749 12.729 25.0101C12.6136 24.715 13.1902 22.354 13.6587 21.2239C14.0695 20.2234 15.2588 18.2511 15.8209 17.6393C15.9507 17.5025 16.1597 17.2722 16.275 17.1354C16.9453 16.3796 18.2859 15.2711 18.4012 15.3863C18.4733 15.4583 19.4247 17.0922 20.2607 18.5822C20.5562 19.1149 20.8229 19.5684 20.8445 19.59C20.8661 19.6116 20.9382 19.7267 21.0031 19.8419C21.068 19.9643 21.4139 20.5689 21.7815 21.1879L22.1286 21.7796C22.3184 22.1031 22.2863 22.5106 22.0482 22.8003C21.6157 23.3185 21.14 24.1823 20.9887 24.7006Z"
      stroke="black" stroke-opacity="0.2" stroke-width="2" shape-rendering="crispEdges"
      mask="url(#path-1-inside-1_2021_1867)"/>
    <path
      d="M39.3965 21.5118C39.7568 22.426 40.2397 24.3911 40.2397 24.9597C40.2397 25.051 40.1655 25.125 40.0742 25.1247L36.1964 25.1109C33.9765 25.1037 32.1314 25.0821 32.1025 25.0605C32.0737 25.0389 32.0088 24.8805 31.9584 24.7006C31.8287 24.2399 31.3241 23.297 31.0647 23.0234C30.9494 22.8939 30.7692 22.6851 30.6683 22.5628C30.4953 22.3324 30.4953 22.3252 30.625 22.1309C30.6971 22.0157 30.8052 21.8358 30.8701 21.7134C31.0791 21.3319 32.1314 19.5108 32.7224 18.5247C32.8882 18.2367 33.0323 17.9848 33.0323 17.9704C33.0323 17.9488 33.126 17.7833 33.2413 17.5961C33.5224 17.1354 33.7747 16.6964 34.0774 16.1349C34.2215 15.8758 34.3945 15.5879 34.4666 15.4871C34.5441 15.3893 34.6834 15.3669 34.7877 15.4355L34.9207 15.5231C35.3819 15.8398 37.1477 17.6177 37.4865 18.1144C37.5295 18.176 37.5788 18.2468 37.631 18.3218C37.7801 18.5359 37.9529 18.7841 38.0703 18.9493C38.4379 19.4676 39.0865 20.7201 39.3965 21.5118Z"
      stroke="black" stroke-opacity="0.2" stroke-width="2" shape-rendering="crispEdges"
      mask="url(#path-1-inside-1_2021_1867)"/>
    <path
      d="M27.6051 20.8424C27.3601 20.792 26.8483 20.7488 26.4735 20.7488C26.0987 20.7488 25.587 20.792 25.342 20.8424C25.0712 20.8982 24.7954 20.7733 24.6587 20.533L24.5564 20.353C24.4627 20.1946 24.3383 19.9841 24.214 19.7735C24.0897 19.563 23.9653 19.3524 23.8716 19.1941C23.6843 18.8774 23.086 17.8408 22.5455 16.8907C21.9977 15.9406 21.4139 14.94 21.2481 14.6593C20.9813 14.2204 20.8576 14.029 20.9061 13.905C20.9468 13.8013 21.1079 13.7448 21.4067 13.63C24.1888 12.5647 27.1222 12.3919 29.9331 13.1117C31.0214 13.3925 32.0953 13.7955 32.0953 13.9179C32.0953 13.9539 31.8719 14.3642 31.598 14.8249L31.5124 14.9727C31.2074 15.4995 30.618 16.5176 30.1349 17.3586C29.9337 17.7041 29.7376 18.0427 29.5661 18.3387C29.2767 18.8381 29.0576 19.2162 29.0033 19.302C28.9241 19.4388 28.7943 19.6691 28.7223 19.8059C28.5493 20.1154 28.4195 20.3458 28.2177 20.6769C28.1226 20.8324 27.9402 20.9115 27.7616 20.8747L27.6051 20.8424Z"
      stroke="black" stroke-opacity="0.2" stroke-width="2" shape-rendering="crispEdges"
      mask="url(#path-1-inside-1_2021_1867)"/>
    <path fill-rule="evenodd" clip-rule="evenodd"
          d="M17 2C8.71573 2 2 8.71573 2 17V37C2 45.2843 8.71573 52 17 52H37C45.2843 52 52 45.2843 52 37V17C52 8.71573 45.2843 2 37 2H17ZM15.8281 44.5959C17.3201 45.4885 19.3238 46.3235 20.9959 46.7625L21.5634 46.9076C21.7489 46.9551 21.9384 46.846 21.9905 46.6618C22.5599 44.6535 23.9437 43.3867 25.8681 43.1203C28.2105 42.7892 30.3728 44.3008 30.9494 46.6618C30.9928 46.8472 31.1805 46.9604 31.3649 46.9123L31.8287 46.7913C33.3999 46.3811 34.827 45.834 36.1675 45.1214C36.6384 44.876 36.7474 44.8114 37.345 44.457L37.4505 44.3944L37.5899 44.3114C37.6968 44.2478 37.7257 44.1061 37.6523 44.0057C37.1333 43.2643 36.9027 42.4797 36.8955 41.436C36.8883 40.1763 37.2703 39.219 38.1424 38.312C38.719 37.7074 39.2451 37.3619 40.0019 37.1028C40.492 36.93 40.6722 36.9084 41.429 36.9084C42.402 36.9084 42.8272 37.0164 43.6993 37.4915C44.0401 37.6706 44.3419 37.5674 44.5345 37.234C44.8178 36.7439 45.214 36.0015 45.4579 35.4904C46.0273 34.3099 46.4309 33.2014 46.7553 31.9778L46.8843 31.4887C46.9484 31.2461 46.8033 30.9976 46.5607 30.9341C46.4768 30.9119 46.3937 30.8897 46.3193 30.8698C46.1764 30.8317 46.0654 30.802 46.0417 30.7973C45.7174 30.7253 44.8597 30.1711 44.4705 29.7824C42.6614 28.0045 42.5894 25.154 44.3119 23.3833C45.0399 22.6347 45.7895 22.2172 46.7769 22.0085C46.8989 21.981 46.9736 21.8576 46.9415 21.7367L46.7481 21.008C46.2652 19.1725 45.4147 17.2074 44.3552 15.4727C44.2675 15.3294 44.0805 15.2839 43.9367 15.3709L43.7209 15.5015C43.0146 15.9262 42.3876 16.0917 41.429 16.0917C40.7659 16.0917 40.5352 16.0629 40.0235 15.9046C38.6325 15.4583 37.5081 14.2994 37.0468 12.8382C36.9315 12.4711 36.8955 12.1688 36.8955 11.5642C36.8955 10.6284 37.0685 9.96619 37.5009 9.25359C37.782 8.79291 37.782 8.74253 37.5009 8.62736C37.4433 8.59857 37.2342 8.4834 37.0324 8.36103C35.5045 7.45408 33.6521 6.69109 31.807 6.20162L31.2004 6.0474C31.0982 6.02143 30.9947 6.08454 30.971 6.18723C30.7331 7.25254 30.3728 7.92915 29.7025 8.59137C28.261 10.0094 26.2285 10.3333 24.405 9.43354C23.3239 8.90088 22.5383 7.96514 22.1275 6.73428C21.9995 6.33591 21.9403 6.1475 21.8176 6.08606C21.7052 6.02982 21.5396 6.07995 21.2193 6.17283C19.2084 6.74867 17.4931 7.44688 16.0372 8.29625C15.6119 8.54098 15.2516 8.74973 15.2371 8.76412C15.2155 8.78572 15.338 9.04484 15.4966 9.35436C15.857 10.031 16.0155 10.5636 16.0732 11.2978C16.2174 13.2341 14.8551 15.2855 13.0317 15.8686C11.6911 16.3005 10.5451 16.1925 9.30542 15.5375C8.9955 15.3791 8.73603 15.2567 8.72162 15.2783C8.318 15.8398 7.33779 17.7473 7.01346 18.5822C6.88372 18.9205 6.73957 19.2948 6.68912 19.41C6.54497 19.7483 6.38641 20.2738 6.15577 21.1519C6.02259 21.6674 5.9591 21.8611 6.02915 21.9523C6.08041 22.019 6.20317 22.0307 6.42245 22.0733C6.55218 22.1021 6.84768 22.2029 7.08553 22.2964C8.41891 22.8363 9.48561 24.1319 9.78832 25.5715C10.1991 27.5006 9.26938 29.5233 7.54681 30.4662C7.22968 30.6389 6.94859 30.7901 6.90534 30.7973C6.30155 30.9243 6.02804 31.3721 6.19097 31.9672C6.39841 32.7248 6.74473 33.7882 7.02787 34.4755C7.46032 35.5408 8.63513 37.7218 8.77207 37.729C8.80811 37.729 8.9955 37.6282 9.1901 37.5131C9.99013 37.0164 11.3595 36.7573 12.2388 36.93C13.3488 37.1532 14.0191 37.5131 14.7759 38.2833C15.9795 39.5141 16.3831 41.2345 15.8426 42.8612C15.7417 43.1707 15.5471 43.6026 15.4101 43.8113C15.2758 44.0245 15.3433 44.3064 15.5596 44.4356L15.8281 44.5959Z"
          stroke="black" stroke-opacity="0.2" stroke-width="2" shape-rendering="crispEdges"
          mask="url(#path-1-inside-1_2021_1867)"/>
  </g>
  <defs>
    <filter id="filter0_d_2021_1867" x="0" y="0" width="56" height="56" filterUnits="userSpaceOnUse"
            color-interpolation-filters="sRGB">
      <feFlood flood-opacity="0" result="BackgroundImageFix"/>
      <feColorMatrix in="SourceAlpha" type="matrix" values="0 0 0 0 0 0 0 0 0 0 0 0 0 0 0 0 0 0 127 0"
                     result="hardAlpha"/>
      <feOffset dx="1" dy="1"/>
      <feGaussianBlur stdDeviation="1.5"/>
      <feComposite in2="hardAlpha" operator="out"/>
      <feColorMatrix type="matrix" values="0 0 0 0 0 0 0 0 0 0 0 0 0 0 0 0 0 0 0.1 0"/>
      <feBlend mode="normal" in2="BackgroundImageFix" result="effect1_dropShadow_2021_1867"/>
      <feBlend mode="normal" in="SourceGraphic" in2="effect1_dropShadow_2021_1867" result="shape"/>
    </filter>
  </defs>
</svg>
