<svg width="70" height="70" viewBox="0 0 70 70" fill="none" xmlns="http://www.w3.org/2000/svg">
  <path
    d="M55 36.2571C55 36.8172 55 37.0972 54.891 37.3111C54.7951 37.4993 54.6422 37.6523 54.454 37.7481C54.2401 37.8571 53.9601 37.8571 53.4 37.8571H39.4571C38.8971 37.8571 38.6171 37.8571 38.4032 37.9661C38.215 38.062 38.062 38.215 37.9661 38.4032C37.8571 38.6171 37.8571 38.8971 37.8571 39.4571V53.4C37.8571 53.9601 37.8571 54.2401 37.7481 54.454C37.6523 54.6422 37.4993 54.7951 37.3111 54.891C37.0972 55 36.8172 55 36.2571 55H33.7429C33.1828 55 32.9028 55 32.6889 54.891C32.5007 54.7951 32.3477 54.6422 32.2519 54.454C32.1429 54.2401 32.1429 53.9601 32.1429 53.4V39.4571C32.1429 38.8971 32.1429 38.6171 32.0339 38.4032C31.938 38.215 31.785 38.062 31.5968 37.9661C31.3829 37.8571 31.1029 37.8571 30.5429 37.8571H16.6C16.0399 37.8571 15.7599 37.8571 15.546 37.7481C15.3578 37.6523 15.2049 37.4993 15.109 37.3111C15 37.0972 15 36.8172 15 36.2571V33.7429C15 33.1828 15 32.9028 15.109 32.6889C15.2049 32.5007 15.3578 32.3477 15.546 32.2519C15.7599 32.1429 16.0399 32.1429 16.6 32.1429H30.5429C31.1029 32.1429 31.3829 32.1429 31.5968 32.0339C31.785 31.938 31.938 31.785 32.0339 31.5968C32.1429 31.3829 32.1429 31.1029 32.1429 30.5429V16.6C32.1429 16.0399 32.1429 15.7599 32.2519 15.546C32.3477 15.3578 32.5007 15.2049 32.6889 15.109C32.9028 15 33.1828 15 33.7429 15H36.2571C36.8172 15 37.0972 15 37.3111 15.109C37.4993 15.2049 37.6523 15.3578 37.7481 15.546C37.8571 15.7599 37.8571 16.0399 37.8571 16.6V30.5429C37.8571 31.1029 37.8571 31.3829 37.9661 31.5968C38.062 31.785 38.215 31.938 38.4032 32.0339C38.6171 32.1429 38.8971 32.1429 39.4571 32.1429H53.4C53.9601 32.1429 54.2401 32.1429 54.454 32.2519C54.6422 32.3477 54.7951 32.5007 54.891 32.6889C55 32.9028 55 33.1828 55 33.7429V36.2571Z"
    fill="white" fill-opacity="0.25"/>
  <path
    d="M70 35C70 54.33 54.33 70 35 70C15.67 70 0 54.33 0 35C0 15.67 15.67 0 35 0C54.33 0 70 15.67 70 35ZM6.17732 35C6.17732 50.9183 19.0817 63.8227 35 63.8227C50.9183 63.8227 63.8227 50.9183 63.8227 35C63.8227 19.0817 50.9183 6.17732 35 6.17732C19.0817 6.17732 6.17732 19.0817 6.17732 35Z"
    fill="white" fill-opacity="0.25"/>
  <path
    d="M54.5 36.2571C54.5 36.5454 54.4996 36.7316 54.488 36.8732C54.4769 37.0091 54.4581 37.0594 54.4455 37.0841C54.3976 37.1782 54.3211 37.2547 54.227 37.3026C54.2023 37.3152 54.1519 37.3341 54.0161 37.3452C53.8744 37.3568 53.6883 37.3571 53.4 37.3571H39.4571H39.4379C39.1743 37.3571 38.9469 37.3571 38.7596 37.3724C38.562 37.3886 38.3653 37.4242 38.1762 37.5206C37.8939 37.6644 37.6644 37.8939 37.5206 38.1762C37.4242 38.3653 37.3886 38.562 37.3724 38.7596C37.3571 38.9469 37.3571 39.1743 37.3571 39.4379V39.4571V53.4C37.3571 53.6883 37.3568 53.8744 37.3452 54.0161C37.3341 54.1519 37.3152 54.2023 37.3026 54.227C37.2547 54.3211 37.1782 54.3976 37.0841 54.4455C37.0594 54.4581 37.0091 54.4769 36.8732 54.488C36.7316 54.4996 36.5454 54.5 36.2571 54.5H33.7429C33.4546 54.5 33.2684 54.4996 33.1268 54.488C32.9909 54.4769 32.9406 54.4581 32.9159 54.4455C32.8218 54.3976 32.7453 54.3211 32.6974 54.227C32.6848 54.2023 32.6659 54.1519 32.6548 54.0161C32.6432 53.8744 32.6429 53.6883 32.6429 53.4V39.4571V39.4379C32.6429 39.1743 32.6429 38.9469 32.6276 38.7596C32.6114 38.562 32.5758 38.3654 32.4794 38.1762C32.3356 37.8939 32.1061 37.6644 31.8238 37.5206C31.6347 37.4242 31.438 37.3886 31.2404 37.3724C31.0531 37.3571 30.8257 37.3571 30.5621 37.3571H30.5429H16.6C16.3117 37.3571 16.1256 37.3568 15.9839 37.3452C15.8481 37.3341 15.7977 37.3152 15.773 37.3026C15.6789 37.2547 15.6024 37.1782 15.5545 37.0841C15.5419 37.0594 15.5231 37.0091 15.512 36.8732C15.5004 36.7316 15.5 36.5454 15.5 36.2571V33.7429C15.5 33.4546 15.5004 33.2684 15.512 33.1268C15.5231 32.9909 15.5419 32.9406 15.5545 32.9159C15.6024 32.8218 15.6789 32.7453 15.773 32.6974C15.7977 32.6848 15.8481 32.6659 15.9839 32.6548C16.1256 32.6432 16.3117 32.6429 16.6 32.6429H30.5429H30.5621C30.8257 32.6429 31.0531 32.6429 31.2404 32.6276C31.438 32.6114 31.6347 32.5758 31.8238 32.4794C32.1061 32.3356 32.3356 32.1061 32.4794 31.8238C32.5758 31.6347 32.6114 31.438 32.6276 31.2404C32.6429 31.0531 32.6429 30.8257 32.6429 30.5621V30.5429V16.6C32.6429 16.3117 32.6432 16.1256 32.6548 15.9839C32.6659 15.8481 32.6848 15.7977 32.6974 15.773C32.7453 15.6789 32.8218 15.6024 32.9159 15.5545C32.9406 15.5419 32.9909 15.5231 33.1268 15.512C33.2684 15.5004 33.4546 15.5 33.7429 15.5H36.2571C36.5454 15.5 36.7316 15.5004 36.8732 15.512C37.0091 15.5231 37.0594 15.5419 37.0841 15.5545C37.1782 15.6024 37.2547 15.6789 37.3026 15.773C37.3152 15.7977 37.3341 15.8481 37.3452 15.9839C37.3568 16.1256 37.3571 16.3117 37.3571 16.6V30.5429V30.5621C37.3571 30.8257 37.3571 31.0531 37.3724 31.2404C37.3886 31.438 37.4242 31.6347 37.5206 31.8238C37.6644 32.1061 37.8939 32.3356 38.1762 32.4794C38.3654 32.5758 38.562 32.6114 38.7596 32.6276C38.9469 32.6429 39.1743 32.6429 39.4379 32.6429H39.4571H53.4C53.6883 32.6429 53.8744 32.6432 54.0161 32.6548C54.1519 32.6659 54.2023 32.6848 54.227 32.6974C54.3211 32.7453 54.3976 32.8218 54.4455 32.9159C54.4581 32.9406 54.4769 32.9909 54.488 33.1268C54.4996 33.2684 54.5 33.4546 54.5 33.7429V36.2571ZM69.5 35C69.5 54.0538 54.0538 69.5 35 69.5C15.9462 69.5 0.5 54.0538 0.5 35C0.5 15.9462 15.9462 0.5 35 0.5C54.0538 0.5 69.5 15.9462 69.5 35ZM5.67732 35C5.67732 51.1945 18.8055 64.3227 35 64.3227C51.1945 64.3227 64.3227 51.1945 64.3227 35C64.3227 18.8055 51.1945 5.67732 35 5.67732C18.8055 5.67732 5.67732 18.8055 5.67732 35Z"
    stroke="white" stroke-opacity="0.5"/>
</svg>
