<svg width="35" height="36" viewBox="0 0 35 36" fill="none" xmlns="http://www.w3.org/2000/svg">
<g opacity="0.8">
<path d="M17.5001 19.125C21.274 19.125 24.3334 16.0657 24.3334 12.2917C24.3334 8.51776 21.274 5.45837 17.5001 5.45837C13.7261 5.45837 10.6667 8.51776 10.6667 12.2917C10.6667 16.0657 13.7261 19.125 17.5001 19.125Z" fill="#6C7784" stroke="url(#paint0_linear_2019_1929)" stroke-width="2"/>
<path fill-rule="evenodd" clip-rule="evenodd" d="M22.876 23.875C21.1974 23.2723 19.3617 22.9584 17.5001 22.9584C14.7735 22.9584 12.1022 23.632 9.89911 24.8998C7.69663 26.1673 6.04852 27.9821 5.28928 30.1073C5.10347 30.6274 5.37446 31.1996 5.89455 31.3854C6.41464 31.5712 6.98688 31.3002 7.17269 30.7801C7.74287 29.1842 9.02415 27.7109 10.8967 26.6333C12.7687 25.5559 15.0903 24.9584 17.5001 24.9584C17.7003 24.9584 17.8999 24.9625 18.0986 24.9707C18.6488 24.3017 19.483 23.875 20.4168 23.875L22.876 23.875ZM29.2501 31.3207C29.6742 31.0888 29.8787 30.5768 29.711 30.1073C29.6832 30.0294 29.6542 29.952 29.624 29.875H29.2501V31.3207Z" fill="#6C7784"/>
<path d="M17.5001 22.9584L17.5001 23.9584H17.5001V22.9584ZM22.876 23.875L22.876 24.875L23.2139 22.9339L22.876 23.875ZM9.89911 24.8998L9.40032 24.0331L9.40032 24.0331L9.89911 24.8998ZM5.28928 30.1073L6.23099 30.4437L6.23099 30.4437L5.28928 30.1073ZM5.89455 31.3854L6.23099 30.4437L6.23099 30.4437L5.89455 31.3854ZM7.17269 30.7801L8.1144 31.1166L8.1144 31.1166L7.17269 30.7801ZM10.8967 26.6333L10.3979 25.7665L10.3979 25.7665L10.8967 26.6333ZM17.5001 24.9584L17.5001 25.9584H17.5001V24.9584ZM18.0986 24.9707L18.0575 25.9698L18.5548 25.9903L18.871 25.6059L18.0986 24.9707ZM20.4168 23.875L20.4168 22.875H20.4168V23.875ZM29.711 30.1073L28.7693 30.4437L28.7693 30.4437L29.711 30.1073ZM29.2501 31.3207H28.2501V33.0071L29.7298 32.1981L29.2501 31.3207ZM29.624 29.875L30.555 29.5101L30.3061 28.875H29.624V29.875ZM29.2501 29.875V28.875H28.2501V29.875H29.2501ZM17.5001 23.9584C19.251 23.9584 20.9721 24.254 22.5381 24.8162L23.2139 22.9339C21.4227 22.2907 19.4723 21.9584 17.5001 21.9584V23.9584ZM10.3979 25.7665C12.4354 24.594 14.9319 23.9584 17.5001 23.9584L17.5001 21.9584C14.6151 21.9584 11.7689 22.67 9.40032 24.0331L10.3979 25.7665ZM6.23099 30.4437C6.89563 28.5833 8.3602 26.9392 10.3979 25.7665L9.40032 24.0331C7.03306 25.3954 5.20141 27.3809 4.34758 29.7708L6.23099 30.4437ZM6.23099 30.4437L6.23099 30.4437L4.34758 29.7708C3.97595 30.811 4.51793 31.9555 5.55811 32.3271L6.23099 30.4437ZM6.23099 30.4437L6.23099 30.4437L5.55811 32.3271C6.59829 32.6987 7.74278 32.1568 8.1144 31.1166L6.23099 30.4437ZM10.3979 25.7665C8.36015 26.9392 6.89562 28.5834 6.23099 30.4437L8.1144 31.1166C8.59011 29.785 9.68814 28.4825 11.3955 27.5L10.3979 25.7665ZM17.5001 23.9584C14.9319 23.9584 12.4354 24.594 10.3979 25.7665L11.3955 27.5C13.1019 26.5179 15.2487 25.9584 17.5001 25.9584L17.5001 23.9584ZM18.1397 23.9715C17.9273 23.9628 17.714 23.9584 17.5001 23.9584V25.9584C17.6866 25.9584 17.8724 25.9622 18.0575 25.9698L18.1397 23.9715ZM18.871 25.6059C19.2394 25.1579 19.7946 24.875 20.4168 24.875V22.875C19.1713 22.875 18.0583 23.4454 17.3263 24.3355L18.871 25.6059ZM20.4168 24.875L22.876 24.875L22.876 22.875L20.4168 22.875L20.4168 24.875ZM28.7693 30.4437C28.7699 30.4454 28.7695 30.445 28.7695 30.4435C28.7695 30.4426 28.7697 30.4426 28.7694 30.4433C28.7686 30.4454 28.7682 30.4444 28.7704 30.4432L29.7298 32.1981C30.5786 31.734 30.9885 30.7108 30.6527 29.7708L28.7693 30.4437ZM28.6929 30.24C28.7194 30.3075 28.7449 30.3755 28.7693 30.4437L30.6527 29.7708C30.6214 29.6834 30.5889 29.5965 30.555 29.5101L28.6929 30.24ZM29.624 28.875H29.2501V30.875H29.624V28.875ZM28.2501 29.875V31.3207H30.2501V29.875H28.2501Z" fill="url(#paint1_linear_2019_1929)"/>
<path d="M26.25 21.0416L26.25 32.7083" stroke="#6C7784" stroke-width="2"/>
<path d="M32.0833 26.875L20.4166 26.875" stroke="#6C7784" stroke-width="2"/>
</g>
<defs>
<linearGradient id="paint0_linear_2019_1929" x1="23.3334" y1="6.45837" x2="9.26333" y2="12.7516" gradientUnits="userSpaceOnUse">
<stop stop-color="white" stop-opacity="0.9"/>
<stop offset="1" stop-color="white" stop-opacity="0.8"/>
</linearGradient>
<linearGradient id="paint1_linear_2019_1929" x1="29.7695" y1="22.9584" x2="16.4832" y2="40.1436" gradientUnits="userSpaceOnUse">
<stop stop-color="white" stop-opacity="0.9"/>
<stop offset="1" stop-color="white" stop-opacity="0.8"/>
</linearGradient>
</defs>
</svg>
