<svg width="38" height="29" viewBox="0 0 38 29" fill="none" xmlns="http://www.w3.org/2000/svg">
<path d="M33.4 1H4.6C2.602 1 1.018 2.61492 1.018 4.62903L1 24.0806C1 26.0948 2.602 27.7097 4.6 27.7097H33.4C35.398 27.7097 37 26.0948 37 24.0806V4.62903C37 2.61492 35.398 1 33.4 1ZM33.4 24.0806H4.6L4.48387 12.0323H33.5161L33.4 24.0806ZM33.4 6.22581H4.6V4.62903H33.4V6.22581Z" fill="#6C7784" fill-opacity="0.55"/>
<path d="M3.32258 6.80645H34.6774V11.4516H3.32258V6.80645Z" fill="#434E5B"/>
<path d="M25.3871 18.4194H34.6774V21.9032H25.3871V18.4194Z" fill="#434E5B"/>
<path d="M26.5487 18.9194H33.5165V17.9194H26.5487V18.9194ZM34.1778 19.5807V20.742H35.1778V19.5807H34.1778ZM33.5165 21.4033H26.5487V22.4033H33.5165V21.4033ZM25.8875 20.742V19.5807H24.8875V20.742H25.8875ZM26.5487 21.4033C26.1835 21.4033 25.8875 21.1072 25.8875 20.742H24.8875C24.8875 21.6595 25.6312 22.4033 26.5487 22.4033V21.4033ZM34.1778 20.742C34.1778 21.1072 33.8817 21.4033 33.5165 21.4033V22.4033C34.434 22.4033 35.1778 21.6595 35.1778 20.742H34.1778ZM33.5165 18.9194C33.8817 18.9194 34.1778 19.2155 34.1778 19.5807H35.1778C35.1778 18.6632 34.434 17.9194 33.5165 17.9194V18.9194ZM26.5487 17.9194C25.6312 17.9194 24.8875 18.6632 24.8875 19.5807H25.8875C25.8875 19.2155 26.1835 18.9194 26.5487 18.9194V17.9194Z" fill="white" fill-opacity="0.6"/>
<path d="M4.48387 2H33.5161V0H4.48387V2ZM36 4.48387V24.2258H38V4.48387H36ZM33.5161 26.7097H4.48387V28.7097H33.5161V26.7097ZM2 24.2258V4.48387H0V24.2258H2ZM4.48387 26.7097C3.11207 26.7097 2 25.5976 2 24.2258H0C0 26.7022 2.0075 28.7097 4.48387 28.7097V26.7097ZM36 24.2258C36 25.5976 34.8879 26.7097 33.5161 26.7097V28.7097C35.9925 28.7097 38 26.7022 38 24.2258H36ZM33.5161 2C34.8879 2 36 3.11207 36 4.48387H38C38 2.0075 35.9925 0 33.5161 0V2ZM4.48387 0C2.0075 0 0 2.0075 0 4.48387H2C2 3.11207 3.11207 2 4.48387 2V0Z" fill="white" fill-opacity="0.6"/>
</svg>
