<svg width="29" height="29" viewBox="0 0 29 29" fill="none" xmlns="http://www.w3.org/2000/svg">
<path d="M1.375 9C1.375 5.22876 1.375 3.34315 2.54657 2.17157C3.71815 1 5.60376 1 9.375 1H19.625C23.3962 1 25.2819 1 26.4534 2.17157C27.625 3.34315 27.625 5.22876 27.625 9V19.25C27.625 23.0212 27.625 24.9069 26.4534 26.0784C25.2819 27.25 23.3962 27.25 19.625 27.25H9.375C5.60376 27.25 3.71815 27.25 2.54657 26.0784C1.375 24.9069 1.375 23.0212 1.375 19.25V9Z" fill="black" fill-opacity="0.2"/>
<path d="M23.25 7.5625C23.25 8.77062 22.2706 9.75 21.0625 9.75C19.8544 9.75 18.875 8.77062 18.875 7.5625C18.875 6.35438 19.8544 5.375 21.0625 5.375C22.2706 5.375 23.25 6.35438 23.25 7.5625Z" fill="#6C7784"/>
<path d="M20.3333 14.125C20.3333 17.3467 17.7217 19.9583 14.5 19.9583C11.2783 19.9583 8.66667 17.3467 8.66667 14.125C8.66667 10.9033 11.2783 8.29167 14.5 8.29167C17.7217 8.29167 20.3333 10.9033 20.3333 14.125Z" fill="black" fill-opacity="0.6"/>
<path d="M26.4534 2.17157L27.1605 1.46447L27.1605 1.46447L26.4534 2.17157ZM26.4534 26.0784L27.1605 26.7855L27.1605 26.7855L26.4534 26.0784ZM2.54657 26.0784L1.83947 26.7855L1.83947 26.7855L2.54657 26.0784ZM2.375 9C2.375 7.08611 2.37712 5.75129 2.51253 4.74416C2.64407 3.76579 2.88466 3.2477 3.25368 2.87868L1.83947 1.46447C1.03691 2.26702 0.691719 3.27752 0.530364 4.47766C0.372876 5.64904 0.375 7.14265 0.375 9H2.375ZM3.25368 2.87868C3.6227 2.50966 4.14079 2.26907 5.11916 2.13753C6.12629 2.00212 7.46111 2 9.375 2V0C7.51765 0 6.02404 -0.00212373 4.85267 0.155364C3.65252 0.316719 2.64202 0.661911 1.83947 1.46447L3.25368 2.87868ZM9.375 2H19.625V0H9.375V2ZM19.625 2C21.5389 2 22.8737 2.00212 23.8808 2.13753C24.8592 2.26907 25.3773 2.50966 25.7463 2.87868L27.1605 1.46447C26.358 0.661911 25.3475 0.316719 24.1473 0.155364C22.976 -0.00212374 21.4823 0 19.625 0V2ZM25.7463 2.87868C26.1153 3.2477 26.3559 3.76579 26.4875 4.74416C26.6229 5.75129 26.625 7.08611 26.625 9H28.625C28.625 7.14265 28.6271 5.64904 28.4696 4.47767C28.3083 3.27752 27.9631 2.26702 27.1605 1.46447L25.7463 2.87868ZM26.625 9V19.25H28.625V9H26.625ZM26.625 19.25C26.625 21.1639 26.6229 22.4987 26.4875 23.5058C26.3559 24.4842 26.1153 25.0023 25.7463 25.3713L27.1605 26.7855C27.9631 25.983 28.3083 24.9725 28.4696 23.7723C28.6271 22.601 28.625 21.1073 28.625 19.25H26.625ZM25.7463 25.3713C25.3773 25.7403 24.8592 25.9809 23.8808 26.1125C22.8737 26.2479 21.5389 26.25 19.625 26.25V28.25C21.4823 28.25 22.976 28.2521 24.1473 28.0946C25.3475 27.9333 26.358 27.5881 27.1605 26.7855L25.7463 25.3713ZM19.625 26.25H9.375V28.25H19.625V26.25ZM9.375 26.25C7.46111 26.25 6.12629 26.2479 5.11916 26.1125C4.14079 25.9809 3.6227 25.7403 3.25368 25.3713L1.83947 26.7855C2.64202 27.5881 3.65252 27.9333 4.85267 28.0946C6.02404 28.2521 7.51765 28.25 9.375 28.25V26.25ZM3.25368 25.3713C2.88466 25.0023 2.64407 24.4842 2.51253 23.5058C2.37712 22.4987 2.375 21.1639 2.375 19.25H0.375C0.375 21.1073 0.372876 22.601 0.530364 23.7723C0.691719 24.9725 1.03691 25.983 1.83947 26.7855L3.25368 25.3713ZM2.375 19.25V9H0.375V19.25H2.375ZM22.25 7.5625C22.25 8.21834 21.7183 8.75 21.0625 8.75V10.75C22.8229 10.75 24.25 9.32291 24.25 7.5625H22.25ZM21.0625 8.75C20.4067 8.75 19.875 8.21834 19.875 7.5625H17.875C17.875 9.32291 19.3021 10.75 21.0625 10.75V8.75ZM19.875 7.5625C19.875 6.90666 20.4067 6.375 21.0625 6.375V4.375C19.3021 4.375 17.875 5.80209 17.875 7.5625H19.875ZM21.0625 6.375C21.7183 6.375 22.25 6.90666 22.25 7.5625H24.25C24.25 5.80209 22.8229 4.375 21.0625 4.375V6.375ZM19.3333 14.125C19.3333 16.7944 17.1694 18.9583 14.5 18.9583V20.9583C18.2739 20.9583 21.3333 17.8989 21.3333 14.125H19.3333ZM14.5 18.9583C11.8306 18.9583 9.66667 16.7944 9.66667 14.125H7.66667C7.66667 17.8989 10.7261 20.9583 14.5 20.9583V18.9583ZM9.66667 14.125C9.66667 11.4556 11.8306 9.29167 14.5 9.29167V7.29167C10.7261 7.29167 7.66667 10.3511 7.66667 14.125H9.66667ZM14.5 9.29167C17.1694 9.29167 19.3333 11.4556 19.3333 14.125H21.3333C21.3333 10.3511 18.2739 7.29167 14.5 7.29167V9.29167Z" fill="url(#paint0_linear_2019_1930)" fill-opacity="0.8"/>
<defs>
<linearGradient id="paint0_linear_2019_1930" x1="20.3334" y1="8.29175" x2="6.26333" y2="14.585" gradientUnits="userSpaceOnUse">
<stop stop-color="white" stop-opacity="0.9"/>
<stop offset="1" stop-color="white" stop-opacity="0.8"/>
</linearGradient>
</defs>
</svg>
