<svg width="27" height="36" viewBox="0 0 27 36" fill="none" xmlns="http://www.w3.org/2000/svg">
<path d="M10.3027 1.78696L19.7754 3.27553C21.6947 3.57713 22.6543 3.72793 23.3751 4.20054C24.0105 4.6171 24.514 5.20597 24.8269 5.89825C25.1819 6.68369 25.1819 7.65511 25.1819 9.59794V26.6523C25.1819 28.5951 25.1819 29.5665 24.8269 30.352C24.514 31.0443 24.0105 31.6331 23.3751 32.0497C22.6543 32.5223 21.6947 32.6731 19.7754 32.9747L10.3027 34.4633C7.75633 34.8634 6.48315 35.0635 5.49208 34.688C4.62226 34.3585 3.89447 33.7362 3.43391 32.928C2.90916 32.0073 2.90916 30.7185 2.90916 28.1409V8.10937C2.90916 5.53177 2.90916 4.24297 3.43391 3.3222C3.89447 2.51408 4.62226 1.89172 5.49208 1.5622C6.48315 1.18674 7.75633 1.38682 10.3027 1.78696Z" fill="#6C7784" fill-opacity="0.8"/>
<path d="M15.3182 18.1258L16.0991 18.7505L16.5988 18.1258L16.0991 17.5011L15.3182 18.1258ZM1 17.1258C0.447715 17.1258 0 17.5735 0 18.1258C0 18.6781 0.447715 19.1258 1 19.1258V17.1258ZM19.7754 3.27553L19.9306 2.28765L19.9306 2.28765L19.7754 3.27553ZM10.3027 1.78696L10.1475 2.77483L10.3027 1.78696ZM10.3027 34.4633L10.1474 33.4754L10.1474 33.4754L10.3027 34.4633ZM19.7754 32.9747L19.9306 33.9626L19.9306 33.9626L19.7754 32.9747ZM23.3751 32.0497L23.9235 32.886L23.9235 32.886L23.3751 32.0497ZM24.8269 30.352L25.7382 30.7638L25.7382 30.7638L24.8269 30.352ZM3.43391 32.928L2.5651 33.4232L2.5651 33.4232L3.43391 32.928ZM5.49208 34.688L5.13781 35.6232L5.13782 35.6232L5.49208 34.688ZM5.49208 1.5622L5.13782 0.627055L5.13782 0.627055L5.49208 1.5622ZM3.43391 3.3222L2.5651 2.82706L2.5651 2.82706L3.43391 3.3222ZM23.3751 4.20054L23.9235 3.36427L23.9235 3.36427L23.3751 4.20054ZM24.8269 5.89825L25.7382 5.4864L25.7382 5.4864L24.8269 5.89825ZM8.17368 10.796L14.5373 18.7505L16.0991 17.5011L9.73541 9.54656L8.17368 10.796ZM14.5373 17.5011L8.17368 25.4557L9.73541 26.705L16.0991 18.7505L14.5373 17.5011ZM15.3182 17.1258H1V19.1258H15.3182V17.1258ZM19.9306 2.28765L10.4579 0.79908L10.1475 2.77483L19.6202 4.2634L19.9306 2.28765ZM1.90916 8.10937V28.1409H3.90916V8.10937H1.90916ZM10.4579 35.4512L19.9306 33.9626L19.6202 31.9868L10.1474 33.4754L10.4579 35.4512ZM26.1819 26.6523V9.59794H24.1819V26.6523H26.1819ZM19.9306 33.9626C20.8753 33.8141 21.6389 33.6948 22.2543 33.5496C22.882 33.4015 23.4271 33.2114 23.9235 32.886L22.8268 31.2134C22.6023 31.3606 22.3072 31.4822 21.795 31.6031C21.2706 31.7268 20.5947 31.8337 19.6202 31.9868L19.9306 33.9626ZM24.1819 26.6523C24.1819 27.6388 24.1812 28.3231 24.1404 28.8604C24.1005 29.3851 24.0262 29.6955 23.9156 29.9401L25.7382 30.7638C25.9826 30.223 26.0858 29.655 26.1346 29.0119C26.1826 28.3814 26.1819 27.6086 26.1819 26.6523H24.1819ZM23.9235 32.886C24.7176 32.3653 25.3471 31.6292 25.7382 30.7638L23.9156 29.9401C23.681 30.4594 23.3033 30.901 22.8268 31.2134L23.9235 32.886ZM1.90916 28.1409C1.90916 29.4119 1.90828 30.4292 1.97846 31.2418C2.04946 32.0639 2.19949 32.7817 2.5651 33.4232L4.30272 32.4329C4.14357 32.1536 4.03123 31.7666 3.97104 31.0697C3.91003 30.3633 3.90916 29.4474 3.90916 28.1409H1.90916ZM10.1474 33.4754C8.85675 33.6782 7.95183 33.8195 7.24449 33.8689C6.54668 33.9177 6.14693 33.8668 5.84635 33.7529L5.13782 35.6232C5.82831 35.8848 6.56068 35.9216 7.38381 35.8641C8.19742 35.8073 9.20226 35.6485 10.4579 35.4512L10.1474 33.4754ZM2.5651 33.4232C3.1408 34.4333 4.05054 35.2113 5.13781 35.6232L5.84636 33.7529C5.19398 33.5057 4.64814 33.039 4.30272 32.4329L2.5651 33.4232ZM10.4579 0.79908C9.20227 0.601762 8.19742 0.442973 7.38381 0.386158C6.56068 0.328679 5.82831 0.365469 5.13782 0.627055L5.84635 2.49734C6.14693 2.38347 6.54668 2.33257 7.24449 2.3813C7.95183 2.43069 8.85676 2.57201 10.1475 2.77483L10.4579 0.79908ZM3.90916 8.10937C3.90916 6.80284 3.91003 5.88695 3.97104 5.18052C4.03123 4.4836 4.14357 4.0966 4.30272 3.81735L2.5651 2.82706C2.19949 3.46857 2.04946 4.18636 1.97846 5.00843C1.90828 5.82099 1.90916 6.8383 1.90916 8.10937H3.90916ZM5.13782 0.627055C4.05054 1.03896 3.1408 1.8169 2.5651 2.82706L4.30272 3.81735C4.64814 3.21125 5.19399 2.74448 5.84635 2.49734L5.13782 0.627055ZM19.6202 4.2634C20.5947 4.41655 21.2706 4.52344 21.795 4.64718C22.3072 4.76803 22.6023 4.88962 22.8268 5.03681L23.9235 3.36427C23.4271 3.03885 22.882 2.84873 22.2543 2.70063C21.6389 2.55541 20.8753 2.4361 19.9306 2.28765L19.6202 4.2634ZM26.1819 9.59794C26.1819 8.64165 26.1826 7.86882 26.1346 7.2383C26.0858 6.59525 25.9826 6.02722 25.7382 5.4864L23.9156 6.31009C24.0262 6.55473 24.1005 6.86512 24.1404 7.38985C24.1812 7.9271 24.1819 8.6114 24.1819 9.59794H26.1819ZM22.8268 5.03681C23.3033 5.34923 23.681 5.79088 23.9156 6.31009L25.7382 5.4864C25.3471 4.62105 24.7176 3.88497 23.9235 3.36427L22.8268 5.03681Z" fill="white" fill-opacity="0.8"/>
</svg>
