<svg width="260" height="150" viewBox="0 0 260 150" fill="none" xmlns="http://www.w3.org/2000/svg">
<g filter="url(#filter0_d)">
<g filter="url(#filter1_b)">
<mask id="path-1-inside-1" fill="white">
<path fill-rule="evenodd" clip-rule="evenodd" d="M2 27C2 13.1929 13.1929 2 27 2H227C240.807 2 252 13.1929 252 27V117C252 130.807 240.807 142 227 142H27C13.1929 142 2 130.807 2 117V27ZM218.715 57.233C216.496 61.0132 214.108 62.3673 211.08 61.5774C207.789 60.7123 206.378 58.3614 206.378 53.7349C206.378 50.8011 206.387 47.8674 206.396 44.9336C206.419 37.5988 206.442 30.2639 206.322 22.9291C206.265 19.1489 207.431 16.4407 210.91 14.8609H214.202C216.252 15.82 217.756 17.3434 218.734 19.3934C218.715 32.0128 218.715 44.6323 218.715 57.233ZM42.0442 88.2835C39.0163 87.4936 36.6278 88.8477 34.4086 92.6279C34.4086 105.229 34.4086 117.848 34.3898 130.468C35.3678 132.518 36.8723 134.041 38.9223 135H42.2135C45.6928 133.42 46.8588 130.712 46.8024 126.932C46.6815 119.597 46.7045 112.263 46.7276 104.928V104.928C46.7368 101.994 46.746 99.0599 46.746 96.126C46.746 91.4995 45.3355 89.1486 42.0442 88.2835ZM72.3453 92.629C72.1064 91.3509 71.8334 90.0898 71.5623 88.838C70.9799 86.148 70.4067 83.5006 70.2013 80.8183C68.5087 58.6448 76.765 41.0979 95.1582 28.5161C104.298 22.2722 114.605 19.4699 125.625 19.4135C141.589 19.3383 157.552 19.3593 173.516 19.3804C177.506 19.3857 181.497 19.3909 185.488 19.3947C195.606 19.3947 202.715 26.5037 202.678 36.6407L202.676 36.8986V36.8988C202.658 39.6756 202.64 42.5164 202.038 45.1979C200.421 52.4385 194.045 57.4412 186.579 57.6293C184.774 57.6816 182.96 57.6702 181.08 57.6585H181.08H181.079C180.256 57.6533 179.42 57.6481 178.567 57.6481C178.748 58.3958 178.93 59.1237 179.11 59.8392L179.11 59.8401C179.454 61.2119 179.787 62.5385 180.072 63.8732C184.811 86.1783 175.257 109.179 156.074 121.742C146.746 127.855 136.477 130.807 125.4 130.864C112.014 130.916 98.6284 130.904 85.2428 130.893H85.2333C79.4954 130.888 73.7576 130.882 68.0197 130.882C57.4878 130.882 50.4728 123.886 50.5292 113.317L50.5309 113.063V113.063C50.5486 110.416 50.5667 107.706 51.1498 105.155C52.7861 97.8198 59.1992 92.7795 66.7408 92.629C67.9848 92.6039 69.2457 92.6124 70.4952 92.6207H70.4953C71.1159 92.6249 71.7337 92.629 72.3453 92.629ZM73.9063 75.0821C73.8875 103.612 97.0013 126.764 125.531 126.764C153.892 126.764 177.1 103.725 177.175 75.4959C177.251 46.7588 154.231 23.5322 125.644 23.4946C97.1141 23.457 73.9251 46.5708 73.9063 75.0821ZM147.159 23.5134C147.342 23.6622 147.471 23.7721 147.567 23.8535C147.737 23.9986 147.802 24.0535 147.874 24.0776C160.964 29.983 170.518 39.4429 176.498 52.5138C176.724 53.0027 177.608 53.4729 178.191 53.4917C180.993 53.5858 183.814 53.5858 186.617 53.5105C192.165 53.3789 197.017 49.5423 198.126 44.1259C198.566 42.0105 198.555 39.7826 198.544 37.5882V37.5857C198.542 37.2446 198.54 36.9044 198.54 36.5655C198.578 28.7606 193.331 23.5134 185.582 23.5134C178.096 23.5009 170.602 23.5051 163.111 23.5092H163.111H163.109C159.365 23.5113 155.621 23.5134 151.88 23.5134H147.159ZM103.49 126.764C103.499 126.707 103.513 126.651 103.527 126.594C103.541 126.538 103.555 126.482 103.565 126.425C103.386 126.336 103.207 126.243 103.027 126.15L103.026 126.15L103.025 126.149C102.752 126.008 102.475 125.865 102.192 125.729C91.378 120.67 82.9901 112.978 77.0659 102.616C76.7334 102.034 76.4368 101.387 76.1401 100.739L76.14 100.739C75.4297 99.1888 74.7185 97.6367 73.5113 96.9735C72.2335 96.274 70.4651 96.4404 68.7084 96.6056C68.0088 96.6714 67.311 96.7371 66.6468 96.7478C61.0235 96.8606 56.1149 100.716 54.9865 106.227C54.5653 108.284 54.5767 110.424 54.5879 112.553V112.554C54.5897 112.896 54.5915 113.238 54.5915 113.58C54.5539 121.535 59.7446 126.745 67.6436 126.764C75.2284 126.776 82.8048 126.772 90.384 126.768C94.1746 126.766 97.966 126.764 101.759 126.764H103.49ZM126.055 67.934C122.125 67.934 118.946 71.1123 118.946 75.043C118.946 78.9736 122.125 82.152 126.055 82.152C129.986 82.152 133.164 78.9736 133.164 75.043C133.164 71.1123 129.986 67.934 126.055 67.934ZM137.039 61.5772L150.956 47.3215C150.956 47.3215 164.403 53.0576 164.384 77.1494H143.32C142.963 80.4594 141.665 83.4685 139.728 85.951L154.059 99.9434C154.059 99.9434 148.323 113.372 124.212 113.372V92.7027C120.695 92.383 117.498 91.0477 114.884 88.979L101.155 103.065C101.155 103.065 87.7079 97.3292 87.7079 73.2187H108.339C108.734 69.6642 110.182 66.4106 112.364 63.8152L98.3338 50.1426C98.3338 50.1426 104.07 36.7144 128.181 36.7144V57.7406C131.509 58.1731 134.575 59.5272 137.039 61.5772ZM115.373 75.043C115.373 80.9296 120.169 85.7065 126.055 85.7065C131.942 85.7065 136.719 80.9296 136.719 75.043C136.719 69.1752 131.942 64.3794 126.055 64.3794C120.169 64.3794 115.373 69.1564 115.373 75.043ZM146.104 80.7415H143.602V88.4712H146.104V80.7415ZM151.012 79.7447H148.191V89.4491H151.012V79.7447ZM157.256 78.4847H153.608V90.7092H157.256V78.4847ZM163.5 78.1085H159.757V91.1041H163.5V78.1085ZM120.112 92.7215H112.401V95.2229H120.112V92.7215ZM121.09 97.3104H111.405V100.131H121.09V97.3104ZM122.369 102.727H110.145V106.375H122.369V102.727ZM122.745 108.877H109.75V112.619H122.745V108.877ZM108.057 61.596H105.575V69.3069H108.057V61.596ZM103.487 60.618H100.666V70.3036H103.487V60.618ZM98.0705 59.358H94.422V71.5637H98.0705V59.358ZM91.9207 58.963H88.1781V71.9586H91.9207V58.963ZM140.029 55.5213H132.318V58.0039H140.029V55.5213ZM141.007 50.6127H131.321V53.4338H141.007V50.6127ZM142.286 44.3688H130.061V48.0174H142.286V44.3688ZM142.681 38.1249H129.685V41.8675H142.681V38.1249Z"/>
</mask>
<path fill-rule="evenodd" clip-rule="evenodd" d="M2 27C2 13.1929 13.1929 2 27 2H227C240.807 2 252 13.1929 252 27V117C252 130.807 240.807 142 227 142H27C13.1929 142 2 130.807 2 117V27ZM218.715 57.233C216.496 61.0132 214.108 62.3673 211.08 61.5774C207.789 60.7123 206.378 58.3614 206.378 53.7349C206.378 50.8011 206.387 47.8674 206.396 44.9336C206.419 37.5988 206.442 30.2639 206.322 22.9291C206.265 19.1489 207.431 16.4407 210.91 14.8609H214.202C216.252 15.82 217.756 17.3434 218.734 19.3934C218.715 32.0128 218.715 44.6323 218.715 57.233ZM42.0442 88.2835C39.0163 87.4936 36.6278 88.8477 34.4086 92.6279C34.4086 105.229 34.4086 117.848 34.3898 130.468C35.3678 132.518 36.8723 134.041 38.9223 135H42.2135C45.6928 133.42 46.8588 130.712 46.8024 126.932C46.6815 119.597 46.7045 112.263 46.7276 104.928V104.928C46.7368 101.994 46.746 99.0599 46.746 96.126C46.746 91.4995 45.3355 89.1486 42.0442 88.2835ZM72.3453 92.629C72.1064 91.3509 71.8334 90.0898 71.5623 88.838C70.9799 86.148 70.4067 83.5006 70.2013 80.8183C68.5087 58.6448 76.765 41.0979 95.1582 28.5161C104.298 22.2722 114.605 19.4699 125.625 19.4135C141.589 19.3383 157.552 19.3593 173.516 19.3804C177.506 19.3857 181.497 19.3909 185.488 19.3947C195.606 19.3947 202.715 26.5037 202.678 36.6407L202.676 36.8986V36.8988C202.658 39.6756 202.64 42.5164 202.038 45.1979C200.421 52.4385 194.045 57.4412 186.579 57.6293C184.774 57.6816 182.96 57.6702 181.08 57.6585H181.08H181.079C180.256 57.6533 179.42 57.6481 178.567 57.6481C178.748 58.3958 178.93 59.1237 179.11 59.8392L179.11 59.8401C179.454 61.2119 179.787 62.5385 180.072 63.8732C184.811 86.1783 175.257 109.179 156.074 121.742C146.746 127.855 136.477 130.807 125.4 130.864C112.014 130.916 98.6284 130.904 85.2428 130.893H85.2333C79.4954 130.888 73.7576 130.882 68.0197 130.882C57.4878 130.882 50.4728 123.886 50.5292 113.317L50.5309 113.063V113.063C50.5486 110.416 50.5667 107.706 51.1498 105.155C52.7861 97.8198 59.1992 92.7795 66.7408 92.629C67.9848 92.6039 69.2457 92.6124 70.4952 92.6207H70.4953C71.1159 92.6249 71.7337 92.629 72.3453 92.629ZM73.9063 75.0821C73.8875 103.612 97.0013 126.764 125.531 126.764C153.892 126.764 177.1 103.725 177.175 75.4959C177.251 46.7588 154.231 23.5322 125.644 23.4946C97.1141 23.457 73.9251 46.5708 73.9063 75.0821ZM147.159 23.5134C147.342 23.6622 147.471 23.7721 147.567 23.8535C147.737 23.9986 147.802 24.0535 147.874 24.0776C160.964 29.983 170.518 39.4429 176.498 52.5138C176.724 53.0027 177.608 53.4729 178.191 53.4917C180.993 53.5858 183.814 53.5858 186.617 53.5105C192.165 53.3789 197.017 49.5423 198.126 44.1259C198.566 42.0105 198.555 39.7826 198.544 37.5882V37.5857C198.542 37.2446 198.54 36.9044 198.54 36.5655C198.578 28.7606 193.331 23.5134 185.582 23.5134C178.096 23.5009 170.602 23.5051 163.111 23.5092H163.111H163.109C159.365 23.5113 155.621 23.5134 151.88 23.5134H147.159ZM103.49 126.764C103.499 126.707 103.513 126.651 103.527 126.594C103.541 126.538 103.555 126.482 103.565 126.425C103.386 126.336 103.207 126.243 103.027 126.15L103.026 126.15L103.025 126.149C102.752 126.008 102.475 125.865 102.192 125.729C91.378 120.67 82.9901 112.978 77.0659 102.616C76.7334 102.034 76.4368 101.387 76.1401 100.739L76.14 100.739C75.4297 99.1888 74.7185 97.6367 73.5113 96.9735C72.2335 96.274 70.4651 96.4404 68.7084 96.6056C68.0088 96.6714 67.311 96.7371 66.6468 96.7478C61.0235 96.8606 56.1149 100.716 54.9865 106.227C54.5653 108.284 54.5767 110.424 54.5879 112.553V112.554C54.5897 112.896 54.5915 113.238 54.5915 113.58C54.5539 121.535 59.7446 126.745 67.6436 126.764C75.2284 126.776 82.8048 126.772 90.384 126.768C94.1746 126.766 97.966 126.764 101.759 126.764H103.49ZM126.055 67.934C122.125 67.934 118.946 71.1123 118.946 75.043C118.946 78.9736 122.125 82.152 126.055 82.152C129.986 82.152 133.164 78.9736 133.164 75.043C133.164 71.1123 129.986 67.934 126.055 67.934ZM137.039 61.5772L150.956 47.3215C150.956 47.3215 164.403 53.0576 164.384 77.1494H143.32C142.963 80.4594 141.665 83.4685 139.728 85.951L154.059 99.9434C154.059 99.9434 148.323 113.372 124.212 113.372V92.7027C120.695 92.383 117.498 91.0477 114.884 88.979L101.155 103.065C101.155 103.065 87.7079 97.3292 87.7079 73.2187H108.339C108.734 69.6642 110.182 66.4106 112.364 63.8152L98.3338 50.1426C98.3338 50.1426 104.07 36.7144 128.181 36.7144V57.7406C131.509 58.1731 134.575 59.5272 137.039 61.5772ZM115.373 75.043C115.373 80.9296 120.169 85.7065 126.055 85.7065C131.942 85.7065 136.719 80.9296 136.719 75.043C136.719 69.1752 131.942 64.3794 126.055 64.3794C120.169 64.3794 115.373 69.1564 115.373 75.043ZM146.104 80.7415H143.602V88.4712H146.104V80.7415ZM151.012 79.7447H148.191V89.4491H151.012V79.7447ZM157.256 78.4847H153.608V90.7092H157.256V78.4847ZM163.5 78.1085H159.757V91.1041H163.5V78.1085ZM120.112 92.7215H112.401V95.2229H120.112V92.7215ZM121.09 97.3104H111.405V100.131H121.09V97.3104ZM122.369 102.727H110.145V106.375H122.369V102.727ZM122.745 108.877H109.75V112.619H122.745V108.877ZM108.057 61.596H105.575V69.3069H108.057V61.596ZM103.487 60.618H100.666V70.3036H103.487V60.618ZM98.0705 59.358H94.422V71.5637H98.0705V59.358ZM91.9207 58.963H88.1781V71.9586H91.9207V58.963ZM140.029 55.5213H132.318V58.0039H140.029V55.5213ZM141.007 50.6127H131.321V53.4338H141.007V50.6127ZM142.286 44.3688H130.061V48.0174H142.286V44.3688ZM142.681 38.1249H129.685V41.8675H142.681V38.1249Z" fill="white" fill-opacity="0.4"/>
<path d="M211.08 61.5774L210.826 62.5446L210.827 62.545L211.08 61.5774ZM218.715 57.233L219.578 57.7393L219.715 57.5048V57.233H218.715ZM206.396 44.9336L207.396 44.9367L207.396 44.9367L206.396 44.9336ZM206.322 22.9291L205.322 22.944L205.322 22.9456L206.322 22.9291ZM210.91 14.8609V13.8609H210.694L210.497 13.9504L210.91 14.8609ZM214.202 14.8609L214.625 13.9551L214.424 13.8609H214.202V14.8609ZM218.734 19.3934L219.734 19.3949L219.734 19.1678L219.637 18.9628L218.734 19.3934ZM34.4086 92.6279L33.5462 92.1217L33.4086 92.3561V92.6279H34.4086ZM42.0442 88.2835L42.2985 87.3164L42.2967 87.3159L42.0442 88.2835ZM34.3898 130.468L33.3898 130.466L33.3895 130.693L33.4873 130.898L34.3898 130.468ZM38.9223 135L38.4985 135.906L38.6999 136H38.9223V135ZM42.2135 135V136H42.4299L42.6269 135.911L42.2135 135ZM46.8024 126.932L47.8023 126.917L47.8023 126.915L46.8024 126.932ZM46.7276 104.928L47.7276 104.931V104.928H46.7276ZM46.7276 104.928L45.7276 104.924V104.928H46.7276ZM71.5623 88.838L72.5397 88.6264L72.5397 88.6264L71.5623 88.838ZM72.3453 92.629V93.629H73.5495L73.3283 92.4453L72.3453 92.629ZM70.2013 80.8183L69.2042 80.8944L69.2042 80.8946L70.2013 80.8183ZM95.1582 28.5161L94.5941 27.6903L94.5936 27.6907L95.1582 28.5161ZM125.625 19.4135L125.621 18.4135L125.62 18.4135L125.625 19.4135ZM173.516 19.3804L173.517 18.3804L173.517 18.3804L173.516 19.3804ZM185.488 19.3947L185.487 20.3947H185.488V19.3947ZM202.678 36.6407L203.678 36.6471L203.678 36.6444L202.678 36.6407ZM202.676 36.8986L201.676 36.8922V36.8986H202.676ZM202.676 36.8988L203.676 36.9051V36.8988H202.676ZM202.038 45.1979L201.063 44.9788L201.062 44.9798L202.038 45.1979ZM186.579 57.6293L186.554 56.6296L186.55 56.6297L186.579 57.6293ZM181.08 57.6585L181.086 56.6585H181.08V57.6585ZM181.079 57.6585L181.073 58.6585H181.079V57.6585ZM178.567 57.6481V56.6481H177.297L177.595 57.8827L178.567 57.6481ZM179.11 59.8392L178.14 60.0827L178.141 60.0876L179.11 59.8392ZM179.11 59.8401L180.08 59.5967L180.079 59.5918L179.11 59.8401ZM180.072 63.8732L181.05 63.6653L181.05 63.6649L180.072 63.8732ZM156.074 121.742L155.526 120.906L155.526 120.906L156.074 121.742ZM125.4 130.864L125.404 131.864L125.405 131.864L125.4 130.864ZM85.2428 130.893L85.2437 129.893H85.2428V130.893ZM85.2333 130.893L85.2324 131.893H85.2333V130.893ZM50.5292 113.317L49.5292 113.31L49.5292 113.311L50.5292 113.317ZM50.5309 113.063L51.5309 113.069V113.063H50.5309ZM50.5309 113.063L49.5309 113.056V113.063H50.5309ZM51.1498 105.155L52.1247 105.377L52.1259 105.372L51.1498 105.155ZM66.7408 92.629L66.7608 93.6288L66.761 93.6288L66.7408 92.629ZM70.4952 92.6207L70.4885 93.6207H70.4952V92.6207ZM70.4953 92.6207L70.502 91.6207H70.4953V92.6207ZM73.9063 75.0821L72.9063 75.0815L72.9063 75.0815L73.9063 75.0821ZM177.175 75.4959L178.175 75.4986L178.175 75.4985L177.175 75.4959ZM125.644 23.4946L125.643 24.4946L125.643 24.4946L125.644 23.4946ZM147.567 23.8535L146.919 24.615L146.919 24.6151L147.567 23.8535ZM147.159 23.5134V22.5134H144.349L146.528 24.2886L147.159 23.5134ZM147.874 24.0776L148.285 23.1661L148.239 23.1451L148.19 23.1289L147.874 24.0776ZM176.498 52.5138L175.589 52.9298L175.59 52.9328L176.498 52.5138ZM178.191 53.4917L178.225 52.4923L178.223 52.4922L178.191 53.4917ZM186.617 53.5105L186.593 52.5108L186.59 52.5109L186.617 53.5105ZM198.126 44.1259L197.147 43.9225L197.147 43.9252L198.126 44.1259ZM198.544 37.5882H197.544L197.544 37.5932L198.544 37.5882ZM198.544 37.5857L199.544 37.5857L199.544 37.5807L198.544 37.5857ZM198.54 36.5655L197.54 36.5606V36.5655H198.54ZM185.582 23.5134L185.58 24.5134H185.582V23.5134ZM163.111 23.5092L163.111 24.5092L163.112 24.5092L163.111 23.5092ZM163.109 23.5092L163.109 22.5092L163.108 22.5092L163.109 23.5092ZM103.527 126.594L102.557 126.352L102.557 126.352L103.527 126.594ZM103.49 126.764V127.764H104.337L104.476 126.928L103.49 126.764ZM103.565 126.425L104.551 126.59L104.673 125.861L104.012 125.531L103.565 126.425ZM103.027 126.15L103.486 125.262L103.485 125.262L103.027 126.15ZM103.026 126.15L102.535 127.021L102.551 127.03L102.567 127.038L103.026 126.15ZM103.025 126.149L103.516 125.278L103.5 125.269L103.484 125.261L103.025 126.149ZM102.192 125.729L102.625 124.828L102.616 124.824L102.192 125.729ZM77.0659 102.616L76.1976 103.112L76.1977 103.112L77.0659 102.616ZM76.1401 100.739L75.2116 101.11L75.2207 101.133L75.231 101.156L76.1401 100.739ZM76.14 100.739L77.0685 100.367L77.0594 100.345L77.0491 100.322L76.14 100.739ZM73.5113 96.9735L73.9929 96.097L73.9915 96.0963L73.5113 96.9735ZM68.7084 96.6056L68.6147 95.61L68.6147 95.61L68.7084 96.6056ZM66.6468 96.7478L66.6307 95.7479L66.6267 95.748L66.6468 96.7478ZM54.9865 106.227L54.0068 106.026L54.0068 106.026L54.9865 106.227ZM54.5879 112.553L55.5879 112.553L55.5879 112.547L54.5879 112.553ZM54.5879 112.554H53.5879L53.5879 112.559L54.5879 112.554ZM54.5915 113.58L55.5915 113.585V113.58H54.5915ZM67.6436 126.764L67.6412 127.764L67.6419 127.764L67.6436 126.764ZM90.384 126.768L90.3834 125.768L90.3834 125.768L90.384 126.768ZM150.956 47.3215L151.348 46.4017L150.718 46.1331L150.24 46.623L150.956 47.3215ZM137.039 61.5772L136.399 62.3459L137.109 62.9366L137.754 62.2758L137.039 61.5772ZM164.384 77.1494V78.1494H165.383L165.384 77.1501L164.384 77.1494ZM143.32 77.1494V76.1494H142.422L142.326 77.042L143.32 77.1494ZM139.728 85.951L138.94 85.3358L138.389 86.0414L139.029 86.6665L139.728 85.951ZM154.059 99.9434L154.979 100.336L155.248 99.7064L154.758 99.2279L154.059 99.9434ZM124.212 113.372H123.212V114.372H124.212V113.372ZM124.212 92.7027H125.212V91.7895L124.303 91.7068L124.212 92.7027ZM114.884 88.979L115.505 88.1948L114.797 87.6351L114.168 88.281L114.884 88.979ZM101.155 103.065L100.763 103.985L101.393 104.254L101.871 103.763L101.155 103.065ZM87.7079 73.2187V72.2187H86.7079V73.2187H87.7079ZM108.339 73.2187V74.2187H109.234L109.333 73.3291L108.339 73.2187ZM112.364 63.8152L113.129 64.4587L113.727 63.7475L113.062 63.0991L112.364 63.8152ZM98.3338 50.1426L97.4142 49.7497L97.1449 50.3802L97.6359 50.8587L98.3338 50.1426ZM128.181 36.7144H129.181V35.7144H128.181V36.7144ZM128.181 57.7406H127.181V58.619L128.052 58.7322L128.181 57.7406ZM143.602 80.7415V79.7415H142.602V80.7415H143.602ZM146.104 80.7415H147.104V79.7415H146.104V80.7415ZM143.602 88.4712H142.602V89.4712H143.602V88.4712ZM146.104 88.4712V89.4712H147.104V88.4712H146.104ZM148.191 79.7447V78.7447H147.191V79.7447H148.191ZM151.012 79.7447H152.012V78.7447H151.012V79.7447ZM148.191 89.4491H147.191V90.4491H148.191V89.4491ZM151.012 89.4491V90.4491H152.012V89.4491H151.012ZM153.608 78.4847V77.4847H152.608V78.4847H153.608ZM157.256 78.4847H158.256V77.4847H157.256V78.4847ZM153.608 90.7092H152.608V91.7092H153.608V90.7092ZM157.256 90.7092V91.7092H158.256V90.7092H157.256ZM159.757 78.1085V77.1085H158.757V78.1085H159.757ZM163.5 78.1085H164.5V77.1085H163.5V78.1085ZM159.757 91.1041H158.757V92.1041H159.757V91.1041ZM163.5 91.1041V92.1041H164.5V91.1041H163.5ZM112.401 92.7215V91.7215H111.401V92.7215H112.401ZM120.112 92.7215H121.112V91.7215H120.112V92.7215ZM112.401 95.2229H111.401V96.2229H112.401V95.2229ZM120.112 95.2229V96.2229H121.112V95.2229H120.112ZM111.405 97.3104V96.3104H110.405V97.3104H111.405ZM121.09 97.3104H122.09V96.3104H121.09V97.3104ZM111.405 100.131H110.405V101.131H111.405V100.131ZM121.09 100.131V101.131H122.09V100.131H121.09ZM110.145 102.727V101.727H109.145V102.727H110.145ZM122.369 102.727H123.369V101.727H122.369V102.727ZM110.145 106.375H109.145V107.375H110.145V106.375ZM122.369 106.375V107.375H123.369V106.375H122.369ZM109.75 108.877V107.877H108.75V108.877H109.75ZM122.745 108.877H123.745V107.877H122.745V108.877ZM109.75 112.619H108.75V113.619H109.75V112.619ZM122.745 112.619V113.619H123.745V112.619H122.745ZM105.575 61.596V60.596H104.575V61.596H105.575ZM108.057 61.596H109.057V60.596H108.057V61.596ZM105.575 69.3069H104.575V70.3069H105.575V69.3069ZM108.057 69.3069V70.3069H109.057V69.3069H108.057ZM100.666 60.618V59.618H99.6659V60.618H100.666ZM103.487 60.618H104.487V59.618H103.487V60.618ZM100.666 70.3036H99.6659V71.3036H100.666V70.3036ZM103.487 70.3036V71.3036H104.487V70.3036H103.487ZM94.422 59.358V58.358H93.422V59.358H94.422ZM98.0705 59.358H99.0705V58.358H98.0705V59.358ZM94.422 71.5637H93.422V72.5637H94.422V71.5637ZM98.0705 71.5637V72.5637H99.0705V71.5637H98.0705ZM88.1781 58.963V57.963H87.1781V58.963H88.1781ZM91.9207 58.963H92.9207V57.963H91.9207V58.963ZM88.1781 71.9586H87.1781V72.9586H88.1781V71.9586ZM91.9207 71.9586V72.9586H92.9207V71.9586H91.9207ZM132.318 55.5213V54.5213H131.318V55.5213H132.318ZM140.029 55.5213H141.029V54.5213H140.029V55.5213ZM132.318 58.0039H131.318V59.0039H132.318V58.0039ZM140.029 58.0039V59.0039H141.029V58.0039H140.029ZM131.321 50.6127V49.6127H130.321V50.6127H131.321ZM141.007 50.6127H142.007V49.6127H141.007V50.6127ZM131.321 53.4338H130.321V54.4338H131.321V53.4338ZM141.007 53.4338V54.4338H142.007V53.4338H141.007ZM130.061 44.3688V43.3688H129.061V44.3688H130.061ZM142.286 44.3688H143.286V43.3688H142.286V44.3688ZM130.061 48.0174H129.061V49.0174H130.061V48.0174ZM142.286 48.0174V49.0174H143.286V48.0174H142.286ZM129.685 38.1249V37.1249H128.685V38.1249H129.685ZM142.681 38.1249H143.681V37.1249H142.681V38.1249ZM129.685 41.8675H128.685V42.8675H129.685V41.8675ZM142.681 41.8675V42.8675H143.681V41.8675H142.681ZM27 1C12.6406 1 1 12.6406 1 27H3C3 13.7452 13.7452 3 27 3V1ZM227 1H27V3H227V1ZM253 27C253 12.6406 241.359 1 227 1V3C240.255 3 251 13.7452 251 27H253ZM253 117V27H251V117H253ZM227 143C241.359 143 253 131.359 253 117H251C251 130.255 240.255 141 227 141V143ZM27 143H227V141H27V143ZM1 117C1 131.359 12.6406 143 27 143V141C13.7452 141 3 130.255 3 117H1ZM1 27V117H3V27H1ZM210.827 62.545C212.562 62.9976 214.189 62.8446 215.695 61.9883C217.163 61.1541 218.424 59.704 219.578 57.7393L217.853 56.7267C216.787 58.5422 215.745 59.6593 214.707 60.2497C213.707 60.8181 212.625 60.9471 211.332 60.6098L210.827 62.545ZM205.378 53.7349C205.378 56.1283 205.739 58.0831 206.637 59.581C207.561 61.1211 208.979 62.0592 210.826 62.5446L211.334 60.6103C209.889 60.2305 208.957 59.5606 208.352 58.5524C207.722 57.5019 207.378 55.968 207.378 53.7349H205.378ZM205.396 44.9304C205.387 47.864 205.378 50.7993 205.378 53.7349H207.378C207.378 50.803 207.387 47.8708 207.396 44.9367L205.396 44.9304ZM205.322 22.9456C205.442 30.269 205.419 37.594 205.396 44.9304L207.396 44.9367C207.419 37.6035 207.443 30.2589 207.321 22.9126L205.322 22.9456ZM210.497 13.9504C208.588 14.8173 207.246 16.03 206.408 17.5988C205.581 19.148 205.292 20.9565 205.322 22.944L207.321 22.9142C207.295 21.1214 207.561 19.6858 208.172 18.5409C208.773 17.4156 209.754 16.4842 211.324 15.7714L210.497 13.9504ZM214.202 13.8609H210.91V15.8609H214.202V13.8609ZM219.637 18.9628C218.562 16.7106 216.892 15.0156 214.625 13.9551L213.778 15.7666C215.611 16.6245 216.95 17.9762 217.832 19.8239L219.637 18.9628ZM219.715 57.233C219.715 44.6322 219.715 32.0135 219.734 19.3949L217.734 19.3919C217.715 32.0122 217.715 44.6325 217.715 57.233H219.715ZM35.271 93.1342C36.3368 91.3187 37.3789 90.2016 38.4174 89.6113C39.4173 89.0429 40.4988 88.9138 41.7918 89.2511L42.2967 87.3159C40.5617 86.8633 38.9351 87.0164 37.429 87.8726C35.9614 88.7068 34.6997 90.1569 33.5462 92.1217L35.271 93.1342ZM35.3898 130.469C35.4086 117.849 35.4086 105.228 35.4086 92.6279H33.4086C33.4086 105.229 33.4086 117.847 33.3898 130.466L35.3898 130.469ZM39.3461 134.094C37.5127 133.236 36.1738 131.885 35.2924 130.037L33.4873 130.898C34.5617 133.15 36.232 134.845 38.4985 135.906L39.3461 134.094ZM42.2135 134H38.9223V136H42.2135V134ZM45.8025 126.947C45.8293 128.74 45.5632 130.175 44.9518 131.32C44.3508 132.445 43.37 133.377 41.8001 134.09L42.6269 135.911C44.5363 135.044 45.8782 133.831 46.7159 132.262C47.5433 130.713 47.832 128.904 47.8023 126.917L45.8025 126.947ZM45.7276 104.925C45.7045 112.258 45.6815 119.602 45.8025 126.948L47.8023 126.915C47.6816 119.592 47.7045 112.268 47.7276 104.931L45.7276 104.925ZM45.7276 104.928V104.928H47.7276V104.928H45.7276ZM45.746 96.126C45.746 99.0581 45.7368 101.99 45.7276 104.924L47.7276 104.931C47.7368 101.997 47.746 99.0617 47.746 96.126H45.746ZM41.79 89.2507C43.2348 89.6304 44.1672 90.3003 44.7717 91.3085C45.4016 92.359 45.746 93.8929 45.746 96.126H47.746C47.746 93.7326 47.3851 91.7778 46.487 90.28C45.5634 88.7398 44.1449 87.8017 42.2985 87.3164L41.79 89.2507ZM70.585 89.0496C70.8565 90.3036 71.1265 91.5509 71.3623 92.8128L73.3283 92.4453C73.0863 91.1509 72.8102 89.876 72.5397 88.6264L70.585 89.0496ZM69.2042 80.8946C69.4157 83.6569 70.0051 86.3715 70.585 89.0496L72.5397 88.6264C71.9546 85.9244 71.3976 83.3444 71.1984 80.7419L69.2042 80.8946ZM94.5936 27.6907C75.9011 40.4773 67.4848 58.3701 69.2042 80.8944L71.1984 80.7422C69.5326 58.9195 77.6288 41.7186 95.7228 29.3414L94.5936 27.6907ZM125.62 18.4135C114.426 18.4708 103.919 21.32 94.5941 27.6903L95.7222 29.3418C104.677 23.2243 114.783 20.469 125.631 20.4135L125.62 18.4135ZM173.517 18.3804C157.554 18.3593 141.588 18.3383 125.621 18.4135L125.63 20.4135C141.59 20.3383 157.55 20.3593 173.514 20.3804L173.517 18.3804ZM185.489 18.3947C181.498 18.3909 177.508 18.3857 173.517 18.3804L173.514 20.3804C177.505 20.3857 181.496 20.3909 185.487 20.3947L185.489 18.3947ZM203.678 36.6444C203.697 31.3349 201.841 26.7598 198.599 23.51C195.357 20.2604 190.787 18.3947 185.488 18.3947V20.3947C190.307 20.3947 194.351 22.0835 197.183 24.9226C200.016 27.7616 201.696 31.8095 201.678 36.637L203.678 36.6444ZM203.676 36.9051L203.678 36.6471L201.678 36.6342L201.676 36.8922L203.676 36.9051ZM203.676 36.8988V36.8986H201.676V36.8988H203.676ZM203.014 45.4169C203.644 42.6122 203.658 39.6614 203.676 36.9051L201.676 36.8924C201.658 39.6898 201.637 42.4206 201.063 44.9788L203.014 45.4169ZM186.604 58.6289C194.505 58.4299 201.292 53.1278 203.014 45.4159L201.062 44.9798C199.55 51.7493 193.586 56.4525 186.554 56.6296L186.604 58.6289ZM181.074 58.6584C182.951 58.6702 184.782 58.6818 186.608 58.6288L186.55 56.6297C184.766 56.6814 182.97 56.6703 181.086 56.6585L181.074 58.6584ZM181.08 58.6585H181.08V56.6585H181.08V58.6585ZM181.079 58.6585H181.08V56.6585H181.079V58.6585ZM178.567 58.6481C179.417 58.6481 180.249 58.6533 181.073 58.6584L181.086 56.6585C180.263 56.6533 179.424 56.6481 178.567 56.6481V58.6481ZM180.08 59.5958C179.9 58.8796 179.718 58.1561 179.539 57.4134L177.595 57.8827C177.777 58.6356 177.961 59.3678 178.14 60.0827L180.08 59.5958ZM180.079 59.5918L180.079 59.5909L178.141 60.0876L178.141 60.0885L180.079 59.5918ZM181.05 63.6649C180.761 62.3096 180.424 60.9654 180.08 59.5967L178.14 60.0836C178.485 61.4585 178.814 62.7674 179.094 64.0815L181.05 63.6649ZM156.622 122.579C176.147 109.792 185.876 86.3779 181.05 63.6653L179.094 64.081C183.746 85.9786 174.367 108.566 155.526 120.906L156.622 122.579ZM125.405 131.864C136.667 131.806 147.126 128.801 156.622 122.579L155.526 120.906C146.366 126.908 136.287 129.808 125.395 129.864L125.405 131.864ZM85.2419 131.893C98.6272 131.904 112.015 131.916 125.404 131.864L125.396 129.864C112.013 129.916 98.6297 129.904 85.2437 129.893L85.2419 131.893ZM85.2333 131.893H85.2428V129.893H85.2333V131.893ZM68.0197 131.882C73.757 131.882 79.4945 131.888 85.2324 131.893L85.2342 129.893C79.4964 129.888 73.7581 129.882 68.0197 129.882V131.882ZM49.5292 113.311C49.4998 118.824 51.3185 123.484 54.5959 126.769C57.8729 130.054 62.5277 131.882 68.0197 131.882V129.882C62.9798 129.882 58.8611 128.213 56.0118 125.357C53.1628 122.501 51.5022 118.379 51.5292 113.322L49.5292 113.311ZM49.531 113.056L49.5292 113.31L51.5292 113.323L51.5309 113.069L49.531 113.056ZM49.5309 113.063V113.063H51.5309V113.063H49.5309ZM50.175 104.932C49.5632 107.608 49.5485 110.43 49.531 113.056L51.5309 113.069C51.5487 110.402 51.5702 107.803 52.1247 105.377L50.175 104.932ZM66.7209 91.6292C58.7388 91.7885 51.9148 97.1326 50.1738 104.937L52.1259 105.372C53.6573 98.507 59.6596 93.7705 66.7608 93.6288L66.7209 91.6292ZM70.5019 91.6208C69.2547 91.6124 67.9804 91.6038 66.7206 91.6292L66.761 93.6288C67.9893 93.604 69.2366 93.6123 70.4885 93.6207L70.5019 91.6208ZM70.4953 91.6207H70.4952V93.6207H70.4953V91.6207ZM72.3453 91.629C71.7376 91.629 71.1232 91.6249 70.502 91.6208L70.4886 93.6207C71.1086 93.6249 71.7298 93.629 72.3453 93.629V91.629ZM125.531 125.764C97.5544 125.764 74.8878 103.061 74.9063 75.0828L72.9063 75.0815C72.8871 104.164 96.4482 127.764 125.531 127.764V125.764ZM176.175 75.4932C176.102 103.167 153.346 125.764 125.531 125.764V127.764C154.439 127.764 178.099 104.283 178.175 75.4986L176.175 75.4932ZM125.643 24.4946C153.672 24.5315 176.249 47.3042 176.175 75.4933L178.175 75.4985C178.252 46.2135 154.79 22.533 125.646 22.4946L125.643 24.4946ZM74.9063 75.0828C74.9247 47.1249 97.6643 24.4577 125.643 24.4946L125.646 22.4946C96.5639 22.4563 72.9255 46.0166 72.9063 75.0815L74.9063 75.0828ZM148.215 23.092C148.118 23.0094 147.982 22.894 147.791 22.7382L146.528 24.2886C146.702 24.4304 146.824 24.5347 146.919 24.615L148.215 23.092ZM148.19 23.1289C148.215 23.1371 148.238 23.1463 148.26 23.1564C148.282 23.1664 148.301 23.1763 148.316 23.1849C148.345 23.2014 148.361 23.2135 148.358 23.2111C148.357 23.2103 148.353 23.2075 148.346 23.2017C148.338 23.1959 148.329 23.1881 148.316 23.1777C148.304 23.1674 148.289 23.1553 148.272 23.1408C148.255 23.1262 148.236 23.1103 148.215 23.092L146.919 24.6151C146.993 24.6784 147.08 24.7529 147.157 24.8108C147.245 24.8767 147.378 24.9662 147.558 25.0263L148.19 23.1289ZM177.408 52.0977C171.326 38.8055 161.594 29.1703 148.285 23.1661L147.463 24.9892C160.333 30.7957 169.71 40.0803 175.589 52.9298L177.408 52.0977ZM178.223 52.4922C178.143 52.4897 177.935 52.4388 177.701 52.3073C177.594 52.2473 177.509 52.1852 177.451 52.1323C177.387 52.0741 177.389 52.0569 177.406 52.0947L175.59 52.9328C175.835 53.4618 176.332 53.8321 176.721 54.0508C177.131 54.2814 177.656 54.475 178.159 54.4912L178.223 52.4922ZM186.59 52.5109C183.805 52.5856 181.004 52.5856 178.225 52.4923L178.157 54.4912C180.982 54.586 183.823 54.5859 186.643 54.5102L186.59 52.5109ZM197.147 43.9252C196.136 48.8576 191.704 52.3895 186.593 52.5108L186.64 54.5103C192.626 54.3682 197.897 50.2269 199.106 44.3266L197.147 43.9252ZM197.544 37.5932C197.555 39.8077 197.561 41.9281 197.147 43.9225L199.105 44.3292C199.57 42.0929 199.554 39.7575 199.544 37.5832L197.544 37.5932ZM197.544 37.5857V37.5882H199.544V37.5857H197.544ZM197.54 36.5655C197.54 36.9073 197.542 37.2501 197.544 37.5907L199.544 37.5807C199.542 37.2392 199.54 36.9014 199.54 36.5655H197.54ZM185.582 24.5134C189.225 24.5134 192.207 25.7426 194.272 27.8179C196.336 29.893 197.558 32.8888 197.54 36.5606L199.54 36.5703C199.56 32.4372 198.177 28.907 195.69 26.4073C193.203 23.9078 189.687 22.5134 185.582 22.5134V24.5134ZM163.112 24.5092C170.603 24.5051 178.096 24.5009 185.58 24.5134L185.584 22.5134C178.097 22.5009 170.602 22.5051 163.11 22.5092L163.112 24.5092ZM163.111 24.5092H163.111V22.5092H163.111V24.5092ZM163.109 24.5092H163.111V22.5092H163.109V24.5092ZM151.88 24.5134C155.622 24.5134 159.365 24.5113 163.109 24.5092L163.108 22.5092C159.364 22.5113 155.621 22.5134 151.88 22.5134V24.5134ZM147.159 24.5134H151.88V22.5134H147.159V24.5134ZM102.557 126.352C102.545 126.401 102.52 126.497 102.503 126.599L104.476 126.928C104.478 126.918 104.482 126.9 104.497 126.837L102.557 126.352ZM102.579 126.261C102.577 126.271 102.573 126.289 102.557 126.352L104.497 126.837C104.51 126.787 104.534 126.692 104.551 126.59L102.579 126.261ZM102.568 127.039C102.747 127.131 102.932 127.227 103.118 127.32L104.012 125.531C103.84 125.445 103.667 125.355 103.486 125.262L102.568 127.039ZM102.567 127.038L102.569 127.039L103.485 125.262L103.484 125.261L102.567 127.038ZM102.535 127.021L102.535 127.021L103.516 125.278L103.516 125.278L102.535 127.021ZM101.759 126.631C102.027 126.759 102.291 126.895 102.566 127.038L103.484 125.261C103.213 125.121 102.923 124.971 102.625 124.828L101.759 126.631ZM76.1977 103.112C82.2251 113.655 90.7689 121.489 101.768 126.635L102.616 124.824C91.987 119.851 83.755 112.301 77.934 102.119L76.1977 103.112ZM75.231 101.156C75.5237 101.794 75.8389 102.484 76.1976 103.112L77.9341 102.119C77.6278 101.583 77.3499 100.979 77.0492 100.322L75.231 101.156ZM75.2115 101.11L75.2116 101.11L77.0685 100.368L77.0685 100.367L75.2115 101.11ZM73.0298 97.8499C73.4207 98.0647 73.7896 98.4575 74.1652 99.0555C74.5412 99.6542 74.8695 100.367 75.2309 101.155L77.0491 100.322C76.7003 99.561 76.3177 98.7224 75.8588 97.9917C75.3994 97.2603 74.8091 96.5455 73.9929 96.097L73.0298 97.8499ZM68.802 97.6012C69.6942 97.5173 70.5111 97.4419 71.2588 97.4648C72.0051 97.4877 72.588 97.608 73.0312 97.8507L73.9915 96.0963C73.1569 95.6395 72.2167 95.4933 71.3201 95.4658C70.425 95.4383 69.4793 95.5287 68.6147 95.61L68.802 97.6012ZM66.6629 97.7476C67.373 97.7362 68.1105 97.6663 68.802 97.6012L68.6147 95.61C67.9071 95.6766 67.249 95.7379 66.6307 95.7479L66.6629 97.7476ZM55.9661 106.427C56.9951 101.402 61.4819 97.8516 66.6669 97.7476L66.6267 95.748C60.5651 95.8696 55.2347 100.03 54.0068 106.026L55.9661 106.427ZM55.5879 112.547C55.5765 110.4 55.5695 108.365 55.9662 106.427L54.0068 106.026C53.5612 108.202 53.5768 110.449 53.5879 112.558L55.5879 112.547ZM55.5879 112.554V112.553H53.5879V112.554H55.5879ZM55.5915 113.58C55.5915 113.235 55.5897 112.89 55.5879 112.548L53.5879 112.559C53.5897 112.902 53.5915 113.242 53.5915 113.58H55.5915ZM67.646 125.764C63.9203 125.755 60.9169 124.526 58.8513 122.444C56.7858 120.361 55.5738 117.339 55.5915 113.585L53.5915 113.575C53.5717 117.776 54.9362 121.337 57.4313 123.852C59.9265 126.368 63.4679 127.754 67.6412 127.764L67.646 125.764ZM90.3834 125.768C82.804 125.772 75.2287 125.776 67.6452 125.764L67.6419 127.764C75.228 127.776 82.8055 127.772 90.3845 127.768L90.3834 125.768ZM101.759 125.764C97.9657 125.764 94.174 125.766 90.3834 125.768L90.3845 127.768C94.1752 127.766 97.9663 127.764 101.759 127.764V125.764ZM103.49 125.764H101.759V127.764H103.49V125.764ZM119.946 75.043C119.946 71.6646 122.677 68.934 126.055 68.934V66.934C121.572 66.934 117.946 70.5601 117.946 75.043H119.946ZM126.055 81.152C122.677 81.152 119.946 78.4214 119.946 75.043H117.946C117.946 79.5259 121.572 83.152 126.055 83.152V81.152ZM132.164 75.043C132.164 78.4214 129.434 81.152 126.055 81.152V83.152C130.538 83.152 134.164 79.5259 134.164 75.043H132.164ZM126.055 68.934C129.434 68.934 132.164 71.6646 132.164 75.043H134.164C134.164 70.5601 130.538 66.934 126.055 66.934V68.934ZM150.24 46.623L136.323 60.8786L137.754 62.2758L151.671 48.0201L150.24 46.623ZM165.384 77.1501C165.393 64.9051 161.976 57.2318 158.475 52.5981C156.729 50.2878 154.975 48.7502 153.644 47.7847C152.978 47.3021 152.419 46.9625 152.019 46.7405C151.818 46.6295 151.658 46.5479 151.544 46.4925C151.487 46.4648 151.442 46.4437 151.409 46.4287C151.392 46.4212 151.379 46.4152 151.369 46.4107C151.364 46.4085 151.359 46.4066 151.356 46.4051C151.354 46.4044 151.353 46.4037 151.351 46.4031C151.351 46.4028 151.35 46.4025 151.35 46.4023C151.349 46.402 151.348 46.4017 150.956 47.3215C150.563 48.2413 150.563 48.2411 150.562 48.2408C150.562 48.2407 150.562 48.2405 150.561 48.2404C150.561 48.2402 150.56 48.2401 150.56 48.24C150.56 48.2399 150.561 48.2402 150.562 48.2408C150.565 48.242 150.571 48.2447 150.58 48.2487C150.598 48.2569 150.628 48.2709 150.669 48.2911C150.752 48.3315 150.881 48.3966 151.049 48.4895C151.384 48.6754 151.874 48.9721 152.469 49.4037C153.659 50.2666 155.266 51.6688 156.879 53.8039C160.096 58.0612 163.393 65.3019 163.384 77.1486L165.384 77.1501ZM143.32 78.1494H164.384V76.1494H143.32V78.1494ZM140.516 86.5662C142.562 83.9451 143.936 80.762 144.314 77.2567L142.326 77.042C141.99 80.1568 140.769 82.9919 138.94 85.3358L140.516 86.5662ZM154.758 99.2279L140.427 85.2355L139.029 86.6665L153.36 100.659L154.758 99.2279ZM124.212 114.372C136.466 114.372 144.144 110.955 148.779 107.456C151.091 105.711 152.629 103.959 153.595 102.629C154.078 101.965 154.418 101.406 154.64 101.006C154.751 100.806 154.832 100.646 154.888 100.532C154.915 100.475 154.937 100.43 154.952 100.397C154.959 100.38 154.965 100.367 154.969 100.357C154.972 100.352 154.974 100.348 154.975 100.344C154.976 100.342 154.977 100.341 154.977 100.34C154.977 100.339 154.978 100.338 154.978 100.338C154.978 100.337 154.979 100.336 154.059 99.9434C153.139 99.5506 153.14 99.55 153.14 99.5494C153.14 99.5493 153.14 99.5487 153.14 99.5485C153.14 99.548 153.141 99.5477 153.141 99.5476C153.141 99.5474 153.14 99.5479 153.14 99.5493C153.139 99.5521 153.136 99.558 153.132 99.5669C153.124 99.5848 153.11 99.6149 153.09 99.6564C153.049 99.7393 152.984 99.8676 152.891 100.035C152.705 100.369 152.409 100.86 151.977 101.454C151.114 102.642 149.711 104.247 147.575 105.859C143.315 109.074 136.069 112.372 124.212 112.372V114.372ZM123.212 92.7027V113.372H125.212V92.7027H123.212ZM114.263 89.7631C117.026 91.9491 120.406 93.3608 124.122 93.6986L124.303 91.7068C120.985 91.4052 117.971 90.1463 115.505 88.1948L114.263 89.7631ZM101.871 103.763L115.6 89.6769L114.168 88.281L100.439 102.367L101.871 103.763ZM86.7079 73.2187C86.7079 85.4729 90.1298 93.1506 93.6336 97.7865C95.3806 100.098 97.1352 101.636 98.4666 102.602C99.1321 103.085 99.6918 103.424 100.092 103.646C100.292 103.757 100.453 103.839 100.567 103.894C100.623 103.922 100.669 103.943 100.702 103.958C100.718 103.966 100.732 103.972 100.742 103.976C100.747 103.978 100.751 103.98 100.755 103.982C100.756 103.983 100.758 103.983 100.759 103.984C100.76 103.984 100.761 103.984 100.761 103.985C100.762 103.985 100.763 103.985 101.155 103.065C101.547 102.146 101.548 102.146 101.548 102.146C101.549 102.146 101.549 102.146 101.549 102.146C101.55 102.147 101.55 102.147 101.55 102.147C101.55 102.147 101.55 102.147 101.548 102.146C101.546 102.145 101.54 102.142 101.531 102.138C101.513 102.13 101.483 102.116 101.441 102.096C101.358 102.055 101.23 101.99 101.062 101.897C100.727 101.711 100.236 101.415 99.641 100.983C98.4511 100.12 96.8439 98.717 95.2291 96.5805C92.0095 92.3207 88.7079 85.0751 88.7079 73.2187H86.7079ZM108.339 72.2187H87.7079V74.2187H108.339V72.2187ZM111.598 63.1718C109.293 65.9148 107.763 69.3529 107.345 73.1083L109.333 73.3291C109.706 69.9755 111.072 66.9063 113.129 64.4587L111.598 63.1718ZM97.6359 50.8587L111.666 64.5314L113.062 63.0991L99.0318 49.4264L97.6359 50.8587ZM128.181 35.7144C115.927 35.7144 108.249 39.1314 103.613 42.6303C101.302 44.3749 99.7637 46.127 98.7978 47.4567C98.315 48.1213 97.9752 48.6803 97.7532 49.08C97.6422 49.2799 97.5605 49.4401 97.5051 49.5539C97.4774 49.6108 97.4562 49.6561 97.4412 49.689C97.4337 49.7055 97.4277 49.7189 97.4232 49.729C97.421 49.7341 97.4191 49.7383 97.4176 49.7418C97.4169 49.7435 97.4162 49.7451 97.4157 49.7464C97.4154 49.747 97.415 49.7479 97.4149 49.7482C97.4145 49.749 97.4142 49.7497 98.3338 50.1426C99.2534 50.5354 99.2532 50.536 99.2529 50.5366C99.2529 50.5367 99.2526 50.5373 99.2525 50.5375C99.2523 50.538 99.2522 50.5383 99.2521 50.5384C99.2521 50.5386 99.2523 50.538 99.2529 50.5367C99.2541 50.5339 99.2568 50.528 99.2608 50.519C99.269 50.5011 99.283 50.4711 99.3032 50.4296C99.3436 50.3467 99.4087 50.2184 99.5016 50.0511C99.6875 49.7165 99.9842 49.2264 100.416 48.6321C101.279 47.444 102.682 45.8391 104.818 44.2266C109.078 41.0115 116.324 37.7144 128.181 37.7144V35.7144ZM129.181 57.7406V36.7144H127.181V57.7406H129.181ZM137.678 60.8085C135.068 58.6364 131.825 57.2057 128.309 56.7489L128.052 58.7322C131.194 59.1406 134.082 60.4181 136.399 62.3459L137.678 60.8085ZM126.055 84.7065C120.719 84.7065 116.373 80.375 116.373 75.043H114.373C114.373 81.4842 119.619 86.7065 126.055 86.7065V84.7065ZM135.719 75.043C135.719 80.3773 131.39 84.7065 126.055 84.7065V86.7065C132.494 86.7065 137.719 81.4819 137.719 75.043H135.719ZM126.055 65.3794C131.388 65.3794 135.719 69.7264 135.719 75.043H137.719C137.719 68.6241 132.495 63.3794 126.055 63.3794V65.3794ZM116.373 75.043C116.373 69.711 120.719 65.3794 126.055 65.3794V63.3794C119.619 63.3794 114.373 68.6018 114.373 75.043H116.373ZM143.602 81.7415H146.104V79.7415H143.602V81.7415ZM144.602 88.4712V80.7415H142.602V88.4712H144.602ZM146.104 87.4712H143.602V89.4712H146.104V87.4712ZM145.104 80.7415V88.4712H147.104V80.7415H145.104ZM148.191 80.7447H151.012V78.7447H148.191V80.7447ZM149.191 89.4491V79.7447H147.191V89.4491H149.191ZM151.012 88.4491H148.191V90.4491H151.012V88.4491ZM150.012 79.7447V89.4491H152.012V79.7447H150.012ZM153.608 79.4847H157.256V77.4847H153.608V79.4847ZM154.608 90.7092V78.4847H152.608V90.7092H154.608ZM157.256 89.7092H153.608V91.7092H157.256V89.7092ZM156.256 78.4847V90.7092H158.256V78.4847H156.256ZM159.757 79.1085H163.5V77.1085H159.757V79.1085ZM160.757 91.1041V78.1085H158.757V91.1041H160.757ZM163.5 90.1041H159.757V92.1041H163.5V90.1041ZM162.5 78.1085V91.1041H164.5V78.1085H162.5ZM112.401 93.7215H120.112V91.7215H112.401V93.7215ZM113.401 95.2229V92.7215H111.401V95.2229H113.401ZM120.112 94.2229H112.401V96.2229H120.112V94.2229ZM119.112 92.7215V95.2229H121.112V92.7215H119.112ZM111.405 98.3104H121.09V96.3104H111.405V98.3104ZM112.405 100.131V97.3104H110.405V100.131H112.405ZM121.09 99.1315H111.405V101.131H121.09V99.1315ZM120.09 97.3104V100.131H122.09V97.3104H120.09ZM110.145 103.727H122.369V101.727H110.145V103.727ZM111.145 106.375V102.727H109.145V106.375H111.145ZM122.369 105.375H110.145V107.375H122.369V105.375ZM121.369 102.727V106.375H123.369V102.727H121.369ZM109.75 109.877H122.745V107.877H109.75V109.877ZM110.75 112.619V108.877H108.75V112.619H110.75ZM122.745 111.619H109.75V113.619H122.745V111.619ZM121.745 108.877V112.619H123.745V108.877H121.745ZM105.575 62.596H108.057V60.596H105.575V62.596ZM106.575 69.3069V61.596H104.575V69.3069H106.575ZM108.057 68.3069H105.575V70.3069H108.057V68.3069ZM107.057 61.596V69.3069H109.057V61.596H107.057ZM100.666 61.618H103.487V59.618H100.666V61.618ZM101.666 70.3036V60.618H99.6659V70.3036H101.666ZM103.487 69.3036H100.666V71.3036H103.487V69.3036ZM102.487 60.618V70.3036H104.487V60.618H102.487ZM94.422 60.358H98.0705V58.358H94.422V60.358ZM95.422 71.5637V59.358H93.422V71.5637H95.422ZM98.0705 70.5637H94.422V72.5637H98.0705V70.5637ZM97.0705 59.358V71.5637H99.0705V59.358H97.0705ZM88.1781 59.963H91.9207V57.963H88.1781V59.963ZM89.1781 71.9586V58.963H87.1781V71.9586H89.1781ZM91.9207 70.9586H88.1781V72.9586H91.9207V70.9586ZM90.9207 58.963V71.9586H92.9207V58.963H90.9207ZM132.318 56.5213H140.029V54.5213H132.318V56.5213ZM133.318 58.0039V55.5213H131.318V58.0039H133.318ZM140.029 57.0039H132.318V59.0039H140.029V57.0039ZM139.029 55.5213V58.0039H141.029V55.5213H139.029ZM131.321 51.6127H141.007V49.6127H131.321V51.6127ZM132.321 53.4338V50.6127H130.321V53.4338H132.321ZM141.007 52.4338H131.321V54.4338H141.007V52.4338ZM140.007 50.6127V53.4338H142.007V50.6127H140.007ZM130.061 45.3688H142.286V43.3688H130.061V45.3688ZM131.061 48.0174V44.3688H129.061V48.0174H131.061ZM142.286 47.0174H130.061V49.0174H142.286V47.0174ZM141.286 44.3688V48.0174H143.286V44.3688H141.286ZM129.685 39.1249H142.681V37.1249H129.685V39.1249ZM130.685 41.8675V38.1249H128.685V41.8675H130.685ZM142.681 40.8675H129.685V42.8675H142.681V40.8675ZM141.681 38.1249V41.8675H143.681V38.1249H141.681Z" fill="url(#paint0_linear)" mask="url(#path-1-inside-1)"/>
</g>
<g filter="url(#filter2_b)">
<rect x="3" y="60" width="248" height="24" fill="white" fill-opacity="0.4"/>
<rect x="3.5" y="60.5" width="247" height="23" stroke="url(#paint1_linear)"/>
</g>
<path d="M29.9553 65.4V78H27.6513V67.38H21.1173V78H18.8133V65.4H29.9553ZM36.8381 68.28C38.2541 68.28 39.3341 68.622 40.0781 69.306C40.8341 69.978 41.2121 70.998 41.2121 72.366V78H39.0881V76.83C38.8121 77.25 38.4161 77.574 37.9001 77.802C37.3961 78.018 36.7841 78.126 36.0641 78.126C35.3441 78.126 34.7141 78.006 34.1741 77.766C33.6341 77.514 33.2141 77.172 32.9141 76.74C32.6261 76.296 32.4821 75.798 32.4821 75.246C32.4821 74.382 32.8001 73.692 33.4361 73.176C34.0841 72.648 35.0981 72.384 36.4781 72.384H38.9621V72.24C38.9621 71.568 38.7581 71.052 38.3501 70.692C37.9541 70.332 37.3601 70.152 36.5681 70.152C36.0281 70.152 35.4941 70.236 34.9661 70.404C34.4501 70.572 34.0121 70.806 33.6521 71.106L32.7701 69.468C33.2741 69.084 33.8801 68.79 34.5881 68.586C35.2961 68.382 36.0461 68.28 36.8381 68.28ZM36.5321 76.488C37.0961 76.488 37.5941 76.362 38.0261 76.11C38.4701 75.846 38.7821 75.474 38.9621 74.994V73.878H36.6401C35.3441 73.878 34.6961 74.304 34.6961 75.156C34.6961 75.564 34.8581 75.888 35.1821 76.128C35.5061 76.368 35.9561 76.488 36.5321 76.488ZM49.3244 68.28C50.2604 68.28 51.0944 68.484 51.8264 68.892C52.5704 69.3 53.1524 69.876 53.5724 70.62C53.9924 71.364 54.2024 72.222 54.2024 73.194C54.2024 74.166 53.9924 75.03 53.5724 75.786C53.1524 76.53 52.5704 77.106 51.8264 77.514C51.0944 77.922 50.2604 78.126 49.3244 78.126C48.0284 78.126 47.0024 77.694 46.2464 76.83V81.492H43.9964V68.388H46.1384V69.648C46.5104 69.192 46.9664 68.85 47.5064 68.622C48.0584 68.394 48.6644 68.28 49.3244 68.28ZM49.0724 76.2C49.9004 76.2 50.5784 75.924 51.1064 75.372C51.6464 74.82 51.9164 74.094 51.9164 73.194C51.9164 72.294 51.6464 71.568 51.1064 71.016C50.5784 70.464 49.9004 70.188 49.0724 70.188C48.5324 70.188 48.0464 70.314 47.6144 70.566C47.1824 70.806 46.8404 71.154 46.5884 71.61C46.3364 72.066 46.2104 72.594 46.2104 73.194C46.2104 73.794 46.3364 74.322 46.5884 74.778C46.8404 75.234 47.1824 75.588 47.6144 75.84C48.0464 76.08 48.5324 76.2 49.0724 76.2ZM59.9006 68.28C61.3166 68.28 62.3966 68.622 63.1406 69.306C63.8966 69.978 64.2746 70.998 64.2746 72.366V78H62.1506V76.83C61.8746 77.25 61.4786 77.574 60.9626 77.802C60.4586 78.018 59.8466 78.126 59.1266 78.126C58.4066 78.126 57.7766 78.006 57.2366 77.766C56.6966 77.514 56.2766 77.172 55.9766 76.74C55.6886 76.296 55.5446 75.798 55.5446 75.246C55.5446 74.382 55.8626 73.692 56.4986 73.176C57.1466 72.648 58.1606 72.384 59.5406 72.384H62.0246V72.24C62.0246 71.568 61.8206 71.052 61.4126 70.692C61.0166 70.332 60.4226 70.152 59.6306 70.152C59.0906 70.152 58.5566 70.236 58.0286 70.404C57.5126 70.572 57.0746 70.806 56.7146 71.106L55.8326 69.468C56.3366 69.084 56.9426 68.79 57.6506 68.586C58.3586 68.382 59.1086 68.28 59.9006 68.28ZM59.5946 76.488C60.1586 76.488 60.6566 76.362 61.0886 76.11C61.5326 75.846 61.8446 75.474 62.0246 74.994V73.878H59.7026C58.4066 73.878 57.7586 74.304 57.7586 75.156C57.7586 75.564 57.9206 75.888 58.2446 76.128C58.5686 76.368 59.0186 76.488 59.5946 76.488ZM75.7709 68.388V78H73.5209V70.296H69.9209L69.8309 72.204C69.7709 73.476 69.6509 74.544 69.4709 75.408C69.3029 76.26 69.0089 76.938 68.5889 77.442C68.1809 77.934 67.6169 78.18 66.8969 78.18C66.5609 78.18 66.1469 78.114 65.6549 77.982L65.7629 76.092C65.9309 76.128 66.0749 76.146 66.1949 76.146C66.6509 76.146 66.9929 75.966 67.2209 75.606C67.4489 75.234 67.5929 74.796 67.6529 74.292C67.7249 73.776 67.7849 73.044 67.8329 72.096L67.9949 68.388H75.7709ZM87.5131 68.388V78H85.2631V70.296H81.6631L81.5731 72.204C81.5131 73.476 81.3931 74.544 81.2131 75.408C81.0451 76.26 80.7511 76.938 80.3311 77.442C79.9231 77.934 79.3591 78.18 78.6391 78.18C78.3031 78.18 77.8891 78.114 77.3971 77.982L77.5051 76.092C77.6731 76.128 77.8171 76.146 77.9371 76.146C78.3931 76.146 78.7351 75.966 78.9631 75.606C79.1911 75.234 79.3351 74.796 79.3951 74.292C79.4671 73.776 79.5271 73.044 79.5751 72.096L79.7371 68.388H87.5131ZM99.5433 73.248C99.5433 73.404 99.5313 73.626 99.5073 73.914H91.9653C92.0973 74.622 92.4393 75.186 92.9913 75.606C93.5553 76.014 94.2513 76.218 95.0793 76.218C96.1353 76.218 97.0053 75.87 97.6893 75.174L98.8953 76.56C98.4633 77.076 97.9173 77.466 97.2573 77.73C96.5973 77.994 95.8533 78.126 95.0253 78.126C93.9693 78.126 93.0393 77.916 92.2353 77.496C91.4313 77.076 90.8073 76.494 90.3633 75.75C89.9313 74.994 89.7153 74.142 89.7153 73.194C89.7153 72.258 89.9253 71.418 90.3453 70.674C90.7773 69.918 91.3713 69.33 92.1273 68.91C92.8833 68.49 93.7353 68.28 94.6833 68.28C95.6193 68.28 96.4533 68.49 97.1853 68.91C97.9293 69.318 98.5053 69.9 98.9133 70.656C99.3333 71.4 99.5433 72.264 99.5433 73.248ZM94.6833 70.08C93.9633 70.08 93.3513 70.296 92.8473 70.728C92.3553 71.148 92.0553 71.712 91.9473 72.42H97.4013C97.3053 71.724 97.0113 71.16 96.5193 70.728C96.0273 70.296 95.4153 70.08 94.6833 70.08ZM110.593 68.388V78H108.343V70.296H104.743L104.653 72.204C104.593 73.476 104.473 74.544 104.293 75.408C104.125 76.26 103.831 76.938 103.411 77.442C103.003 77.934 102.439 78.18 101.719 78.18C101.383 78.18 100.969 78.114 100.477 77.982L100.585 76.092C100.753 76.128 100.897 76.146 101.017 76.146C101.473 76.146 101.815 75.966 102.043 75.606C102.271 75.234 102.415 74.796 102.475 74.292C102.547 73.776 102.607 73.044 102.655 72.096L102.817 68.388H110.593ZM118.447 71.556C119.671 71.556 120.607 71.832 121.255 72.384C121.915 72.936 122.245 73.716 122.245 74.724C122.245 75.78 121.885 76.596 121.165 77.172C120.445 77.748 119.431 78.03 118.123 78.018L113.623 78V68.388H115.873V71.538L118.447 71.556ZM117.925 76.362C118.585 76.374 119.089 76.236 119.437 75.948C119.785 75.66 119.959 75.24 119.959 74.688C119.959 74.148 119.791 73.752 119.455 73.5C119.119 73.248 118.609 73.116 117.925 73.104L115.873 73.086V76.344L117.925 76.362ZM124.223 68.388H126.473V72.294H131.315V68.388H133.565V78H131.315V74.202H126.473V78H124.223V68.388ZM141.26 71.556C142.484 71.556 143.42 71.832 144.068 72.384C144.716 72.936 145.04 73.716 145.04 74.724C145.04 75.78 144.68 76.596 143.96 77.172C143.252 77.748 142.244 78.03 140.936 78.018L136.58 78V68.388H138.83V71.538L141.26 71.556ZM146.282 68.388H148.532V78H146.282V68.388ZM140.738 76.362C141.398 76.374 141.902 76.236 142.25 75.948C142.598 75.66 142.772 75.24 142.772 74.688C142.772 74.148 142.604 73.752 142.268 73.5C141.932 73.248 141.422 73.116 140.738 73.104L138.83 73.086V76.344L140.738 76.362ZM160.557 73.248C160.557 73.404 160.545 73.626 160.521 73.914H152.979C153.111 74.622 153.453 75.186 154.005 75.606C154.569 76.014 155.265 76.218 156.093 76.218C157.149 76.218 158.019 75.87 158.703 75.174L159.909 76.56C159.477 77.076 158.931 77.466 158.271 77.73C157.611 77.994 156.867 78.126 156.039 78.126C154.983 78.126 154.053 77.916 153.249 77.496C152.445 77.076 151.821 76.494 151.377 75.75C150.945 74.994 150.729 74.142 150.729 73.194C150.729 72.258 150.939 71.418 151.359 70.674C151.791 69.918 152.385 69.33 153.141 68.91C153.897 68.49 154.749 68.28 155.697 68.28C156.633 68.28 157.467 68.49 158.199 68.91C158.943 69.318 159.519 69.9 159.927 70.656C160.347 71.4 160.557 72.264 160.557 73.248ZM155.697 70.08C154.977 70.08 154.365 70.296 153.861 70.728C153.369 71.148 153.069 71.712 152.961 72.42H158.415C158.319 71.724 158.025 71.16 157.533 70.728C157.041 70.296 156.429 70.08 155.697 70.08ZM167.992 68.388H170.242V72.294H175.084V68.388H177.334V78H175.084V74.202H170.242V78H167.992V68.388ZM183.932 68.28C185.348 68.28 186.428 68.622 187.172 69.306C187.928 69.978 188.306 70.998 188.306 72.366V78H186.182V76.83C185.906 77.25 185.51 77.574 184.994 77.802C184.49 78.018 183.878 78.126 183.158 78.126C182.438 78.126 181.808 78.006 181.268 77.766C180.728 77.514 180.308 77.172 180.008 76.74C179.72 76.296 179.576 75.798 179.576 75.246C179.576 74.382 179.894 73.692 180.53 73.176C181.178 72.648 182.192 72.384 183.572 72.384H186.056V72.24C186.056 71.568 185.852 71.052 185.444 70.692C185.048 70.332 184.454 70.152 183.662 70.152C183.122 70.152 182.588 70.236 182.06 70.404C181.544 70.572 181.106 70.806 180.746 71.106L179.864 69.468C180.368 69.084 180.974 68.79 181.682 68.586C182.39 68.382 183.14 68.28 183.932 68.28ZM183.626 76.488C184.19 76.488 184.688 76.362 185.12 76.11C185.564 75.846 185.876 75.474 186.056 74.994V73.878H183.734C182.438 73.878 181.79 74.304 181.79 75.156C181.79 75.564 181.952 75.888 182.276 76.128C182.6 76.368 183.05 76.488 183.626 76.488ZM195.464 78.126C194.468 78.126 193.574 77.916 192.782 77.496C191.99 77.076 191.372 76.494 190.928 75.75C190.484 74.994 190.262 74.142 190.262 73.194C190.262 72.246 190.484 71.4 190.928 70.656C191.372 69.912 191.984 69.33 192.764 68.91C193.556 68.49 194.456 68.28 195.464 68.28C196.412 68.28 197.24 68.472 197.948 68.856C198.668 69.24 199.208 69.792 199.568 70.512L197.84 71.52C197.564 71.076 197.216 70.746 196.796 70.53C196.388 70.302 195.938 70.188 195.446 70.188C194.606 70.188 193.91 70.464 193.358 71.016C192.806 71.556 192.53 72.282 192.53 73.194C192.53 74.106 192.8 74.838 193.34 75.39C193.892 75.93 194.594 76.2 195.446 76.2C195.938 76.2 196.388 76.092 196.796 75.876C197.216 75.648 197.564 75.312 197.84 74.868L199.568 75.876C199.196 76.596 198.65 77.154 197.93 77.55C197.222 77.934 196.4 78.126 195.464 78.126ZM205.692 78.126C204.72 78.126 203.844 77.916 203.064 77.496C202.284 77.076 201.672 76.494 201.228 75.75C200.796 74.994 200.58 74.142 200.58 73.194C200.58 72.246 200.796 71.4 201.228 70.656C201.672 69.912 202.284 69.33 203.064 68.91C203.844 68.49 204.72 68.28 205.692 68.28C206.676 68.28 207.558 68.49 208.338 68.91C209.118 69.33 209.724 69.912 210.156 70.656C210.6 71.4 210.822 72.246 210.822 73.194C210.822 74.142 210.6 74.994 210.156 75.75C209.724 76.494 209.118 77.076 208.338 77.496C207.558 77.916 206.676 78.126 205.692 78.126ZM205.692 76.2C206.52 76.2 207.204 75.924 207.744 75.372C208.284 74.82 208.554 74.094 208.554 73.194C208.554 72.294 208.284 71.568 207.744 71.016C207.204 70.464 206.52 70.188 205.692 70.188C204.864 70.188 204.18 70.464 203.64 71.016C203.112 71.568 202.848 72.294 202.848 73.194C202.848 74.094 203.112 74.82 203.64 75.372C204.18 75.924 204.864 76.2 205.692 76.2ZM217.419 78.126C216.423 78.126 215.529 77.916 214.737 77.496C213.945 77.076 213.327 76.494 212.883 75.75C212.439 74.994 212.217 74.142 212.217 73.194C212.217 72.246 212.439 71.4 212.883 70.656C213.327 69.912 213.939 69.33 214.719 68.91C215.511 68.49 216.411 68.28 217.419 68.28C218.367 68.28 219.195 68.472 219.903 68.856C220.623 69.24 221.163 69.792 221.523 70.512L219.795 71.52C219.519 71.076 219.171 70.746 218.751 70.53C218.343 70.302 217.893 70.188 217.401 70.188C216.561 70.188 215.865 70.464 215.313 71.016C214.761 71.556 214.485 72.282 214.485 73.194C214.485 74.106 214.755 74.838 215.295 75.39C215.847 75.93 216.549 76.2 217.401 76.2C217.893 76.2 218.343 76.092 218.751 75.876C219.171 75.648 219.519 75.312 219.795 74.868L221.523 75.876C221.151 76.596 220.605 77.154 219.885 77.55C219.177 77.934 218.355 78.126 217.419 78.126ZM228.184 71.556C229.408 71.556 230.344 71.832 230.992 72.384C231.64 72.936 231.964 73.716 231.964 74.724C231.964 75.78 231.604 76.596 230.884 77.172C230.176 77.748 229.168 78.03 227.86 78.018L223.504 78V68.388H225.754V71.538L228.184 71.556ZM233.206 68.388H235.456V78H233.206V68.388ZM227.662 76.362C228.322 76.374 228.826 76.236 229.174 75.948C229.522 75.66 229.696 75.24 229.696 74.688C229.696 74.148 229.528 73.752 229.192 73.5C228.856 73.248 228.346 73.116 227.662 73.104L225.754 73.086V76.344L227.662 76.362Z" fill="#242424"/>
</g>
<defs>
<filter id="filter0_d" x="0" y="0" width="260" height="150" filterUnits="userSpaceOnUse" color-interpolation-filters="sRGB">
<feFlood flood-opacity="0" result="BackgroundImageFix"/>
<feColorMatrix in="SourceAlpha" type="matrix" values="0 0 0 0 0 0 0 0 0 0 0 0 0 0 0 0 0 0 127 0" result="hardAlpha"/>
<feOffset dx="3" dy="3"/>
<feGaussianBlur stdDeviation="2.5"/>
<feColorMatrix type="matrix" values="0 0 0 0 0 0 0 0 0 0 0 0 0 0 0 0 0 0 0.06 0"/>
<feBlend mode="normal" in2="BackgroundImageFix" result="effect1_dropShadow"/>
<feBlend mode="normal" in="SourceGraphic" in2="effect1_dropShadow" result="shape"/>
</filter>
<filter id="filter1_b" x="-28" y="-28" width="310" height="200" filterUnits="userSpaceOnUse" color-interpolation-filters="sRGB">
<feFlood flood-opacity="0" result="BackgroundImageFix"/>
<feGaussianBlur in="BackgroundImage" stdDeviation="15"/>
<feComposite in2="SourceAlpha" operator="in" result="effect1_backgroundBlur"/>
<feBlend mode="normal" in="SourceGraphic" in2="effect1_backgroundBlur" result="shape"/>
</filter>
<filter id="filter2_b" x="-4" y="53" width="262" height="38" filterUnits="userSpaceOnUse" color-interpolation-filters="sRGB">
<feFlood flood-opacity="0" result="BackgroundImageFix"/>
<feGaussianBlur in="BackgroundImage" stdDeviation="3.5"/>
<feComposite in2="SourceAlpha" operator="in" result="effect1_backgroundBlur"/>
<feBlend mode="normal" in="SourceGraphic" in2="effect1_backgroundBlur" result="shape"/>
</filter>
<linearGradient id="paint0_linear" x1="336" y1="2" x2="253.036" y2="184.267" gradientUnits="userSpaceOnUse">
<stop stop-color="white" stop-opacity="0.6"/>
<stop offset="1" stop-color="white" stop-opacity="0.4"/>
</linearGradient>
<linearGradient id="paint1_linear" x1="334.328" y1="60" x2="331.379" y2="97.4875" gradientUnits="userSpaceOnUse">
<stop stop-color="white" stop-opacity="0.6"/>
<stop offset="1" stop-color="white" stop-opacity="0.4"/>
</linearGradient>
</defs>
</svg>
