<svg width="250" height="140" viewBox="0 0 250 140" fill="none" xmlns="http://www.w3.org/2000/svg">
<mask id="path-1-inside-1_1591:2228" fill="white">
<path fill-rule="evenodd" clip-rule="evenodd" d="M0 25C0 11.1929 11.1929 0 25 0H225C238.807 0 250 11.1929 250 25V115C250 128.807 238.807 140 225 140H25C11.1929 140 0 128.807 0 115V25ZM216.715 55.233C214.496 59.0132 212.108 60.3673 209.08 59.5774C205.789 58.7123 204.378 56.3614 204.378 51.7349C204.378 48.8011 204.387 45.8674 204.396 42.9336C204.419 35.5988 204.442 28.2639 204.322 20.9291C204.265 17.1489 205.431 14.4407 208.91 12.8609H212.202C214.252 13.82 215.756 15.3434 216.734 17.3934C216.715 30.0128 216.715 42.6323 216.715 55.233ZM40.0442 86.2835C37.0163 85.4936 34.6278 86.8477 32.4086 90.6279C32.4086 103.229 32.4086 115.848 32.3898 128.468C33.3678 130.518 34.8723 132.041 36.9223 133H40.2135C43.6928 131.42 44.8588 128.712 44.8024 124.932C44.6815 117.597 44.7045 110.263 44.7276 102.928V102.928C44.7368 99.9938 44.746 97.0599 44.746 94.126C44.746 89.4995 43.3355 87.1486 40.0442 86.2835ZM70.3453 90.629C70.1064 89.3509 69.8334 88.0898 69.5623 86.838C68.9799 84.148 68.4067 81.5006 68.2013 78.8183C66.5087 56.6448 74.765 39.0979 93.1582 26.5161C102.298 20.2722 112.605 17.4699 123.625 17.4135C139.589 17.3383 155.552 17.3593 171.516 17.3804C175.506 17.3857 179.497 17.3909 183.488 17.3947C193.606 17.3947 200.715 24.5037 200.678 34.6407L200.676 34.8986V34.8988C200.658 37.6756 200.64 40.5164 200.038 43.1979C198.421 50.4385 192.045 55.4412 184.579 55.6293C182.774 55.6816 180.96 55.6702 179.08 55.6585H179.08H179.079C178.256 55.6533 177.42 55.6481 176.567 55.6481C176.748 56.3958 176.93 57.1237 177.11 57.8392L177.11 57.8401C177.454 59.2119 177.787 60.5385 178.072 61.8732C182.811 84.1783 173.257 107.179 154.074 119.742C144.746 125.855 134.477 128.807 123.4 128.864C110.014 128.916 96.6284 128.904 83.2428 128.893H83.2333C77.4954 128.888 71.7576 128.882 66.0197 128.882C55.4878 128.882 48.4728 121.886 48.5292 111.317L48.5309 111.063V111.063C48.5486 108.416 48.5667 105.706 49.1498 103.155C50.7861 95.8198 57.1992 90.7795 64.7408 90.629C65.9848 90.6039 67.2457 90.6124 68.4952 90.6207H68.4953C69.1159 90.6249 69.7337 90.629 70.3453 90.629ZM71.9063 73.0821C71.8875 101.612 95.0013 124.764 123.531 124.764C151.892 124.764 175.1 101.725 175.175 73.4959C175.251 44.7588 152.231 21.5322 123.644 21.4946C95.1141 21.457 71.9251 44.5708 71.9063 73.0821ZM145.159 21.5134C145.342 21.6622 145.471 21.7721 145.567 21.8535C145.737 21.9986 145.802 22.0535 145.874 22.0776C158.964 27.983 168.518 37.4429 174.498 50.5138C174.724 51.0027 175.608 51.4729 176.191 51.4917C178.993 51.5858 181.814 51.5858 184.617 51.5105C190.165 51.3789 195.017 47.5423 196.126 42.1259C196.566 40.0105 196.555 37.7826 196.544 35.5882V35.5857C196.542 35.2446 196.54 34.9044 196.54 34.5655C196.578 26.7606 191.331 21.5134 183.582 21.5134C176.096 21.5009 168.602 21.5051 161.111 21.5092H161.111H161.109C157.365 21.5113 153.621 21.5134 149.88 21.5134H145.159ZM101.49 124.764C101.499 124.707 101.513 124.651 101.527 124.594C101.541 124.538 101.555 124.482 101.565 124.425C101.386 124.336 101.207 124.243 101.027 124.15L101.026 124.15L101.025 124.149C100.752 124.008 100.475 123.865 100.192 123.729C89.378 118.67 80.9901 110.978 75.0659 100.616C74.7334 100.034 74.4368 99.3865 74.1401 98.739L74.14 98.7389C73.4297 97.1888 72.7185 95.6367 71.5113 94.9735C70.2335 94.274 68.4651 94.4404 66.7084 94.6056C66.0088 94.6714 65.311 94.7371 64.6468 94.7478C59.0235 94.8606 54.1149 98.7161 52.9865 104.227C52.5653 106.284 52.5767 108.424 52.5879 110.553V110.554C52.5897 110.896 52.5915 111.238 52.5915 111.58C52.5539 119.535 57.7446 124.745 65.6436 124.764C73.2284 124.776 80.8048 124.772 88.384 124.768C92.1746 124.766 95.966 124.764 99.7594 124.764H101.49ZM124.055 65.934C120.125 65.934 116.946 69.1123 116.946 73.043C116.946 76.9736 120.125 80.152 124.055 80.152C127.986 80.152 131.164 76.9736 131.164 73.043C131.164 69.1123 127.986 65.934 124.055 65.934ZM135.039 59.5772L148.956 45.3215C148.956 45.3215 162.403 51.0576 162.384 75.1494H141.32C140.963 78.4594 139.665 81.4685 137.728 83.951L152.059 97.9434C152.059 97.9434 146.323 111.372 122.212 111.372V90.7027C118.695 90.383 115.498 89.0477 112.884 86.979L99.1549 101.065C99.1549 101.065 85.7079 95.3292 85.7079 71.2187H106.339C106.734 67.6642 108.182 64.4106 110.364 61.8152L96.3338 48.1426C96.3338 48.1426 102.07 34.7144 126.181 34.7144V55.7406C129.509 56.1731 132.575 57.5272 135.039 59.5772ZM113.373 73.043C113.373 78.9296 118.169 83.7065 124.055 83.7065C129.942 83.7065 134.719 78.9296 134.719 73.043C134.719 67.1752 129.942 62.3794 124.055 62.3794C118.169 62.3794 113.373 67.1564 113.373 73.043ZM144.104 78.7415H141.602V86.4712H144.104V78.7415ZM149.012 77.7447H146.191V87.4491H149.012V77.7447ZM155.256 76.4847H151.608V88.7092H155.256V76.4847ZM161.5 76.1085H157.757V89.1041H161.5V76.1085ZM118.112 90.7215H110.401V93.2229H118.112V90.7215ZM119.09 95.3104H109.405V98.1315H119.09V95.3104ZM120.369 100.727H108.145V104.375H120.369V100.727ZM120.745 106.877H107.75V110.619H120.745V106.877ZM106.057 59.596H103.575V67.3069H106.057V59.596ZM101.487 58.618H98.6659V68.3036H101.487V58.618ZM96.0705 57.358H92.422V69.5637H96.0705V57.358ZM89.9207 56.963H86.1781V69.9586H89.9207V56.963ZM138.029 53.5213H130.318V56.0039H138.029V53.5213ZM139.007 48.6127H129.321V51.4338H139.007V48.6127ZM140.286 42.3688H128.061V46.0174H140.286V42.3688ZM140.681 36.1249H127.685V39.8675H140.681V36.1249Z"/>
</mask>
<path fill-rule="evenodd" clip-rule="evenodd" d="M0 25C0 11.1929 11.1929 0 25 0H225C238.807 0 250 11.1929 250 25V115C250 128.807 238.807 140 225 140H25C11.1929 140 0 128.807 0 115V25ZM216.715 55.233C214.496 59.0132 212.108 60.3673 209.08 59.5774C205.789 58.7123 204.378 56.3614 204.378 51.7349C204.378 48.8011 204.387 45.8674 204.396 42.9336C204.419 35.5988 204.442 28.2639 204.322 20.9291C204.265 17.1489 205.431 14.4407 208.91 12.8609H212.202C214.252 13.82 215.756 15.3434 216.734 17.3934C216.715 30.0128 216.715 42.6323 216.715 55.233ZM40.0442 86.2835C37.0163 85.4936 34.6278 86.8477 32.4086 90.6279C32.4086 103.229 32.4086 115.848 32.3898 128.468C33.3678 130.518 34.8723 132.041 36.9223 133H40.2135C43.6928 131.42 44.8588 128.712 44.8024 124.932C44.6815 117.597 44.7045 110.263 44.7276 102.928V102.928C44.7368 99.9938 44.746 97.0599 44.746 94.126C44.746 89.4995 43.3355 87.1486 40.0442 86.2835ZM70.3453 90.629C70.1064 89.3509 69.8334 88.0898 69.5623 86.838C68.9799 84.148 68.4067 81.5006 68.2013 78.8183C66.5087 56.6448 74.765 39.0979 93.1582 26.5161C102.298 20.2722 112.605 17.4699 123.625 17.4135C139.589 17.3383 155.552 17.3593 171.516 17.3804C175.506 17.3857 179.497 17.3909 183.488 17.3947C193.606 17.3947 200.715 24.5037 200.678 34.6407L200.676 34.8986V34.8988C200.658 37.6756 200.64 40.5164 200.038 43.1979C198.421 50.4385 192.045 55.4412 184.579 55.6293C182.774 55.6816 180.96 55.6702 179.08 55.6585H179.08H179.079C178.256 55.6533 177.42 55.6481 176.567 55.6481C176.748 56.3958 176.93 57.1237 177.11 57.8392L177.11 57.8401C177.454 59.2119 177.787 60.5385 178.072 61.8732C182.811 84.1783 173.257 107.179 154.074 119.742C144.746 125.855 134.477 128.807 123.4 128.864C110.014 128.916 96.6284 128.904 83.2428 128.893H83.2333C77.4954 128.888 71.7576 128.882 66.0197 128.882C55.4878 128.882 48.4728 121.886 48.5292 111.317L48.5309 111.063V111.063C48.5486 108.416 48.5667 105.706 49.1498 103.155C50.7861 95.8198 57.1992 90.7795 64.7408 90.629C65.9848 90.6039 67.2457 90.6124 68.4952 90.6207H68.4953C69.1159 90.6249 69.7337 90.629 70.3453 90.629ZM71.9063 73.0821C71.8875 101.612 95.0013 124.764 123.531 124.764C151.892 124.764 175.1 101.725 175.175 73.4959C175.251 44.7588 152.231 21.5322 123.644 21.4946C95.1141 21.457 71.9251 44.5708 71.9063 73.0821ZM145.159 21.5134C145.342 21.6622 145.471 21.7721 145.567 21.8535C145.737 21.9986 145.802 22.0535 145.874 22.0776C158.964 27.983 168.518 37.4429 174.498 50.5138C174.724 51.0027 175.608 51.4729 176.191 51.4917C178.993 51.5858 181.814 51.5858 184.617 51.5105C190.165 51.3789 195.017 47.5423 196.126 42.1259C196.566 40.0105 196.555 37.7826 196.544 35.5882V35.5857C196.542 35.2446 196.54 34.9044 196.54 34.5655C196.578 26.7606 191.331 21.5134 183.582 21.5134C176.096 21.5009 168.602 21.5051 161.111 21.5092H161.111H161.109C157.365 21.5113 153.621 21.5134 149.88 21.5134H145.159ZM101.49 124.764C101.499 124.707 101.513 124.651 101.527 124.594C101.541 124.538 101.555 124.482 101.565 124.425C101.386 124.336 101.207 124.243 101.027 124.15L101.026 124.15L101.025 124.149C100.752 124.008 100.475 123.865 100.192 123.729C89.378 118.67 80.9901 110.978 75.0659 100.616C74.7334 100.034 74.4368 99.3865 74.1401 98.739L74.14 98.7389C73.4297 97.1888 72.7185 95.6367 71.5113 94.9735C70.2335 94.274 68.4651 94.4404 66.7084 94.6056C66.0088 94.6714 65.311 94.7371 64.6468 94.7478C59.0235 94.8606 54.1149 98.7161 52.9865 104.227C52.5653 106.284 52.5767 108.424 52.5879 110.553V110.554C52.5897 110.896 52.5915 111.238 52.5915 111.58C52.5539 119.535 57.7446 124.745 65.6436 124.764C73.2284 124.776 80.8048 124.772 88.384 124.768C92.1746 124.766 95.966 124.764 99.7594 124.764H101.49ZM124.055 65.934C120.125 65.934 116.946 69.1123 116.946 73.043C116.946 76.9736 120.125 80.152 124.055 80.152C127.986 80.152 131.164 76.9736 131.164 73.043C131.164 69.1123 127.986 65.934 124.055 65.934ZM135.039 59.5772L148.956 45.3215C148.956 45.3215 162.403 51.0576 162.384 75.1494H141.32C140.963 78.4594 139.665 81.4685 137.728 83.951L152.059 97.9434C152.059 97.9434 146.323 111.372 122.212 111.372V90.7027C118.695 90.383 115.498 89.0477 112.884 86.979L99.1549 101.065C99.1549 101.065 85.7079 95.3292 85.7079 71.2187H106.339C106.734 67.6642 108.182 64.4106 110.364 61.8152L96.3338 48.1426C96.3338 48.1426 102.07 34.7144 126.181 34.7144V55.7406C129.509 56.1731 132.575 57.5272 135.039 59.5772ZM113.373 73.043C113.373 78.9296 118.169 83.7065 124.055 83.7065C129.942 83.7065 134.719 78.9296 134.719 73.043C134.719 67.1752 129.942 62.3794 124.055 62.3794C118.169 62.3794 113.373 67.1564 113.373 73.043ZM144.104 78.7415H141.602V86.4712H144.104V78.7415ZM149.012 77.7447H146.191V87.4491H149.012V77.7447ZM155.256 76.4847H151.608V88.7092H155.256V76.4847ZM161.5 76.1085H157.757V89.1041H161.5V76.1085ZM118.112 90.7215H110.401V93.2229H118.112V90.7215ZM119.09 95.3104H109.405V98.1315H119.09V95.3104ZM120.369 100.727H108.145V104.375H120.369V100.727ZM120.745 106.877H107.75V110.619H120.745V106.877ZM106.057 59.596H103.575V67.3069H106.057V59.596ZM101.487 58.618H98.6659V68.3036H101.487V58.618ZM96.0705 57.358H92.422V69.5637H96.0705V57.358ZM89.9207 56.963H86.1781V69.9586H89.9207V56.963ZM138.029 53.5213H130.318V56.0039H138.029V53.5213ZM139.007 48.6127H129.321V51.4338H139.007V48.6127ZM140.286 42.3688H128.061V46.0174H140.286V42.3688ZM140.681 36.1249H127.685V39.8675H140.681V36.1249Z" fill="white" fill-opacity="0.4"/>
<path d="M209.08 59.5774L208.826 60.5446L208.827 60.545L209.08 59.5774ZM216.715 55.233L217.578 55.7393L217.715 55.5048V55.233H216.715ZM204.396 42.9336L205.396 42.9367V42.9367L204.396 42.9336ZM204.322 20.9291L203.322 20.944L203.322 20.9456L204.322 20.9291ZM208.91 12.8609V11.8609H208.694L208.497 11.9504L208.91 12.8609ZM212.202 12.8609L212.625 11.9551L212.424 11.8609H212.202V12.8609ZM216.734 17.3934L217.734 17.3949L217.734 17.1678L217.637 16.9628L216.734 17.3934ZM32.4086 90.6279L31.5462 90.1217L31.4086 90.3561V90.6279H32.4086ZM40.0442 86.2835L40.2985 85.3164L40.2967 85.3159L40.0442 86.2835ZM32.3898 128.468L31.3898 128.466L31.3895 128.693L31.4873 128.898L32.3898 128.468ZM36.9223 133L36.4985 133.906L36.6999 134H36.9223V133ZM40.2135 133V134H40.4299L40.6269 133.911L40.2135 133ZM44.8024 124.932L45.8023 124.917L45.8023 124.915L44.8024 124.932ZM44.7276 102.928L45.7276 102.931V102.928H44.7276ZM44.7276 102.928L43.7276 102.924V102.928H44.7276ZM69.5623 86.838L70.5397 86.6264L69.5623 86.838ZM70.3453 90.629V91.629H71.5495L71.3283 90.4453L70.3453 90.629ZM68.2013 78.8183L67.2042 78.8944L67.2042 78.8946L68.2013 78.8183ZM93.1582 26.5161L92.5941 25.6903L92.5936 25.6907L93.1582 26.5161ZM123.625 17.4135L123.621 16.4135L123.62 16.4135L123.625 17.4135ZM171.516 17.3804L171.517 16.3804L171.516 17.3804ZM183.488 17.3947L183.487 18.3947H183.488V17.3947ZM200.678 34.6407L201.678 34.6471L201.678 34.6444L200.678 34.6407ZM200.676 34.8986L199.676 34.8922V34.8986H200.676ZM200.676 34.8988L201.676 34.9051V34.8988H200.676ZM200.038 43.1979L199.062 42.9788L199.062 42.9799L200.038 43.1979ZM184.579 55.6293L184.554 54.6296L184.55 54.6297L184.579 55.6293ZM179.08 55.6585L179.086 54.6585H179.08V55.6585ZM179.079 55.6585L179.073 56.6585H179.079V55.6585ZM176.567 55.6481V54.6481H175.297L175.595 55.8827L176.567 55.6481ZM177.11 57.8392L176.14 58.0827L176.141 58.0876L177.11 57.8392ZM177.11 57.8401L178.08 57.5967L178.079 57.5918L177.11 57.8401ZM178.072 61.8732L179.05 61.6653L179.05 61.6649L178.072 61.8732ZM154.074 119.742L153.526 118.906L153.526 118.906L154.074 119.742ZM123.4 128.864L123.404 129.864L123.405 129.864L123.4 128.864ZM83.2428 128.893L83.2437 127.893H83.2428V128.893ZM83.2333 128.893L83.2324 129.893H83.2333V128.893ZM48.5292 111.317L47.5292 111.31L47.5292 111.311L48.5292 111.317ZM48.5309 111.063L49.5309 111.069V111.063H48.5309ZM48.5309 111.063L47.5309 111.056V111.063H48.5309ZM49.1498 103.155L50.1247 103.377L50.1259 103.372L49.1498 103.155ZM64.7408 90.629L64.7608 91.6288L64.761 91.6288L64.7408 90.629ZM68.4952 90.6207L68.4885 91.6207H68.4952V90.6207ZM68.4953 90.6207L68.502 89.6207H68.4953V90.6207ZM71.9063 73.0821L70.9063 73.0815L71.9063 73.0821ZM175.175 73.4959L176.175 73.4986V73.4985L175.175 73.4959ZM123.644 21.4946L123.643 22.4946H123.643L123.644 21.4946ZM145.567 21.8535L144.919 22.615L144.919 22.6151L145.567 21.8535ZM145.159 21.5134V20.5134H142.349L144.528 22.2886L145.159 21.5134ZM145.874 22.0776L146.285 21.1661L146.239 21.1451L146.19 21.1289L145.874 22.0776ZM174.498 50.5138L173.589 50.9298L173.59 50.9328L174.498 50.5138ZM176.191 51.4917L176.225 50.4923L176.223 50.4922L176.191 51.4917ZM184.617 51.5105L184.593 50.5108L184.59 50.5109L184.617 51.5105ZM196.126 42.1259L195.147 41.9225L195.147 41.9252L196.126 42.1259ZM196.544 35.5882H195.544L195.544 35.5932L196.544 35.5882ZM196.544 35.5857H197.544L197.544 35.5807L196.544 35.5857ZM196.54 34.5655L195.54 34.5606V34.5655H196.54ZM183.582 21.5134L183.58 22.5134H183.582V21.5134ZM161.111 21.5092V22.5092H161.112L161.111 21.5092ZM161.109 21.5092V20.5092H161.108L161.109 21.5092ZM101.527 124.594L100.557 124.352L100.557 124.352L101.527 124.594ZM101.49 124.764V125.764H102.337L102.476 124.928L101.49 124.764ZM101.565 124.425L102.551 124.59L102.673 123.861L102.012 123.531L101.565 124.425ZM101.027 124.15L101.486 123.262L101.485 123.262L101.027 124.15ZM101.026 124.15L100.535 125.021L100.551 125.03L100.567 125.038L101.026 124.15ZM101.025 124.149L101.516 123.278L101.5 123.269L101.484 123.261L101.025 124.149ZM100.192 123.729L100.625 122.828L100.616 122.824L100.192 123.729ZM75.0659 100.616L74.1976 101.112L74.1977 101.112L75.0659 100.616ZM74.1401 98.739L73.2116 99.1104L73.2207 99.1332L73.231 99.1556L74.1401 98.739ZM74.14 98.7389L75.0685 98.3675L75.0594 98.3446L75.0491 98.3223L74.14 98.7389ZM71.5113 94.9735L71.9929 94.097L71.9915 94.0963L71.5113 94.9735ZM66.7084 94.6056L66.6147 93.61H66.6147L66.7084 94.6056ZM64.6468 94.7478L64.6307 93.7479L64.6267 93.748L64.6468 94.7478ZM52.9865 104.227L52.0068 104.026L52.0068 104.026L52.9865 104.227ZM52.5879 110.553H53.5879L53.5879 110.547L52.5879 110.553ZM52.5879 110.554H51.5879L51.5879 110.559L52.5879 110.554ZM52.5915 111.58L53.5915 111.585V111.58H52.5915ZM65.6436 124.764L65.6412 125.764H65.6419L65.6436 124.764ZM88.384 124.768L88.3834 123.768L88.384 124.768ZM148.956 45.3215L149.348 44.4017L148.718 44.1331L148.24 44.623L148.956 45.3215ZM135.039 59.5772L134.399 60.3459L135.109 60.9366L135.754 60.2758L135.039 59.5772ZM162.384 75.1494V76.1494H163.383L163.384 75.1501L162.384 75.1494ZM141.32 75.1494V74.1494H140.422L140.326 75.042L141.32 75.1494ZM137.728 83.951L136.94 83.3358L136.389 84.0414L137.029 84.6665L137.728 83.951ZM152.059 97.9434L152.979 98.3363L153.248 97.7064L152.758 97.2279L152.059 97.9434ZM122.212 111.372H121.212V112.372H122.212V111.372ZM122.212 90.7027H123.212V89.7895L122.303 89.7068L122.212 90.7027ZM112.884 86.979L113.505 86.1948L112.797 85.6351L112.168 86.281L112.884 86.979ZM99.1549 101.065L98.7625 101.985L99.3928 102.254L99.871 101.763L99.1549 101.065ZM85.7079 71.2187V70.2187H84.7079V71.2187H85.7079ZM106.339 71.2187V72.2187H107.234L107.333 71.3291L106.339 71.2187ZM110.364 61.8152L111.129 62.4587L111.727 61.7475L111.062 61.0991L110.364 61.8152ZM96.3338 48.1426L95.4142 47.7497L95.1449 48.3802L95.6359 48.8587L96.3338 48.1426ZM126.181 34.7144H127.181V33.7144H126.181V34.7144ZM126.181 55.7406H125.181V56.619L126.052 56.7322L126.181 55.7406ZM141.602 78.7415V77.7415H140.602V78.7415H141.602ZM144.104 78.7415H145.104V77.7415H144.104V78.7415ZM141.602 86.4712H140.602V87.4712H141.602V86.4712ZM144.104 86.4712V87.4712H145.104V86.4712H144.104ZM146.191 77.7447V76.7447H145.191V77.7447H146.191ZM149.012 77.7447H150.012V76.7447H149.012V77.7447ZM146.191 87.4491H145.191V88.4491H146.191V87.4491ZM149.012 87.4491V88.4491H150.012V87.4491H149.012ZM151.608 76.4847V75.4847H150.608V76.4847H151.608ZM155.256 76.4847H156.256V75.4847H155.256V76.4847ZM151.608 88.7092H150.608V89.7092H151.608V88.7092ZM155.256 88.7092V89.7092H156.256V88.7092H155.256ZM157.757 76.1085V75.1085H156.757V76.1085H157.757ZM161.5 76.1085H162.5V75.1085H161.5V76.1085ZM157.757 89.1041H156.757V90.1041H157.757V89.1041ZM161.5 89.1041V90.1041H162.5V89.1041H161.5ZM110.401 90.7215V89.7215H109.401V90.7215H110.401ZM118.112 90.7215H119.112V89.7215H118.112V90.7215ZM110.401 93.2229H109.401V94.2229H110.401V93.2229ZM118.112 93.2229V94.2229H119.112V93.2229H118.112ZM109.405 95.3104V94.3104H108.405V95.3104H109.405ZM119.09 95.3104H120.09V94.3104H119.09V95.3104ZM109.405 98.1315H108.405V99.1315H109.405V98.1315ZM119.09 98.1315V99.1315H120.09V98.1315H119.09ZM108.145 100.727V99.7269H107.145V100.727H108.145ZM120.369 100.727H121.369V99.7269H120.369V100.727ZM108.145 104.375H107.145V105.375H108.145V104.375ZM120.369 104.375V105.375H121.369V104.375H120.369ZM107.75 106.877V105.877H106.75V106.877H107.75ZM120.745 106.877H121.745V105.877H120.745V106.877ZM107.75 110.619H106.75V111.619H107.75V110.619ZM120.745 110.619V111.619H121.745V110.619H120.745ZM103.575 59.596V58.596H102.575V59.596H103.575ZM106.057 59.596H107.057V58.596H106.057V59.596ZM103.575 67.3069H102.575V68.3069H103.575V67.3069ZM106.057 67.3069V68.3069H107.057V67.3069H106.057ZM98.6659 58.618V57.618H97.6659V58.618H98.6659ZM101.487 58.618H102.487V57.618H101.487V58.618ZM98.6659 68.3036H97.6659V69.3036H98.6659V68.3036ZM101.487 68.3036V69.3036H102.487V68.3036H101.487ZM92.422 57.358V56.358H91.422V57.358H92.422ZM96.0705 57.358H97.0705V56.358H96.0705V57.358ZM92.422 69.5637H91.422V70.5637H92.422V69.5637ZM96.0705 69.5637V70.5637H97.0705V69.5637H96.0705ZM86.1781 56.963V55.963H85.1781V56.963H86.1781ZM89.9207 56.963H90.9207V55.963H89.9207V56.963ZM86.1781 69.9586H85.1781V70.9586H86.1781V69.9586ZM89.9207 69.9586V70.9586H90.9207V69.9586H89.9207ZM130.318 53.5213V52.5213H129.318V53.5213H130.318ZM138.029 53.5213H139.029V52.5213H138.029V53.5213ZM130.318 56.0039H129.318V57.0039H130.318V56.0039ZM138.029 56.0039V57.0039H139.029V56.0039H138.029ZM129.321 48.6127V47.6127H128.321V48.6127H129.321ZM139.007 48.6127H140.007V47.6127H139.007V48.6127ZM129.321 51.4338H128.321V52.4338H129.321V51.4338ZM139.007 51.4338V52.4338H140.007V51.4338H139.007ZM128.061 42.3688V41.3688H127.061V42.3688H128.061ZM140.286 42.3688H141.286V41.3688H140.286V42.3688ZM128.061 46.0174H127.061V47.0174H128.061V46.0174ZM140.286 46.0174V47.0174H141.286V46.0174H140.286ZM127.685 36.1249V35.1249H126.685V36.1249H127.685ZM140.681 36.1249H141.681V35.1249H140.681V36.1249ZM127.685 39.8675H126.685V40.8675H127.685V39.8675ZM140.681 39.8675V40.8675H141.681V39.8675H140.681ZM25 -1C10.6406 -1 -1 10.6406 -1 25H1C1 11.7452 11.7452 1 25 1V-1ZM225 -1H25V1H225V-1ZM251 25C251 10.6406 239.359 -1 225 -1V1C238.255 1 249 11.7452 249 25H251ZM251 115V25H249V115H251ZM225 141C239.359 141 251 129.359 251 115H249C249 128.255 238.255 139 225 139V141ZM25 141H225V139H25V141ZM-1 115C-1 129.359 10.6406 141 25 141V139C11.7452 139 1 128.255 1 115H-1ZM-1 25V115H1V25H-1ZM208.827 60.545C210.562 60.9976 212.189 60.8446 213.695 59.9883C215.163 59.1541 216.424 57.704 217.578 55.7393L215.853 54.7267C214.787 56.5422 213.745 57.6593 212.707 58.2497C211.707 58.8181 210.625 58.9471 209.332 58.6098L208.827 60.545ZM203.378 51.7349C203.378 54.1283 203.739 56.0831 204.637 57.581C205.561 59.1211 206.979 60.0592 208.826 60.5446L209.334 58.6103C207.889 58.2305 206.957 57.5606 206.352 56.5524C205.722 55.5019 205.378 53.968 205.378 51.7349H203.378ZM203.396 42.9304C203.387 45.864 203.378 48.7993 203.378 51.7349H205.378C205.378 48.803 205.387 45.8708 205.396 42.9367L203.396 42.9304ZM203.322 20.9456C203.442 28.269 203.419 35.594 203.396 42.9304L205.396 42.9367C205.419 35.6035 205.443 28.2589 205.321 20.9126L203.322 20.9456ZM208.497 11.9504C206.588 12.8173 205.246 14.03 204.408 15.5988C203.581 17.148 203.292 18.9565 203.322 20.944L205.321 20.9142C205.295 19.1214 205.561 17.6858 206.172 16.5409C206.773 15.4156 207.754 14.4842 209.324 13.7714L208.497 11.9504ZM212.202 11.8609H208.91V13.8609H212.202V11.8609ZM217.637 16.9628C216.562 14.7106 214.892 13.0156 212.625 11.9551L211.778 13.7666C213.611 14.6245 214.95 15.9762 215.832 17.8239L217.637 16.9628ZM217.715 55.233C217.715 42.6322 217.715 30.0135 217.734 17.3949L215.734 17.3919C215.715 30.0122 215.715 42.6325 215.715 55.233H217.715ZM33.271 91.1342C34.3368 89.3187 35.3789 88.2016 36.4174 87.6113C37.4173 87.0429 38.4988 86.9138 39.7918 87.2511L40.2967 85.3159C38.5617 84.8633 36.9351 85.0164 35.429 85.8726C33.9614 86.7068 32.6997 88.1569 31.5462 90.1217L33.271 91.1342ZM33.3898 128.469C33.4086 115.849 33.4086 103.228 33.4086 90.6279H31.4086C31.4086 103.229 31.4086 115.847 31.3898 128.466L33.3898 128.469ZM37.3461 132.094C35.5127 131.236 34.1739 129.885 33.2924 128.037L31.4873 128.898C32.5617 131.15 34.232 132.845 36.4985 133.906L37.3461 132.094ZM40.2135 132H36.9223V134H40.2135V132ZM43.8025 124.947C43.8293 126.74 43.5632 128.175 42.9518 129.32C42.3508 130.445 41.37 131.377 39.8001 132.09L40.6269 133.911C42.5363 133.044 43.8782 131.831 44.7159 130.262C45.5433 128.713 45.832 126.904 45.8023 124.917L43.8025 124.947ZM43.7276 102.925C43.7045 110.258 43.6815 117.602 43.8025 124.948L45.8023 124.915C45.6816 117.592 45.7045 110.268 45.7276 102.931L43.7276 102.925ZM43.7276 102.928V102.928H45.7276V102.928H43.7276ZM43.746 94.126C43.746 97.0581 43.7368 99.9903 43.7276 102.924L45.7276 102.931C45.7368 99.9972 45.746 97.0617 45.746 94.126H43.746ZM39.79 87.2507C41.2348 87.6304 42.1672 88.3003 42.7717 89.3085C43.4016 90.359 43.746 91.8929 43.746 94.126H45.746C45.746 91.7326 45.3851 89.7778 44.487 88.28C43.5634 86.7398 42.1449 85.8017 40.2985 85.3164L39.79 87.2507ZM68.585 87.0496C68.8565 88.3036 69.1265 89.5509 69.3623 90.8128L71.3283 90.4453C71.0863 89.1509 70.8102 87.876 70.5397 86.6264L68.585 87.0496ZM67.2042 78.8946C67.4157 81.6569 68.0051 84.3715 68.585 87.0496L70.5397 86.6264C69.9546 83.9244 69.3976 81.3444 69.1984 78.7419L67.2042 78.8946ZM92.5936 25.6907C73.9011 38.4773 65.4848 56.3701 67.2042 78.8944L69.1984 78.7422C67.5326 56.9195 75.6288 39.7186 93.7228 27.3414L92.5936 25.6907ZM123.62 16.4135C112.426 16.4708 101.919 19.32 92.5941 25.6903L93.7222 27.3418C102.677 21.2243 112.783 18.469 123.631 18.4135L123.62 16.4135ZM171.517 16.3804C155.554 16.3593 139.588 16.3383 123.621 16.4135L123.63 18.4135C139.59 18.3383 155.55 18.3593 171.514 18.3804L171.517 16.3804ZM183.489 16.3947C179.498 16.3909 175.508 16.3857 171.517 16.3804L171.514 18.3804C175.505 18.3857 179.496 18.3909 183.487 18.3947L183.489 16.3947ZM201.678 34.6444C201.697 29.3349 199.841 24.7598 196.599 21.51C193.357 18.2604 188.787 16.3947 183.488 16.3947V18.3947C188.307 18.3947 192.351 20.0835 195.183 22.9226C198.016 25.7616 199.696 29.8095 199.678 34.637L201.678 34.6444ZM201.676 34.9051L201.678 34.6471L199.678 34.6342L199.676 34.8922L201.676 34.9051ZM201.676 34.8988V34.8986H199.676V34.8988H201.676ZM201.014 43.4169C201.644 40.6122 201.658 37.6614 201.676 34.9051L199.676 34.8924C199.658 37.6898 199.637 40.4206 199.062 42.9788L201.014 43.4169ZM184.604 56.6289C192.505 56.4299 199.292 51.1278 201.014 43.4159L199.062 42.9799C197.55 49.7493 191.586 54.4525 184.554 54.6296L184.604 56.6289ZM179.074 56.6584C180.951 56.6702 182.782 56.6818 184.608 56.6288L184.55 54.6297C182.766 54.6814 180.97 54.6703 179.086 54.6585L179.074 56.6584ZM179.08 56.6585H179.08V54.6585H179.08V56.6585ZM179.079 56.6585H179.08V54.6585H179.079V56.6585ZM176.567 56.6481C177.417 56.6481 178.249 56.6533 179.073 56.6584L179.086 54.6585C178.263 54.6533 177.424 54.6481 176.567 54.6481V56.6481ZM178.08 57.5958C177.9 56.8796 177.718 56.1561 177.539 55.4134L175.595 55.8827C175.777 56.6356 175.961 57.3678 176.14 58.0827L178.08 57.5958ZM178.079 57.5918L178.079 57.5909L176.141 58.0876L176.141 58.0885L178.079 57.5918ZM179.05 61.6649C178.761 60.3096 178.424 58.9654 178.08 57.5967L176.14 58.0836C176.485 59.4585 176.814 60.7674 177.094 62.0815L179.05 61.6649ZM154.622 120.579C174.147 107.792 183.876 84.3779 179.05 61.6653L177.094 62.081C181.746 83.9787 172.367 106.566 153.526 118.906L154.622 120.579ZM123.405 129.864C134.667 129.806 145.126 126.801 154.622 120.579L153.526 118.906C144.366 124.908 134.287 127.808 123.395 127.864L123.405 129.864ZM83.2419 129.893C96.6272 129.904 110.015 129.916 123.404 129.864L123.396 127.864C110.013 127.916 96.6297 127.904 83.2437 127.893L83.2419 129.893ZM83.2333 129.893H83.2428V127.893H83.2333V129.893ZM66.0197 129.882C71.757 129.882 77.4945 129.888 83.2324 129.893L83.2342 127.893C77.4964 127.888 71.7581 127.882 66.0197 127.882V129.882ZM47.5292 111.311C47.4998 116.824 49.3185 121.484 52.5959 124.769C55.8729 128.054 60.5277 129.882 66.0197 129.882V127.882C60.9798 127.882 56.8611 126.213 54.0118 123.357C51.1628 120.501 49.5022 116.379 49.5292 111.322L47.5292 111.311ZM47.531 111.056L47.5292 111.31L49.5292 111.323L49.5309 111.069L47.531 111.056ZM47.5309 111.063V111.063H49.5309V111.063H47.5309ZM48.175 102.932C47.5632 105.608 47.5485 108.43 47.531 111.056L49.5309 111.069C49.5487 108.402 49.5702 105.803 50.1247 103.377L48.175 102.932ZM64.7209 89.6292C56.7388 89.7885 49.9148 95.1326 48.1738 102.937L50.1259 103.372C51.6573 96.507 57.6596 91.7705 64.7608 91.6288L64.7209 89.6292ZM68.5019 89.6208C67.2547 89.6124 65.9804 89.6038 64.7206 89.6292L64.761 91.6288C65.9893 91.604 67.2366 91.6123 68.4885 91.6207L68.5019 89.6208ZM68.4953 89.6207H68.4952V91.6207H68.4953V89.6207ZM70.3453 89.629C69.7376 89.629 69.1232 89.6249 68.502 89.6208L68.4886 91.6207C69.1086 91.6249 69.7298 91.629 70.3453 91.629V89.629ZM123.531 123.764C95.5544 123.764 72.8878 101.061 72.9063 73.0828L70.9063 73.0815C70.8871 102.164 94.4482 125.764 123.531 125.764V123.764ZM174.175 73.4932C174.102 101.167 151.346 123.764 123.531 123.764V125.764C152.439 125.764 176.099 102.283 176.175 73.4986L174.175 73.4932ZM123.643 22.4946C151.672 22.5315 174.249 45.3042 174.175 73.4933L176.175 73.4985C176.252 44.2135 152.79 20.533 123.646 20.4946L123.643 22.4946ZM72.9063 73.0828C72.9247 45.1249 95.6643 22.4577 123.643 22.4946L123.646 20.4946C94.5639 20.4563 70.9255 44.0166 70.9063 73.0815L72.9063 73.0828ZM146.215 21.092C146.118 21.0094 145.982 20.894 145.791 20.7382L144.528 22.2886C144.702 22.4304 144.824 22.5347 144.919 22.615L146.215 21.092ZM146.19 21.1289C146.215 21.1371 146.238 21.1463 146.26 21.1564C146.282 21.1664 146.301 21.1763 146.316 21.1849C146.345 21.2014 146.361 21.2135 146.358 21.2111C146.357 21.2103 146.353 21.2075 146.346 21.2017C146.338 21.1959 146.329 21.1881 146.316 21.1777C146.304 21.1674 146.289 21.1553 146.272 21.1408C146.255 21.1262 146.236 21.1103 146.215 21.092L144.919 22.6151C144.993 22.6784 145.08 22.7529 145.157 22.8108C145.245 22.8767 145.378 22.9662 145.558 23.0263L146.19 21.1289ZM175.408 50.0977C169.326 36.8055 159.594 27.1703 146.285 21.1661L145.463 22.9892C158.333 28.7957 167.71 38.0803 173.589 50.9298L175.408 50.0977ZM176.223 50.4922C176.143 50.4897 175.935 50.4388 175.701 50.3073C175.594 50.2473 175.509 50.1852 175.451 50.1323C175.387 50.0741 175.389 50.0569 175.406 50.0947L173.59 50.9328C173.835 51.4618 174.332 51.8321 174.721 52.0508C175.131 52.2814 175.656 52.475 176.159 52.4912L176.223 50.4922ZM184.59 50.5109C181.805 50.5856 179.004 50.5856 176.225 50.4923L176.157 52.4912C178.982 52.586 181.823 52.5859 184.643 52.5102L184.59 50.5109ZM195.147 41.9252C194.136 46.8576 189.704 50.3895 184.593 50.5108L184.64 52.5103C190.626 52.3682 195.897 48.2269 197.106 42.3266L195.147 41.9252ZM195.544 35.5932C195.555 37.8077 195.561 39.9281 195.147 41.9225L197.105 42.3292C197.57 40.0929 197.554 37.7575 197.544 35.5832L195.544 35.5932ZM195.544 35.5857V35.5882H197.544V35.5857H195.544ZM195.54 34.5655C195.54 34.9073 195.542 35.2501 195.544 35.5907L197.544 35.5807C197.542 35.2392 197.54 34.9014 197.54 34.5655H195.54ZM183.582 22.5134C187.225 22.5134 190.207 23.7426 192.272 25.8179C194.336 27.893 195.558 30.8888 195.54 34.5606L197.54 34.5703C197.56 30.4372 196.177 26.907 193.69 24.4073C191.203 21.9078 187.687 20.5134 183.582 20.5134V22.5134ZM161.112 22.5092C168.603 22.5051 176.096 22.5009 183.58 22.5134L183.584 20.5134C176.097 20.5009 168.602 20.5051 161.11 20.5092L161.112 22.5092ZM161.111 22.5092H161.111V20.5092H161.111V22.5092ZM161.109 22.5092H161.111V20.5092H161.109V22.5092ZM149.88 22.5134C153.622 22.5134 157.365 22.5113 161.109 22.5092L161.108 20.5092C157.364 20.5113 153.621 20.5134 149.88 20.5134V22.5134ZM145.159 22.5134H149.88V20.5134H145.159V22.5134ZM100.557 124.352C100.545 124.401 100.52 124.497 100.503 124.599L102.476 124.928C102.478 124.918 102.482 124.9 102.497 124.837L100.557 124.352ZM100.579 124.261C100.577 124.271 100.573 124.289 100.557 124.352L102.497 124.837C102.51 124.787 102.534 124.692 102.551 124.59L100.579 124.261ZM100.568 125.039C100.747 125.131 100.932 125.227 101.118 125.32L102.012 123.531C101.84 123.445 101.667 123.355 101.486 123.262L100.568 125.039ZM100.567 125.038L100.569 125.039L101.485 123.262L101.484 123.261L100.567 125.038ZM100.535 125.021L100.535 125.021L101.516 123.278L101.516 123.278L100.535 125.021ZM99.7592 124.631C100.027 124.759 100.291 124.895 100.566 125.038L101.484 123.261C101.213 123.121 100.923 122.971 100.625 122.828L99.7592 124.631ZM74.1977 101.112C80.2251 111.655 88.7689 119.489 99.7682 124.635L100.616 122.824C89.987 117.851 81.755 110.301 75.934 100.119L74.1977 101.112ZM73.231 99.1556C73.5237 99.7945 73.8389 100.484 74.1976 101.112L75.9341 100.119C75.6278 99.5835 75.3499 98.9786 75.0491 98.3224L73.231 99.1556ZM73.2115 99.1103L73.2116 99.1104L75.0685 98.3676L75.0685 98.3675L73.2115 99.1103ZM71.0298 95.8499C71.4207 96.0647 71.7896 96.4575 72.1652 97.0555C72.5412 97.6542 72.8695 98.3667 73.2309 99.1554L75.0491 98.3223C74.7003 97.561 74.3177 96.7224 73.8588 95.9917C73.3994 95.2603 72.8091 94.5455 71.9929 94.097L71.0298 95.8499ZM66.802 95.6012C67.6942 95.5173 68.5111 95.4419 69.2588 95.4648C70.0051 95.4877 70.588 95.608 71.0312 95.8507L71.9915 94.0963C71.1569 93.6395 70.2167 93.4932 69.3201 93.4658C68.4249 93.4383 67.4793 93.5287 66.6147 93.61L66.802 95.6012ZM64.6629 95.7477C65.373 95.7362 66.1105 95.6663 66.802 95.6012L66.6147 93.61C65.9071 93.6766 65.249 93.7379 64.6307 93.7479L64.6629 95.7477ZM53.9661 104.427C54.9951 99.4024 59.4819 95.8516 64.6669 95.7476L64.6267 93.748C58.5651 93.8696 53.2347 98.0297 52.0068 104.026L53.9661 104.427ZM53.5879 110.547C53.5765 108.4 53.5695 106.365 53.9662 104.427L52.0068 104.026C51.5612 106.202 51.5768 108.449 51.5879 110.558L53.5879 110.547ZM53.5879 110.554V110.553H51.5879V110.554H53.5879ZM53.5915 111.58C53.5915 111.235 53.5897 110.89 53.5879 110.548L51.5879 110.559C51.5897 110.902 51.5915 111.242 51.5915 111.58H53.5915ZM65.646 123.764C61.9203 123.755 58.9169 122.526 56.8513 120.444C54.7858 118.361 53.5738 115.339 53.5915 111.585L51.5915 111.575C51.5717 115.776 52.9362 119.337 55.4313 121.852C57.9265 124.368 61.4679 125.754 65.6412 125.764L65.646 123.764ZM88.3834 123.768C80.804 123.772 73.2287 123.776 65.6452 123.764L65.6419 125.764C73.228 125.776 80.8055 125.772 88.3845 125.768L88.3834 123.768ZM99.7594 123.764C95.9657 123.764 92.174 123.766 88.3834 123.768L88.3845 125.768C92.1752 125.766 95.9663 125.764 99.7594 125.764V123.764ZM101.49 123.764H99.7594V125.764H101.49V123.764ZM117.946 73.043C117.946 69.6646 120.677 66.934 124.055 66.934V64.934C119.572 64.934 115.946 68.5601 115.946 73.043H117.946ZM124.055 79.152C120.677 79.152 117.946 76.4214 117.946 73.043H115.946C115.946 77.5259 119.572 81.152 124.055 81.152V79.152ZM130.164 73.043C130.164 76.4214 127.434 79.152 124.055 79.152V81.152C128.538 81.152 132.164 77.5259 132.164 73.043H130.164ZM124.055 66.934C127.434 66.934 130.164 69.6646 130.164 73.043H132.164C132.164 68.5601 128.538 64.934 124.055 64.934V66.934ZM148.24 44.623L134.323 58.8786L135.754 60.2758L149.671 46.0201L148.24 44.623ZM163.384 75.1501C163.393 62.9051 159.976 55.2318 156.475 50.5981C154.729 48.2878 152.975 46.7502 151.644 45.7847C150.978 45.3021 150.419 44.9625 150.019 44.7405C149.818 44.6295 149.658 44.5479 149.544 44.4925C149.487 44.4648 149.442 44.4437 149.409 44.4287C149.392 44.4212 149.379 44.4152 149.369 44.4107C149.364 44.4085 149.359 44.4066 149.356 44.4051C149.354 44.4044 149.353 44.4037 149.351 44.4031C149.351 44.4029 149.35 44.4025 149.35 44.4024C149.349 44.402 149.348 44.4017 148.956 45.3215C148.563 46.2413 148.563 46.2411 148.562 46.2408C148.562 46.2407 148.562 46.2405 148.561 46.2404C148.561 46.2402 148.56 46.2401 148.56 46.24C148.56 46.2399 148.561 46.2402 148.562 46.2408C148.565 46.242 148.571 46.2447 148.58 46.2487C148.598 46.2569 148.628 46.2709 148.669 46.2911C148.752 46.3315 148.881 46.3966 149.049 46.4896C149.384 46.6754 149.874 46.9721 150.469 47.4037C151.659 48.2666 153.266 49.6688 154.879 51.8039C158.096 56.0612 161.393 63.3019 161.384 75.1486L163.384 75.1501ZM141.32 76.1494H162.384V74.1494H141.32V76.1494ZM138.516 84.5662C140.562 81.9451 141.936 78.762 142.314 75.2567L140.326 75.042C139.99 78.1568 138.769 80.9919 136.94 83.3358L138.516 84.5662ZM152.758 97.2279L138.427 83.2355L137.029 84.6665L151.36 98.6589L152.758 97.2279ZM122.212 112.372C134.466 112.372 142.144 108.955 146.779 105.456C149.091 103.711 150.629 101.959 151.595 100.629C152.078 99.9647 152.418 99.4057 152.64 99.006C152.751 98.8061 152.832 98.6459 152.888 98.5321C152.915 98.4752 152.937 98.4298 152.952 98.3969C152.959 98.3805 152.965 98.3671 152.969 98.357C152.972 98.3519 152.974 98.3476 152.975 98.3442C152.976 98.3424 152.977 98.3409 152.977 98.3396C152.977 98.3389 152.978 98.3381 152.978 98.3378C152.978 98.337 152.979 98.3363 152.059 97.9434C151.139 97.5506 151.14 97.55 151.14 97.5494C151.14 97.5493 151.14 97.5487 151.14 97.5485C151.14 97.548 151.141 97.5477 151.141 97.5476C151.141 97.5474 151.14 97.5479 151.14 97.5493C151.139 97.5521 151.136 97.558 151.132 97.5669C151.124 97.5848 151.11 97.6149 151.09 97.6564C151.049 97.7393 150.984 97.8676 150.891 98.0349C150.705 98.3695 150.409 98.8596 149.977 99.4538C149.114 100.642 147.711 102.247 145.575 103.859C141.315 107.074 134.069 110.372 122.212 110.372V112.372ZM121.212 90.7027V111.372H123.212V90.7027H121.212ZM112.263 87.7631C115.026 89.9491 118.406 91.3608 122.122 91.6986L122.303 89.7068C118.985 89.4052 115.971 88.1463 113.505 86.1948L112.263 87.7631ZM99.871 101.763L113.6 87.6769L112.168 86.281L98.4387 100.367L99.871 101.763ZM84.7079 71.2187C84.7079 83.4729 88.1298 91.1506 91.6336 95.7865C93.3806 98.0979 95.1352 99.636 96.4666 100.602C97.1321 101.085 97.6918 101.424 98.092 101.646C98.2922 101.757 98.4526 101.839 98.5665 101.894C98.6235 101.922 98.6688 101.943 98.7018 101.958C98.7183 101.966 98.7316 101.972 98.7418 101.976C98.7469 101.978 98.7511 101.98 98.7546 101.982C98.7563 101.983 98.7578 101.983 98.7592 101.984C98.7598 101.984 98.7607 101.984 98.761 101.985C98.7618 101.985 98.7625 101.985 99.1549 101.065C99.5472 100.146 99.5479 100.146 99.5485 100.146C99.5486 100.146 99.5491 100.146 99.5494 100.146C99.5499 100.147 99.5502 100.147 99.5503 100.147C99.5505 100.147 99.5499 100.147 99.5485 100.146C99.5457 100.145 99.5398 100.142 99.5308 100.138C99.5129 100.13 99.4827 100.116 99.4412 100.096C99.3582 100.055 99.2297 99.9902 99.0621 99.8973C98.727 99.7114 98.2361 99.4146 97.641 98.9829C96.4511 98.1198 94.8439 96.717 93.2291 94.5805C90.0095 90.3207 86.7079 83.0751 86.7079 71.2187H84.7079ZM106.339 70.2187H85.7079V72.2187H106.339V70.2187ZM109.598 61.1718C107.293 63.9148 105.763 67.3529 105.345 71.1083L107.333 71.3291C107.706 67.9755 109.072 64.9063 111.129 62.4587L109.598 61.1718ZM95.6359 48.8587L109.666 62.5314L111.062 61.0991L97.0318 47.4264L95.6359 48.8587ZM126.181 33.7144C113.927 33.7144 106.249 37.1314 101.613 40.6303C99.3018 42.3749 97.7636 44.127 96.7978 45.4567C96.315 46.1213 95.9752 46.6803 95.7532 47.08C95.6422 47.2799 95.5605 47.4401 95.5051 47.5539C95.4774 47.6108 95.4562 47.6561 95.4412 47.689C95.4337 47.7055 95.4277 47.7188 95.4232 47.729C95.421 47.7341 95.4191 47.7383 95.4176 47.7418C95.4169 47.7435 95.4162 47.7451 95.4157 47.7464C95.4154 47.747 95.415 47.7479 95.4149 47.7482C95.4145 47.749 95.4142 47.7497 96.3338 48.1426C97.2534 48.5354 97.2532 48.536 97.2529 48.5366C97.2529 48.5367 97.2526 48.5373 97.2525 48.5375C97.2523 48.538 97.2522 48.5383 97.2521 48.5384C97.2521 48.5386 97.2523 48.538 97.2529 48.5367C97.2541 48.5339 97.2568 48.528 97.2608 48.519C97.269 48.5011 97.283 48.4711 97.3032 48.4296C97.3436 48.3467 97.4087 48.2184 97.5016 48.0511C97.6875 47.7165 97.9842 47.2264 98.4159 46.6321C99.279 45.444 100.682 43.8391 102.818 42.2266C107.078 39.0115 114.324 35.7144 126.181 35.7144V33.7144ZM127.181 55.7406V34.7144H125.181V55.7406H127.181ZM135.678 58.8085C133.068 56.6364 129.825 55.2057 126.309 54.7489L126.052 56.7322C129.194 57.1406 132.082 58.4181 134.399 60.3459L135.678 58.8085ZM124.055 82.7065C118.719 82.7065 114.373 78.375 114.373 73.043H112.373C112.373 79.4842 117.619 84.7065 124.055 84.7065V82.7065ZM133.719 73.043C133.719 78.3773 129.39 82.7065 124.055 82.7065V84.7065C130.494 84.7065 135.719 79.4819 135.719 73.043H133.719ZM124.055 63.3794C129.388 63.3794 133.719 67.7264 133.719 73.043H135.719C135.719 66.6241 130.495 61.3794 124.055 61.3794V63.3794ZM114.373 73.043C114.373 67.711 118.719 63.3794 124.055 63.3794V61.3794C117.619 61.3794 112.373 66.6018 112.373 73.043H114.373ZM141.602 79.7415H144.104V77.7415H141.602V79.7415ZM142.602 86.4712V78.7415H140.602V86.4712H142.602ZM144.104 85.4712H141.602V87.4712H144.104V85.4712ZM143.104 78.7415V86.4712H145.104V78.7415H143.104ZM146.191 78.7447H149.012V76.7447H146.191V78.7447ZM147.191 87.4491V77.7447H145.191V87.4491H147.191ZM149.012 86.4491H146.191V88.4491H149.012V86.4491ZM148.012 77.7447V87.4491H150.012V77.7447H148.012ZM151.608 77.4847H155.256V75.4847H151.608V77.4847ZM152.608 88.7092V76.4847H150.608V88.7092H152.608ZM155.256 87.7092H151.608V89.7092H155.256V87.7092ZM154.256 76.4847V88.7092H156.256V76.4847H154.256ZM157.757 77.1085H161.5V75.1085H157.757V77.1085ZM158.757 89.1041V76.1085H156.757V89.1041H158.757ZM161.5 88.1041H157.757V90.1041H161.5V88.1041ZM160.5 76.1085V89.1041H162.5V76.1085H160.5ZM110.401 91.7215H118.112V89.7215H110.401V91.7215ZM111.401 93.2229V90.7215H109.401V93.2229H111.401ZM118.112 92.2229H110.401V94.2229H118.112V92.2229ZM117.112 90.7215V93.2229H119.112V90.7215H117.112ZM109.405 96.3104H119.09V94.3104H109.405V96.3104ZM110.405 98.1315V95.3104H108.405V98.1315H110.405ZM119.09 97.1315H109.405V99.1315H119.09V97.1315ZM118.09 95.3104V98.1315H120.09V95.3104H118.09ZM108.145 101.727H120.369V99.7269H108.145V101.727ZM109.145 104.375V100.727H107.145V104.375H109.145ZM120.369 103.375H108.145V105.375H120.369V103.375ZM119.369 100.727V104.375H121.369V100.727H119.369ZM107.75 107.877H120.745V105.877H107.75V107.877ZM108.75 110.619V106.877H106.75V110.619H108.75ZM120.745 109.619H107.75V111.619H120.745V109.619ZM119.745 106.877V110.619H121.745V106.877H119.745ZM103.575 60.596H106.057V58.596H103.575V60.596ZM104.575 67.3069V59.596H102.575V67.3069H104.575ZM106.057 66.3069H103.575V68.3069H106.057V66.3069ZM105.057 59.596V67.3069H107.057V59.596H105.057ZM98.6659 59.618H101.487V57.618H98.6659V59.618ZM99.6659 68.3036V58.618H97.6659V68.3036H99.6659ZM101.487 67.3036H98.6659V69.3036H101.487V67.3036ZM100.487 58.618V68.3036H102.487V58.618H100.487ZM92.422 58.358H96.0705V56.358H92.422V58.358ZM93.422 69.5637V57.358H91.422V69.5637H93.422ZM96.0705 68.5637H92.422V70.5637H96.0705V68.5637ZM95.0705 57.358V69.5637H97.0705V57.358H95.0705ZM86.1781 57.963H89.9207V55.963H86.1781V57.963ZM87.1781 69.9586V56.963H85.1781V69.9586H87.1781ZM89.9207 68.9586H86.1781V70.9586H89.9207V68.9586ZM88.9207 56.963V69.9586H90.9207V56.963H88.9207ZM130.318 54.5213H138.029V52.5213H130.318V54.5213ZM131.318 56.0039V53.5213H129.318V56.0039H131.318ZM138.029 55.0039H130.318V57.0039H138.029V55.0039ZM137.029 53.5213V56.0039H139.029V53.5213H137.029ZM129.321 49.6127H139.007V47.6127H129.321V49.6127ZM130.321 51.4338V48.6127H128.321V51.4338H130.321ZM139.007 50.4338H129.321V52.4338H139.007V50.4338ZM138.007 48.6127V51.4338H140.007V48.6127H138.007ZM128.061 43.3688H140.286V41.3688H128.061V43.3688ZM129.061 46.0174V42.3688H127.061V46.0174H129.061ZM140.286 45.0174H128.061V47.0174H140.286V45.0174ZM139.286 42.3688V46.0174H141.286V42.3688H139.286ZM127.685 37.1249H140.681V35.1249H127.685V37.1249ZM128.685 39.8675V36.1249H126.685V39.8675H128.685ZM140.681 38.8675H127.685V40.8675H140.681V38.8675ZM139.681 36.1249V39.8675H141.681V36.1249H139.681Z" fill="url(#paint0_linear_1591:2228)" mask="url(#path-1-inside-1_1591:2228)"/>
<g filter="url(#filter0_b_1591:2228)">
<rect x="1" y="58" width="248" height="24" fill="white" fill-opacity="0.4"/>
</g>
<path d="M27.9553 63.4V76H25.6513V65.38H19.1173V76H16.8133V63.4H27.9553ZM34.8381 66.28C36.2541 66.28 37.3341 66.622 38.0781 67.306C38.8341 67.978 39.2121 68.998 39.2121 70.366V76H37.0881V74.83C36.8121 75.25 36.4161 75.574 35.9001 75.802C35.3961 76.018 34.7841 76.126 34.0641 76.126C33.3441 76.126 32.7141 76.006 32.1741 75.766C31.6341 75.514 31.2141 75.172 30.9141 74.74C30.6261 74.296 30.4821 73.798 30.4821 73.246C30.4821 72.382 30.8001 71.692 31.4361 71.176C32.0841 70.648 33.0981 70.384 34.4781 70.384H36.9621V70.24C36.9621 69.568 36.7581 69.052 36.3501 68.692C35.9541 68.332 35.3601 68.152 34.5681 68.152C34.0281 68.152 33.4941 68.236 32.9661 68.404C32.4501 68.572 32.0121 68.806 31.6521 69.106L30.7701 67.468C31.2741 67.084 31.8801 66.79 32.5881 66.586C33.2961 66.382 34.0461 66.28 34.8381 66.28ZM34.5321 74.488C35.0961 74.488 35.5941 74.362 36.0261 74.11C36.4701 73.846 36.7821 73.474 36.9621 72.994V71.878H34.6401C33.3441 71.878 32.6961 72.304 32.6961 73.156C32.6961 73.564 32.8581 73.888 33.1821 74.128C33.5061 74.368 33.9561 74.488 34.5321 74.488ZM47.3244 66.28C48.2604 66.28 49.0944 66.484 49.8264 66.892C50.5704 67.3 51.1524 67.876 51.5724 68.62C51.9924 69.364 52.2024 70.222 52.2024 71.194C52.2024 72.166 51.9924 73.03 51.5724 73.786C51.1524 74.53 50.5704 75.106 49.8264 75.514C49.0944 75.922 48.2604 76.126 47.3244 76.126C46.0284 76.126 45.0024 75.694 44.2464 74.83V79.492H41.9964V66.388H44.1384V67.648C44.5104 67.192 44.9664 66.85 45.5064 66.622C46.0584 66.394 46.6644 66.28 47.3244 66.28ZM47.0724 74.2C47.9004 74.2 48.5784 73.924 49.1064 73.372C49.6464 72.82 49.9164 72.094 49.9164 71.194C49.9164 70.294 49.6464 69.568 49.1064 69.016C48.5784 68.464 47.9004 68.188 47.0724 68.188C46.5324 68.188 46.0464 68.314 45.6144 68.566C45.1824 68.806 44.8404 69.154 44.5884 69.61C44.3364 70.066 44.2104 70.594 44.2104 71.194C44.2104 71.794 44.3364 72.322 44.5884 72.778C44.8404 73.234 45.1824 73.588 45.6144 73.84C46.0464 74.08 46.5324 74.2 47.0724 74.2ZM57.9006 66.28C59.3166 66.28 60.3966 66.622 61.1406 67.306C61.8966 67.978 62.2746 68.998 62.2746 70.366V76H60.1506V74.83C59.8746 75.25 59.4786 75.574 58.9626 75.802C58.4586 76.018 57.8466 76.126 57.1266 76.126C56.4066 76.126 55.7766 76.006 55.2366 75.766C54.6966 75.514 54.2766 75.172 53.9766 74.74C53.6886 74.296 53.5446 73.798 53.5446 73.246C53.5446 72.382 53.8626 71.692 54.4986 71.176C55.1466 70.648 56.1606 70.384 57.5406 70.384H60.0246V70.24C60.0246 69.568 59.8206 69.052 59.4126 68.692C59.0166 68.332 58.4226 68.152 57.6306 68.152C57.0906 68.152 56.5566 68.236 56.0286 68.404C55.5126 68.572 55.0746 68.806 54.7146 69.106L53.8326 67.468C54.3366 67.084 54.9426 66.79 55.6506 66.586C56.3586 66.382 57.1086 66.28 57.9006 66.28ZM57.5946 74.488C58.1586 74.488 58.6566 74.362 59.0886 74.11C59.5326 73.846 59.8446 73.474 60.0246 72.994V71.878H57.7026C56.4066 71.878 55.7586 72.304 55.7586 73.156C55.7586 73.564 55.9206 73.888 56.2446 74.128C56.5686 74.368 57.0186 74.488 57.5946 74.488ZM73.7709 66.388V76H71.5209V68.296H67.9209L67.8309 70.204C67.7709 71.476 67.6509 72.544 67.4709 73.408C67.3029 74.26 67.0089 74.938 66.5889 75.442C66.1809 75.934 65.6169 76.18 64.8969 76.18C64.5609 76.18 64.1469 76.114 63.6549 75.982L63.7629 74.092C63.9309 74.128 64.0749 74.146 64.1949 74.146C64.6509 74.146 64.9929 73.966 65.2209 73.606C65.4489 73.234 65.5929 72.796 65.6529 72.292C65.7249 71.776 65.7849 71.044 65.8329 70.096L65.9949 66.388H73.7709ZM85.5131 66.388V76H83.2631V68.296H79.6631L79.5731 70.204C79.5131 71.476 79.3931 72.544 79.2131 73.408C79.0451 74.26 78.7511 74.938 78.3311 75.442C77.9231 75.934 77.3591 76.18 76.6391 76.18C76.3031 76.18 75.8891 76.114 75.3971 75.982L75.5051 74.092C75.6731 74.128 75.8171 74.146 75.9371 74.146C76.3931 74.146 76.7351 73.966 76.9631 73.606C77.1911 73.234 77.3351 72.796 77.3951 72.292C77.4671 71.776 77.5271 71.044 77.5751 70.096L77.7371 66.388H85.5131ZM97.5433 71.248C97.5433 71.404 97.5313 71.626 97.5073 71.914H89.9653C90.0973 72.622 90.4393 73.186 90.9913 73.606C91.5553 74.014 92.2513 74.218 93.0793 74.218C94.1353 74.218 95.0053 73.87 95.6893 73.174L96.8953 74.56C96.4633 75.076 95.9173 75.466 95.2573 75.73C94.5973 75.994 93.8533 76.126 93.0253 76.126C91.9693 76.126 91.0393 75.916 90.2353 75.496C89.4313 75.076 88.8073 74.494 88.3633 73.75C87.9313 72.994 87.7153 72.142 87.7153 71.194C87.7153 70.258 87.9253 69.418 88.3453 68.674C88.7773 67.918 89.3713 67.33 90.1273 66.91C90.8833 66.49 91.7353 66.28 92.6833 66.28C93.6193 66.28 94.4533 66.49 95.1853 66.91C95.9293 67.318 96.5053 67.9 96.9133 68.656C97.3333 69.4 97.5433 70.264 97.5433 71.248ZM92.6833 68.08C91.9633 68.08 91.3513 68.296 90.8473 68.728C90.3553 69.148 90.0553 69.712 89.9473 70.42H95.4013C95.3053 69.724 95.0113 69.16 94.5193 68.728C94.0273 68.296 93.4153 68.08 92.6833 68.08ZM108.593 66.388V76H106.343V68.296H102.743L102.653 70.204C102.593 71.476 102.473 72.544 102.293 73.408C102.125 74.26 101.831 74.938 101.411 75.442C101.003 75.934 100.439 76.18 99.7191 76.18C99.3831 76.18 98.9691 76.114 98.4771 75.982L98.5851 74.092C98.7531 74.128 98.8971 74.146 99.0171 74.146C99.4731 74.146 99.8151 73.966 100.043 73.606C100.271 73.234 100.415 72.796 100.475 72.292C100.547 71.776 100.607 71.044 100.655 70.096L100.817 66.388H108.593ZM116.447 69.556C117.671 69.556 118.607 69.832 119.255 70.384C119.915 70.936 120.245 71.716 120.245 72.724C120.245 73.78 119.885 74.596 119.165 75.172C118.445 75.748 117.431 76.03 116.123 76.018L111.623 76V66.388H113.873V69.538L116.447 69.556ZM115.925 74.362C116.585 74.374 117.089 74.236 117.437 73.948C117.785 73.66 117.959 73.24 117.959 72.688C117.959 72.148 117.791 71.752 117.455 71.5C117.119 71.248 116.609 71.116 115.925 71.104L113.873 71.086V74.344L115.925 74.362ZM122.223 66.388H124.473V70.294H129.315V66.388H131.565V76H129.315V72.202H124.473V76H122.223V66.388ZM139.26 69.556C140.484 69.556 141.42 69.832 142.068 70.384C142.716 70.936 143.04 71.716 143.04 72.724C143.04 73.78 142.68 74.596 141.96 75.172C141.252 75.748 140.244 76.03 138.936 76.018L134.58 76V66.388H136.83V69.538L139.26 69.556ZM144.282 66.388H146.532V76H144.282V66.388ZM138.738 74.362C139.398 74.374 139.902 74.236 140.25 73.948C140.598 73.66 140.772 73.24 140.772 72.688C140.772 72.148 140.604 71.752 140.268 71.5C139.932 71.248 139.422 71.116 138.738 71.104L136.83 71.086V74.344L138.738 74.362ZM158.557 71.248C158.557 71.404 158.545 71.626 158.521 71.914H150.979C151.111 72.622 151.453 73.186 152.005 73.606C152.569 74.014 153.265 74.218 154.093 74.218C155.149 74.218 156.019 73.87 156.703 73.174L157.909 74.56C157.477 75.076 156.931 75.466 156.271 75.73C155.611 75.994 154.867 76.126 154.039 76.126C152.983 76.126 152.053 75.916 151.249 75.496C150.445 75.076 149.821 74.494 149.377 73.75C148.945 72.994 148.729 72.142 148.729 71.194C148.729 70.258 148.939 69.418 149.359 68.674C149.791 67.918 150.385 67.33 151.141 66.91C151.897 66.49 152.749 66.28 153.697 66.28C154.633 66.28 155.467 66.49 156.199 66.91C156.943 67.318 157.519 67.9 157.927 68.656C158.347 69.4 158.557 70.264 158.557 71.248ZM153.697 68.08C152.977 68.08 152.365 68.296 151.861 68.728C151.369 69.148 151.069 69.712 150.961 70.42H156.415C156.319 69.724 156.025 69.16 155.533 68.728C155.041 68.296 154.429 68.08 153.697 68.08ZM165.992 66.388H168.242V70.294H173.084V66.388H175.334V76H173.084V72.202H168.242V76H165.992V66.388ZM181.932 66.28C183.348 66.28 184.428 66.622 185.172 67.306C185.928 67.978 186.306 68.998 186.306 70.366V76H184.182V74.83C183.906 75.25 183.51 75.574 182.994 75.802C182.49 76.018 181.878 76.126 181.158 76.126C180.438 76.126 179.808 76.006 179.268 75.766C178.728 75.514 178.308 75.172 178.008 74.74C177.72 74.296 177.576 73.798 177.576 73.246C177.576 72.382 177.894 71.692 178.53 71.176C179.178 70.648 180.192 70.384 181.572 70.384H184.056V70.24C184.056 69.568 183.852 69.052 183.444 68.692C183.048 68.332 182.454 68.152 181.662 68.152C181.122 68.152 180.588 68.236 180.06 68.404C179.544 68.572 179.106 68.806 178.746 69.106L177.864 67.468C178.368 67.084 178.974 66.79 179.682 66.586C180.39 66.382 181.14 66.28 181.932 66.28ZM181.626 74.488C182.19 74.488 182.688 74.362 183.12 74.11C183.564 73.846 183.876 73.474 184.056 72.994V71.878H181.734C180.438 71.878 179.79 72.304 179.79 73.156C179.79 73.564 179.952 73.888 180.276 74.128C180.6 74.368 181.05 74.488 181.626 74.488ZM193.464 76.126C192.468 76.126 191.574 75.916 190.782 75.496C189.99 75.076 189.372 74.494 188.928 73.75C188.484 72.994 188.262 72.142 188.262 71.194C188.262 70.246 188.484 69.4 188.928 68.656C189.372 67.912 189.984 67.33 190.764 66.91C191.556 66.49 192.456 66.28 193.464 66.28C194.412 66.28 195.24 66.472 195.948 66.856C196.668 67.24 197.208 67.792 197.568 68.512L195.84 69.52C195.564 69.076 195.216 68.746 194.796 68.53C194.388 68.302 193.938 68.188 193.446 68.188C192.606 68.188 191.91 68.464 191.358 69.016C190.806 69.556 190.53 70.282 190.53 71.194C190.53 72.106 190.8 72.838 191.34 73.39C191.892 73.93 192.594 74.2 193.446 74.2C193.938 74.2 194.388 74.092 194.796 73.876C195.216 73.648 195.564 73.312 195.84 72.868L197.568 73.876C197.196 74.596 196.65 75.154 195.93 75.55C195.222 75.934 194.4 76.126 193.464 76.126ZM203.692 76.126C202.72 76.126 201.844 75.916 201.064 75.496C200.284 75.076 199.672 74.494 199.228 73.75C198.796 72.994 198.58 72.142 198.58 71.194C198.58 70.246 198.796 69.4 199.228 68.656C199.672 67.912 200.284 67.33 201.064 66.91C201.844 66.49 202.72 66.28 203.692 66.28C204.676 66.28 205.558 66.49 206.338 66.91C207.118 67.33 207.724 67.912 208.156 68.656C208.6 69.4 208.822 70.246 208.822 71.194C208.822 72.142 208.6 72.994 208.156 73.75C207.724 74.494 207.118 75.076 206.338 75.496C205.558 75.916 204.676 76.126 203.692 76.126ZM203.692 74.2C204.52 74.2 205.204 73.924 205.744 73.372C206.284 72.82 206.554 72.094 206.554 71.194C206.554 70.294 206.284 69.568 205.744 69.016C205.204 68.464 204.52 68.188 203.692 68.188C202.864 68.188 202.18 68.464 201.64 69.016C201.112 69.568 200.848 70.294 200.848 71.194C200.848 72.094 201.112 72.82 201.64 73.372C202.18 73.924 202.864 74.2 203.692 74.2ZM215.419 76.126C214.423 76.126 213.529 75.916 212.737 75.496C211.945 75.076 211.327 74.494 210.883 73.75C210.439 72.994 210.217 72.142 210.217 71.194C210.217 70.246 210.439 69.4 210.883 68.656C211.327 67.912 211.939 67.33 212.719 66.91C213.511 66.49 214.411 66.28 215.419 66.28C216.367 66.28 217.195 66.472 217.903 66.856C218.623 67.24 219.163 67.792 219.523 68.512L217.795 69.52C217.519 69.076 217.171 68.746 216.751 68.53C216.343 68.302 215.893 68.188 215.401 68.188C214.561 68.188 213.865 68.464 213.313 69.016C212.761 69.556 212.485 70.282 212.485 71.194C212.485 72.106 212.755 72.838 213.295 73.39C213.847 73.93 214.549 74.2 215.401 74.2C215.893 74.2 216.343 74.092 216.751 73.876C217.171 73.648 217.519 73.312 217.795 72.868L219.523 73.876C219.151 74.596 218.605 75.154 217.885 75.55C217.177 75.934 216.355 76.126 215.419 76.126ZM226.184 69.556C227.408 69.556 228.344 69.832 228.992 70.384C229.64 70.936 229.964 71.716 229.964 72.724C229.964 73.78 229.604 74.596 228.884 75.172C228.176 75.748 227.168 76.03 225.86 76.018L221.504 76V66.388H223.754V69.538L226.184 69.556ZM231.206 66.388H233.456V76H231.206V66.388ZM225.662 74.362C226.322 74.374 226.826 74.236 227.174 73.948C227.522 73.66 227.696 73.24 227.696 72.688C227.696 72.148 227.528 71.752 227.192 71.5C226.856 71.248 226.346 71.116 225.662 71.104L223.754 71.086V74.344L225.662 74.362Z" fill="#242424"/>
<defs>
<filter id="filter0_b_1591:2228" x="-6" y="51" width="262" height="38" filterUnits="userSpaceOnUse" color-interpolation-filters="sRGB">
<feFlood flood-opacity="0" result="BackgroundImageFix"/>
<feGaussianBlur in="BackgroundImage" stdDeviation="3.5"/>
<feComposite in2="SourceAlpha" operator="in" result="effect1_backgroundBlur_1591:2228"/>
<feBlend mode="normal" in="SourceGraphic" in2="effect1_backgroundBlur_1591:2228" result="shape"/>
</filter>
<linearGradient id="paint0_linear_1591:2228" x1="334" y1="2.24261e-07" x2="251.036" y2="182.267" gradientUnits="userSpaceOnUse">
<stop stop-color="white" stop-opacity="0.6"/>
<stop offset="1" stop-color="white" stop-opacity="0.4"/>
</linearGradient>
</defs>
</svg>
