<svg width="252" height="142" viewBox="0 0 252 142" fill="none" xmlns="http://www.w3.org/2000/svg">
<mask id="path-1-outside-1_1633:2234" maskUnits="userSpaceOnUse" x="0" y="0" width="252" height="142" fill="black">
<rect fill="white" width="252" height="142"/>
<path fill-rule="evenodd" clip-rule="evenodd" d="M1 26C1 12.1929 12.1929 1 26 1H226C239.807 1 251 12.1929 251 26V116C251 129.807 239.807 141 226 141H26C12.1929 141 1 129.807 1 116V26ZM217.715 56.233C215.496 60.0132 213.108 61.3673 210.08 60.5774C206.789 59.7123 205.378 57.3614 205.378 52.7349C205.378 49.8011 205.387 46.8674 205.396 43.9336C205.419 36.5988 205.442 29.2639 205.322 21.9291C205.265 18.1489 206.431 15.4407 209.91 13.8609H213.202C215.252 14.82 216.756 16.3434 217.734 18.3934C217.715 31.0128 217.715 43.6323 217.715 56.233ZM41.0442 87.2835C38.0163 86.4936 35.6278 87.8477 33.4086 91.6279C33.4086 104.229 33.4086 116.848 33.3898 129.468C34.3678 131.518 35.8723 133.041 37.9223 134H41.2135C44.6928 132.42 45.8588 129.712 45.8024 125.932C45.6815 118.597 45.7045 111.263 45.7276 103.928V103.928C45.7368 100.994 45.746 98.0599 45.746 95.126C45.746 90.4995 44.3355 88.1486 41.0442 87.2835ZM71.3453 91.629C71.1064 90.3509 70.8334 89.0898 70.5623 87.838C69.9799 85.148 69.4067 82.5006 69.2013 79.8183C67.5087 57.6448 75.765 40.0979 94.1582 27.5161C103.298 21.2722 113.605 18.4699 124.625 18.4135C140.589 18.3383 156.552 18.3593 172.516 18.3804C176.506 18.3857 180.497 18.3909 184.488 18.3947C194.606 18.3947 201.715 25.5037 201.678 35.6407L201.676 35.8986V35.8988C201.658 38.6756 201.64 41.5164 201.038 44.1979C199.421 51.4385 193.045 56.4412 185.579 56.6293C183.774 56.6816 181.96 56.6702 180.08 56.6585H180.08H180.079C179.256 56.6533 178.42 56.6481 177.567 56.6481C177.748 57.3958 177.93 58.1237 178.11 58.8392L178.11 58.8401C178.454 60.2119 178.787 61.5385 179.072 62.8732C183.811 85.1783 174.257 108.179 155.074 120.742C145.746 126.855 135.477 129.807 124.4 129.864C111.014 129.916 97.6284 129.904 84.2428 129.893H84.2333C78.4954 129.888 72.7576 129.882 67.0197 129.882C56.4878 129.882 49.4728 122.886 49.5292 112.317L49.5309 112.063V112.063C49.5486 109.416 49.5667 106.706 50.1498 104.155C51.7861 96.8198 58.1992 91.7795 65.7408 91.629C66.9848 91.6039 68.2457 91.6124 69.4952 91.6207H69.4953C70.1159 91.6249 70.7337 91.629 71.3453 91.629ZM72.9063 74.0821C72.8875 102.612 96.0013 125.764 124.531 125.764C152.892 125.764 176.1 102.725 176.175 74.4959C176.251 45.7588 153.231 22.5322 124.644 22.4946C96.1141 22.457 72.9251 45.5708 72.9063 74.0821ZM146.159 22.5134C146.342 22.6622 146.471 22.7721 146.567 22.8535C146.737 22.9986 146.802 23.0535 146.874 23.0776C159.964 28.983 169.518 38.4429 175.498 51.5138C175.724 52.0027 176.608 52.4729 177.191 52.4917C179.993 52.5858 182.814 52.5858 185.617 52.5105C191.165 52.3789 196.017 48.5423 197.126 43.1259C197.566 41.0105 197.555 38.7826 197.544 36.5882V36.5857C197.542 36.2446 197.54 35.9044 197.54 35.5655C197.578 27.7606 192.331 22.5134 184.582 22.5134C177.096 22.5009 169.602 22.5051 162.111 22.5092H162.111H162.109C158.365 22.5113 154.621 22.5134 150.88 22.5134H146.159ZM102.49 125.764C102.499 125.707 102.513 125.651 102.527 125.594C102.541 125.538 102.555 125.482 102.565 125.425C102.386 125.336 102.207 125.243 102.027 125.15L102.026 125.15L102.025 125.149C101.752 125.008 101.475 124.865 101.192 124.729C90.378 119.67 81.9901 111.978 76.0659 101.616C75.7334 101.034 75.4368 100.387 75.1401 99.739L75.14 99.7389C74.4297 98.1888 73.7185 96.6367 72.5113 95.9735C71.2335 95.274 69.4651 95.4404 67.7084 95.6056C67.0088 95.6714 66.311 95.7371 65.6468 95.7478C60.0235 95.8606 55.1149 99.7161 53.9865 105.227C53.5653 107.284 53.5767 109.424 53.5879 111.553V111.554C53.5897 111.896 53.5915 112.238 53.5915 112.58C53.5539 120.535 58.7446 125.745 66.6436 125.764C74.2284 125.776 81.8048 125.772 89.384 125.768C93.1746 125.766 96.966 125.764 100.759 125.764H102.49ZM125.055 66.934C121.125 66.934 117.946 70.1123 117.946 74.043C117.946 77.9736 121.125 81.152 125.055 81.152C128.986 81.152 132.164 77.9736 132.164 74.043C132.164 70.1123 128.986 66.934 125.055 66.934ZM136.039 60.5772L149.956 46.3215C149.956 46.3215 163.403 52.0576 163.384 76.1494H142.32C141.963 79.4594 140.665 82.4685 138.728 84.951L153.059 98.9434C153.059 98.9434 147.323 112.372 123.212 112.372V91.7027C119.695 91.383 116.498 90.0477 113.884 87.979L100.155 102.065C100.155 102.065 86.7079 96.3292 86.7079 72.2187H107.339C107.734 68.6642 109.182 65.4106 111.364 62.8152L97.3338 49.1426C97.3338 49.1426 103.07 35.7144 127.181 35.7144V56.7406C130.509 57.1731 133.575 58.5272 136.039 60.5772ZM114.373 74.043C114.373 79.9296 119.169 84.7065 125.055 84.7065C130.942 84.7065 135.719 79.9296 135.719 74.043C135.719 68.1752 130.942 63.3794 125.055 63.3794C119.169 63.3794 114.373 68.1564 114.373 74.043ZM145.104 79.7415H142.602V87.4712H145.104V79.7415ZM150.012 78.7447H147.191V88.4491H150.012V78.7447ZM156.256 77.4847H152.608V89.7092H156.256V77.4847ZM162.5 77.1085H158.757V90.1041H162.5V77.1085ZM119.112 91.7215H111.401V94.2229H119.112V91.7215ZM120.09 96.3104H110.405V99.1315H120.09V96.3104ZM121.369 101.727H109.145V105.375H121.369V101.727ZM121.745 107.877H108.75V111.619H121.745V107.877ZM107.057 60.596H104.575V68.3069H107.057V60.596ZM102.487 59.618H99.6659V69.3036H102.487V59.618ZM97.0705 58.358H93.422V70.5637H97.0705V58.358ZM90.9207 57.963H87.1781V70.9586H90.9207V57.963ZM139.029 54.5213H131.318V57.0039H139.029V54.5213ZM140.007 49.6127H130.321V52.4338H140.007V49.6127ZM141.286 43.3688H129.061V47.0174H141.286V43.3688ZM141.681 37.1249H128.685V40.8675H141.681V37.1249Z"/>
</mask>
<path fill-rule="evenodd" clip-rule="evenodd" d="M1 26C1 12.1929 12.1929 1 26 1H226C239.807 1 251 12.1929 251 26V116C251 129.807 239.807 141 226 141H26C12.1929 141 1 129.807 1 116V26ZM217.715 56.233C215.496 60.0132 213.108 61.3673 210.08 60.5774C206.789 59.7123 205.378 57.3614 205.378 52.7349C205.378 49.8011 205.387 46.8674 205.396 43.9336C205.419 36.5988 205.442 29.2639 205.322 21.9291C205.265 18.1489 206.431 15.4407 209.91 13.8609H213.202C215.252 14.82 216.756 16.3434 217.734 18.3934C217.715 31.0128 217.715 43.6323 217.715 56.233ZM41.0442 87.2835C38.0163 86.4936 35.6278 87.8477 33.4086 91.6279C33.4086 104.229 33.4086 116.848 33.3898 129.468C34.3678 131.518 35.8723 133.041 37.9223 134H41.2135C44.6928 132.42 45.8588 129.712 45.8024 125.932C45.6815 118.597 45.7045 111.263 45.7276 103.928V103.928C45.7368 100.994 45.746 98.0599 45.746 95.126C45.746 90.4995 44.3355 88.1486 41.0442 87.2835ZM71.3453 91.629C71.1064 90.3509 70.8334 89.0898 70.5623 87.838C69.9799 85.148 69.4067 82.5006 69.2013 79.8183C67.5087 57.6448 75.765 40.0979 94.1582 27.5161C103.298 21.2722 113.605 18.4699 124.625 18.4135C140.589 18.3383 156.552 18.3593 172.516 18.3804C176.506 18.3857 180.497 18.3909 184.488 18.3947C194.606 18.3947 201.715 25.5037 201.678 35.6407L201.676 35.8986V35.8988C201.658 38.6756 201.64 41.5164 201.038 44.1979C199.421 51.4385 193.045 56.4412 185.579 56.6293C183.774 56.6816 181.96 56.6702 180.08 56.6585H180.08H180.079C179.256 56.6533 178.42 56.6481 177.567 56.6481C177.748 57.3958 177.93 58.1237 178.11 58.8392L178.11 58.8401C178.454 60.2119 178.787 61.5385 179.072 62.8732C183.811 85.1783 174.257 108.179 155.074 120.742C145.746 126.855 135.477 129.807 124.4 129.864C111.014 129.916 97.6284 129.904 84.2428 129.893H84.2333C78.4954 129.888 72.7576 129.882 67.0197 129.882C56.4878 129.882 49.4728 122.886 49.5292 112.317L49.5309 112.063V112.063C49.5486 109.416 49.5667 106.706 50.1498 104.155C51.7861 96.8198 58.1992 91.7795 65.7408 91.629C66.9848 91.6039 68.2457 91.6124 69.4952 91.6207H69.4953C70.1159 91.6249 70.7337 91.629 71.3453 91.629ZM72.9063 74.0821C72.8875 102.612 96.0013 125.764 124.531 125.764C152.892 125.764 176.1 102.725 176.175 74.4959C176.251 45.7588 153.231 22.5322 124.644 22.4946C96.1141 22.457 72.9251 45.5708 72.9063 74.0821ZM146.159 22.5134C146.342 22.6622 146.471 22.7721 146.567 22.8535C146.737 22.9986 146.802 23.0535 146.874 23.0776C159.964 28.983 169.518 38.4429 175.498 51.5138C175.724 52.0027 176.608 52.4729 177.191 52.4917C179.993 52.5858 182.814 52.5858 185.617 52.5105C191.165 52.3789 196.017 48.5423 197.126 43.1259C197.566 41.0105 197.555 38.7826 197.544 36.5882V36.5857C197.542 36.2446 197.54 35.9044 197.54 35.5655C197.578 27.7606 192.331 22.5134 184.582 22.5134C177.096 22.5009 169.602 22.5051 162.111 22.5092H162.111H162.109C158.365 22.5113 154.621 22.5134 150.88 22.5134H146.159ZM102.49 125.764C102.499 125.707 102.513 125.651 102.527 125.594C102.541 125.538 102.555 125.482 102.565 125.425C102.386 125.336 102.207 125.243 102.027 125.15L102.026 125.15L102.025 125.149C101.752 125.008 101.475 124.865 101.192 124.729C90.378 119.67 81.9901 111.978 76.0659 101.616C75.7334 101.034 75.4368 100.387 75.1401 99.739L75.14 99.7389C74.4297 98.1888 73.7185 96.6367 72.5113 95.9735C71.2335 95.274 69.4651 95.4404 67.7084 95.6056C67.0088 95.6714 66.311 95.7371 65.6468 95.7478C60.0235 95.8606 55.1149 99.7161 53.9865 105.227C53.5653 107.284 53.5767 109.424 53.5879 111.553V111.554C53.5897 111.896 53.5915 112.238 53.5915 112.58C53.5539 120.535 58.7446 125.745 66.6436 125.764C74.2284 125.776 81.8048 125.772 89.384 125.768C93.1746 125.766 96.966 125.764 100.759 125.764H102.49ZM125.055 66.934C121.125 66.934 117.946 70.1123 117.946 74.043C117.946 77.9736 121.125 81.152 125.055 81.152C128.986 81.152 132.164 77.9736 132.164 74.043C132.164 70.1123 128.986 66.934 125.055 66.934ZM136.039 60.5772L149.956 46.3215C149.956 46.3215 163.403 52.0576 163.384 76.1494H142.32C141.963 79.4594 140.665 82.4685 138.728 84.951L153.059 98.9434C153.059 98.9434 147.323 112.372 123.212 112.372V91.7027C119.695 91.383 116.498 90.0477 113.884 87.979L100.155 102.065C100.155 102.065 86.7079 96.3292 86.7079 72.2187H107.339C107.734 68.6642 109.182 65.4106 111.364 62.8152L97.3338 49.1426C97.3338 49.1426 103.07 35.7144 127.181 35.7144V56.7406C130.509 57.1731 133.575 58.5272 136.039 60.5772ZM114.373 74.043C114.373 79.9296 119.169 84.7065 125.055 84.7065C130.942 84.7065 135.719 79.9296 135.719 74.043C135.719 68.1752 130.942 63.3794 125.055 63.3794C119.169 63.3794 114.373 68.1564 114.373 74.043ZM145.104 79.7415H142.602V87.4712H145.104V79.7415ZM150.012 78.7447H147.191V88.4491H150.012V78.7447ZM156.256 77.4847H152.608V89.7092H156.256V77.4847ZM162.5 77.1085H158.757V90.1041H162.5V77.1085ZM119.112 91.7215H111.401V94.2229H119.112V91.7215ZM120.09 96.3104H110.405V99.1315H120.09V96.3104ZM121.369 101.727H109.145V105.375H121.369V101.727ZM121.745 107.877H108.75V111.619H121.745V107.877ZM107.057 60.596H104.575V68.3069H107.057V60.596ZM102.487 59.618H99.6659V69.3036H102.487V59.618ZM97.0705 58.358H93.422V70.5637H97.0705V58.358ZM90.9207 57.963H87.1781V70.9586H90.9207V57.963ZM139.029 54.5213H131.318V57.0039H139.029V54.5213ZM140.007 49.6127H130.321V52.4338H140.007V49.6127ZM141.286 43.3688H129.061V47.0174H141.286V43.3688ZM141.681 37.1249H128.685V40.8675H141.681V37.1249Z" fill="black" fill-opacity="0.2"/>
<path d="M210.08 60.5774L209.826 61.5446L209.827 61.545L210.08 60.5774ZM217.715 56.233L218.578 56.7393L218.715 56.5048V56.233H217.715ZM205.396 43.9336L206.396 43.9367L206.396 43.9367L205.396 43.9336ZM205.322 21.9291L204.322 21.944L204.322 21.9456L205.322 21.9291ZM209.91 13.8609V12.8609H209.694L209.497 12.9504L209.91 13.8609ZM213.202 13.8609L213.625 12.9551L213.424 12.8609H213.202V13.8609ZM217.734 18.3934L218.734 18.3949L218.734 18.1678L218.637 17.9628L217.734 18.3934ZM33.4086 91.6279L32.5462 91.1217L32.4086 91.3561V91.6279H33.4086ZM41.0442 87.2835L41.2985 86.3164L41.2967 86.3159L41.0442 87.2835ZM33.3898 129.468L32.3898 129.466L32.3895 129.693L32.4873 129.898L33.3898 129.468ZM37.9223 134L37.4985 134.906L37.6999 135H37.9223V134ZM41.2135 134V135H41.4299L41.6269 134.911L41.2135 134ZM45.8024 125.932L46.8023 125.917L46.8023 125.915L45.8024 125.932ZM45.7276 103.928L46.7276 103.931V103.928H45.7276ZM45.7276 103.928L44.7276 103.924V103.928H45.7276ZM70.5623 87.838L71.5397 87.6264L71.5397 87.6264L70.5623 87.838ZM71.3453 91.629V92.629H72.5495L72.3283 91.4453L71.3453 91.629ZM69.2013 79.8183L68.2042 79.8944L68.2042 79.8946L69.2013 79.8183ZM94.1582 27.5161L93.5941 26.6903L93.5936 26.6907L94.1582 27.5161ZM124.625 18.4135L124.621 17.4135L124.62 17.4135L124.625 18.4135ZM172.516 18.3804L172.517 17.3804L172.517 17.3804L172.516 18.3804ZM184.488 18.3947L184.487 19.3947H184.488V18.3947ZM201.678 35.6407L202.678 35.6471L202.678 35.6444L201.678 35.6407ZM201.676 35.8986L200.676 35.8922V35.8986H201.676ZM201.676 35.8988L202.676 35.9051V35.8988H201.676ZM201.038 44.1979L200.063 43.9788L200.062 43.9798L201.038 44.1979ZM185.579 56.6293L185.554 55.6296L185.55 55.6297L185.579 56.6293ZM180.08 56.6585L180.086 55.6585H180.08V56.6585ZM180.079 56.6585L180.073 57.6585H180.079V56.6585ZM177.567 56.6481V55.6481H176.297L176.595 56.8827L177.567 56.6481ZM178.11 58.8392L177.14 59.0827L177.141 59.0876L178.11 58.8392ZM178.11 58.8401L179.08 58.5967L179.079 58.5918L178.11 58.8401ZM179.072 62.8732L180.05 62.6653L180.05 62.6649L179.072 62.8732ZM155.074 120.742L154.526 119.906L154.526 119.906L155.074 120.742ZM124.4 129.864L124.404 130.864L124.405 130.864L124.4 129.864ZM84.2428 129.893L84.2437 128.893H84.2428V129.893ZM84.2333 129.893L84.2324 130.893H84.2333V129.893ZM49.5292 112.317L48.5292 112.31L48.5292 112.311L49.5292 112.317ZM49.5309 112.063L50.5309 112.069V112.063H49.5309ZM49.5309 112.063L48.5309 112.056V112.063H49.5309ZM50.1498 104.155L51.1247 104.377L51.1259 104.372L50.1498 104.155ZM65.7408 91.629L65.7608 92.6288L65.761 92.6288L65.7408 91.629ZM69.4952 91.6207L69.4885 92.6207H69.4952V91.6207ZM69.4953 91.6207L69.502 90.6207H69.4953V91.6207ZM72.9063 74.0821L71.9063 74.0815L71.9063 74.0815L72.9063 74.0821ZM176.175 74.4959L177.175 74.4986L177.175 74.4985L176.175 74.4959ZM124.644 22.4946L124.643 23.4946L124.643 23.4946L124.644 22.4946ZM146.567 22.8535L145.919 23.615L145.919 23.6151L146.567 22.8535ZM146.159 22.5134V21.5134H143.349L145.528 23.2886L146.159 22.5134ZM146.874 23.0776L147.285 22.1661L147.239 22.1451L147.19 22.1289L146.874 23.0776ZM175.498 51.5138L174.589 51.9298L174.59 51.9328L175.498 51.5138ZM177.191 52.4917L177.225 51.4923L177.223 51.4922L177.191 52.4917ZM185.617 52.5105L185.593 51.5108L185.59 51.5109L185.617 52.5105ZM197.126 43.1259L196.147 42.9225L196.147 42.9252L197.126 43.1259ZM197.544 36.5882H196.544L196.544 36.5932L197.544 36.5882ZM197.544 36.5857L198.544 36.5857L198.544 36.5807L197.544 36.5857ZM197.54 35.5655L196.54 35.5606V35.5655H197.54ZM184.582 22.5134L184.58 23.5134H184.582V22.5134ZM162.111 22.5092L162.111 23.5092L162.112 23.5092L162.111 22.5092ZM162.109 22.5092L162.109 21.5092L162.108 21.5092L162.109 22.5092ZM102.527 125.594L101.557 125.352L101.557 125.352L102.527 125.594ZM102.49 125.764V126.764H103.337L103.476 125.928L102.49 125.764ZM102.565 125.425L103.551 125.59L103.673 124.861L103.012 124.531L102.565 125.425ZM102.027 125.15L102.486 124.262L102.485 124.262L102.027 125.15ZM102.026 125.15L101.535 126.021L101.551 126.03L101.567 126.038L102.026 125.15ZM102.025 125.149L102.516 124.278L102.5 124.269L102.484 124.261L102.025 125.149ZM101.192 124.729L101.625 123.828L101.616 123.824L101.192 124.729ZM76.0659 101.616L75.1976 102.112L75.1977 102.112L76.0659 101.616ZM75.1401 99.739L74.2116 100.11L74.2207 100.133L74.231 100.156L75.1401 99.739ZM75.14 99.7389L76.0685 99.3675L76.0594 99.3446L76.0491 99.3223L75.14 99.7389ZM72.5113 95.9735L72.9929 95.097L72.9915 95.0963L72.5113 95.9735ZM67.7084 95.6056L67.6147 94.61L67.6147 94.61L67.7084 95.6056ZM65.6468 95.7478L65.6307 94.7479L65.6267 94.748L65.6468 95.7478ZM53.9865 105.227L53.0068 105.026L53.0068 105.026L53.9865 105.227ZM53.5879 111.553L54.5879 111.553L54.5879 111.547L53.5879 111.553ZM53.5879 111.554H52.5879L52.5879 111.559L53.5879 111.554ZM53.5915 112.58L54.5915 112.585V112.58H53.5915ZM66.6436 125.764L66.6412 126.764L66.6419 126.764L66.6436 125.764ZM89.384 125.768L89.3834 124.768L89.3834 124.768L89.384 125.768ZM149.956 46.3215L150.348 45.4017L149.718 45.1331L149.24 45.623L149.956 46.3215ZM136.039 60.5772L135.399 61.3459L136.109 61.9366L136.754 61.2758L136.039 60.5772ZM163.384 76.1494V77.1494H164.383L164.384 76.1501L163.384 76.1494ZM142.32 76.1494V75.1494H141.422L141.326 76.042L142.32 76.1494ZM138.728 84.951L137.94 84.3358L137.389 85.0414L138.029 85.6665L138.728 84.951ZM153.059 98.9434L153.979 99.3363L154.248 98.7064L153.758 98.2279L153.059 98.9434ZM123.212 112.372H122.212V113.372H123.212V112.372ZM123.212 91.7027H124.212V90.7895L123.303 90.7068L123.212 91.7027ZM113.884 87.979L114.505 87.1948L113.797 86.6351L113.168 87.281L113.884 87.979ZM100.155 102.065L99.7625 102.985L100.393 103.254L100.871 102.763L100.155 102.065ZM86.7079 72.2187V71.2187H85.7079V72.2187H86.7079ZM107.339 72.2187V73.2187H108.234L108.333 72.3291L107.339 72.2187ZM111.364 62.8152L112.129 63.4587L112.727 62.7475L112.062 62.0991L111.364 62.8152ZM97.3338 49.1426L96.4142 48.7497L96.1449 49.3802L96.6359 49.8587L97.3338 49.1426ZM127.181 35.7144H128.181V34.7144H127.181V35.7144ZM127.181 56.7406H126.181V57.619L127.052 57.7322L127.181 56.7406ZM142.602 79.7415V78.7415H141.602V79.7415H142.602ZM145.104 79.7415H146.104V78.7415H145.104V79.7415ZM142.602 87.4712H141.602V88.4712H142.602V87.4712ZM145.104 87.4712V88.4712H146.104V87.4712H145.104ZM147.191 78.7447V77.7447H146.191V78.7447H147.191ZM150.012 78.7447H151.012V77.7447H150.012V78.7447ZM147.191 88.4491H146.191V89.4491H147.191V88.4491ZM150.012 88.4491V89.4491H151.012V88.4491H150.012ZM152.608 77.4847V76.4847H151.608V77.4847H152.608ZM156.256 77.4847H157.256V76.4847H156.256V77.4847ZM152.608 89.7092H151.608V90.7092H152.608V89.7092ZM156.256 89.7092V90.7092H157.256V89.7092H156.256ZM158.757 77.1085V76.1085H157.757V77.1085H158.757ZM162.5 77.1085H163.5V76.1085H162.5V77.1085ZM158.757 90.1041H157.757V91.1041H158.757V90.1041ZM162.5 90.1041V91.1041H163.5V90.1041H162.5ZM111.401 91.7215V90.7215H110.401V91.7215H111.401ZM119.112 91.7215H120.112V90.7215H119.112V91.7215ZM111.401 94.2229H110.401V95.2229H111.401V94.2229ZM119.112 94.2229V95.2229H120.112V94.2229H119.112ZM110.405 96.3104V95.3104H109.405V96.3104H110.405ZM120.09 96.3104H121.09V95.3104H120.09V96.3104ZM110.405 99.1315H109.405V100.131H110.405V99.1315ZM120.09 99.1315V100.131H121.09V99.1315H120.09ZM109.145 101.727V100.727H108.145V101.727H109.145ZM121.369 101.727H122.369V100.727H121.369V101.727ZM109.145 105.375H108.145V106.375H109.145V105.375ZM121.369 105.375V106.375H122.369V105.375H121.369ZM108.75 107.877V106.877H107.75V107.877H108.75ZM121.745 107.877H122.745V106.877H121.745V107.877ZM108.75 111.619H107.75V112.619H108.75V111.619ZM121.745 111.619V112.619H122.745V111.619H121.745ZM104.575 60.596V59.596H103.575V60.596H104.575ZM107.057 60.596H108.057V59.596H107.057V60.596ZM104.575 68.3069H103.575V69.3069H104.575V68.3069ZM107.057 68.3069V69.3069H108.057V68.3069H107.057ZM99.6659 59.618V58.618H98.6659V59.618H99.6659ZM102.487 59.618H103.487V58.618H102.487V59.618ZM99.6659 69.3036H98.6659V70.3036H99.6659V69.3036ZM102.487 69.3036V70.3036H103.487V69.3036H102.487ZM93.422 58.358V57.358H92.422V58.358H93.422ZM97.0705 58.358H98.0705V57.358H97.0705V58.358ZM93.422 70.5637H92.422V71.5637H93.422V70.5637ZM97.0705 70.5637V71.5637H98.0705V70.5637H97.0705ZM87.1781 57.963V56.963H86.1781V57.963H87.1781ZM90.9207 57.963H91.9207V56.963H90.9207V57.963ZM87.1781 70.9586H86.1781V71.9586H87.1781V70.9586ZM90.9207 70.9586V71.9586H91.9207V70.9586H90.9207ZM131.318 54.5213V53.5213H130.318V54.5213H131.318ZM139.029 54.5213H140.029V53.5213H139.029V54.5213ZM131.318 57.0039H130.318V58.0039H131.318V57.0039ZM139.029 57.0039V58.0039H140.029V57.0039H139.029ZM130.321 49.6127V48.6127H129.321V49.6127H130.321ZM140.007 49.6127H141.007V48.6127H140.007V49.6127ZM130.321 52.4338H129.321V53.4338H130.321V52.4338ZM140.007 52.4338V53.4338H141.007V52.4338H140.007ZM129.061 43.3688V42.3688H128.061V43.3688H129.061ZM141.286 43.3688H142.286V42.3688H141.286V43.3688ZM129.061 47.0174H128.061V48.0174H129.061V47.0174ZM141.286 47.0174V48.0174H142.286V47.0174H141.286ZM128.685 37.1249V36.1249H127.685V37.1249H128.685ZM141.681 37.1249H142.681V36.1249H141.681V37.1249ZM128.685 40.8675H127.685V41.8675H128.685V40.8675ZM141.681 40.8675V41.8675H142.681V40.8675H141.681ZM26 0C11.6406 0 0 11.6406 0 26H2C2 12.7452 12.7452 2 26 2V0ZM226 0H26V2H226V0ZM252 26C252 11.6406 240.359 0 226 0V2C239.255 2 250 12.7452 250 26H252ZM252 116V26H250V116H252ZM226 142C240.359 142 252 130.359 252 116H250C250 129.255 239.255 140 226 140V142ZM26 142H226V140H26V142ZM0 116C0 130.359 11.6406 142 26 142V140C12.7452 140 2 129.255 2 116H0ZM0 26V116H2V26H0ZM209.827 61.545C211.562 61.9976 213.189 61.8446 214.695 60.9883C216.163 60.1541 217.424 58.704 218.578 56.7393L216.853 55.7267C215.787 57.5422 214.745 58.6593 213.707 59.2497C212.707 59.8181 211.625 59.9471 210.332 59.6098L209.827 61.545ZM204.378 52.7349C204.378 55.1283 204.739 57.0831 205.637 58.581C206.561 60.1211 207.979 61.0592 209.826 61.5446L210.334 59.6103C208.889 59.2305 207.957 58.5606 207.352 57.5524C206.722 56.5019 206.378 54.968 206.378 52.7349H204.378ZM204.396 43.9304C204.387 46.864 204.378 49.7993 204.378 52.7349H206.378C206.378 49.803 206.387 46.8708 206.396 43.9367L204.396 43.9304ZM204.322 21.9456C204.442 29.269 204.419 36.594 204.396 43.9304L206.396 43.9367C206.419 36.6035 206.443 29.2589 206.321 21.9126L204.322 21.9456ZM209.497 12.9504C207.588 13.8173 206.246 15.03 205.408 16.5988C204.581 18.148 204.292 19.9565 204.322 21.944L206.321 21.9142C206.295 20.1214 206.561 18.6858 207.172 17.5409C207.773 16.4156 208.754 15.4842 210.324 14.7714L209.497 12.9504ZM213.202 12.8609H209.91V14.8609H213.202V12.8609ZM218.637 17.9628C217.562 15.7106 215.892 14.0156 213.625 12.9551L212.778 14.7666C214.611 15.6245 215.95 16.9762 216.832 18.8239L218.637 17.9628ZM218.715 56.233C218.715 43.6322 218.715 31.0135 218.734 18.3949L216.734 18.3919C216.715 31.0122 216.715 43.6325 216.715 56.233H218.715ZM34.271 92.1342C35.3368 90.3187 36.3789 89.2016 37.4174 88.6113C38.4173 88.0429 39.4988 87.9138 40.7918 88.2511L41.2967 86.3159C39.5617 85.8633 37.9351 86.0164 36.429 86.8726C34.9614 87.7068 33.6997 89.1569 32.5462 91.1217L34.271 92.1342ZM34.3898 129.469C34.4086 116.849 34.4086 104.228 34.4086 91.6279H32.4086C32.4086 104.229 32.4086 116.847 32.3898 129.466L34.3898 129.469ZM38.3461 133.094C36.5127 132.236 35.1738 130.885 34.2924 129.037L32.4873 129.898C33.5617 132.15 35.232 133.845 37.4985 134.906L38.3461 133.094ZM41.2135 133H37.9223V135H41.2135V133ZM44.8025 125.947C44.8293 127.74 44.5632 129.175 43.9518 130.32C43.3508 131.445 42.37 132.377 40.8001 133.09L41.6269 134.911C43.5363 134.044 44.8782 132.831 45.7159 131.262C46.5433 129.713 46.832 127.904 46.8023 125.917L44.8025 125.947ZM44.7276 103.925C44.7045 111.258 44.6815 118.602 44.8025 125.948L46.8023 125.915C46.6816 118.592 46.7045 111.268 46.7276 103.931L44.7276 103.925ZM44.7276 103.928V103.928H46.7276V103.928H44.7276ZM44.746 95.126C44.746 98.0581 44.7368 100.99 44.7276 103.924L46.7276 103.931C46.7368 100.997 46.746 98.0617 46.746 95.126H44.746ZM40.79 88.2507C42.2348 88.6304 43.1672 89.3003 43.7717 90.3085C44.4016 91.359 44.746 92.8929 44.746 95.126H46.746C46.746 92.7326 46.3851 90.7778 45.487 89.28C44.5634 87.7398 43.1449 86.8017 41.2985 86.3164L40.79 88.2507ZM69.585 88.0496C69.8565 89.3036 70.1265 90.5509 70.3623 91.8128L72.3283 91.4453C72.0863 90.1509 71.8102 88.876 71.5397 87.6264L69.585 88.0496ZM68.2042 79.8946C68.4157 82.6569 69.0051 85.3715 69.585 88.0496L71.5397 87.6264C70.9546 84.9244 70.3976 82.3444 70.1984 79.7419L68.2042 79.8946ZM93.5936 26.6907C74.9011 39.4773 66.4848 57.3701 68.2042 79.8944L70.1984 79.7422C68.5326 57.9195 76.6288 40.7186 94.7228 28.3414L93.5936 26.6907ZM124.62 17.4135C113.426 17.4708 102.919 20.32 93.5941 26.6903L94.7222 28.3418C103.677 22.2243 113.783 19.469 124.631 19.4135L124.62 17.4135ZM172.517 17.3804C156.554 17.3593 140.588 17.3383 124.621 17.4135L124.63 19.4135C140.59 19.3383 156.55 19.3593 172.514 19.3804L172.517 17.3804ZM184.489 17.3947C180.498 17.3909 176.508 17.3857 172.517 17.3804L172.514 19.3804C176.505 19.3857 180.496 19.3909 184.487 19.3947L184.489 17.3947ZM202.678 35.6444C202.697 30.3349 200.841 25.7598 197.599 22.51C194.357 19.2604 189.787 17.3947 184.488 17.3947V19.3947C189.307 19.3947 193.351 21.0835 196.183 23.9226C199.016 26.7616 200.696 30.8095 200.678 35.637L202.678 35.6444ZM202.676 35.9051L202.678 35.6471L200.678 35.6342L200.676 35.8922L202.676 35.9051ZM202.676 35.8988V35.8986H200.676V35.8988H202.676ZM202.014 44.4169C202.644 41.6122 202.658 38.6614 202.676 35.9051L200.676 35.8924C200.658 38.6898 200.637 41.4206 200.063 43.9788L202.014 44.4169ZM185.604 57.6289C193.505 57.4299 200.292 52.1278 202.014 44.4159L200.062 43.9798C198.55 50.7493 192.586 55.4525 185.554 55.6296L185.604 57.6289ZM180.074 57.6584C181.951 57.6702 183.782 57.6818 185.608 57.6288L185.55 55.6297C183.766 55.6814 181.97 55.6703 180.086 55.6585L180.074 57.6584ZM180.08 57.6585H180.08V55.6585H180.08V57.6585ZM180.079 57.6585H180.08V55.6585H180.079V57.6585ZM177.567 57.6481C178.417 57.6481 179.249 57.6533 180.073 57.6584L180.086 55.6585C179.263 55.6533 178.424 55.6481 177.567 55.6481V57.6481ZM179.08 58.5958C178.9 57.8796 178.718 57.1561 178.539 56.4134L176.595 56.8827C176.777 57.6356 176.961 58.3678 177.14 59.0827L179.08 58.5958ZM179.079 58.5918L179.079 58.5909L177.141 59.0876L177.141 59.0885L179.079 58.5918ZM180.05 62.6649C179.761 61.3096 179.424 59.9654 179.08 58.5967L177.14 59.0836C177.485 60.4585 177.814 61.7674 178.094 63.0815L180.05 62.6649ZM155.622 121.579C175.147 108.792 184.876 85.3779 180.05 62.6653L178.094 63.081C182.746 84.9786 173.367 107.566 154.526 119.906L155.622 121.579ZM124.405 130.864C135.667 130.806 146.126 127.801 155.622 121.579L154.526 119.906C145.366 125.908 135.287 128.808 124.395 128.864L124.405 130.864ZM84.2419 130.893C97.6272 130.904 111.015 130.916 124.404 130.864L124.396 128.864C111.013 128.916 97.6297 128.904 84.2437 128.893L84.2419 130.893ZM84.2333 130.893H84.2428V128.893H84.2333V130.893ZM67.0197 130.882C72.757 130.882 78.4945 130.888 84.2324 130.893L84.2342 128.893C78.4964 128.888 72.7581 128.882 67.0197 128.882V130.882ZM48.5292 112.311C48.4998 117.824 50.3185 122.484 53.5959 125.769C56.8729 129.054 61.5277 130.882 67.0197 130.882V128.882C61.9798 128.882 57.8611 127.213 55.0118 124.357C52.1628 121.501 50.5022 117.379 50.5292 112.322L48.5292 112.311ZM48.531 112.056L48.5292 112.31L50.5292 112.323L50.5309 112.069L48.531 112.056ZM48.5309 112.063V112.063H50.5309V112.063H48.5309ZM49.175 103.932C48.5632 106.608 48.5485 109.43 48.531 112.056L50.5309 112.069C50.5487 109.402 50.5702 106.803 51.1247 104.377L49.175 103.932ZM65.7209 90.6292C57.7388 90.7885 50.9148 96.1326 49.1738 103.937L51.1259 104.372C52.6573 97.507 58.6596 92.7705 65.7608 92.6288L65.7209 90.6292ZM69.5019 90.6208C68.2547 90.6124 66.9804 90.6038 65.7206 90.6292L65.761 92.6288C66.9893 92.604 68.2366 92.6123 69.4885 92.6207L69.5019 90.6208ZM69.4953 90.6207H69.4952V92.6207H69.4953V90.6207ZM71.3453 90.629C70.7376 90.629 70.1232 90.6249 69.502 90.6208L69.4886 92.6207C70.1086 92.6249 70.7298 92.629 71.3453 92.629V90.629ZM124.531 124.764C96.5544 124.764 73.8878 102.061 73.9063 74.0828L71.9063 74.0815C71.8871 103.164 95.4482 126.764 124.531 126.764V124.764ZM175.175 74.4932C175.102 102.167 152.346 124.764 124.531 124.764V126.764C153.439 126.764 177.099 103.283 177.175 74.4986L175.175 74.4932ZM124.643 23.4946C152.672 23.5315 175.249 46.3042 175.175 74.4933L177.175 74.4985C177.252 45.2135 153.79 21.533 124.646 21.4946L124.643 23.4946ZM73.9063 74.0828C73.9247 46.1249 96.6643 23.4577 124.643 23.4946L124.646 21.4946C95.5639 21.4563 71.9255 45.0166 71.9063 74.0815L73.9063 74.0828ZM147.215 22.092C147.118 22.0094 146.982 21.894 146.791 21.7382L145.528 23.2886C145.702 23.4304 145.824 23.5347 145.919 23.615L147.215 22.092ZM147.19 22.1289C147.215 22.1371 147.238 22.1463 147.26 22.1564C147.282 22.1664 147.301 22.1763 147.316 22.1849C147.345 22.2014 147.361 22.2135 147.358 22.2111C147.357 22.2103 147.353 22.2075 147.346 22.2017C147.338 22.1959 147.329 22.1881 147.316 22.1777C147.304 22.1674 147.289 22.1553 147.272 22.1408C147.255 22.1262 147.236 22.1103 147.215 22.092L145.919 23.6151C145.993 23.6784 146.08 23.7529 146.157 23.8108C146.245 23.8767 146.378 23.9662 146.558 24.0263L147.19 22.1289ZM176.408 51.0977C170.326 37.8055 160.594 28.1703 147.285 22.1661L146.463 23.9892C159.333 29.7957 168.71 39.0803 174.589 51.9298L176.408 51.0977ZM177.223 51.4922C177.143 51.4897 176.935 51.4388 176.701 51.3073C176.594 51.2473 176.509 51.1852 176.451 51.1323C176.387 51.0741 176.389 51.0569 176.406 51.0947L174.59 51.9328C174.835 52.4618 175.332 52.8321 175.721 53.0508C176.131 53.2814 176.656 53.475 177.159 53.4912L177.223 51.4922ZM185.59 51.5109C182.805 51.5856 180.004 51.5856 177.225 51.4923L177.157 53.4912C179.982 53.586 182.823 53.5859 185.643 53.5102L185.59 51.5109ZM196.147 42.9252C195.136 47.8576 190.704 51.3895 185.593 51.5108L185.64 53.5103C191.626 53.3682 196.897 49.2269 198.106 43.3266L196.147 42.9252ZM196.544 36.5932C196.555 38.8077 196.561 40.9281 196.147 42.9225L198.105 43.3292C198.57 41.0929 198.554 38.7575 198.544 36.5832L196.544 36.5932ZM196.544 36.5857V36.5882H198.544V36.5857H196.544ZM196.54 35.5655C196.54 35.9073 196.542 36.2501 196.544 36.5907L198.544 36.5807C198.542 36.2392 198.54 35.9014 198.54 35.5655H196.54ZM184.582 23.5134C188.225 23.5134 191.207 24.7426 193.272 26.8179C195.336 28.893 196.558 31.8888 196.54 35.5606L198.54 35.5703C198.56 31.4372 197.177 27.907 194.69 25.4073C192.203 22.9078 188.687 21.5134 184.582 21.5134V23.5134ZM162.112 23.5092C169.603 23.5051 177.096 23.5009 184.58 23.5134L184.584 21.5134C177.097 21.5009 169.602 21.5051 162.11 21.5092L162.112 23.5092ZM162.111 23.5092H162.111V21.5092H162.111V23.5092ZM162.109 23.5092H162.111V21.5092H162.109V23.5092ZM150.88 23.5134C154.622 23.5134 158.365 23.5113 162.109 23.5092L162.108 21.5092C158.364 21.5113 154.621 21.5134 150.88 21.5134V23.5134ZM146.159 23.5134H150.88V21.5134H146.159V23.5134ZM101.557 125.352C101.545 125.401 101.52 125.497 101.503 125.599L103.476 125.928C103.478 125.918 103.482 125.9 103.497 125.837L101.557 125.352ZM101.579 125.261C101.577 125.271 101.573 125.289 101.557 125.352L103.497 125.837C103.51 125.787 103.534 125.692 103.551 125.59L101.579 125.261ZM101.568 126.039C101.747 126.131 101.932 126.227 102.118 126.32L103.012 124.531C102.84 124.445 102.667 124.355 102.486 124.262L101.568 126.039ZM101.567 126.038L101.569 126.039L102.485 124.262L102.484 124.261L101.567 126.038ZM101.535 126.021L101.535 126.021L102.516 124.278L102.516 124.278L101.535 126.021ZM100.759 125.631C101.027 125.759 101.291 125.895 101.566 126.038L102.484 124.261C102.213 124.121 101.923 123.971 101.625 123.828L100.759 125.631ZM75.1977 102.112C81.2251 112.655 89.7689 120.489 100.768 125.635L101.616 123.824C90.987 118.851 82.755 111.301 76.934 101.119L75.1977 102.112ZM74.231 100.156C74.5237 100.794 74.8389 101.484 75.1976 102.112L76.9341 101.119C76.6278 100.583 76.3499 99.9786 76.0492 99.3224L74.231 100.156ZM74.2115 100.11L74.2116 100.11L76.0685 99.3676L76.0685 99.3675L74.2115 100.11ZM72.0298 96.8499C72.4207 97.0647 72.7896 97.4575 73.1652 98.0555C73.5412 98.6542 73.8695 99.3667 74.2309 100.155L76.0491 99.3223C75.7003 98.561 75.3177 97.7224 74.8588 96.9917C74.3994 96.2603 73.8091 95.5455 72.9929 95.097L72.0298 96.8499ZM67.802 96.6012C68.6942 96.5173 69.5111 96.4419 70.2588 96.4648C71.0051 96.4877 71.588 96.608 72.0312 96.8507L72.9915 95.0963C72.1569 94.6395 71.2167 94.4933 70.3201 94.4658C69.425 94.4383 68.4793 94.5287 67.6147 94.61L67.802 96.6012ZM65.6629 96.7476C66.373 96.7362 67.1105 96.6663 67.802 96.6012L67.6147 94.61C66.9071 94.6766 66.249 94.7379 65.6307 94.7479L65.6629 96.7476ZM54.9661 105.427C55.9951 100.402 60.4819 96.8516 65.6669 96.7476L65.6267 94.748C59.5651 94.8696 54.2347 99.0297 53.0068 105.026L54.9661 105.427ZM54.5879 111.547C54.5765 109.4 54.5695 107.365 54.9662 105.427L53.0068 105.026C52.5612 107.202 52.5768 109.449 52.5879 111.558L54.5879 111.547ZM54.5879 111.554V111.553H52.5879V111.554H54.5879ZM54.5915 112.58C54.5915 112.235 54.5897 111.89 54.5879 111.548L52.5879 111.559C52.5897 111.902 52.5915 112.242 52.5915 112.58H54.5915ZM66.646 124.764C62.9203 124.755 59.9169 123.526 57.8513 121.444C55.7858 119.361 54.5738 116.339 54.5915 112.585L52.5915 112.575C52.5717 116.776 53.9362 120.337 56.4313 122.852C58.9265 125.368 62.4679 126.754 66.6412 126.764L66.646 124.764ZM89.3834 124.768C81.804 124.772 74.2287 124.776 66.6452 124.764L66.6419 126.764C74.228 126.776 81.8055 126.772 89.3845 126.768L89.3834 124.768ZM100.759 124.764C96.9657 124.764 93.174 124.766 89.3834 124.768L89.3845 126.768C93.1752 126.766 96.9663 126.764 100.759 126.764V124.764ZM102.49 124.764H100.759V126.764H102.49V124.764ZM118.946 74.043C118.946 70.6646 121.677 67.934 125.055 67.934V65.934C120.572 65.934 116.946 69.5601 116.946 74.043H118.946ZM125.055 80.152C121.677 80.152 118.946 77.4214 118.946 74.043H116.946C116.946 78.5259 120.572 82.152 125.055 82.152V80.152ZM131.164 74.043C131.164 77.4214 128.434 80.152 125.055 80.152V82.152C129.538 82.152 133.164 78.5259 133.164 74.043H131.164ZM125.055 67.934C128.434 67.934 131.164 70.6646 131.164 74.043H133.164C133.164 69.5601 129.538 65.934 125.055 65.934V67.934ZM149.24 45.623L135.323 59.8786L136.754 61.2758L150.671 47.0201L149.24 45.623ZM164.384 76.1501C164.393 63.9051 160.976 56.2318 157.475 51.5981C155.729 49.2878 153.975 47.7502 152.644 46.7847C151.978 46.3021 151.419 45.9625 151.019 45.7405C150.818 45.6295 150.658 45.5479 150.544 45.4925C150.487 45.4648 150.442 45.4437 150.409 45.4287C150.392 45.4212 150.379 45.4152 150.369 45.4107C150.364 45.4085 150.359 45.4066 150.356 45.4051C150.354 45.4044 150.353 45.4037 150.351 45.4031C150.351 45.4028 150.35 45.4025 150.35 45.4023C150.349 45.402 150.348 45.4017 149.956 46.3215C149.563 47.2413 149.563 47.2411 149.562 47.2408C149.562 47.2407 149.562 47.2405 149.561 47.2404C149.561 47.2402 149.56 47.2401 149.56 47.24C149.56 47.2399 149.561 47.2402 149.562 47.2408C149.565 47.242 149.571 47.2447 149.58 47.2487C149.598 47.2569 149.628 47.2709 149.669 47.2911C149.752 47.3315 149.881 47.3966 150.049 47.4895C150.384 47.6754 150.874 47.9721 151.469 48.4037C152.659 49.2666 154.266 50.6688 155.879 52.8039C159.096 57.0612 162.393 64.3019 162.384 76.1486L164.384 76.1501ZM142.32 77.1494H163.384V75.1494H142.32V77.1494ZM139.516 85.5662C141.562 82.9451 142.936 79.762 143.314 76.2567L141.326 76.042C140.99 79.1568 139.769 81.9919 137.94 84.3358L139.516 85.5662ZM153.758 98.2279L139.427 84.2355L138.029 85.6665L152.36 99.6589L153.758 98.2279ZM123.212 113.372C135.466 113.372 143.144 109.955 147.779 106.456C150.091 104.711 151.629 102.959 152.595 101.629C153.078 100.965 153.418 100.406 153.64 100.006C153.751 99.8061 153.832 99.6459 153.888 99.5321C153.915 99.4752 153.937 99.4298 153.952 99.3969C153.959 99.3805 153.965 99.3671 153.969 99.357C153.972 99.3519 153.974 99.3476 153.975 99.3442C153.976 99.3424 153.977 99.3409 153.977 99.3396C153.977 99.3389 153.978 99.3381 153.978 99.3378C153.978 99.337 153.979 99.3363 153.059 98.9434C152.139 98.5506 152.14 98.55 152.14 98.5494C152.14 98.5493 152.14 98.5487 152.14 98.5485C152.14 98.548 152.141 98.5477 152.141 98.5476C152.141 98.5474 152.14 98.5479 152.14 98.5493C152.139 98.5521 152.136 98.558 152.132 98.5669C152.124 98.5848 152.11 98.6149 152.09 98.6564C152.049 98.7393 151.984 98.8676 151.891 99.0349C151.705 99.3695 151.409 99.8596 150.977 100.454C150.114 101.642 148.711 103.247 146.575 104.859C142.315 108.074 135.069 111.372 123.212 111.372V113.372ZM122.212 91.7027V112.372H124.212V91.7027H122.212ZM113.263 88.7631C116.026 90.9491 119.406 92.3608 123.122 92.6986L123.303 90.7068C119.985 90.4052 116.971 89.1463 114.505 87.1948L113.263 88.7631ZM100.871 102.763L114.6 88.6769L113.168 87.281L99.4387 101.367L100.871 102.763ZM85.7079 72.2187C85.7079 84.4729 89.1298 92.1506 92.6336 96.7865C94.3806 99.0979 96.1352 100.636 97.4666 101.602C98.1321 102.085 98.6918 102.424 99.092 102.646C99.2922 102.757 99.4526 102.839 99.5665 102.894C99.6235 102.922 99.6688 102.943 99.7018 102.958C99.7183 102.966 99.7316 102.972 99.7418 102.976C99.7469 102.978 99.7511 102.98 99.7546 102.982C99.7563 102.983 99.7578 102.983 99.7592 102.984C99.7598 102.984 99.7607 102.984 99.761 102.985C99.7618 102.985 99.7625 102.985 100.155 102.065C100.547 101.146 100.548 101.146 100.548 101.146C100.549 101.146 100.549 101.146 100.549 101.146C100.55 101.147 100.55 101.147 100.55 101.147C100.55 101.147 100.55 101.147 100.548 101.146C100.546 101.145 100.54 101.142 100.531 101.138C100.513 101.13 100.483 101.116 100.441 101.096C100.358 101.055 100.23 100.99 100.062 100.897C99.727 100.711 99.2361 100.415 98.641 99.9829C97.4511 99.1198 95.8439 97.717 94.2291 95.5805C91.0095 91.3207 87.7079 84.0751 87.7079 72.2187H85.7079ZM107.339 71.2187H86.7079V73.2187H107.339V71.2187ZM110.598 62.1718C108.293 64.9148 106.763 68.3529 106.345 72.1083L108.333 72.3291C108.706 68.9755 110.072 65.9063 112.129 63.4587L110.598 62.1718ZM96.6359 49.8587L110.666 63.5314L112.062 62.0991L98.0318 48.4264L96.6359 49.8587ZM127.181 34.7144C114.927 34.7144 107.249 38.1314 102.613 41.6303C100.302 43.3749 98.7637 45.127 97.7978 46.4567C97.315 47.1213 96.9752 47.6803 96.7532 48.08C96.6422 48.2799 96.5605 48.4401 96.5051 48.5539C96.4774 48.6108 96.4562 48.6561 96.4412 48.689C96.4337 48.7055 96.4277 48.7189 96.4232 48.729C96.421 48.7341 96.4191 48.7383 96.4176 48.7418C96.4169 48.7435 96.4162 48.7451 96.4157 48.7464C96.4154 48.747 96.415 48.7479 96.4149 48.7482C96.4145 48.749 96.4142 48.7497 97.3338 49.1426C98.2534 49.5354 98.2532 49.536 98.2529 49.5366C98.2529 49.5367 98.2526 49.5373 98.2525 49.5375C98.2523 49.538 98.2522 49.5383 98.2521 49.5384C98.2521 49.5386 98.2523 49.538 98.2529 49.5367C98.2541 49.5339 98.2568 49.528 98.2608 49.519C98.269 49.5011 98.283 49.4711 98.3032 49.4296C98.3436 49.3467 98.4087 49.2184 98.5016 49.0511C98.6875 48.7165 98.9842 48.2264 99.4159 47.6321C100.279 46.444 101.682 44.8391 103.818 43.2266C108.078 40.0115 115.324 36.7144 127.181 36.7144V34.7144ZM128.181 56.7406V35.7144H126.181V56.7406H128.181ZM136.678 59.8085C134.068 57.6364 130.825 56.2057 127.309 55.7489L127.052 57.7322C130.194 58.1406 133.082 59.4181 135.399 61.3459L136.678 59.8085ZM125.055 83.7065C119.719 83.7065 115.373 79.375 115.373 74.043H113.373C113.373 80.4842 118.619 85.7065 125.055 85.7065V83.7065ZM134.719 74.043C134.719 79.3773 130.39 83.7065 125.055 83.7065V85.7065C131.494 85.7065 136.719 80.4819 136.719 74.043H134.719ZM125.055 64.3794C130.388 64.3794 134.719 68.7264 134.719 74.043H136.719C136.719 67.6241 131.495 62.3794 125.055 62.3794V64.3794ZM115.373 74.043C115.373 68.711 119.719 64.3794 125.055 64.3794V62.3794C118.619 62.3794 113.373 67.6018 113.373 74.043H115.373ZM142.602 80.7415H145.104V78.7415H142.602V80.7415ZM143.602 87.4712V79.7415H141.602V87.4712H143.602ZM145.104 86.4712H142.602V88.4712H145.104V86.4712ZM144.104 79.7415V87.4712H146.104V79.7415H144.104ZM147.191 79.7447H150.012V77.7447H147.191V79.7447ZM148.191 88.4491V78.7447H146.191V88.4491H148.191ZM150.012 87.4491H147.191V89.4491H150.012V87.4491ZM149.012 78.7447V88.4491H151.012V78.7447H149.012ZM152.608 78.4847H156.256V76.4847H152.608V78.4847ZM153.608 89.7092V77.4847H151.608V89.7092H153.608ZM156.256 88.7092H152.608V90.7092H156.256V88.7092ZM155.256 77.4847V89.7092H157.256V77.4847H155.256ZM158.757 78.1085H162.5V76.1085H158.757V78.1085ZM159.757 90.1041V77.1085H157.757V90.1041H159.757ZM162.5 89.1041H158.757V91.1041H162.5V89.1041ZM161.5 77.1085V90.1041H163.5V77.1085H161.5ZM111.401 92.7215H119.112V90.7215H111.401V92.7215ZM112.401 94.2229V91.7215H110.401V94.2229H112.401ZM119.112 93.2229H111.401V95.2229H119.112V93.2229ZM118.112 91.7215V94.2229H120.112V91.7215H118.112ZM110.405 97.3104H120.09V95.3104H110.405V97.3104ZM111.405 99.1315V96.3104H109.405V99.1315H111.405ZM120.09 98.1315H110.405V100.131H120.09V98.1315ZM119.09 96.3104V99.1315H121.09V96.3104H119.09ZM109.145 102.727H121.369V100.727H109.145V102.727ZM110.145 105.375V101.727H108.145V105.375H110.145ZM121.369 104.375H109.145V106.375H121.369V104.375ZM120.369 101.727V105.375H122.369V101.727H120.369ZM108.75 108.877H121.745V106.877H108.75V108.877ZM109.75 111.619V107.877H107.75V111.619H109.75ZM121.745 110.619H108.75V112.619H121.745V110.619ZM120.745 107.877V111.619H122.745V107.877H120.745ZM104.575 61.596H107.057V59.596H104.575V61.596ZM105.575 68.3069V60.596H103.575V68.3069H105.575ZM107.057 67.3069H104.575V69.3069H107.057V67.3069ZM106.057 60.596V68.3069H108.057V60.596H106.057ZM99.6659 60.618H102.487V58.618H99.6659V60.618ZM100.666 69.3036V59.618H98.6659V69.3036H100.666ZM102.487 68.3036H99.6659V70.3036H102.487V68.3036ZM101.487 59.618V69.3036H103.487V59.618H101.487ZM93.422 59.358H97.0705V57.358H93.422V59.358ZM94.422 70.5637V58.358H92.422V70.5637H94.422ZM97.0705 69.5637H93.422V71.5637H97.0705V69.5637ZM96.0705 58.358V70.5637H98.0705V58.358H96.0705ZM87.1781 58.963H90.9207V56.963H87.1781V58.963ZM88.1781 70.9586V57.963H86.1781V70.9586H88.1781ZM90.9207 69.9586H87.1781V71.9586H90.9207V69.9586ZM89.9207 57.963V70.9586H91.9207V57.963H89.9207ZM131.318 55.5213H139.029V53.5213H131.318V55.5213ZM132.318 57.0039V54.5213H130.318V57.0039H132.318ZM139.029 56.0039H131.318V58.0039H139.029V56.0039ZM138.029 54.5213V57.0039H140.029V54.5213H138.029ZM130.321 50.6127H140.007V48.6127H130.321V50.6127ZM131.321 52.4338V49.6127H129.321V52.4338H131.321ZM140.007 51.4338H130.321V53.4338H140.007V51.4338ZM139.007 49.6127V52.4338H141.007V49.6127H139.007ZM129.061 44.3688H141.286V42.3688H129.061V44.3688ZM130.061 47.0174V43.3688H128.061V47.0174H130.061ZM141.286 46.0174H129.061V48.0174H141.286V46.0174ZM140.286 43.3688V47.0174H142.286V43.3688H140.286ZM128.685 38.1249H141.681V36.1249H128.685V38.1249ZM129.685 40.8675V37.1249H127.685V40.8675H129.685ZM141.681 39.8675H128.685V41.8675H141.681V39.8675ZM140.681 37.1249V40.8675H142.681V37.1249H140.681Z" fill="white" fill-opacity="0.5" mask="url(#path-1-outside-1_1633:2234)"/>
<g filter="url(#filter0_b_1633:2234)">
<rect x="2" y="59" width="248" height="24" fill="black" fill-opacity="0.3"/>
</g>
<path d="M28.9553 64.4V77H26.6513V66.38H20.1173V77H17.8133V64.4H28.9553ZM35.8381 67.28C37.2541 67.28 38.3341 67.622 39.0781 68.306C39.8341 68.978 40.2121 69.998 40.2121 71.366V77H38.0881V75.83C37.8121 76.25 37.4161 76.574 36.9001 76.802C36.3961 77.018 35.7841 77.126 35.0641 77.126C34.3441 77.126 33.7141 77.006 33.1741 76.766C32.6341 76.514 32.2141 76.172 31.9141 75.74C31.6261 75.296 31.4821 74.798 31.4821 74.246C31.4821 73.382 31.8001 72.692 32.4361 72.176C33.0841 71.648 34.0981 71.384 35.4781 71.384H37.9621V71.24C37.9621 70.568 37.7581 70.052 37.3501 69.692C36.9541 69.332 36.3601 69.152 35.5681 69.152C35.0281 69.152 34.4941 69.236 33.9661 69.404C33.4501 69.572 33.0121 69.806 32.6521 70.106L31.7701 68.468C32.2741 68.084 32.8801 67.79 33.5881 67.586C34.2961 67.382 35.0461 67.28 35.8381 67.28ZM35.5321 75.488C36.0961 75.488 36.5941 75.362 37.0261 75.11C37.4701 74.846 37.7821 74.474 37.9621 73.994V72.878H35.6401C34.3441 72.878 33.6961 73.304 33.6961 74.156C33.6961 74.564 33.8581 74.888 34.1821 75.128C34.5061 75.368 34.9561 75.488 35.5321 75.488ZM48.3244 67.28C49.2604 67.28 50.0944 67.484 50.8264 67.892C51.5704 68.3 52.1524 68.876 52.5724 69.62C52.9924 70.364 53.2024 71.222 53.2024 72.194C53.2024 73.166 52.9924 74.03 52.5724 74.786C52.1524 75.53 51.5704 76.106 50.8264 76.514C50.0944 76.922 49.2604 77.126 48.3244 77.126C47.0284 77.126 46.0024 76.694 45.2464 75.83V80.492H42.9964V67.388H45.1384V68.648C45.5104 68.192 45.9664 67.85 46.5064 67.622C47.0584 67.394 47.6644 67.28 48.3244 67.28ZM48.0724 75.2C48.9004 75.2 49.5784 74.924 50.1064 74.372C50.6464 73.82 50.9164 73.094 50.9164 72.194C50.9164 71.294 50.6464 70.568 50.1064 70.016C49.5784 69.464 48.9004 69.188 48.0724 69.188C47.5324 69.188 47.0464 69.314 46.6144 69.566C46.1824 69.806 45.8404 70.154 45.5884 70.61C45.3364 71.066 45.2104 71.594 45.2104 72.194C45.2104 72.794 45.3364 73.322 45.5884 73.778C45.8404 74.234 46.1824 74.588 46.6144 74.84C47.0464 75.08 47.5324 75.2 48.0724 75.2ZM58.9006 67.28C60.3166 67.28 61.3966 67.622 62.1406 68.306C62.8966 68.978 63.2746 69.998 63.2746 71.366V77H61.1506V75.83C60.8746 76.25 60.4786 76.574 59.9626 76.802C59.4586 77.018 58.8466 77.126 58.1266 77.126C57.4066 77.126 56.7766 77.006 56.2366 76.766C55.6966 76.514 55.2766 76.172 54.9766 75.74C54.6886 75.296 54.5446 74.798 54.5446 74.246C54.5446 73.382 54.8626 72.692 55.4986 72.176C56.1466 71.648 57.1606 71.384 58.5406 71.384H61.0246V71.24C61.0246 70.568 60.8206 70.052 60.4126 69.692C60.0166 69.332 59.4226 69.152 58.6306 69.152C58.0906 69.152 57.5566 69.236 57.0286 69.404C56.5126 69.572 56.0746 69.806 55.7146 70.106L54.8326 68.468C55.3366 68.084 55.9426 67.79 56.6506 67.586C57.3586 67.382 58.1086 67.28 58.9006 67.28ZM58.5946 75.488C59.1586 75.488 59.6566 75.362 60.0886 75.11C60.5326 74.846 60.8446 74.474 61.0246 73.994V72.878H58.7026C57.4066 72.878 56.7586 73.304 56.7586 74.156C56.7586 74.564 56.9206 74.888 57.2446 75.128C57.5686 75.368 58.0186 75.488 58.5946 75.488ZM74.7709 67.388V77H72.5209V69.296H68.9209L68.8309 71.204C68.7709 72.476 68.6509 73.544 68.4709 74.408C68.3029 75.26 68.0089 75.938 67.5889 76.442C67.1809 76.934 66.6169 77.18 65.8969 77.18C65.5609 77.18 65.1469 77.114 64.6549 76.982L64.7629 75.092C64.9309 75.128 65.0749 75.146 65.1949 75.146C65.6509 75.146 65.9929 74.966 66.2209 74.606C66.4489 74.234 66.5929 73.796 66.6529 73.292C66.7249 72.776 66.7849 72.044 66.8329 71.096L66.9949 67.388H74.7709ZM86.5131 67.388V77H84.2631V69.296H80.6631L80.5731 71.204C80.5131 72.476 80.3931 73.544 80.2131 74.408C80.0451 75.26 79.7511 75.938 79.3311 76.442C78.9231 76.934 78.3591 77.18 77.6391 77.18C77.3031 77.18 76.8891 77.114 76.3971 76.982L76.5051 75.092C76.6731 75.128 76.8171 75.146 76.9371 75.146C77.3931 75.146 77.7351 74.966 77.9631 74.606C78.1911 74.234 78.3351 73.796 78.3951 73.292C78.4671 72.776 78.5271 72.044 78.5751 71.096L78.7371 67.388H86.5131ZM98.5433 72.248C98.5433 72.404 98.5313 72.626 98.5073 72.914H90.9653C91.0973 73.622 91.4393 74.186 91.9913 74.606C92.5553 75.014 93.2513 75.218 94.0793 75.218C95.1353 75.218 96.0053 74.87 96.6893 74.174L97.8953 75.56C97.4633 76.076 96.9173 76.466 96.2573 76.73C95.5973 76.994 94.8533 77.126 94.0253 77.126C92.9693 77.126 92.0393 76.916 91.2353 76.496C90.4313 76.076 89.8073 75.494 89.3633 74.75C88.9313 73.994 88.7153 73.142 88.7153 72.194C88.7153 71.258 88.9253 70.418 89.3453 69.674C89.7773 68.918 90.3713 68.33 91.1273 67.91C91.8833 67.49 92.7353 67.28 93.6833 67.28C94.6193 67.28 95.4533 67.49 96.1853 67.91C96.9293 68.318 97.5053 68.9 97.9133 69.656C98.3333 70.4 98.5433 71.264 98.5433 72.248ZM93.6833 69.08C92.9633 69.08 92.3513 69.296 91.8473 69.728C91.3553 70.148 91.0553 70.712 90.9473 71.42H96.4013C96.3053 70.724 96.0113 70.16 95.5193 69.728C95.0273 69.296 94.4153 69.08 93.6833 69.08ZM109.593 67.388V77H107.343V69.296H103.743L103.653 71.204C103.593 72.476 103.473 73.544 103.293 74.408C103.125 75.26 102.831 75.938 102.411 76.442C102.003 76.934 101.439 77.18 100.719 77.18C100.383 77.18 99.9691 77.114 99.4771 76.982L99.5851 75.092C99.7531 75.128 99.8971 75.146 100.017 75.146C100.473 75.146 100.815 74.966 101.043 74.606C101.271 74.234 101.415 73.796 101.475 73.292C101.547 72.776 101.607 72.044 101.655 71.096L101.817 67.388H109.593ZM117.447 70.556C118.671 70.556 119.607 70.832 120.255 71.384C120.915 71.936 121.245 72.716 121.245 73.724C121.245 74.78 120.885 75.596 120.165 76.172C119.445 76.748 118.431 77.03 117.123 77.018L112.623 77V67.388H114.873V70.538L117.447 70.556ZM116.925 75.362C117.585 75.374 118.089 75.236 118.437 74.948C118.785 74.66 118.959 74.24 118.959 73.688C118.959 73.148 118.791 72.752 118.455 72.5C118.119 72.248 117.609 72.116 116.925 72.104L114.873 72.086V75.344L116.925 75.362ZM123.223 67.388H125.473V71.294H130.315V67.388H132.565V77H130.315V73.202H125.473V77H123.223V67.388ZM140.26 70.556C141.484 70.556 142.42 70.832 143.068 71.384C143.716 71.936 144.04 72.716 144.04 73.724C144.04 74.78 143.68 75.596 142.96 76.172C142.252 76.748 141.244 77.03 139.936 77.018L135.58 77V67.388H137.83V70.538L140.26 70.556ZM145.282 67.388H147.532V77H145.282V67.388ZM139.738 75.362C140.398 75.374 140.902 75.236 141.25 74.948C141.598 74.66 141.772 74.24 141.772 73.688C141.772 73.148 141.604 72.752 141.268 72.5C140.932 72.248 140.422 72.116 139.738 72.104L137.83 72.086V75.344L139.738 75.362ZM159.557 72.248C159.557 72.404 159.545 72.626 159.521 72.914H151.979C152.111 73.622 152.453 74.186 153.005 74.606C153.569 75.014 154.265 75.218 155.093 75.218C156.149 75.218 157.019 74.87 157.703 74.174L158.909 75.56C158.477 76.076 157.931 76.466 157.271 76.73C156.611 76.994 155.867 77.126 155.039 77.126C153.983 77.126 153.053 76.916 152.249 76.496C151.445 76.076 150.821 75.494 150.377 74.75C149.945 73.994 149.729 73.142 149.729 72.194C149.729 71.258 149.939 70.418 150.359 69.674C150.791 68.918 151.385 68.33 152.141 67.91C152.897 67.49 153.749 67.28 154.697 67.28C155.633 67.28 156.467 67.49 157.199 67.91C157.943 68.318 158.519 68.9 158.927 69.656C159.347 70.4 159.557 71.264 159.557 72.248ZM154.697 69.08C153.977 69.08 153.365 69.296 152.861 69.728C152.369 70.148 152.069 70.712 151.961 71.42H157.415C157.319 70.724 157.025 70.16 156.533 69.728C156.041 69.296 155.429 69.08 154.697 69.08ZM166.992 67.388H169.242V71.294H174.084V67.388H176.334V77H174.084V73.202H169.242V77H166.992V67.388ZM182.932 67.28C184.348 67.28 185.428 67.622 186.172 68.306C186.928 68.978 187.306 69.998 187.306 71.366V77H185.182V75.83C184.906 76.25 184.51 76.574 183.994 76.802C183.49 77.018 182.878 77.126 182.158 77.126C181.438 77.126 180.808 77.006 180.268 76.766C179.728 76.514 179.308 76.172 179.008 75.74C178.72 75.296 178.576 74.798 178.576 74.246C178.576 73.382 178.894 72.692 179.53 72.176C180.178 71.648 181.192 71.384 182.572 71.384H185.056V71.24C185.056 70.568 184.852 70.052 184.444 69.692C184.048 69.332 183.454 69.152 182.662 69.152C182.122 69.152 181.588 69.236 181.06 69.404C180.544 69.572 180.106 69.806 179.746 70.106L178.864 68.468C179.368 68.084 179.974 67.79 180.682 67.586C181.39 67.382 182.14 67.28 182.932 67.28ZM182.626 75.488C183.19 75.488 183.688 75.362 184.12 75.11C184.564 74.846 184.876 74.474 185.056 73.994V72.878H182.734C181.438 72.878 180.79 73.304 180.79 74.156C180.79 74.564 180.952 74.888 181.276 75.128C181.6 75.368 182.05 75.488 182.626 75.488ZM194.464 77.126C193.468 77.126 192.574 76.916 191.782 76.496C190.99 76.076 190.372 75.494 189.928 74.75C189.484 73.994 189.262 73.142 189.262 72.194C189.262 71.246 189.484 70.4 189.928 69.656C190.372 68.912 190.984 68.33 191.764 67.91C192.556 67.49 193.456 67.28 194.464 67.28C195.412 67.28 196.24 67.472 196.948 67.856C197.668 68.24 198.208 68.792 198.568 69.512L196.84 70.52C196.564 70.076 196.216 69.746 195.796 69.53C195.388 69.302 194.938 69.188 194.446 69.188C193.606 69.188 192.91 69.464 192.358 70.016C191.806 70.556 191.53 71.282 191.53 72.194C191.53 73.106 191.8 73.838 192.34 74.39C192.892 74.93 193.594 75.2 194.446 75.2C194.938 75.2 195.388 75.092 195.796 74.876C196.216 74.648 196.564 74.312 196.84 73.868L198.568 74.876C198.196 75.596 197.65 76.154 196.93 76.55C196.222 76.934 195.4 77.126 194.464 77.126ZM204.692 77.126C203.72 77.126 202.844 76.916 202.064 76.496C201.284 76.076 200.672 75.494 200.228 74.75C199.796 73.994 199.58 73.142 199.58 72.194C199.58 71.246 199.796 70.4 200.228 69.656C200.672 68.912 201.284 68.33 202.064 67.91C202.844 67.49 203.72 67.28 204.692 67.28C205.676 67.28 206.558 67.49 207.338 67.91C208.118 68.33 208.724 68.912 209.156 69.656C209.6 70.4 209.822 71.246 209.822 72.194C209.822 73.142 209.6 73.994 209.156 74.75C208.724 75.494 208.118 76.076 207.338 76.496C206.558 76.916 205.676 77.126 204.692 77.126ZM204.692 75.2C205.52 75.2 206.204 74.924 206.744 74.372C207.284 73.82 207.554 73.094 207.554 72.194C207.554 71.294 207.284 70.568 206.744 70.016C206.204 69.464 205.52 69.188 204.692 69.188C203.864 69.188 203.18 69.464 202.64 70.016C202.112 70.568 201.848 71.294 201.848 72.194C201.848 73.094 202.112 73.82 202.64 74.372C203.18 74.924 203.864 75.2 204.692 75.2ZM216.419 77.126C215.423 77.126 214.529 76.916 213.737 76.496C212.945 76.076 212.327 75.494 211.883 74.75C211.439 73.994 211.217 73.142 211.217 72.194C211.217 71.246 211.439 70.4 211.883 69.656C212.327 68.912 212.939 68.33 213.719 67.91C214.511 67.49 215.411 67.28 216.419 67.28C217.367 67.28 218.195 67.472 218.903 67.856C219.623 68.24 220.163 68.792 220.523 69.512L218.795 70.52C218.519 70.076 218.171 69.746 217.751 69.53C217.343 69.302 216.893 69.188 216.401 69.188C215.561 69.188 214.865 69.464 214.313 70.016C213.761 70.556 213.485 71.282 213.485 72.194C213.485 73.106 213.755 73.838 214.295 74.39C214.847 74.93 215.549 75.2 216.401 75.2C216.893 75.2 217.343 75.092 217.751 74.876C218.171 74.648 218.519 74.312 218.795 73.868L220.523 74.876C220.151 75.596 219.605 76.154 218.885 76.55C218.177 76.934 217.355 77.126 216.419 77.126ZM227.184 70.556C228.408 70.556 229.344 70.832 229.992 71.384C230.64 71.936 230.964 72.716 230.964 73.724C230.964 74.78 230.604 75.596 229.884 76.172C229.176 76.748 228.168 77.03 226.86 77.018L222.504 77V67.388H224.754V70.538L227.184 70.556ZM232.206 67.388H234.456V77H232.206V67.388ZM226.662 75.362C227.322 75.374 227.826 75.236 228.174 74.948C228.522 74.66 228.696 74.24 228.696 73.688C228.696 73.148 228.528 72.752 228.192 72.5C227.856 72.248 227.346 72.116 226.662 72.104L224.754 72.086V75.344L226.662 75.362Z" fill="white"/>
<defs>
<filter id="filter0_b_1633:2234" x="-5" y="52" width="262" height="38" filterUnits="userSpaceOnUse" color-interpolation-filters="sRGB">
<feFlood flood-opacity="0" result="BackgroundImageFix"/>
<feGaussianBlur in="BackgroundImage" stdDeviation="3.5"/>
<feComposite in2="SourceAlpha" operator="in" result="effect1_backgroundBlur_1633:2234"/>
<feBlend mode="normal" in="SourceGraphic" in2="effect1_backgroundBlur_1633:2234" result="shape"/>
</filter>
</defs>
</svg>
