<svg width="260" height="150" viewBox="0 0 260 150" fill="none" xmlns="http://www.w3.org/2000/svg">
<g filter="url(#filter0_d)">
<mask id="path-1-inside-1" fill="white">
<path fill-rule="evenodd" clip-rule="evenodd" d="M27 2C13.1929 2 2 13.1929 2 27V117C2 130.807 13.1929 142 27 142H227C240.807 142 252 130.807 252 117V27C252 13.1929 240.807 2 227 2H27ZM100.002 8.77566C99.1035 7.39342 98.3547 6.2262 98.3547 6.16477C98.3547 5.48901 102.758 7.02482 104.825 8.40706C108.898 11.1101 111.384 15.1647 112.493 20.9086C113.331 25.3318 113.87 25.9461 118.693 27.8198C122.946 29.4785 124.773 31.0757 126.361 34.3624C127.469 36.6968 128.128 40.4135 127.469 40.8435C127.289 40.9357 126.121 41.1814 124.833 41.335C121.239 41.7957 118.034 42.8094 114.919 44.4373C113.361 45.2667 112.043 45.9424 111.953 45.9424C111.864 45.9424 111.414 45.0516 110.935 43.9766C109.917 41.6114 108.539 39.9835 105.993 38.1098C103.626 36.3896 102.039 34.5467 100.901 32.2429C100.062 30.5843 100.002 30.1849 100.032 27.359C100.032 24.5639 100.122 24.0417 101.17 21.3694C103.207 16.0861 102.938 13.1988 100.002 8.77566ZM156.313 6.68651C156.271 6.83751 156.155 7.35208 156.017 7.96426L156.017 7.96481C155.959 8.22418 155.896 8.50106 155.834 8.77522C155.145 12.0619 153.348 14.8263 150.982 16.2393C150.293 16.6693 148.585 17.4065 147.178 17.9287C143.044 19.4338 142.385 19.8024 140.678 21.4611C137.802 24.2563 137.353 25.6078 137.023 32.4575C136.784 37.3107 136.724 37.6793 135.855 39.6451C135.316 40.7817 134.897 41.826 134.897 41.9489C134.897 42.0717 135.945 42.6246 137.233 43.1775C140.678 44.6519 142.864 46.1263 145.59 48.7986C147.657 50.8566 148.166 51.1945 148.795 51.0409C149.724 50.7952 151.82 48.1536 152.839 45.942C153.528 44.4676 153.618 43.884 153.618 41.181C153.588 38.6622 153.468 37.71 152.809 35.8056C151.82 32.9183 151.611 31.0446 152.15 29.7238C152.359 29.1709 153.378 27.7886 154.366 26.6521C157.362 23.2733 159.159 18.758 159.159 14.6113C159.159 10.9868 156.912 4.75138 156.313 6.68651ZM127.976 21.8623C127.496 21.2787 127.107 20.6644 127.107 20.4801C127.107 19.4664 130.013 20.8487 132.289 22.9374C135.194 25.579 136.393 28.6199 136.393 33.2581C136.393 36.2376 135.794 38.4491 134.476 40.1693L133.487 41.4901L131.271 41.3979C130.043 41.3365 128.874 41.1522 128.695 40.9679C128.455 40.7836 128.305 39.9542 128.305 39.002C128.305 38.0805 128.036 36.514 127.676 35.5004L127.047 33.6267L127.856 31.8758C128.844 29.7871 129.384 26.4083 129.084 24.3503C128.934 23.3981 128.575 22.5381 127.976 21.8623ZM93.9515 36.39C92.0046 37.1272 90.5668 37.9872 90.5668 38.4172C90.5668 38.6323 91.6152 39.0009 92.9331 39.308C96.4676 40.0759 97.9653 41.4274 100.481 46.1885C100.841 46.8335 101.41 47.2328 102.458 47.6014C103.237 47.8779 104.615 48.5844 105.454 49.168C106.322 49.7516 107.131 50.243 107.281 50.243C107.401 50.243 108.239 49.5366 109.108 48.6458C110.576 47.1714 110.695 46.9564 110.546 45.8813C110.126 42.6254 107.041 38.9394 103.237 37.1272C101.2 36.1442 100.571 35.9907 98.2049 35.8985C96.1082 35.8064 95.1796 35.9292 93.9515 36.39ZM154.519 46.22C159.491 44.9299 162.067 42.7798 163.056 39.0938C163.445 37.7423 163.775 37.6502 164.374 38.7867C166.47 43.0562 165.122 48.4623 160.959 52.5169C158.263 55.1277 156.346 56.1107 153.68 56.3257C151.314 56.51 151.074 56.3257 149.756 53.8377L148.858 52.179L150.655 50.3667C151.643 49.3838 152.662 48.0937 152.902 47.5408C153.231 46.7729 153.59 46.4657 154.519 46.22ZM122.435 42.687C110.633 45.4515 102.576 55.0657 102.037 67.0143C101.438 79.6695 109.585 90.6352 121.896 93.7683C124.921 94.5362 130.432 94.444 133.547 93.584C139.358 91.9867 144.48 88.4236 148.135 83.4169C149.423 81.666 151.28 77.6115 152.029 74.9699C152.987 71.5296 152.987 65.3556 152.029 61.6697C150.741 56.6322 147.476 51.4104 143.522 48.0931C141.365 46.2808 136.483 43.7006 133.847 42.9941C131.361 42.3184 124.801 42.1341 122.435 42.687ZM90.5962 50.2433C92.1538 49.3526 94.1606 48.3697 95.0592 48.0625C97.9048 47.1103 100.72 47.4482 103.925 49.0454C107.011 50.6119 107.041 50.6734 105.243 53.4993C103.506 56.2945 102.158 59.6425 101.619 62.5299C101.439 63.6357 101.17 64.9258 101.05 65.4479C101.037 65.5098 101.026 65.5678 101.016 65.622L101.016 65.6221C100.979 65.8195 100.952 65.9676 100.87 66.0739C100.625 66.3925 99.8939 66.3372 96.9725 66.1162L96.2574 66.0623C94.1007 65.878 93.2321 65.9701 90.5662 66.6459C87.0318 67.5366 85.0548 67.6288 83.048 67.0145C79.6034 65.9394 78.1956 64.6493 75.2302 59.919C72.0851 54.9122 69.7188 53.3764 64.8065 53.1C63.3987 53.0078 62.1406 52.8235 62.0208 52.7007C61.7213 52.4242 64.7166 50.2433 66.4838 49.4754C69.7188 48.0318 73.6127 47.6939 76.9375 48.5539C77.926 48.7997 80.0826 49.7212 81.7001 50.5812C85.624 52.6392 86.5825 52.6085 90.5962 50.2433ZM167.844 49.6606C165.807 50.0599 163.141 51.565 160.954 53.5001C158.289 55.8346 156.881 56.6332 154.514 57.1554C153.406 57.3704 152.358 57.7083 152.208 57.8619C152.028 58.0462 152.178 58.8448 152.537 59.9506C153.496 62.9301 153.885 66.5239 153.646 70.8549L153.436 74.7866L154.514 75.0016C156.611 75.4009 160.116 74.9709 161.943 74.1108C164.429 72.9436 164.998 72.4214 167.844 68.6126L168.139 68.2158L168.139 68.2157L168.139 68.2156C169.845 65.9249 170.643 64.8527 171.71 64.3471C172.648 63.9022 173.795 63.896 175.951 63.8843L176.32 63.8823C182.521 63.8516 185.756 62.6229 189.41 58.8448C191.267 56.9404 193.364 53.5616 192.944 53.1623C192.825 53.0394 191.746 53.408 190.548 53.9609C188.511 54.9438 188.182 55.0052 185.216 55.0052C182.341 55.0052 181.922 54.9131 180.424 54.1145C179.525 53.623 178.207 52.8244 177.489 52.3329C174.194 49.9985 170.719 49.0463 167.844 49.6606ZM83.618 72.421C85.2355 69.8715 87.5718 68.3357 91.6155 67.0764C94.8205 66.0934 99.8526 66.9228 100.691 68.5815C100.841 68.8886 101.051 70.0558 101.141 71.1924L101.32 73.2503L99.3135 73.8954C98.1753 74.2333 96.6776 74.909 95.9288 75.4312C94.6707 76.2605 94.491 76.322 93.3827 75.9841C92.7537 75.7998 91.1362 75.6462 89.8183 75.6462C86.9727 75.6155 85.505 76.1684 83.2286 78.1957L81.7309 79.5165L81.6411 78.3493C81.5213 76.8134 82.3 74.4483 83.618 72.421ZM98.5018 74.8466C96.6746 75.6145 94.1585 77.5189 93.1401 78.9011C91.942 80.4984 91.4328 82.0649 90.8038 86.0273C89.9651 91.4027 89.9052 91.4949 85.4122 93.7679C79.781 96.6245 76.6658 99.9111 75.288 104.519C74.6889 106.484 74.4493 110.754 74.9286 110.754C75.0484 110.754 75.917 109.863 76.8755 108.757C78.7626 106.607 80.4399 105.563 83.3155 104.734C84.9629 104.273 85.2924 104.273 87.9283 104.734C91.5226 105.348 93.3198 105.348 95.3567 104.734C99.0709 103.597 101.557 100.925 103.714 95.7644C104.852 92.9999 105.84 91.6484 107.847 90.1126C108.716 89.4676 109.435 88.7611 109.435 88.5154C109.435 88.3003 109.075 87.8089 108.656 87.3789C106.32 85.1673 103.803 80.9899 102.396 76.9967C101.347 73.9558 101.048 73.7715 98.5018 74.8466ZM152.003 77.9795C152.363 76.9966 152.782 76.0137 152.962 75.7987C153.172 75.5222 153.621 75.4608 154.34 75.5836C154.939 75.7065 156.616 75.7679 158.084 75.7679C160.63 75.7372 160.78 75.7679 161.768 76.6587C164.464 79.0853 167.669 79.8839 171.024 78.9624C172.102 78.6553 173.031 78.5017 173.12 78.5938C173.929 79.4232 169.885 83.662 167.369 84.6142C161.768 86.7644 153.89 84.7371 151.794 80.6211C151.404 79.8532 151.434 79.5768 152.003 77.9795ZM149.335 83.3245C146.968 86.8569 143.464 90.1742 140.019 92.0787C139.51 92.3858 139.001 92.8159 138.911 93.0616C138.671 93.7373 141.008 97.0854 142.685 98.4369C145.351 100.618 146.819 100.986 152.54 100.864L152.702 100.861C155.931 100.81 157.311 100.788 158.333 101.383C159.096 101.828 159.659 102.616 160.642 103.995L160.687 104.058C162.903 107.191 164.97 109.096 167.696 110.478C171.021 112.167 173.627 112.689 176.562 112.259C177.82 112.075 179.018 111.799 179.258 111.645C179.767 111.276 179.258 110.846 176.742 109.464C174.585 108.266 172.548 105.993 171.8 103.904C171.47 103.014 171.051 100.833 170.871 99.0206C170.302 93.553 169.403 91.4336 166.797 89.1913C164.82 87.5326 162.574 86.519 159.549 85.9968C156.434 85.4439 154.666 84.676 152.51 82.9252C151.581 82.188 150.742 81.5737 150.653 81.5737C150.563 81.5737 149.964 82.3723 149.335 83.3245ZM103.867 96.9324C104.885 94.3522 106.533 92.11 108.36 90.8506C109.138 90.3284 110.157 89.8677 110.606 89.8677C111.595 89.8677 114.71 92.0178 114.62 92.6628C114.59 92.9086 114.29 93.8915 113.961 94.8437C113.602 95.8266 113.332 97.1782 113.332 97.8539C113.332 99.0211 113.152 99.2976 110.966 101.478C108.749 103.659 108.539 103.997 107.94 106.086C107.461 107.714 107.311 108.789 107.431 109.864C107.551 110.816 107.491 111.431 107.281 111.553C106.772 111.891 104.675 109.342 103.657 107.13C102.818 105.257 102.788 105.042 102.908 102.062C103.028 99.6355 103.238 98.499 103.867 96.9324ZM114.798 94.321C113.57 97.1776 113.78 102.492 115.218 104.918C115.577 105.502 116.985 107.283 118.333 108.881C121.598 112.689 121.777 113.242 120.789 117.174C120.25 119.447 120.07 120.891 120.07 123.501C120.1 127.31 120.549 129.184 122.197 131.948C123.515 134.221 126.69 137.416 127.139 136.955C127.379 136.709 127.379 136.31 127.079 135.419C126.869 134.774 126.69 132.993 126.69 131.488C126.66 127.587 127.408 126.051 131.332 121.904C134.717 118.341 135.706 116.529 135.975 113.457C136.185 111.061 135.586 108.45 134.088 105.41C132.471 102.123 132.141 101.017 131.931 98.0069L131.752 95.2425L127.858 95.2117C123.724 95.181 121.747 94.8739 118.333 93.6759C117.164 93.2766 116.026 92.9387 115.817 92.9387C115.577 92.9387 115.128 93.5531 114.798 94.321ZM133.132 95.581C133.462 94.8438 134.78 94.1066 136.697 93.6151C137.985 93.2773 138.074 93.308 138.823 94.8438C139.183 95.5503 140.111 96.8096 140.89 97.6697C142.268 99.2055 142.328 99.2977 142.448 101.54C142.537 102.799 142.837 104.642 143.166 105.656C143.646 107.192 144.035 107.745 145.832 109.434C148.348 111.799 148.199 112.106 144.724 111.891C140.021 111.584 136.667 109.065 134.151 103.967C132.893 101.356 132.803 101.018 132.803 98.7448C132.803 97.424 132.952 96.011 133.132 95.581Z"/>
</mask>
<path fill-rule="evenodd" clip-rule="evenodd" d="M27 2C13.1929 2 2 13.1929 2 27V117C2 130.807 13.1929 142 27 142H227C240.807 142 252 130.807 252 117V27C252 13.1929 240.807 2 227 2H27ZM100.002 8.77566C99.1035 7.39342 98.3547 6.2262 98.3547 6.16477C98.3547 5.48901 102.758 7.02482 104.825 8.40706C108.898 11.1101 111.384 15.1647 112.493 20.9086C113.331 25.3318 113.87 25.9461 118.693 27.8198C122.946 29.4785 124.773 31.0757 126.361 34.3624C127.469 36.6968 128.128 40.4135 127.469 40.8435C127.289 40.9357 126.121 41.1814 124.833 41.335C121.239 41.7957 118.034 42.8094 114.919 44.4373C113.361 45.2667 112.043 45.9424 111.953 45.9424C111.864 45.9424 111.414 45.0516 110.935 43.9766C109.917 41.6114 108.539 39.9835 105.993 38.1098C103.626 36.3896 102.039 34.5467 100.901 32.2429C100.062 30.5843 100.002 30.1849 100.032 27.359C100.032 24.5639 100.122 24.0417 101.17 21.3694C103.207 16.0861 102.938 13.1988 100.002 8.77566ZM156.313 6.68651C156.271 6.83751 156.155 7.35208 156.017 7.96426L156.017 7.96481C155.959 8.22418 155.896 8.50106 155.834 8.77522C155.145 12.0619 153.348 14.8263 150.982 16.2393C150.293 16.6693 148.585 17.4065 147.178 17.9287C143.044 19.4338 142.385 19.8024 140.678 21.4611C137.802 24.2563 137.353 25.6078 137.023 32.4575C136.784 37.3107 136.724 37.6793 135.855 39.6451C135.316 40.7817 134.897 41.826 134.897 41.9489C134.897 42.0717 135.945 42.6246 137.233 43.1775C140.678 44.6519 142.864 46.1263 145.59 48.7986C147.657 50.8566 148.166 51.1945 148.795 51.0409C149.724 50.7952 151.82 48.1536 152.839 45.942C153.528 44.4676 153.618 43.884 153.618 41.181C153.588 38.6622 153.468 37.71 152.809 35.8056C151.82 32.9183 151.611 31.0446 152.15 29.7238C152.359 29.1709 153.378 27.7886 154.366 26.6521C157.362 23.2733 159.159 18.758 159.159 14.6113C159.159 10.9868 156.912 4.75138 156.313 6.68651ZM127.976 21.8623C127.496 21.2787 127.107 20.6644 127.107 20.4801C127.107 19.4664 130.013 20.8487 132.289 22.9374C135.194 25.579 136.393 28.6199 136.393 33.2581C136.393 36.2376 135.794 38.4491 134.476 40.1693L133.487 41.4901L131.271 41.3979C130.043 41.3365 128.874 41.1522 128.695 40.9679C128.455 40.7836 128.305 39.9542 128.305 39.002C128.305 38.0805 128.036 36.514 127.676 35.5004L127.047 33.6267L127.856 31.8758C128.844 29.7871 129.384 26.4083 129.084 24.3503C128.934 23.3981 128.575 22.5381 127.976 21.8623ZM93.9515 36.39C92.0046 37.1272 90.5668 37.9872 90.5668 38.4172C90.5668 38.6323 91.6152 39.0009 92.9331 39.308C96.4676 40.0759 97.9653 41.4274 100.481 46.1885C100.841 46.8335 101.41 47.2328 102.458 47.6014C103.237 47.8779 104.615 48.5844 105.454 49.168C106.322 49.7516 107.131 50.243 107.281 50.243C107.401 50.243 108.239 49.5366 109.108 48.6458C110.576 47.1714 110.695 46.9564 110.546 45.8813C110.126 42.6254 107.041 38.9394 103.237 37.1272C101.2 36.1442 100.571 35.9907 98.2049 35.8985C96.1082 35.8064 95.1796 35.9292 93.9515 36.39ZM154.519 46.22C159.491 44.9299 162.067 42.7798 163.056 39.0938C163.445 37.7423 163.775 37.6502 164.374 38.7867C166.47 43.0562 165.122 48.4623 160.959 52.5169C158.263 55.1277 156.346 56.1107 153.68 56.3257C151.314 56.51 151.074 56.3257 149.756 53.8377L148.858 52.179L150.655 50.3667C151.643 49.3838 152.662 48.0937 152.902 47.5408C153.231 46.7729 153.59 46.4657 154.519 46.22ZM122.435 42.687C110.633 45.4515 102.576 55.0657 102.037 67.0143C101.438 79.6695 109.585 90.6352 121.896 93.7683C124.921 94.5362 130.432 94.444 133.547 93.584C139.358 91.9867 144.48 88.4236 148.135 83.4169C149.423 81.666 151.28 77.6115 152.029 74.9699C152.987 71.5296 152.987 65.3556 152.029 61.6697C150.741 56.6322 147.476 51.4104 143.522 48.0931C141.365 46.2808 136.483 43.7006 133.847 42.9941C131.361 42.3184 124.801 42.1341 122.435 42.687ZM90.5962 50.2433C92.1538 49.3526 94.1606 48.3697 95.0592 48.0625C97.9048 47.1103 100.72 47.4482 103.925 49.0454C107.011 50.6119 107.041 50.6734 105.243 53.4993C103.506 56.2945 102.158 59.6425 101.619 62.5299C101.439 63.6357 101.17 64.9258 101.05 65.4479C101.037 65.5098 101.026 65.5678 101.016 65.622L101.016 65.6221C100.979 65.8195 100.952 65.9676 100.87 66.0739C100.625 66.3925 99.8939 66.3372 96.9725 66.1162L96.2574 66.0623C94.1007 65.878 93.2321 65.9701 90.5662 66.6459C87.0318 67.5366 85.0548 67.6288 83.048 67.0145C79.6034 65.9394 78.1956 64.6493 75.2302 59.919C72.0851 54.9122 69.7188 53.3764 64.8065 53.1C63.3987 53.0078 62.1406 52.8235 62.0208 52.7007C61.7213 52.4242 64.7166 50.2433 66.4838 49.4754C69.7188 48.0318 73.6127 47.6939 76.9375 48.5539C77.926 48.7997 80.0826 49.7212 81.7001 50.5812C85.624 52.6392 86.5825 52.6085 90.5962 50.2433ZM167.844 49.6606C165.807 50.0599 163.141 51.565 160.954 53.5001C158.289 55.8346 156.881 56.6332 154.514 57.1554C153.406 57.3704 152.358 57.7083 152.208 57.8619C152.028 58.0462 152.178 58.8448 152.537 59.9506C153.496 62.9301 153.885 66.5239 153.646 70.8549L153.436 74.7866L154.514 75.0016C156.611 75.4009 160.116 74.9709 161.943 74.1108C164.429 72.9436 164.998 72.4214 167.844 68.6126L168.139 68.2158L168.139 68.2157L168.139 68.2156C169.845 65.9249 170.643 64.8527 171.71 64.3471C172.648 63.9022 173.795 63.896 175.951 63.8843L176.32 63.8823C182.521 63.8516 185.756 62.6229 189.41 58.8448C191.267 56.9404 193.364 53.5616 192.944 53.1623C192.825 53.0394 191.746 53.408 190.548 53.9609C188.511 54.9438 188.182 55.0052 185.216 55.0052C182.341 55.0052 181.922 54.9131 180.424 54.1145C179.525 53.623 178.207 52.8244 177.489 52.3329C174.194 49.9985 170.719 49.0463 167.844 49.6606ZM83.618 72.421C85.2355 69.8715 87.5718 68.3357 91.6155 67.0764C94.8205 66.0934 99.8526 66.9228 100.691 68.5815C100.841 68.8886 101.051 70.0558 101.141 71.1924L101.32 73.2503L99.3135 73.8954C98.1753 74.2333 96.6776 74.909 95.9288 75.4312C94.6707 76.2605 94.491 76.322 93.3827 75.9841C92.7537 75.7998 91.1362 75.6462 89.8183 75.6462C86.9727 75.6155 85.505 76.1684 83.2286 78.1957L81.7309 79.5165L81.6411 78.3493C81.5213 76.8134 82.3 74.4483 83.618 72.421ZM98.5018 74.8466C96.6746 75.6145 94.1585 77.5189 93.1401 78.9011C91.942 80.4984 91.4328 82.0649 90.8038 86.0273C89.9651 91.4027 89.9052 91.4949 85.4122 93.7679C79.781 96.6245 76.6658 99.9111 75.288 104.519C74.6889 106.484 74.4493 110.754 74.9286 110.754C75.0484 110.754 75.917 109.863 76.8755 108.757C78.7626 106.607 80.4399 105.563 83.3155 104.734C84.9629 104.273 85.2924 104.273 87.9283 104.734C91.5226 105.348 93.3198 105.348 95.3567 104.734C99.0709 103.597 101.557 100.925 103.714 95.7644C104.852 92.9999 105.84 91.6484 107.847 90.1126C108.716 89.4676 109.435 88.7611 109.435 88.5154C109.435 88.3003 109.075 87.8089 108.656 87.3789C106.32 85.1673 103.803 80.9899 102.396 76.9967C101.347 73.9558 101.048 73.7715 98.5018 74.8466ZM152.003 77.9795C152.363 76.9966 152.782 76.0137 152.962 75.7987C153.172 75.5222 153.621 75.4608 154.34 75.5836C154.939 75.7065 156.616 75.7679 158.084 75.7679C160.63 75.7372 160.78 75.7679 161.768 76.6587C164.464 79.0853 167.669 79.8839 171.024 78.9624C172.102 78.6553 173.031 78.5017 173.12 78.5938C173.929 79.4232 169.885 83.662 167.369 84.6142C161.768 86.7644 153.89 84.7371 151.794 80.6211C151.404 79.8532 151.434 79.5768 152.003 77.9795ZM149.335 83.3245C146.968 86.8569 143.464 90.1742 140.019 92.0787C139.51 92.3858 139.001 92.8159 138.911 93.0616C138.671 93.7373 141.008 97.0854 142.685 98.4369C145.351 100.618 146.819 100.986 152.54 100.864L152.702 100.861C155.931 100.81 157.311 100.788 158.333 101.383C159.096 101.828 159.659 102.616 160.642 103.995L160.687 104.058C162.903 107.191 164.97 109.096 167.696 110.478C171.021 112.167 173.627 112.689 176.562 112.259C177.82 112.075 179.018 111.799 179.258 111.645C179.767 111.276 179.258 110.846 176.742 109.464C174.585 108.266 172.548 105.993 171.8 103.904C171.47 103.014 171.051 100.833 170.871 99.0206C170.302 93.553 169.403 91.4336 166.797 89.1913C164.82 87.5326 162.574 86.519 159.549 85.9968C156.434 85.4439 154.666 84.676 152.51 82.9252C151.581 82.188 150.742 81.5737 150.653 81.5737C150.563 81.5737 149.964 82.3723 149.335 83.3245ZM103.867 96.9324C104.885 94.3522 106.533 92.11 108.36 90.8506C109.138 90.3284 110.157 89.8677 110.606 89.8677C111.595 89.8677 114.71 92.0178 114.62 92.6628C114.59 92.9086 114.29 93.8915 113.961 94.8437C113.602 95.8266 113.332 97.1782 113.332 97.8539C113.332 99.0211 113.152 99.2976 110.966 101.478C108.749 103.659 108.539 103.997 107.94 106.086C107.461 107.714 107.311 108.789 107.431 109.864C107.551 110.816 107.491 111.431 107.281 111.553C106.772 111.891 104.675 109.342 103.657 107.13C102.818 105.257 102.788 105.042 102.908 102.062C103.028 99.6355 103.238 98.499 103.867 96.9324ZM114.798 94.321C113.57 97.1776 113.78 102.492 115.218 104.918C115.577 105.502 116.985 107.283 118.333 108.881C121.598 112.689 121.777 113.242 120.789 117.174C120.25 119.447 120.07 120.891 120.07 123.501C120.1 127.31 120.549 129.184 122.197 131.948C123.515 134.221 126.69 137.416 127.139 136.955C127.379 136.709 127.379 136.31 127.079 135.419C126.869 134.774 126.69 132.993 126.69 131.488C126.66 127.587 127.408 126.051 131.332 121.904C134.717 118.341 135.706 116.529 135.975 113.457C136.185 111.061 135.586 108.45 134.088 105.41C132.471 102.123 132.141 101.017 131.931 98.0069L131.752 95.2425L127.858 95.2117C123.724 95.181 121.747 94.8739 118.333 93.6759C117.164 93.2766 116.026 92.9387 115.817 92.9387C115.577 92.9387 115.128 93.5531 114.798 94.321ZM133.132 95.581C133.462 94.8438 134.78 94.1066 136.697 93.6151C137.985 93.2773 138.074 93.308 138.823 94.8438C139.183 95.5503 140.111 96.8096 140.89 97.6697C142.268 99.2055 142.328 99.2977 142.448 101.54C142.537 102.799 142.837 104.642 143.166 105.656C143.646 107.192 144.035 107.745 145.832 109.434C148.348 111.799 148.199 112.106 144.724 111.891C140.021 111.584 136.667 109.065 134.151 103.967C132.893 101.356 132.803 101.018 132.803 98.7448C132.803 97.424 132.952 96.011 133.132 95.581Z" fill="white" fill-opacity="0.4"/>
<path d="M100.002 8.77566L99.1636 9.32073L99.1689 9.32861L100.002 8.77566ZM104.825 8.40706L104.269 9.2383L104.272 9.24031L104.825 8.40706ZM112.493 20.9086L113.475 20.7223L113.474 20.7192L112.493 20.9086ZM118.693 27.8198L119.056 26.8881L119.055 26.8877L118.693 27.8198ZM126.361 34.3624L127.264 33.9335L127.261 33.9274L126.361 34.3624ZM127.469 40.8435L127.925 41.7334L127.972 41.7095L128.016 41.681L127.469 40.8435ZM124.833 41.335L124.715 40.342L124.706 40.3431L124.833 41.335ZM114.919 44.4373L114.456 43.551L114.449 43.5546L114.919 44.4373ZM110.935 43.9766L110.016 44.3721L110.022 44.3837L110.935 43.9766ZM105.993 38.1098L106.585 37.3043L106.581 37.3009L105.993 38.1098ZM100.901 32.2429L101.797 31.8L101.793 31.7917L100.901 32.2429ZM100.032 27.359L101.032 27.3696V27.359H100.032ZM101.17 21.3694L102.101 21.7346L102.103 21.7291L101.17 21.3694ZM156.017 7.96426L156.987 8.20799L156.99 8.19606L156.993 8.18405L156.017 7.96426ZM156.313 6.68651L155.358 6.39078L155.354 6.4044L155.35 6.41813L156.313 6.68651ZM156.017 7.96481L155.047 7.72108L155.044 7.73303L155.042 7.74506L156.017 7.96481ZM155.834 8.77522L154.859 8.55337L154.857 8.5617L154.855 8.57007L155.834 8.77522ZM150.982 16.2393L150.469 15.3807L150.46 15.3858L150.452 15.391L150.982 16.2393ZM147.178 17.9287L147.52 18.8684L147.525 18.8663L147.178 17.9287ZM140.678 21.4611L139.981 20.7438L139.981 20.744L140.678 21.4611ZM137.023 32.4575L138.022 32.5068L138.022 32.5056L137.023 32.4575ZM135.855 39.6451L136.759 40.0738L136.764 40.0616L136.77 40.0493L135.855 39.6451ZM137.233 43.1775L136.839 44.0964L136.84 44.0969L137.233 43.1775ZM145.59 48.7986L146.296 48.09L146.29 48.0845L145.59 48.7986ZM148.795 51.0409L149.032 52.0124L149.042 52.0101L149.051 52.0076L148.795 51.0409ZM152.839 45.942L151.933 45.5187L151.93 45.5237L152.839 45.942ZM153.618 41.181H154.618L154.617 41.1691L153.618 41.181ZM152.809 35.8056L151.863 36.1295L151.864 36.1326L152.809 35.8056ZM152.15 29.7238L153.076 30.1017L153.08 30.0901L153.085 30.0784L152.15 29.7238ZM154.366 26.6521L153.618 25.9887L153.612 25.9959L154.366 26.6521ZM127.976 21.8623L127.203 22.4969L127.215 22.5115L127.227 22.5257L127.976 21.8623ZM132.289 22.9374L131.613 23.6742L131.616 23.6773L132.289 22.9374ZM134.476 40.1693L133.682 39.561L133.675 39.5701L134.476 40.1693ZM133.487 41.4901L133.446 42.4892L133.972 42.5111L134.288 42.0892L133.487 41.4901ZM131.271 41.3979L131.221 42.3967L131.229 42.397L131.271 41.3979ZM128.695 40.9679L129.411 40.2697L129.361 40.2187L129.304 40.1752L128.695 40.9679ZM127.676 35.5004L126.728 35.8186L126.731 35.8266L126.734 35.8346L127.676 35.5004ZM127.047 33.6267L126.139 33.2073L125.973 33.5681L126.099 33.9449L127.047 33.6267ZM127.856 31.8758L126.952 31.4481L126.948 31.4565L127.856 31.8758ZM129.084 24.3503L130.074 24.2063L130.072 24.195L129.084 24.3503ZM93.9515 36.39L93.6003 35.4537L93.5974 35.4548L93.9515 36.39ZM92.9331 39.308L92.7061 40.2819L92.7135 40.2836L92.7208 40.2852L92.9331 39.308ZM100.481 46.1885L99.5972 46.6557L99.6024 46.6655L99.6078 46.6752L100.481 46.1885ZM102.458 47.6014L102.793 46.659L102.79 46.658L102.458 47.6014ZM105.454 49.168L104.882 49.9888L104.889 49.9935L104.896 49.998L105.454 49.168ZM109.108 48.6458L108.399 47.9402L108.392 47.9476L109.108 48.6458ZM110.546 45.8813L109.554 46.0091L109.555 46.0193L110.546 45.8813ZM103.237 37.1272L102.802 38.0278L102.807 38.0299L103.237 37.1272ZM98.2049 35.8985L98.161 36.8976L98.166 36.8977L98.2049 35.8985ZM163.056 39.0938L162.095 38.817L162.092 38.8259L162.09 38.8348L163.056 39.0938ZM154.519 46.22L154.268 45.252L154.263 45.2533L154.519 46.22ZM164.374 38.7867L165.271 38.3459L165.265 38.333L165.258 38.3204L164.374 38.7867ZM160.959 52.5169L161.655 53.2352L161.657 53.2333L160.959 52.5169ZM153.68 56.3257L153.758 57.3227L153.761 57.3224L153.68 56.3257ZM149.756 53.8377L150.64 53.3695L150.636 53.3613L149.756 53.8377ZM148.858 52.179L148.148 51.4748L147.625 52.0022L147.979 52.6553L148.858 52.179ZM150.655 50.3667L149.95 49.6576L149.945 49.6626L150.655 50.3667ZM152.902 47.5408L153.819 47.9385L153.821 47.9351L152.902 47.5408ZM102.037 67.0143L103.035 67.0616L103.036 67.0594L102.037 67.0143ZM122.435 42.687L122.207 41.7132L122.207 41.7133L122.435 42.687ZM121.896 93.7683L121.649 94.7374L121.65 94.7375L121.896 93.7683ZM133.547 93.584L133.282 92.6197L133.281 92.62L133.547 93.584ZM148.135 83.4169L147.329 82.8243L147.327 82.8273L148.135 83.4169ZM152.029 74.9699L152.991 75.2426L152.992 75.2383L152.029 74.9699ZM152.029 61.6697L151.06 61.9174L151.061 61.9214L152.029 61.6697ZM143.522 48.0931L142.878 48.8586L142.879 48.8591L143.522 48.0931ZM133.847 42.9941L133.585 43.9591L133.588 43.9601L133.847 42.9941ZM95.0592 48.0625L94.7419 47.1142L94.7358 47.1162L95.0592 48.0625ZM90.5962 50.2433L90.0997 49.3752L90.0885 49.3818L90.5962 50.2433ZM103.925 49.0454L104.378 48.1537L104.371 48.1504L103.925 49.0454ZM105.243 53.4993L104.399 52.9626L104.394 52.9714L105.243 53.4993ZM101.619 62.5299L100.636 62.3463L100.634 62.3579L100.632 62.3695L101.619 62.5299ZM101.05 65.4479L100.075 65.2243L100.073 65.2348L100.071 65.2454L101.05 65.4479ZM101.016 65.622L101.965 65.9382L101.987 65.8728L101.999 65.805L101.016 65.622ZM101.016 65.6221L100.067 65.3059L100.046 65.3713L100.033 65.4392L101.016 65.6221ZM100.87 66.0739L100.077 65.4645L100.077 65.4645L100.87 66.0739ZM96.9725 66.1162L97.0479 65.1191L97.0477 65.119L96.9725 66.1162ZM96.2574 66.0623L96.1722 67.0587L96.1821 67.0594L96.2574 66.0623ZM90.5662 66.6459L90.8106 67.6155L90.812 67.6152L90.5662 66.6459ZM83.048 67.0145L82.75 67.9691L82.7553 67.9707L83.048 67.0145ZM75.2302 59.919L76.0775 59.3878L76.077 59.3871L75.2302 59.919ZM64.8065 53.1L64.7411 54.0979L64.7503 54.0984L64.8065 53.1ZM62.0208 52.7007L62.7368 52.0025L62.7184 51.9837L62.699 51.9658L62.0208 52.7007ZM66.4838 49.4754L66.8824 50.3926L66.8914 50.3886L66.4838 49.4754ZM76.9375 48.5539L76.6871 49.5221L76.6963 49.5244L76.9375 48.5539ZM81.7001 50.5812L81.2306 51.4642L81.2356 51.4668L81.7001 50.5812ZM160.954 53.5001L161.613 54.2525L161.617 54.249L160.954 53.5001ZM167.844 49.6606L168.036 50.6419L168.044 50.6403L168.053 50.6385L167.844 49.6606ZM154.514 57.1554L154.705 58.1371L154.717 58.1347L154.73 58.1319L154.514 57.1554ZM152.208 57.8619L152.924 58.56L152.924 58.56L152.208 57.8619ZM152.537 59.9506L153.489 59.6443L153.489 59.6415L152.537 59.9506ZM153.646 70.8549L152.647 70.7996L152.647 70.8016L153.646 70.8549ZM153.436 74.7866L152.438 74.7333L152.391 75.5979L153.241 75.7673L153.436 74.7866ZM154.514 75.0016L154.319 75.9823L154.327 75.9839L154.514 75.0016ZM161.943 74.1108L161.518 73.2056L161.517 73.206L161.943 74.1108ZM167.844 68.6126L168.645 69.2111L168.646 69.2099L167.844 68.6126ZM168.139 68.2158L167.358 67.5911L167.347 67.6046L167.337 67.6185L168.139 68.2158ZM168.139 68.2157L167.432 67.5086L167.393 67.5478L167.358 67.591L168.139 68.2157ZM168.139 68.2156L168.846 68.9227L168.898 68.8712L168.941 68.8127L168.139 68.2156ZM171.71 64.3471L172.138 65.2507L172.138 65.2507L171.71 64.3471ZM175.951 63.8843L175.956 64.8843L175.956 64.8843L175.951 63.8843ZM176.32 63.8823L176.315 62.8823L176.315 62.8823L176.32 63.8823ZM189.41 58.8448L188.694 58.1466L188.691 58.1496L189.41 58.8448ZM192.944 53.1623L192.228 53.8604L192.241 53.8737L192.255 53.8865L192.944 53.1623ZM190.548 53.9609L190.129 53.0529L190.121 53.0565L190.114 53.0603L190.548 53.9609ZM180.424 54.1145L179.944 54.9919L179.953 54.9969L180.424 54.1145ZM177.489 52.3329L176.91 53.1489L176.917 53.1537L176.924 53.1585L177.489 52.3329ZM91.6155 67.0764L91.3223 66.1203L91.3181 66.1216L91.6155 67.0764ZM83.618 72.421L84.4564 72.9661L84.4624 72.9567L83.618 72.421ZM100.691 68.5815L101.59 68.1432L101.587 68.1367L101.584 68.1302L100.691 68.5815ZM101.141 71.1924L100.144 71.2712L100.144 71.2793L101.141 71.1924ZM101.32 73.2503L101.626 74.2024L102.386 73.9582L102.317 73.1633L101.32 73.2503ZM99.3135 73.8954L99.5981 74.854L99.6088 74.8508L99.6195 74.8474L99.3135 73.8954ZM95.9288 75.4312L96.4792 76.2661L96.4901 76.2589L96.5008 76.2515L95.9288 75.4312ZM93.3827 75.9841L93.6744 75.0275L93.6639 75.0244L93.3827 75.9841ZM89.8183 75.6462L89.8075 76.6462H89.8183V75.6462ZM83.2286 78.1957L83.89 78.9457L83.8937 78.9425L83.2286 78.1957ZM81.7309 79.5165L80.7339 79.5932L80.8879 81.5933L82.3924 80.2665L81.7309 79.5165ZM81.6411 78.3493L82.6381 78.2725L82.638 78.2715L81.6411 78.3493ZM93.1401 78.9011L93.9401 79.5012L93.9452 79.4943L93.1401 78.9011ZM98.5018 74.8466L98.8892 75.7685L98.8908 75.7678L98.5018 74.8466ZM90.8038 86.0273L89.8161 85.8706L89.8157 85.8732L90.8038 86.0273ZM85.4122 93.7679L84.9608 92.8755L84.9598 92.876L85.4122 93.7679ZM75.288 104.519L76.2446 104.81L76.2461 104.805L75.288 104.519ZM76.8755 108.757L76.1239 108.098L76.1199 108.102L76.8755 108.757ZM83.3155 104.734L83.0461 103.771L83.0383 103.773L83.3155 104.734ZM87.9283 104.734L87.7561 105.719L87.7598 105.719L87.9283 104.734ZM95.3567 104.734L95.6454 105.691L95.6493 105.69L95.3567 104.734ZM103.714 95.7644L104.636 96.15L104.638 96.1451L103.714 95.7644ZM107.847 90.1126L107.251 89.3098L107.245 89.3141L107.239 89.3185L107.847 90.1126ZM108.656 87.3789L109.372 86.6807L109.358 86.6664L109.343 86.6526L108.656 87.3789ZM102.396 76.9967L101.45 77.3227L101.453 77.3292L102.396 76.9967ZM152.962 75.7987L153.729 76.44L153.744 76.4218L153.759 76.403L152.962 75.7987ZM152.003 77.9795L151.064 77.6361L151.061 77.6439L152.003 77.9795ZM154.34 75.5836L154.541 74.604L154.524 74.6007L154.508 74.5979L154.34 75.5836ZM158.084 75.7679L158.084 76.768L158.096 76.7679L158.084 75.7679ZM161.768 76.6587L161.099 77.4016L161.099 77.402L161.768 76.6587ZM171.024 78.9624L171.289 79.9268L171.298 79.9242L171.024 78.9624ZM173.12 78.5938L173.836 77.8957L173.836 77.8957L173.12 78.5938ZM167.369 84.6142L167.015 83.679L167.011 83.6806L167.369 84.6142ZM151.794 80.6211L150.902 81.0734L150.903 81.075L151.794 80.6211ZM140.019 92.0787L139.535 91.2035L139.519 91.2126L139.503 91.2224L140.019 92.0787ZM149.335 83.3245L150.165 83.8811L150.169 83.8757L149.335 83.3245ZM138.911 93.0616L137.972 92.7181L137.968 92.7274L138.911 93.0616ZM142.685 98.4369L143.318 97.6629L143.312 97.6583L142.685 98.4369ZM152.54 100.864L152.524 99.8636L152.518 99.8638L152.54 100.864ZM152.702 100.861L152.718 101.861L152.718 101.861L152.702 100.861ZM158.333 101.383L157.829 102.247L157.829 102.247L158.333 101.383ZM160.642 103.995L159.828 104.575L159.828 104.576L160.642 103.995ZM160.687 104.058L161.503 103.48L161.501 103.477L160.687 104.058ZM167.696 110.478L168.149 109.586L168.148 109.586L167.696 110.478ZM176.562 112.259L176.417 111.27L176.417 111.27L176.562 112.259ZM179.258 111.645L179.798 112.487L179.821 112.472L179.844 112.455L179.258 111.645ZM176.742 109.464L176.256 110.338L176.26 110.341L176.742 109.464ZM171.8 103.904L172.741 103.567L172.737 103.558L171.8 103.904ZM170.871 99.0206L171.866 98.9219L171.866 98.917L170.871 99.0206ZM166.797 89.1913L167.45 88.4333L167.44 88.4253L166.797 89.1913ZM159.549 85.9968L159.374 86.9814L159.379 86.9823L159.549 85.9968ZM152.51 82.9252L153.14 82.1488L153.131 82.142L152.51 82.9252ZM108.36 90.8506L107.803 90.0199L107.792 90.0272L108.36 90.8506ZM103.867 96.9324L104.795 97.3051L104.797 97.2996L103.867 96.9324ZM114.62 92.6628L113.629 92.5249L113.628 92.5334L113.627 92.5419L114.62 92.6628ZM113.961 94.8437L114.9 95.1871L114.903 95.179L114.906 95.1707L113.961 94.8437ZM110.966 101.478L111.667 102.191L111.672 102.186L110.966 101.478ZM107.94 106.086L108.9 106.368L108.902 106.362L107.94 106.086ZM107.431 109.864L106.437 109.975L106.438 109.982L106.439 109.989L107.431 109.864ZM107.281 111.553L106.776 110.691L106.752 110.705L106.728 110.72L107.281 111.553ZM103.657 107.13L102.744 107.539L102.749 107.549L103.657 107.13ZM102.908 102.062L101.909 102.013L101.909 102.022L102.908 102.062ZM115.218 104.918L114.357 105.428L114.362 105.435L114.366 105.443L115.218 104.918ZM114.798 94.321L115.717 94.7159L115.717 94.7153L114.798 94.321ZM118.333 108.881L117.568 109.525L117.573 109.531L118.333 108.881ZM120.789 117.174L119.819 116.93L119.816 116.943L120.789 117.174ZM120.07 123.501H119.07L119.07 123.509L120.07 123.501ZM122.197 131.948L123.062 131.447L123.056 131.437L122.197 131.948ZM127.139 136.955L126.423 136.257L126.423 136.257L127.139 136.955ZM127.079 135.419L126.128 135.729L126.131 135.738L127.079 135.419ZM126.69 131.488L127.69 131.488L127.69 131.48L126.69 131.488ZM131.332 121.904L130.607 121.215L130.606 121.217L131.332 121.904ZM135.975 113.457L136.971 113.545L136.971 113.544L135.975 113.457ZM134.088 105.41L133.191 105.851L133.191 105.851L134.088 105.41ZM131.931 98.0069L130.934 98.0718L130.934 98.0764L131.931 98.0069ZM131.752 95.2425L132.75 95.1776L132.689 94.2498L131.76 94.2425L131.752 95.2425ZM127.858 95.2117L127.866 94.2118L127.865 94.2118L127.858 95.2117ZM118.333 93.6759L118.664 92.7323L118.656 92.7297L118.333 93.6759ZM136.697 93.6151L136.945 94.5838L136.95 94.5824L136.697 93.6151ZM133.132 95.581L132.219 95.173L132.214 95.1841L132.209 95.1954L133.132 95.581ZM138.823 94.8438L137.924 95.2821L137.928 95.2897L137.932 95.2973L138.823 94.8438ZM140.89 97.6697L141.634 97.0019L141.631 96.9985L140.89 97.6697ZM142.448 101.54L141.449 101.593L141.45 101.602L141.45 101.611L142.448 101.54ZM143.166 105.656L144.121 105.358L144.118 105.347L143.166 105.656ZM145.832 109.434L145.147 110.163L145.147 110.163L145.832 109.434ZM144.724 111.891L144.659 112.889L144.662 112.889L144.724 111.891ZM134.151 103.967L133.25 104.401L133.254 104.409L134.151 103.967ZM3 27C3 13.7452 13.7452 3 27 3V1C12.6406 1 1 12.6406 1 27H3ZM3 117V27H1V117H3ZM27 141C13.7452 141 3 130.255 3 117H1C1 131.359 12.6406 143 27 143V141ZM227 141H27V143H227V141ZM251 117C251 130.255 240.255 141 227 141V143C241.359 143 253 131.359 253 117H251ZM251 27V117H253V27H251ZM227 3C240.255 3 251 13.7452 251 27H253C253 12.6406 241.359 1 227 1V3ZM27 3H227V1H27V3ZM97.3547 6.16477C97.3547 6.35413 97.4113 6.49955 97.4149 6.50946C97.431 6.55458 97.4473 6.5909 97.4566 6.61083C97.4761 6.65275 97.4968 6.69153 97.512 6.71913C97.5441 6.77762 97.5852 6.8474 97.6294 6.92076C97.7196 7.07029 97.8461 7.27277 97.9969 7.51051C98.2996 7.98779 98.7141 8.62909 99.1637 9.32071L100.84 8.23061C100.392 7.53998 99.9822 6.90656 99.6859 6.43931C99.5371 6.20478 99.4203 6.01755 99.342 5.88776C99.302 5.82145 99.2775 5.77916 99.2652 5.75667C99.2581 5.74377 99.2619 5.74983 99.27 5.76723C99.2735 5.77489 99.2856 5.801 99.2988 5.83802C99.2994 5.83982 99.3547 5.97924 99.3547 6.16477H97.3547ZM105.38 7.57582C104.25 6.82 102.546 6.05721 101.143 5.56957C100.441 5.32581 99.7621 5.1321 99.2315 5.04799C98.983 5.0086 98.675 4.97719 98.3894 5.02305C98.2488 5.04562 98.0115 5.10191 97.7898 5.27474C97.5227 5.48297 97.3547 5.80345 97.3547 6.16477H99.3547C99.3547 6.44161 99.221 6.6949 99.0194 6.85206C98.8633 6.97382 98.7226 6.99517 98.7064 6.99776C98.6696 7.00367 98.7218 6.99217 98.9184 7.02333C99.278 7.08033 99.8287 7.23026 100.486 7.45876C101.801 7.91565 103.332 8.61188 104.269 9.23829L105.38 7.57582ZM113.474 20.7192C112.326 14.7675 109.718 10.4539 105.377 7.57381L104.272 9.24031C108.078 11.7663 110.442 15.5618 111.511 21.0981L113.474 20.7192ZM119.055 26.8877C116.597 25.9325 115.499 25.3844 114.844 24.6531C114.213 23.9492 113.901 22.9677 113.475 20.7223L111.51 21.0949C111.923 23.2727 112.299 24.81 113.354 25.9874C114.384 27.1375 115.967 27.8334 118.331 28.7519L119.055 26.8877ZM127.261 33.9274C126.427 32.1997 125.498 30.8534 124.177 29.7214C122.869 28.5997 121.232 27.7365 119.056 26.8881L118.33 28.7514C120.407 29.5617 121.81 30.3265 122.876 31.2398C123.929 32.1427 124.707 33.2384 125.46 34.7973L127.261 33.9274ZM128.016 41.681C128.396 41.433 128.549 41.0493 128.616 40.8168C128.692 40.557 128.721 40.2747 128.729 40.0082C128.746 39.4693 128.68 38.8182 128.563 38.1463C128.33 36.8001 127.864 35.1976 127.264 33.9335L125.458 34.7912C125.966 35.8616 126.384 37.2846 126.592 38.4878C126.697 39.0907 126.741 39.5953 126.73 39.9472C126.725 40.1261 126.706 40.2229 126.696 40.2579C126.678 40.32 126.707 40.1465 126.923 40.0061L128.016 41.681ZM124.952 42.3279C125.621 42.2482 126.259 42.1445 126.757 42.0479C127.006 41.9997 127.227 41.952 127.403 41.9082C127.533 41.8761 127.758 41.819 127.925 41.7334L127.013 39.9537C127.09 39.9141 127.102 39.9223 126.922 39.9669C126.789 40 126.603 40.0405 126.377 40.0845C125.924 40.1722 125.334 40.2682 124.715 40.342L124.952 42.3279ZM115.382 45.3236C118.392 43.7508 121.483 42.7726 124.96 42.3269L124.706 40.3431C120.995 40.8188 117.676 41.8679 114.456 43.551L115.382 45.3236ZM111.953 46.9424C112.083 46.9424 112.184 46.9167 112.21 46.9102C112.252 46.8995 112.287 46.8879 112.31 46.8802C112.355 46.8645 112.398 46.8471 112.431 46.8332C112.499 46.8045 112.58 46.7674 112.665 46.727C112.838 46.6449 113.069 46.5297 113.339 46.392C113.882 46.1156 114.607 45.7362 115.389 45.32L114.449 43.5546C113.673 43.9678 112.96 44.3409 112.432 44.6097C112.167 44.7447 111.955 44.8502 111.806 44.9207C111.731 44.9566 111.682 44.9788 111.654 44.9903C111.639 44.9965 111.643 44.9945 111.659 44.9891C111.666 44.9865 111.689 44.9788 111.721 44.9707C111.737 44.9668 111.83 44.9424 111.953 44.9424V46.9424ZM110.022 44.3837C110.266 44.9308 110.506 45.4403 110.701 45.8196C110.797 46.0062 110.891 46.1791 110.974 46.3137C111.013 46.377 111.068 46.4604 111.132 46.5383C111.162 46.5749 111.22 46.6416 111.301 46.7079C111.342 46.7408 111.582 46.9424 111.953 46.9424V44.9424C112.152 44.9424 112.303 45.0022 112.385 45.0422C112.47 45.084 112.53 45.1293 112.563 45.1564C112.628 45.2091 112.667 45.2556 112.675 45.2658C112.696 45.2908 112.696 45.2961 112.673 45.2592C112.632 45.1931 112.567 45.0762 112.48 44.9057C112.308 44.5708 112.084 44.0975 111.848 43.5694L110.022 44.3837ZM105.4 38.9152C107.837 40.7087 109.083 42.205 110.017 44.3721L111.853 43.5811C110.75 41.0179 109.24 39.2582 106.585 37.3044L105.4 38.9152ZM100.004 32.6859C101.222 35.1508 102.923 37.1144 105.405 38.9186L106.581 37.3009C104.33 35.6649 102.856 33.9426 101.797 31.8L100.004 32.6859ZM99.0321 27.3484C99.0174 28.7375 99.0205 29.6425 99.1557 30.4118C99.2987 31.2255 99.5815 31.85 100.008 32.6942L101.793 31.7917C101.381 30.9771 101.215 30.5727 101.126 30.0656C101.029 29.5141 101.017 28.8065 101.032 27.3696L99.0321 27.3484ZM100.239 21.0041C99.7168 22.3362 99.3984 23.2151 99.2253 24.1328C99.0522 25.0507 99.032 25.9681 99.032 27.359H101.032C101.032 25.9548 101.057 25.2135 101.191 24.5034C101.325 23.7931 101.575 23.0749 102.101 21.7346L100.239 21.0041ZM99.1689 9.32861C100.592 11.4729 101.297 13.1394 101.455 14.8425C101.614 16.5542 101.233 18.4277 100.237 21.0096L102.103 21.7291C103.145 19.0278 103.647 16.8161 103.446 14.6575C103.245 12.4903 102.348 10.5015 100.835 8.2227L99.1689 9.32861ZM156.993 8.18405C157.136 7.54992 157.243 7.07417 157.277 6.95489L155.35 6.41813C155.299 6.60085 155.175 7.15425 155.042 7.74447L156.993 8.18405ZM156.987 8.20854L156.987 8.20799L155.048 7.72053L155.047 7.72108L156.987 8.20854ZM156.809 8.99708C156.872 8.7217 156.934 8.4438 156.993 8.18456L155.042 7.74506C154.983 8.00457 154.921 8.28042 154.859 8.55337L156.809 8.99708ZM151.494 17.0979C154.152 15.5112 156.08 12.4759 156.813 8.98037L154.855 8.57007C154.21 11.6478 152.544 14.1415 150.469 15.3807L151.494 17.0979ZM147.525 18.8663C148.933 18.3441 150.727 17.577 151.511 17.0876L150.452 15.391C149.858 15.7616 148.238 16.4689 146.83 16.9911L147.525 18.8663ZM141.375 22.1783C142.203 21.3732 142.719 20.9391 143.496 20.5154C144.314 20.0698 145.44 19.6257 147.52 18.8683L146.835 16.989C144.782 17.7368 143.511 18.2295 142.539 18.7592C141.527 19.3107 140.859 19.8903 139.981 20.7438L141.375 22.1783ZM138.022 32.5056C138.188 29.059 138.382 27.1464 138.845 25.7542C139.283 24.4354 139.981 23.5334 141.375 22.1781L139.981 20.744C138.499 22.184 137.534 23.3553 136.947 25.1235C136.384 26.8182 136.188 29.0063 136.025 32.4095L138.022 32.5056ZM136.77 40.0493C137.214 39.044 137.488 38.367 137.662 37.2945C137.827 36.2817 137.904 34.9102 138.022 32.5068L136.025 32.4082C135.904 34.858 135.831 36.0974 135.688 36.9737C135.555 37.7902 135.365 38.2805 134.941 39.241L136.77 40.0493ZM135.897 41.9489C135.897 42.1016 135.856 42.2102 135.875 42.1436C135.88 42.1275 135.891 42.0926 135.912 42.0349C135.952 41.9216 136.016 41.7594 136.099 41.5577C136.264 41.1562 136.496 40.627 136.759 40.0738L134.952 39.2165C134.675 39.7998 134.428 40.361 134.249 40.7966C134.16 41.0133 134.084 41.2063 134.03 41.3589C134.003 41.4341 133.977 41.5099 133.956 41.5789C133.951 41.5974 133.897 41.7654 133.897 41.9489H135.897ZM137.628 42.2586C137.001 41.9897 136.442 41.7245 136.048 41.517C135.847 41.4115 135.709 41.3309 135.63 41.279C135.586 41.2505 135.588 41.2485 135.612 41.2697C135.622 41.2788 135.667 41.3189 135.716 41.3867C135.745 41.4263 135.897 41.6322 135.897 41.9489H133.897C133.897 42.2809 134.057 42.5055 134.102 42.567C134.167 42.6567 134.235 42.7218 134.277 42.7588C134.363 42.8359 134.457 42.9016 134.532 42.9508C134.69 43.0545 134.893 43.1696 135.116 43.2868C135.568 43.5248 136.177 43.8125 136.839 44.0964L137.628 42.2586ZM146.29 48.0845C143.478 45.3277 141.188 43.7827 137.627 42.2582L136.84 44.0969C140.167 45.5212 142.25 46.9249 144.89 49.5127L146.29 48.0845ZM148.558 50.0694C148.536 50.0748 148.534 50.0734 148.543 50.0732C148.547 50.0732 148.552 50.0734 148.557 50.0739C148.562 50.0744 148.564 50.075 148.563 50.0748C148.556 50.073 148.481 50.0522 148.302 49.9278C147.924 49.6648 147.342 49.1322 146.296 48.09L144.884 49.5072C145.905 50.523 146.611 51.1884 147.161 51.5704C147.446 51.7686 147.746 51.932 148.076 52.0147C148.43 52.1033 148.747 52.082 149.032 52.0124L148.558 50.0694ZM151.93 45.5237C151.46 46.5442 150.727 47.69 150 48.6072C149.637 49.0646 149.291 49.4454 148.997 49.7168C148.664 50.0242 148.514 50.0807 148.539 50.0742L149.051 52.0076C149.54 51.8782 150.001 51.5124 150.354 51.1862C150.746 50.8241 151.162 50.3602 151.567 49.8501C152.374 48.8321 153.199 47.5513 153.747 46.3603L151.93 45.5237ZM152.618 41.181C152.618 42.5429 152.593 43.2856 152.499 43.8618C152.412 44.3992 152.26 44.8183 151.933 45.5187L153.745 46.3653C154.106 45.5913 154.344 44.9814 154.474 44.1826C154.597 43.4227 154.618 42.5221 154.618 41.181H152.618ZM151.864 36.1326C152.477 37.9042 152.588 38.7422 152.618 41.1929L154.617 41.1691C154.587 38.5822 154.459 37.5158 153.754 35.4786L151.864 36.1326ZM151.224 29.3458C150.533 31.0381 150.871 33.2322 151.863 36.1295L153.755 35.4817C152.77 32.6043 152.688 31.0511 153.076 30.1017L151.224 29.3458ZM153.612 25.9959C153.1 26.5848 152.579 27.2373 152.157 27.8191C151.761 28.3639 151.374 28.9497 151.215 29.3692L153.085 30.0784C153.135 29.945 153.362 29.5631 153.775 28.9945C154.161 28.4628 154.645 27.856 155.121 27.3084L153.612 25.9959ZM158.159 14.6113C158.159 18.491 156.467 22.7753 153.618 25.9888L155.115 27.3155C158.257 23.7714 160.159 19.025 160.159 14.6113H158.159ZM157.269 6.98224C157.286 6.92485 157.281 6.97311 157.215 7.05373C157.133 7.15271 156.95 7.30284 156.672 7.32072C156.424 7.33661 156.265 7.23592 156.228 7.2101C156.187 7.18157 156.189 7.17238 156.229 7.22285C156.413 7.45327 156.705 8.02828 157.02 8.90244C157.633 10.6073 158.159 12.9529 158.159 14.6113H160.159C160.159 12.6452 159.562 10.0609 158.902 8.22566C158.58 7.32979 158.198 6.48225 157.792 5.97451C157.685 5.84044 157.545 5.68949 157.369 5.56723C157.196 5.44769 156.91 5.30132 156.544 5.32483C156.146 5.35033 155.854 5.56138 155.673 5.77985C155.508 5.97996 155.415 6.20628 155.358 6.39078L157.269 6.98224ZM126.107 20.4801C126.107 20.6565 126.149 20.802 126.174 20.878C126.203 20.9674 126.239 21.0504 126.272 21.1207C126.339 21.262 126.425 21.4108 126.516 21.5545C126.699 21.8448 126.941 22.1782 127.203 22.4969L128.749 21.2277C128.531 20.9628 128.339 20.6972 128.208 20.4883C128.141 20.3825 128.1 20.3067 128.079 20.2627C128.068 20.2405 128.07 20.2406 128.076 20.2588C128.077 20.2638 128.107 20.3497 128.107 20.4801H126.107ZM132.965 22.2005C131.763 21.0977 130.386 20.1701 129.273 19.642C128.739 19.3881 128.164 19.1769 127.66 19.1447C127.415 19.129 127.035 19.1447 126.687 19.3733C126.269 19.6479 126.107 20.0849 126.107 20.4801H128.107C128.107 20.6218 128.036 20.8803 127.786 21.0446C127.606 21.1629 127.47 21.1366 127.533 21.1406C127.646 21.1478 127.939 21.2226 128.416 21.4487C129.325 21.8804 130.539 22.6884 131.613 23.6742L132.965 22.2005ZM137.393 33.2581C137.393 30.8552 137.083 28.8017 136.36 26.9802C135.634 25.1498 134.511 23.6065 132.962 22.1975L131.616 23.6773C132.972 24.9099 133.902 26.2078 134.501 27.7178C135.104 29.2368 135.393 31.0228 135.393 33.2581H137.393ZM135.269 40.7774C136.766 38.8238 137.393 36.3692 137.393 33.2581H135.393C135.393 36.1059 134.821 38.0745 133.682 39.5611L135.269 40.7774ZM134.288 42.0892L135.276 40.7684L133.675 39.5701L132.687 40.8909L134.288 42.0892ZM131.229 42.397L133.446 42.4892L133.529 40.4909L131.312 40.3988L131.229 42.397ZM127.979 41.666C128.136 41.8276 128.315 41.9128 128.402 41.9513C128.51 41.9991 128.622 42.0361 128.725 42.0654C128.931 42.1245 129.174 42.1741 129.428 42.2158C129.94 42.2998 130.577 42.3645 131.221 42.3967L131.321 40.3992C130.736 40.3699 130.175 40.3117 129.751 40.2422C129.537 40.207 129.378 40.1722 129.276 40.1429C129.224 40.1281 129.206 40.12 129.211 40.1222C129.214 40.1236 129.234 40.1323 129.263 40.15C129.289 40.166 129.346 40.2038 129.411 40.2697L127.979 41.666ZM127.305 39.002C127.305 39.5238 127.346 40.0351 127.428 40.4623C127.469 40.6743 127.525 40.8922 127.605 41.0904C127.673 41.2586 127.81 41.5487 128.085 41.7605L129.304 40.1752C129.46 40.2949 129.488 40.4123 129.46 40.3433C129.445 40.3044 129.418 40.221 129.392 40.0835C129.34 39.812 129.305 39.4325 129.305 39.002H127.305ZM126.734 35.8346C127.057 36.7475 127.305 38.2012 127.305 39.002H129.305C129.305 37.9599 129.014 36.2805 128.619 35.1662L126.734 35.8346ZM126.099 33.9449L126.728 35.8186L128.624 35.1821L127.995 33.3084L126.099 33.9449ZM126.948 31.4565L126.139 33.2073L127.955 34.046L128.764 32.2952L126.948 31.4565ZM128.094 24.4944C128.224 25.3871 128.177 26.6365 127.966 27.9416C127.755 29.2422 127.395 30.5125 126.952 31.4481L128.76 32.3036C129.306 31.1504 129.709 29.687 129.94 28.2615C130.17 26.8406 130.243 25.3715 130.074 24.2063L128.094 24.4944ZM127.227 22.5257C127.676 23.0312 127.97 23.7027 128.096 24.5057L130.072 24.195C129.899 23.0935 129.474 22.0449 128.724 21.1989L127.227 22.5257ZM91.5668 38.4172C91.5668 38.6342 91.4813 38.7659 91.47 38.7832C91.4525 38.81 91.4531 38.801 91.5005 38.7573C91.5943 38.6706 91.7698 38.5402 92.0428 38.3768C92.5805 38.0548 93.3695 37.6796 94.3056 37.3252L93.5974 35.4548C92.5866 35.8375 91.6832 36.261 91.0154 36.6608C90.6856 36.8583 90.3799 37.0696 90.1433 37.2882C90.0255 37.3971 89.8985 37.5316 89.7948 37.6906C89.6973 37.8401 89.5668 38.0928 89.5668 38.4172H91.5668ZM93.1601 38.3341C92.5235 38.1857 91.9755 38.0277 91.6018 37.8899C91.4089 37.8187 91.3004 37.7667 91.2564 37.7409C91.2311 37.7261 91.267 37.7429 91.3217 37.7977C91.3522 37.8282 91.5668 38.0426 91.5668 38.4172H89.5668C89.5668 38.8457 89.8142 39.1186 89.9072 39.2116C90.0244 39.3289 90.1525 39.4122 90.246 39.4669C90.4398 39.5804 90.6758 39.68 90.9097 39.7663C91.3897 39.9433 92.0249 40.1231 92.7061 40.2819L93.1601 38.3341ZM101.365 45.7212C100.1 43.3261 99.0297 41.6647 97.7622 40.5112C96.4571 39.3235 95.0144 38.7369 93.1454 38.3308L92.7208 40.2852C94.3863 40.6471 95.4597 41.1201 96.4161 41.9904C97.41 42.8949 98.3469 44.2898 99.5972 46.6557L101.365 45.7212ZM102.79 46.658C101.85 46.3277 101.545 46.0429 101.355 45.7017L99.6078 46.6752C100.137 47.6242 100.969 48.138 102.127 48.5448L102.79 46.658ZM106.025 48.3471C105.118 47.7164 103.662 46.9674 102.793 46.659L102.124 48.5438C102.813 48.7883 104.111 49.4523 104.882 49.9888L106.025 48.3471ZM107.281 49.243C107.393 49.243 107.474 49.2636 107.497 49.2697C107.529 49.2781 107.549 49.2857 107.552 49.2867C107.557 49.2885 107.542 49.2829 107.501 49.2626C107.422 49.2231 107.304 49.1574 107.148 49.0647C106.839 48.8815 106.437 48.6237 106.011 48.3379L104.896 49.998C105.339 50.2959 105.775 50.5755 106.126 50.784C106.299 50.8872 106.465 50.9808 106.607 51.0517C106.677 51.0865 106.757 51.1239 106.838 51.1549C106.88 51.1712 107.061 51.243 107.281 51.243V49.243ZM108.392 47.9476C107.976 48.3744 107.57 48.754 107.26 49.0218C107.103 49.1571 106.982 49.2545 106.902 49.313C106.861 49.3436 106.847 49.3515 106.854 49.3472C106.857 49.3455 106.884 49.3299 106.927 49.3118C106.945 49.3042 107.084 49.243 107.281 49.243V51.243C107.492 51.243 107.652 51.1763 107.696 51.1579C107.765 51.1291 107.823 51.0975 107.862 51.0747C107.942 51.0282 108.02 50.974 108.087 50.9245C108.225 50.8226 108.391 50.6877 108.567 50.5351C108.924 50.227 109.371 49.808 109.824 49.3439L108.392 47.9476ZM109.555 46.0193C109.625 46.5184 109.589 46.5709 109.547 46.6505C109.439 46.8582 109.173 47.1631 108.399 47.9403L109.817 49.3513C110.511 48.6541 111.039 48.1143 111.32 47.5771C111.667 46.9118 111.616 46.3193 111.536 45.7433L109.555 46.0193ZM102.807 38.0299C104.573 38.8711 106.182 40.154 107.393 41.604C108.612 43.0628 109.376 44.6257 109.554 46.0091L111.537 45.7536C111.296 43.881 110.308 41.973 108.928 40.3217C107.541 38.6617 105.705 37.1954 103.667 36.2244L102.807 38.0299ZM98.166 36.8977C99.344 36.9436 100.005 37.0033 100.607 37.1503C101.206 37.2964 101.792 37.5403 102.802 38.0278L103.672 36.2265C102.645 35.7311 101.898 35.4067 101.082 35.2073C100.268 35.0087 99.4321 34.9455 98.2438 34.8993L98.166 36.8977ZM94.3028 37.3262C95.3593 36.9299 96.14 36.8087 98.161 36.8975L98.2488 34.8995C96.0764 34.804 95 34.9286 93.6003 35.4537L94.3028 37.3262ZM162.09 38.8348C161.644 40.4985 160.856 41.7727 159.64 42.7877C158.406 43.8185 156.673 44.628 154.268 45.2521L154.77 47.188C157.337 46.5219 159.379 45.6113 160.922 44.3231C162.484 43.019 163.479 41.3751 164.022 39.3528L162.09 38.8348ZM165.258 38.3204C165.098 38.0172 164.916 37.7136 164.701 37.4833C164.514 37.2829 164.053 36.8773 163.4 37.0354C162.842 37.1707 162.568 37.6386 162.456 37.8509C162.313 38.1232 162.198 38.4603 162.095 38.817L164.017 39.3707C164.109 39.0516 164.18 38.8704 164.227 38.7807C164.25 38.7373 164.248 38.7529 164.211 38.7918C164.172 38.8324 164.062 38.933 163.872 38.9791C163.665 39.0292 163.483 38.9866 163.367 38.9312C163.268 38.8842 163.226 38.8344 163.238 38.8469C163.246 38.8552 163.274 38.8882 163.322 38.9617C163.368 39.0331 163.423 39.1286 163.489 39.253L165.258 38.3204ZM161.657 53.2333C166.04 48.9647 167.609 43.106 165.271 38.3459L163.476 39.2275C165.332 43.0065 164.205 47.9599 160.261 51.8004L161.657 53.2333ZM153.761 57.3224C156.73 57.083 158.853 55.9486 161.655 53.2352L160.263 51.7985C157.673 54.3069 155.962 55.1384 153.6 55.3289L153.761 57.3224ZM148.873 54.3058C149.199 54.9225 149.485 55.4456 149.763 55.8597C150.044 56.2785 150.362 56.654 150.785 56.9254C151.636 57.4717 152.647 57.4092 153.758 57.3227L153.603 55.3287C152.347 55.4265 152.055 55.364 151.865 55.2422C151.768 55.1796 151.631 55.054 151.423 54.7442C151.212 54.4298 150.972 53.9968 150.64 53.3696L148.873 54.3058ZM147.979 52.6553L148.877 54.314L150.636 53.3613L149.737 51.7026L147.979 52.6553ZM149.945 49.6626L148.148 51.4748L149.568 52.8831L151.365 51.0709L149.945 49.6626ZM151.984 47.1432C151.922 47.2863 151.684 47.6559 151.276 48.171C150.89 48.6574 150.414 49.196 149.95 49.6576L151.36 51.0758C151.884 50.5545 152.412 49.9566 152.843 49.414C153.25 48.9002 153.641 48.3483 153.819 47.9385L151.984 47.1432ZM154.263 45.2533C153.742 45.3912 153.259 45.5757 152.85 45.9127C152.431 46.2579 152.179 46.688 151.983 47.1465L153.821 47.9351C153.953 47.6257 154.046 47.5183 154.121 47.4565C154.206 47.3864 154.368 47.2945 154.775 47.1867L154.263 45.2533ZM103.036 67.0594C103.554 55.5659 111.289 46.3248 122.663 43.6606L122.207 41.7133C109.977 44.5781 101.597 54.5654 101.038 66.9693L103.036 67.0594ZM122.142 92.7991C110.289 89.7826 102.459 79.2397 103.035 67.0616L101.038 66.967C100.416 80.0993 108.88 91.4878 121.649 94.7374L122.142 92.7991ZM133.281 92.62C131.835 93.0192 129.771 93.2529 127.672 93.2867C125.57 93.3206 123.534 93.1525 122.142 92.799L121.65 94.7375C123.282 95.152 125.515 95.3217 127.704 95.2865C129.895 95.2512 132.144 95.0088 133.814 94.5479L133.281 92.62ZM147.327 82.8273C143.802 87.6562 138.87 91.084 133.282 92.6197L133.812 94.5482C139.847 92.8894 145.158 89.191 148.942 84.0064L147.327 82.8273ZM151.066 74.6971C150.711 75.9525 150.081 77.576 149.375 79.1095C148.665 80.6528 147.913 82.0312 147.329 82.8243L148.94 84.0094C149.645 83.0517 150.464 81.5274 151.192 79.9453C151.925 78.3534 152.598 76.6289 152.991 75.2426L151.066 74.6971ZM151.061 61.9214C151.511 63.6544 151.747 66.0281 151.747 68.4119C151.747 70.7991 151.511 73.1027 151.065 74.7015L152.992 75.2383C153.505 73.3968 153.747 70.8932 153.747 68.4119C153.747 65.9272 153.504 63.3709 152.996 61.418L151.061 61.9214ZM142.879 48.8591C146.67 52.0402 149.823 57.0798 151.06 61.9174L152.997 61.422C151.658 56.1846 148.281 50.7806 144.165 47.327L142.879 48.8591ZM133.588 43.9601C134.799 44.2846 136.601 45.066 138.398 46.0134C140.191 46.9597 141.88 48.0192 142.878 48.8586L144.165 47.3275C143.008 46.3547 141.176 45.2179 139.331 44.2444C137.487 43.2721 135.531 42.4102 134.106 42.0282L133.588 43.9601ZM122.662 43.6608C123.709 43.4162 125.827 43.3181 128.069 43.3794C130.304 43.4406 132.464 43.6546 133.585 43.9591L134.109 42.0292C132.744 41.658 130.381 41.4419 128.123 41.3802C125.872 41.3186 123.527 41.4048 122.207 41.7132L122.662 43.6608ZM94.7358 47.1162C93.7448 47.455 91.6714 48.4764 90.0998 49.3753L91.0926 51.1114C92.6361 50.2287 94.5765 49.2843 95.3827 49.0087L94.7358 47.1162ZM104.371 48.1504C100.987 46.4639 97.8945 46.0592 94.7419 47.1142L95.3766 49.0108C97.915 48.1614 100.453 48.4324 103.479 49.9404L104.371 48.1504ZM106.087 54.0359C106.525 53.3479 106.899 52.7552 107.134 52.2581C107.364 51.7704 107.567 51.1612 107.373 50.514C107.184 49.8793 106.69 49.47 106.237 49.1707C105.77 48.8618 105.131 48.5358 104.378 48.1538L103.473 49.9371C104.263 50.3383 104.784 50.6074 105.134 50.8389C105.499 51.0801 105.478 51.1565 105.457 51.0861C105.432 51.0034 105.498 51.0373 105.325 51.4049C105.156 51.7631 104.861 52.2377 104.4 52.9626L106.087 54.0359ZM102.602 62.7134C103.116 59.9632 104.412 56.7306 106.093 54.0272L104.394 52.9714C102.6 55.8583 101.201 59.3219 100.636 62.3463L102.602 62.7134ZM102.025 65.6716C102.148 65.1331 102.422 63.8215 102.606 62.6903L100.632 62.3695C100.456 63.4498 100.191 64.7184 100.075 65.2243L102.025 65.6716ZM101.999 65.805C102.01 65.7498 102.019 65.7012 102.029 65.6505L100.071 65.2454C100.055 65.3184 100.043 65.3858 100.033 65.4391L101.999 65.805ZM101.965 65.9383L101.965 65.9382L100.068 65.3058L100.067 65.3059L101.965 65.9383ZM101.663 66.6834C101.923 66.3454 101.978 65.919 101.999 65.805L100.033 65.4392C100.028 65.4643 100.024 65.4857 100.021 65.5059C100.017 65.5259 100.013 65.5425 100.01 65.557C100.004 65.587 100.001 65.6003 99.9995 65.6042C99.9984 65.6076 100.002 65.5934 100.013 65.569C100.025 65.5433 100.045 65.506 100.077 65.4645L101.663 66.6834ZM96.8971 67.1134C98.3361 67.2222 99.2973 67.2956 99.9222 67.2974C100.232 67.2983 100.536 67.2832 100.805 67.2177C101.1 67.1459 101.422 66.9964 101.663 66.6834L100.077 65.4645C100.195 65.3108 100.334 65.2739 100.332 65.2744C100.304 65.2812 100.197 65.2982 99.9278 65.2974C99.3955 65.2959 98.5303 65.2312 97.0479 65.1191L96.8971 67.1134ZM96.1821 67.0594L96.8973 67.1134L97.0477 65.119L96.3326 65.0651L96.1821 67.0594ZM90.812 67.6152C92.14 67.2786 92.9631 67.1027 93.7052 67.0263C94.4345 66.9512 95.1195 66.9687 96.1722 67.0586L96.3425 65.0659C95.2386 64.9716 94.411 64.943 93.5003 65.0368C92.6024 65.1293 91.6584 65.3374 90.3205 65.6765L90.812 67.6152ZM82.7553 67.9707C85.021 68.6642 87.2109 68.5228 90.8106 67.6155L90.3219 65.6762C86.8526 66.5505 85.0887 66.5933 83.3407 66.0583L82.7553 67.9707ZM74.3829 60.4501C75.8693 62.8212 77.0238 64.4295 78.2868 65.5774C79.5836 66.7562 80.9439 67.4053 82.7501 67.9691L83.3459 66.0599C81.7075 65.5485 80.6416 65.0151 79.632 64.0975C78.5885 63.149 77.5564 61.7471 76.0775 59.3878L74.3829 60.4501ZM64.7503 54.0984C67.1108 54.2312 68.7366 54.6599 70.1342 55.5728C71.5521 56.4991 72.8372 57.9895 74.3834 60.4509L76.077 59.3871C74.4781 56.8417 73.0075 55.0608 71.2279 53.8984C69.428 52.7226 67.4145 52.2452 64.8627 52.1015L64.7503 54.0984ZM61.3049 53.3988C61.4261 53.5231 61.5525 53.5903 61.6069 53.6176C61.6749 53.6519 61.7388 53.6764 61.7875 53.6934C61.8852 53.7275 61.9895 53.7547 62.0849 53.7766C62.2796 53.8213 62.5223 53.8633 62.7878 53.9016C63.3234 53.9789 64.0162 54.0504 64.7411 54.0978L64.8718 52.1021C64.1889 52.0574 63.5488 51.9907 63.0735 51.9221C62.8335 51.8875 62.6513 51.8546 62.5324 51.8273C62.471 51.8132 62.4464 51.805 62.4469 51.8052C62.4469 51.8052 62.4702 51.8131 62.5059 51.8311C62.528 51.8422 62.6305 51.8935 62.7368 52.0025L61.3049 53.3988ZM66.0853 48.5583C65.1083 48.9828 63.8517 49.7659 62.8904 50.4627C62.4081 50.8122 61.965 51.1654 61.6512 51.4663C61.5028 51.6085 61.3357 51.7837 61.2146 51.9709C61.1586 52.0573 61.0607 52.2235 61.0195 52.4419C60.9721 52.6928 60.9927 53.1126 61.3426 53.4355L62.699 51.9658C63.0115 52.2541 63.0203 52.6245 62.9848 52.8128C62.9685 52.8991 62.9429 52.9615 62.9279 52.9939C62.9121 53.0283 62.8985 53.05 62.8936 53.0575C62.8859 53.0695 62.9174 53.023 63.0354 52.9099C63.2542 52.7001 63.6142 52.4082 64.0642 52.082C64.9675 51.4272 66.0921 50.736 66.8824 50.3926L66.0853 48.5583ZM77.188 47.5858C73.6382 46.6676 69.5125 47.0288 66.0763 48.5622L66.8914 50.3886C69.9251 49.0348 73.5873 48.7202 76.6871 49.5221L77.188 47.5858ZM82.1696 49.6983C80.5299 48.8264 78.2873 47.8591 77.1788 47.5835L76.6963 49.5244C77.5647 49.7403 79.6354 50.6159 81.2306 51.4642L82.1696 49.6983ZM90.0885 49.3818C88.056 50.5795 87.0206 51.0364 86.0771 51.0717C85.1457 51.1065 84.1472 50.7355 82.1646 49.6956L81.2356 51.4668C83.1768 52.4849 84.6196 53.1276 86.1518 53.0703C87.6719 53.0134 89.1227 52.2723 91.1039 51.1049L90.0885 49.3818ZM161.617 54.249C163.728 52.3808 166.236 50.9947 168.036 50.6419L167.651 48.6793C165.377 49.1251 162.554 50.7492 160.292 52.7513L161.617 54.249ZM154.73 58.1319C155.987 57.8545 157.029 57.4937 158.116 56.8771C159.185 56.2701 160.264 55.4341 161.613 54.2525L160.296 52.7478C158.979 53.9006 158.021 54.6312 157.128 55.1377C156.253 55.6345 155.408 55.9342 154.299 56.1789L154.73 58.1319ZM152.924 58.56C152.832 58.6541 152.753 58.6904 152.779 58.6764C152.784 58.6737 152.808 58.6616 152.859 58.6407C152.958 58.5997 153.106 58.5465 153.299 58.4865C153.682 58.3672 154.185 58.2379 154.705 58.1371L154.324 56.1737C153.735 56.2879 153.16 56.435 152.705 56.5769C152.478 56.6474 152.267 56.7209 152.093 56.7931C152.006 56.8289 151.915 56.87 151.83 56.9161C151.766 56.9508 151.621 57.0312 151.492 57.1637L152.924 58.56ZM153.489 59.6415C153.315 59.108 153.205 58.6862 153.157 58.3969C153.132 58.2488 153.131 58.1755 153.132 58.158C153.132 58.1504 153.132 58.1851 153.114 58.2447C153.097 58.3012 153.05 58.431 152.924 58.56L151.492 57.1637C151.176 57.4881 151.142 57.8995 151.134 58.063C151.124 58.2816 151.149 58.5116 151.184 58.7244C151.256 59.157 151.4 59.6874 151.586 60.2597L153.489 59.6415ZM154.644 70.9101C154.889 66.493 154.495 62.7706 153.489 59.6443L151.586 60.2568C152.497 63.0895 152.882 66.5548 152.647 70.7996L154.644 70.9101ZM154.435 74.8398L154.644 70.9081L152.647 70.8016L152.438 74.7333L154.435 74.8398ZM154.71 74.0209L153.632 73.8059L153.241 75.7673L154.319 75.9823L154.71 74.0209ZM161.517 73.206C160.738 73.5729 159.521 73.8772 158.21 74.0357C156.901 74.1938 155.612 74.1927 154.701 74.0192L154.327 75.9839C155.513 76.2098 157.025 76.1933 158.45 76.0212C159.871 75.8495 161.321 75.5088 162.369 75.0156L161.517 73.206ZM167.042 68.0141C165.609 69.9334 164.808 70.94 164.077 71.6202C163.384 72.2654 162.733 72.6351 161.518 73.2056L162.368 75.016C163.639 74.4193 164.516 73.9443 165.44 73.0844C166.326 72.2595 167.233 71.1006 168.645 69.2111L167.042 68.0141ZM167.337 67.6185L167.042 68.0153L168.646 69.2099L168.941 68.8131L167.337 67.6185ZM167.358 67.591L167.358 67.5911L168.92 68.8405L168.92 68.8404L167.358 67.591ZM167.432 67.5085L167.432 67.5086L168.846 68.9228L168.846 68.9227L167.432 67.5085ZM171.281 63.4435C170.577 63.7775 170.005 64.2815 169.415 64.9496C168.834 65.6062 168.179 66.4873 167.337 67.6185L168.941 68.8127C169.805 67.6533 170.401 66.8529 170.913 66.2743C171.414 65.7072 171.776 65.4223 172.138 65.2507L171.281 63.4435ZM175.945 62.8844C174.883 62.8901 174.01 62.894 173.287 62.957C172.55 63.0211 171.899 63.1508 171.281 63.4435L172.138 65.2507C172.459 65.0984 172.851 65.0026 173.46 64.9495C174.084 64.8952 174.863 64.8902 175.956 64.8843L175.945 62.8844ZM176.315 62.8823L175.945 62.8844L175.956 64.8843L176.326 64.8823L176.315 62.8823ZM188.691 58.1496C186.933 59.9671 185.329 61.1186 183.462 61.8352C181.581 62.5572 179.358 62.8672 176.315 62.8823L176.325 64.8823C179.483 64.8666 181.978 64.547 184.178 63.7024C186.392 62.8525 188.232 61.5005 190.129 59.54L188.691 58.1496ZM192.255 53.8865C192.071 53.711 192.02 53.5138 192.006 53.4224C191.998 53.374 191.998 53.3378 191.999 53.3188C191.999 53.3086 192 53.3011 192 53.2966C192 53.2942 192.001 53.2925 192.001 53.2914C192.001 53.2909 192.001 53.2904 192.001 53.2902C192.001 53.2899 192.001 53.2898 192.001 53.2898C192.001 53.2898 192.001 53.2899 192.001 53.2901C192.001 53.2904 192.001 53.2908 192.001 53.2913C192 53.2923 192 53.2938 192 53.2957C191.999 53.2997 191.998 53.3052 191.996 53.3125C191.992 53.3271 191.987 53.3469 191.979 53.372C191.963 53.423 191.939 53.4883 191.906 53.5685C191.769 53.8995 191.52 54.3666 191.182 54.9113C190.507 55.9973 189.561 57.2573 188.694 58.1466L190.126 59.5429C191.116 58.5279 192.147 57.1463 192.88 55.967C193.246 55.3789 193.558 54.8075 193.754 54.3332C193.85 54.1022 193.939 53.8453 193.977 53.5962C193.997 53.4716 194.011 53.3035 193.983 53.1195C193.954 52.9339 193.871 52.6635 193.634 52.4381L192.255 53.8865ZM190.967 54.8689C191.544 54.6027 192.078 54.3874 192.469 54.2561C192.669 54.1889 192.803 54.1535 192.874 54.14C192.914 54.1324 192.896 54.1393 192.842 54.1385C192.815 54.1382 192.746 54.1357 192.655 54.1116C192.57 54.0891 192.392 54.0284 192.228 53.8604L193.66 52.4641C193.482 52.2808 193.281 52.2085 193.167 52.1783C193.047 52.1463 192.94 52.1397 192.87 52.1387C192.73 52.1368 192.598 52.1566 192.502 52.175C192.299 52.2133 192.066 52.2815 191.832 52.3602C191.354 52.5208 190.751 52.7662 190.129 53.0529L190.967 54.8689ZM185.216 56.0052C186.674 56.0052 187.601 55.9935 188.422 55.8331C189.272 55.6672 189.969 55.3506 190.983 54.8615L190.114 53.0603C189.09 53.5541 188.605 53.7597 188.039 53.8702C187.445 53.9863 186.724 54.0052 185.216 54.0052V56.0052ZM179.953 54.9969C180.721 55.406 181.311 55.6897 182.118 55.842C182.878 55.9853 183.797 56.0052 185.216 56.0052V54.0052C183.76 54.0052 183.032 53.9792 182.489 53.8767C181.993 53.7832 181.625 53.6216 180.894 53.2321L179.953 54.9969ZM176.924 53.1585C177.675 53.672 179.022 54.4877 179.944 54.9918L180.904 53.2371C180.028 52.7583 178.739 51.9768 178.053 51.5074L176.924 53.1585ZM168.053 50.6385C170.567 50.1013 173.759 50.9159 176.91 53.1489L178.067 51.517C174.629 49.0811 170.871 47.9912 167.635 48.6827L168.053 50.6385ZM91.3181 66.1216C87.1461 67.4209 84.5638 69.0635 82.7736 71.8853L84.4624 72.9567C85.9071 70.6796 87.9975 69.2505 91.9129 68.0311L91.3181 66.1216ZM101.584 68.1302C101.221 67.4136 100.5 66.9288 99.7896 66.6005C99.0462 66.257 98.1466 66.0077 97.204 65.8517C95.331 65.5418 93.1092 65.5723 91.3223 66.1203L91.9087 68.0324C93.3268 67.5975 95.2236 67.5512 96.8775 67.8249C97.6985 67.9607 98.4144 68.1683 98.9506 68.4161C99.5199 68.6791 99.7419 68.92 99.7989 69.0327L101.584 68.1302ZM102.138 71.1135C102.09 70.5142 102.011 69.9073 101.924 69.4041C101.88 69.1528 101.832 68.9186 101.783 68.7192C101.739 68.5415 101.677 68.3221 101.59 68.1432L99.7925 69.0197C99.7801 68.9944 99.801 69.0361 99.8413 69.1992C99.8762 69.3405 99.9148 69.5268 99.9533 69.7477C100.03 70.1891 100.101 70.734 100.144 71.2712L102.138 71.1135ZM102.317 73.1633L102.137 71.1054L100.144 71.2793L100.324 73.3373L102.317 73.1633ZM99.6195 74.8474L101.626 74.2024L101.014 72.2983L99.0075 72.9434L99.6195 74.8474ZM96.5008 76.2515C97.1377 75.8073 98.5299 75.1711 99.5981 74.854L99.0289 72.9367C97.8206 73.2954 96.2175 74.0108 95.3568 74.6109L96.5008 76.2515ZM93.0911 76.9406C93.6335 77.106 94.1913 77.2625 94.8195 77.1209C95.3762 76.9954 95.9008 76.6474 96.4792 76.2661L95.3784 74.5963C94.6987 75.0444 94.5044 75.1417 94.3797 75.1698C94.3264 75.1818 94.2402 75.2001 93.6744 75.0276L93.0911 76.9406ZM89.8183 76.6462C90.4425 76.6462 91.1447 76.6828 91.7644 76.7416C92.4066 76.8025 92.8859 76.8806 93.1016 76.9438L93.6639 75.0244C93.2506 74.9033 92.6066 74.8125 91.9533 74.7505C91.2776 74.6864 90.5121 74.6462 89.8183 74.6462V76.6462ZM83.8937 78.9425C84.9903 77.9658 85.8222 77.4086 86.6694 77.0824C87.512 76.758 88.4494 76.6315 89.8075 76.6462L89.8291 74.6463C88.3416 74.6302 87.1224 74.7648 85.9507 75.216C84.7836 75.6654 83.7433 76.3982 82.5635 77.4489L83.8937 78.9425ZM82.3924 80.2665L83.89 78.9457L82.5672 77.4457L81.0695 78.7665L82.3924 80.2665ZM80.644 78.426L80.7339 79.5932L82.728 79.4397L82.6381 78.2725L80.644 78.426ZM82.7796 71.876C82.0752 72.9595 81.5134 74.1346 81.1414 75.2541C80.7741 76.3596 80.57 77.4767 80.6441 78.427L82.638 78.2715C82.5924 77.686 82.7178 76.8526 83.0394 75.8848C83.3563 74.9309 83.8429 73.9098 84.4564 72.9661L82.7796 71.876ZM93.9452 79.4943C94.3727 78.914 95.1709 78.1597 96.1209 77.441C97.0646 76.7272 98.0772 76.1098 98.8892 75.7685L98.1143 73.9247C97.0992 74.3513 95.9401 75.07 94.9144 75.846C93.895 76.617 92.9259 77.506 92.335 78.308L93.9452 79.4943ZM91.7914 86.1841C92.4161 82.2492 92.8972 80.8915 93.9401 79.5012L92.3402 78.3011C90.9868 80.1053 90.4495 81.8807 89.8161 85.8706L91.7914 86.1841ZM85.8636 94.6602C86.9733 94.0988 87.8675 93.6436 88.5675 93.2001C89.2826 92.7468 89.8556 92.2694 90.2991 91.6322C90.7391 91 91.003 90.28 91.2112 89.4203C91.4169 88.5712 91.5843 87.5118 91.7918 86.1815L89.8157 85.8732C89.6039 87.2305 89.4493 88.1984 89.2674 88.9495C89.0881 89.6899 88.899 90.1428 88.6576 90.4897C88.4196 90.8316 88.0828 91.1394 87.4969 91.5107C86.8957 91.8917 86.0976 92.3004 84.9608 92.8755L85.8636 94.6602ZM76.2461 104.805C77.5222 100.538 80.3945 97.4346 85.8646 94.6597L84.9598 92.876C79.1675 95.8144 75.8095 99.2843 74.3299 104.232L76.2461 104.805ZM74.9286 109.754C75.321 109.754 75.5554 109.986 75.6396 110.096C75.683 110.152 75.7071 110.199 75.7181 110.223C75.7299 110.248 75.7348 110.264 75.7353 110.265C75.7356 110.266 75.7286 110.243 75.7195 110.187C75.7108 110.133 75.7022 110.063 75.6949 109.974C75.6648 109.609 75.6661 109.066 75.7023 108.43C75.7753 107.15 75.9788 105.682 76.2446 104.81L74.3314 104.227C73.9981 105.321 73.7823 106.97 73.7055 108.317C73.6669 108.994 73.6607 109.641 73.7017 110.138C73.7214 110.377 73.7562 110.64 73.8284 110.868C73.8628 110.977 73.9274 111.15 74.0544 111.315C74.1875 111.488 74.4762 111.754 74.9286 111.754V109.754ZM76.1199 108.102C75.6499 108.645 75.2066 109.129 74.8716 109.472C74.7023 109.646 74.5713 109.773 74.4837 109.85C74.4377 109.891 74.4206 109.904 74.4257 109.9C74.427 109.899 74.4547 109.879 74.5014 109.855C74.513 109.849 74.6832 109.754 74.9286 109.754V111.754C75.1889 111.754 75.3799 111.652 75.4179 111.633C75.4909 111.595 75.5505 111.554 75.5889 111.527C75.6681 111.47 75.7461 111.404 75.8133 111.345C75.9522 111.221 76.1208 111.056 76.3035 110.869C76.6724 110.49 77.1426 109.976 77.6311 109.412L76.1199 108.102ZM83.0383 103.773C79.9893 104.652 78.1439 105.796 76.1239 108.098L77.6271 109.417C79.3813 107.418 80.8906 106.474 83.5926 105.694L83.0383 103.773ZM88.1004 103.749C86.8053 103.522 85.9728 103.388 85.2512 103.388C84.4865 103.388 83.8791 103.538 83.0461 103.771L83.5848 105.697C84.3992 105.469 84.7803 105.388 85.2512 105.388C85.7651 105.388 86.4153 105.484 87.7561 105.719L88.1004 103.749ZM95.0679 103.776C93.2496 104.325 91.633 104.352 88.0967 103.748L87.7598 105.719C91.4123 106.344 93.3901 106.371 95.6454 105.691L95.0679 103.776ZM102.791 95.3788C100.696 100.39 98.3851 102.761 95.0641 103.777L95.6493 105.69C99.7566 104.433 102.418 101.459 104.636 96.15L102.791 95.3788ZM107.239 89.3185C106.183 90.1273 105.359 90.9151 104.647 91.8874C103.941 92.8532 103.374 93.9633 102.789 95.3837L104.638 96.1451C105.192 94.801 105.688 93.8532 106.262 93.0681C106.831 92.2897 107.505 91.6337 108.455 90.9067L107.239 89.3185ZM108.435 88.5154C108.435 88.3263 108.496 88.2043 108.502 88.1922C108.516 88.164 108.521 88.1613 108.501 88.1881C108.463 88.2409 108.385 88.3315 108.26 88.4567C108.014 88.7029 107.656 89.0093 107.251 89.3098L108.443 90.9155C108.907 90.5709 109.343 90.2016 109.673 89.8718C109.836 89.709 109.993 89.5367 110.116 89.3677C110.178 89.2836 110.246 89.1803 110.302 89.0639C110.351 88.9637 110.435 88.7659 110.435 88.5154H108.435ZM107.94 88.077C108.121 88.2623 108.278 88.451 108.383 88.6007C108.436 88.6766 108.463 88.7244 108.472 88.7438C108.477 88.7528 108.47 88.7421 108.462 88.7146C108.455 88.6916 108.435 88.6198 108.435 88.5154H110.435C110.435 88.2287 110.329 87.9899 110.272 87.8713C110.201 87.7247 110.111 87.5824 110.022 87.4547C109.842 87.1974 109.611 86.9254 109.372 86.6807L107.94 88.077ZM101.453 77.3292C102.897 81.4258 105.486 85.7551 107.968 88.1051L109.343 86.6526C107.153 84.5795 104.71 80.5539 103.339 76.6642L101.453 77.3292ZM98.8908 75.7678C99.5325 75.4968 99.9482 75.3432 100.247 75.2791C100.527 75.2189 100.558 75.2707 100.524 75.2519C100.522 75.2509 100.624 75.3073 100.81 75.676C100.991 76.036 101.186 76.5573 101.45 77.3227L103.341 76.6708C103.081 75.9157 102.846 75.2736 102.596 74.7774C102.351 74.2899 102.023 73.7972 101.497 73.5044C100.939 73.1938 100.352 73.211 99.827 73.3236C99.3205 73.4323 98.744 73.6588 98.1128 73.9253L98.8908 75.7678ZM152.195 75.1573C152.069 75.3071 151.965 75.5014 151.896 75.6378C151.813 75.8001 151.724 75.9938 151.633 76.2018C151.451 76.6194 151.249 77.13 151.064 77.6361L152.943 78.323C153.117 77.8461 153.304 77.3738 153.467 77.0004C153.548 76.813 153.62 76.6592 153.678 76.546C153.749 76.4069 153.764 76.3978 153.729 76.44L152.195 75.1573ZM154.508 74.5979C154.103 74.5286 153.69 74.4951 153.31 74.5527C152.916 74.6123 152.476 74.785 152.165 75.1944L153.759 76.403C153.658 76.5359 153.547 76.5396 153.609 76.5302C153.686 76.5186 153.858 76.5158 154.171 76.5694L154.508 74.5979ZM158.084 74.7679C157.362 74.7679 156.591 74.7528 155.931 74.7229C155.245 74.6918 154.752 74.6474 154.541 74.604L154.139 76.5633C154.527 76.6428 155.172 76.6905 155.841 76.7208C156.536 76.7524 157.338 76.7679 158.084 76.7679V74.7679ZM162.438 75.9159C161.942 75.4691 161.493 75.0754 160.744 74.8955C160.113 74.7439 159.286 74.7534 158.072 74.768L158.096 76.7679C159.427 76.7518 159.948 76.7612 160.276 76.8401C160.486 76.8905 160.606 76.9576 161.099 77.4016L162.438 75.9159ZM170.759 77.9982C167.75 78.8248 164.893 78.126 162.437 75.9155L161.099 77.402C164.035 80.0446 167.588 80.9431 171.289 79.9267L170.759 77.9982ZM173.836 77.8957C173.668 77.7234 173.484 77.6544 173.4 77.6275C173.303 77.5961 173.216 77.5831 173.159 77.5768C173.045 77.5641 172.936 77.5664 172.853 77.5708C172.681 77.58 172.479 77.6074 172.273 77.643C171.853 77.7155 171.316 77.8395 170.75 78.0007L171.298 79.9242C171.81 79.7782 172.277 79.6719 172.613 79.6138C172.785 79.5842 172.899 79.5712 172.96 79.5679C172.994 79.5661 172.98 79.5692 172.938 79.5645C172.917 79.5622 172.861 79.555 172.788 79.5313C172.728 79.5121 172.561 79.4528 172.404 79.292L173.836 77.8957ZM167.723 85.5495C169.19 84.9946 170.954 83.5695 172.215 82.2485C172.855 81.5782 173.423 80.8754 173.783 80.2497C173.96 79.943 174.122 79.595 174.191 79.2413C174.257 78.8988 174.268 78.3383 173.836 77.8957L172.404 79.292C172.175 79.0568 172.237 78.8101 172.227 78.8619C172.219 78.9025 172.178 79.0291 172.05 79.2513C171.801 79.6833 171.353 80.2553 170.768 80.8674C169.581 82.1112 168.065 83.2817 167.015 83.679L167.723 85.5495ZM150.903 81.075C152.138 83.4994 154.957 85.1502 158.019 85.9361C161.114 86.7305 164.7 86.7102 167.728 85.5478L167.011 83.6806C164.438 84.6684 161.285 84.7095 158.516 83.9989C155.714 83.2796 153.547 81.8588 152.685 80.1672L150.903 81.075ZM151.061 77.6439C150.789 78.4075 150.585 79.008 150.542 79.5295C150.49 80.1642 150.674 80.6232 150.902 81.0734L152.686 80.1689C152.525 79.8512 152.528 79.788 152.536 79.6932C152.553 79.4851 152.648 79.1488 152.945 78.3152L151.061 77.6439ZM140.503 92.9538C144.102 90.9642 147.72 87.5311 150.165 83.8811L148.504 82.7679C146.216 86.1827 142.826 89.3843 139.535 91.2035L140.503 92.9538ZM139.85 93.4051C139.811 93.5114 139.768 93.5465 139.809 93.4986C139.837 93.4659 139.888 93.4137 139.966 93.3463C140.12 93.2117 140.326 93.0613 140.536 92.9349L139.503 91.2224C139.203 91.4032 138.9 91.6214 138.65 91.84C138.525 91.9492 138.4 92.0699 138.291 92.1965C138.196 92.3079 138.056 92.4889 137.972 92.7181L139.85 93.4051ZM143.312 97.6583C142.577 97.0654 141.635 95.9747 140.898 94.9221C140.533 94.4012 140.242 93.9231 140.061 93.5551C139.969 93.3687 139.92 93.2389 139.899 93.1629C139.864 93.0379 139.933 93.1714 139.853 93.3958L137.968 92.7274C137.829 93.1207 137.918 93.5067 137.972 93.6993C138.039 93.9411 138.146 94.1943 138.266 94.4379C138.508 94.93 138.861 95.5001 139.26 96.0696C140.05 97.1979 141.116 98.457 142.058 99.2156L143.312 97.6583ZM152.518 99.8638C149.65 99.9254 147.977 99.857 146.706 99.5433C145.494 99.2439 144.594 98.7069 143.318 97.6629L142.052 99.2109C143.442 100.348 144.609 101.086 146.227 101.485C147.787 101.87 149.708 101.925 152.561 101.863L152.518 99.8638ZM152.686 99.8611L152.524 99.8637L152.555 101.863L152.718 101.861L152.686 99.8611ZM158.836 100.519C158.136 100.111 157.362 99.9497 156.416 99.8822C155.486 99.8159 154.281 99.8358 152.686 99.8611L152.718 101.861C154.352 101.835 155.451 101.818 156.274 101.877C157.081 101.935 157.508 102.06 157.829 102.247L158.836 100.519ZM161.456 103.414C160.524 102.108 159.829 101.097 158.836 100.519L157.829 102.247C158.364 102.558 158.793 103.125 159.828 104.575L161.456 103.414ZM161.501 103.477L161.456 103.414L159.828 104.576L159.873 104.639L161.501 103.477ZM168.148 109.586C165.602 108.295 163.651 106.516 161.503 103.48L159.871 104.636C162.156 107.866 164.338 109.896 167.244 111.37L168.148 109.586ZM176.417 111.27C173.733 111.663 171.337 111.206 168.149 109.586L167.243 111.369C170.705 113.128 173.52 113.716 176.707 113.249L176.417 111.27ZM178.718 110.803C178.79 110.757 178.797 110.77 178.622 110.823C178.486 110.864 178.299 110.913 178.069 110.966C177.611 111.071 177.023 111.181 176.417 111.27L176.707 113.249C177.359 113.153 178 113.033 178.515 112.915C178.772 112.857 179.008 112.796 179.204 112.737C179.36 112.689 179.606 112.61 179.798 112.487L178.718 110.803ZM176.26 110.341C177.545 111.047 178.199 111.448 178.481 111.692C178.654 111.841 178.481 111.76 178.443 111.478C178.417 111.292 178.464 111.117 178.542 110.987C178.576 110.93 178.61 110.892 178.633 110.869C178.655 110.847 178.67 110.836 178.672 110.835L179.844 112.455C180.079 112.285 180.515 111.873 180.424 111.209C180.355 110.699 179.993 110.355 179.788 110.178C179.314 109.768 178.454 109.264 177.223 108.588L176.26 110.341ZM170.858 104.242C171.7 106.59 173.918 109.04 176.256 110.338L177.227 108.59C175.252 107.493 173.397 105.397 172.741 103.567L170.858 104.242ZM169.876 99.1192C170.058 100.958 170.487 103.24 170.862 104.251L172.737 103.558C172.453 102.788 172.043 100.708 171.866 98.9219L169.876 99.1192ZM166.145 89.9493C167.359 90.994 168.126 91.9631 168.675 93.2807C169.238 94.6353 169.594 96.4132 169.876 99.1241L171.866 98.917C171.579 96.1604 171.201 94.1448 170.521 92.5123C169.826 90.8427 168.841 89.6309 167.45 88.4333L166.145 89.9493ZM159.379 86.9823C162.254 87.4786 164.331 88.4272 166.155 89.9574L167.44 88.4253C165.31 86.6381 162.894 85.5594 159.719 85.0114L159.379 86.9823ZM151.879 83.7016C154.186 85.5741 156.116 86.4033 159.374 86.9814L159.723 85.0122C156.751 84.4846 155.147 83.7779 153.14 82.1488L151.879 83.7016ZM150.653 82.5737C150.527 82.5737 150.433 82.5494 150.395 82.5387C150.348 82.5258 150.314 82.5122 150.296 82.5047C150.276 82.4966 150.262 82.4897 150.254 82.4861C150.246 82.4822 150.241 82.4795 150.24 82.4789C150.24 82.4788 150.259 82.4894 150.303 82.5183C150.388 82.5737 150.514 82.6621 150.677 82.781C151 83.0165 151.431 83.3457 151.888 83.7084L153.131 82.142C152.66 81.7675 152.207 81.4209 151.856 81.165C151.682 81.0382 151.524 80.9268 151.397 80.844C151.336 80.8039 151.267 80.7607 151.2 80.7242C151.168 80.7065 151.119 80.6808 151.06 80.6568C151.041 80.6487 150.873 80.5737 150.653 80.5737V82.5737ZM150.169 83.8757C150.475 83.4119 150.771 82.9915 150.995 82.693C151.109 82.5414 151.195 82.4346 151.249 82.3723C151.279 82.3384 151.283 82.337 151.267 82.3516C151.26 82.3574 151.226 82.3887 151.17 82.4245C151.141 82.4428 151.09 82.4737 151.019 82.5023C150.955 82.5284 150.825 82.5737 150.653 82.5737V80.5737C150.34 80.5737 150.122 80.7204 150.09 80.7413C150.015 80.7892 149.958 80.8386 149.925 80.8681C149.857 80.9301 149.794 80.9985 149.745 81.0544C149.642 81.1716 149.522 81.3239 149.397 81.491C149.142 81.8299 148.823 82.2849 148.5 82.7733L150.169 83.8757ZM107.792 90.0272C105.763 91.4261 104.008 93.8499 102.937 96.5653L104.797 97.2996C105.762 94.8546 107.302 92.7938 108.927 91.674L107.792 90.0272ZM110.606 88.8677C110.35 88.8677 110.093 88.9284 109.887 88.9902C109.666 89.0565 109.433 89.1467 109.202 89.2487C108.742 89.4524 108.241 89.7261 107.803 90.02L108.917 91.6812C109.257 91.4529 109.655 91.2352 110.011 91.0779C110.188 90.9994 110.342 90.9418 110.463 90.9055C110.599 90.8646 110.638 90.8677 110.606 90.8677V88.8677ZM115.61 92.8008C115.675 92.3389 115.453 91.9673 115.352 91.8117C115.219 91.6079 115.046 91.4146 114.874 91.2438C114.524 90.8971 114.062 90.5309 113.587 90.2017C113.11 89.8705 112.588 89.5545 112.105 89.3167C111.864 89.1978 111.618 89.0915 111.383 89.0129C111.162 88.9391 110.887 88.8677 110.606 88.8677V90.8677C110.572 90.8677 110.611 90.8635 110.749 90.9097C110.873 90.9513 111.033 91.0179 111.221 91.1108C111.597 91.2962 112.034 91.5581 112.447 91.845C112.864 92.134 113.226 92.4263 113.466 92.6642C113.588 92.7856 113.652 92.8662 113.676 92.9034C113.732 92.9888 113.588 92.8256 113.629 92.5249L115.61 92.8008ZM114.906 95.1707C115.074 94.684 115.236 94.1877 115.36 93.7783C115.471 93.4117 115.585 93.0116 115.613 92.7838L113.627 92.5419C113.629 92.5265 113.622 92.5725 113.584 92.7177C113.551 92.8438 113.504 93.0072 113.446 93.1984C113.33 93.5799 113.177 94.0513 113.016 94.5167L114.906 95.1707ZM114.332 97.8539C114.332 97.3301 114.567 96.0983 114.9 95.1871L113.022 94.5003C112.636 95.555 112.332 97.0262 112.332 97.8539H114.332ZM111.672 102.186C112.736 101.126 113.417 100.428 113.806 99.8326C114.02 99.5045 114.164 99.1837 114.245 98.8279C114.322 98.49 114.332 98.1614 114.332 97.8539H112.332C112.332 98.1301 112.32 98.2737 112.295 98.384C112.274 98.4765 112.235 98.58 112.131 98.7395C111.884 99.1192 111.382 99.6505 110.259 100.77L111.672 102.186ZM108.902 106.362C109.201 105.318 109.37 104.843 109.683 104.364C110.018 103.853 110.542 103.299 111.667 102.191L110.264 100.766C109.173 101.839 108.484 102.545 108.01 103.269C107.514 104.027 107.279 104.765 106.979 105.81L108.902 106.362ZM108.425 109.753C108.326 108.867 108.438 107.938 108.9 106.368L106.981 105.803C106.485 107.49 106.296 108.711 106.437 109.975L108.425 109.753ZM107.787 112.416C108.128 112.216 108.28 111.902 108.348 111.719C108.423 111.516 108.458 111.302 108.476 111.11C108.511 110.722 108.488 110.251 108.423 109.739L106.439 109.989C106.494 110.429 106.501 110.741 106.484 110.929C106.475 111.025 106.464 111.048 106.472 111.024C106.474 111.02 106.539 110.829 106.776 110.691L107.787 112.416ZM102.749 107.549C103.298 108.742 104.126 110.004 104.887 110.932C105.265 111.393 105.658 111.809 106.021 112.098C106.197 112.238 106.416 112.39 106.661 112.484C106.878 112.568 107.365 112.698 107.834 112.387L106.728 110.72C107.071 110.493 107.38 110.618 107.381 110.618C107.41 110.629 107.374 110.619 107.266 110.533C107.061 110.37 106.771 110.075 106.433 109.664C105.764 108.848 105.034 107.73 104.565 106.712L102.749 107.549ZM101.909 102.022C101.85 103.478 101.82 104.383 101.934 105.157C102.054 105.972 102.329 106.611 102.744 107.539L104.57 106.722C104.146 105.775 103.987 105.371 103.912 104.865C103.832 104.318 103.846 103.625 103.907 102.102L101.909 102.022ZM102.939 96.5598C102.254 98.265 102.032 99.5213 101.909 102.013L103.907 102.111C104.024 99.7496 104.221 98.7329 104.795 97.305L102.939 96.5598ZM116.078 104.408C115.482 103.402 115.083 101.66 115.007 99.7413C114.932 97.834 115.184 95.9564 115.717 94.7159L113.879 93.926C113.185 95.5421 112.927 97.7498 113.009 99.8203C113.09 101.88 113.516 104.008 114.357 105.428L116.078 104.408ZM119.097 108.236C117.737 106.624 116.382 104.901 116.069 104.394L114.366 105.443C114.772 106.102 116.233 107.943 117.568 109.525L119.097 108.236ZM121.759 117.418C122.243 115.489 122.534 114.103 122.114 112.696C121.711 111.344 120.682 110.085 119.092 108.23L117.573 109.531C119.248 111.485 119.941 112.406 120.197 113.267C120.437 114.07 120.323 114.927 119.819 116.93L121.759 117.418ZM121.07 123.501C121.07 120.967 121.241 119.6 121.762 117.405L119.816 116.943C119.258 119.293 119.07 120.815 119.07 123.501H121.07ZM123.056 131.437C122.265 130.109 121.788 129.042 121.497 127.874C121.203 126.696 121.085 125.366 121.07 123.494L119.07 123.509C119.085 125.446 119.207 126.957 119.556 128.359C119.909 129.772 120.481 131.023 121.338 132.46L123.056 131.437ZM126.423 136.257C126.62 136.055 126.854 136.004 126.996 136C127.062 135.998 127.113 136.006 127.141 136.012C127.17 136.017 127.187 136.024 127.191 136.025C127.195 136.026 127.175 136.019 127.125 135.991C127.078 135.964 127.016 135.925 126.941 135.871C126.627 135.649 126.193 135.267 125.704 134.774C124.726 133.786 123.664 132.486 123.062 131.447L121.332 132.45C122.047 133.684 123.231 135.118 124.283 136.18C124.809 136.712 125.335 137.185 125.784 137.503C126.001 137.656 126.254 137.813 126.513 137.906C126.675 137.965 127.341 138.18 127.855 137.653L126.423 136.257ZM126.131 135.738C126.2 135.941 126.245 136.1 126.274 136.225C126.303 136.351 126.311 136.425 126.312 136.46C126.313 136.494 126.307 136.47 126.325 136.417C126.346 136.356 126.382 136.299 126.423 136.257L127.855 137.653C128.208 137.292 128.324 136.843 128.311 136.398C128.298 136.004 128.183 135.566 128.027 135.101L126.131 135.738ZM125.69 131.488C125.69 132.276 125.736 133.131 125.811 133.875C125.882 134.591 125.987 135.294 126.128 135.729L128.03 135.11C127.962 134.9 127.872 134.389 127.801 133.677C127.733 132.993 127.69 132.204 127.69 131.488H125.69ZM130.606 121.217C128.644 123.29 127.377 124.809 126.628 126.352C125.858 127.94 125.674 129.476 125.69 131.495L127.69 131.48C127.675 129.599 127.85 128.416 128.428 127.224C129.028 125.987 130.097 124.665 132.059 122.592L130.606 121.217ZM134.979 113.37C134.853 114.8 134.568 115.88 133.945 117.015C133.305 118.181 132.286 119.449 130.607 121.215L132.057 122.593C133.764 120.796 134.93 119.377 135.699 117.978C136.483 116.548 136.827 115.186 136.971 113.545L134.979 113.37ZM133.191 105.851C134.637 108.787 135.168 111.212 134.979 113.37L136.971 113.544C137.202 110.911 136.535 108.114 134.985 104.968L133.191 105.851ZM130.934 98.0764C131.04 99.6075 131.181 100.72 131.522 101.885C131.859 103.038 132.38 104.203 133.191 105.851L134.985 104.968C134.179 103.33 133.726 102.298 133.442 101.324C133.161 100.362 133.032 99.4166 132.929 97.9374L130.934 98.0764ZM130.754 95.3073L130.934 98.0718L132.929 97.942L132.75 95.1776L130.754 95.3073ZM127.85 96.2117L131.744 96.2424L131.76 94.2425L127.866 94.2118L127.85 96.2117ZM118.002 94.6195C121.537 95.8598 123.626 96.1803 127.85 96.2117L127.865 94.2118C123.823 94.1817 121.958 93.8879 118.664 92.7323L118.002 94.6195ZM115.817 93.9387C115.725 93.9387 115.712 93.9238 115.895 93.9689C116.029 94.0018 116.212 94.0519 116.433 94.1169C116.873 94.2465 117.436 94.4262 118.009 94.6222L118.656 92.7297C118.061 92.5263 117.471 92.3375 116.997 92.1982C116.762 92.1289 116.547 92.0696 116.372 92.0266C116.247 91.9958 116.013 91.9387 115.817 91.9387V93.9387ZM115.717 94.7153C115.858 94.3865 116.017 94.1104 116.147 93.9342C116.178 93.8919 116.204 93.8597 116.225 93.8365C116.246 93.8125 116.256 93.8037 116.255 93.8051C116.253 93.8061 116.247 93.8118 116.234 93.8203C116.223 93.8287 116.202 93.8423 116.172 93.8574C116.121 93.8837 115.995 93.9387 115.817 93.9387V91.9387C115.378 91.9387 115.068 92.1879 114.951 92.2883C114.792 92.4252 114.652 92.5908 114.535 92.7496C114.298 93.0725 114.068 93.4876 113.879 93.9267L115.717 94.7153ZM136.448 92.6465C135.434 92.9066 134.54 93.2407 133.835 93.631C133.166 94.0014 132.519 94.5033 132.219 95.173L134.045 95.989C134.075 95.9215 134.252 95.6862 134.803 95.3808C135.319 95.0954 136.043 94.8151 136.945 94.5838L136.448 92.6465ZM139.722 94.4055C139.539 94.0297 139.37 93.6915 139.204 93.4253C139.039 93.1623 138.81 92.8582 138.456 92.6574C138.073 92.44 137.686 92.4209 137.365 92.4538C137.072 92.4838 136.747 92.568 136.443 92.6479L136.95 94.5824C137.29 94.4934 137.459 94.4547 137.569 94.4434C137.65 94.4351 137.574 94.4563 137.468 94.3963C137.392 94.3529 137.406 94.3233 137.509 94.4874C137.61 94.6484 137.733 94.89 137.924 95.2821L139.722 94.4055ZM141.631 96.9985C140.882 96.1715 140.018 94.9865 139.715 94.3903L137.932 95.2973C138.348 96.114 139.34 97.4478 140.149 98.3409L141.631 96.9985ZM143.446 101.487C143.389 100.418 143.346 99.6458 143.066 98.962C142.785 98.2714 142.284 97.7258 141.634 97.0019L140.146 98.3375C140.874 99.1494 141.092 99.4178 141.215 99.7178C141.34 100.025 141.386 100.42 141.449 101.593L143.446 101.487ZM144.118 105.347C143.822 104.437 143.532 102.682 143.445 101.469L141.45 101.611C141.543 102.917 141.852 104.847 142.215 105.965L144.118 105.347ZM146.517 108.705C145.617 107.859 145.139 107.36 144.822 106.911C144.526 106.49 144.346 106.079 144.121 105.358L142.212 105.954C142.466 106.768 142.721 107.402 143.188 108.064C143.635 108.697 144.25 109.319 145.147 110.163L146.517 108.705ZM144.662 112.889C145.528 112.943 146.253 112.969 146.793 112.928C147.061 112.907 147.348 112.866 147.608 112.771C147.863 112.678 148.238 112.478 148.435 112.044C148.635 111.605 148.534 111.187 148.429 110.929C148.323 110.67 148.157 110.43 147.991 110.223C147.656 109.802 147.144 109.295 146.517 108.705L145.147 110.163C145.779 110.756 146.192 111.174 146.427 111.469C146.483 111.539 146.522 111.594 146.547 111.634C146.574 111.675 146.58 111.692 146.578 111.686C146.576 111.681 146.556 111.633 146.551 111.552C146.545 111.463 146.557 111.343 146.614 111.216C146.672 111.09 146.753 111.005 146.818 110.955C146.878 110.908 146.921 110.893 146.922 110.893C146.923 110.892 146.903 110.899 146.851 110.909C146.801 110.918 146.732 110.927 146.64 110.934C146.255 110.963 145.657 110.947 144.786 110.893L144.662 112.889ZM133.254 104.409C134.559 107.055 136.116 109.1 138.017 110.526C139.929 111.96 142.134 112.724 144.659 112.889L144.789 110.893C142.611 110.751 140.787 110.103 139.217 108.926C137.637 107.741 136.258 105.977 135.047 103.524L133.254 104.409ZM131.803 98.7448C131.803 99.8758 131.821 100.646 132.037 101.479C132.246 102.287 132.631 103.116 133.25 104.401L135.051 103.532C134.412 102.206 134.123 101.561 133.973 100.979C133.829 100.421 133.803 99.8867 133.803 98.7448H131.803ZM132.209 95.1954C132.055 95.5652 131.964 96.1681 131.905 96.7247C131.842 97.3319 131.803 98.0501 131.803 98.7448H133.803C133.803 98.1187 133.838 97.47 133.895 96.933C133.923 96.6643 133.955 96.433 133.988 96.252C134.005 96.1617 134.021 96.0901 134.035 96.0365C134.049 95.9791 134.058 95.96 134.055 95.9666L132.209 95.1954Z" fill="url(#paint0_linear)" mask="url(#path-1-inside-1)"/>
</g>
<g filter="url(#filter1_b)">
<rect x="3" y="60" width="248" height="24" fill="white" fill-opacity="0.4"/>
</g>
<path d="M102.879 65.4V78H100.575V67.38H95.6066L95.4986 70.53C95.4386 72.294 95.2946 73.728 95.0666 74.832C94.8386 75.924 94.4726 76.758 93.9686 77.334C93.4646 77.898 92.7686 78.18 91.8806 78.18C91.5686 78.18 91.1426 78.12 90.6026 78L90.7646 75.966C90.9206 76.014 91.1006 76.038 91.3046 76.038C92.0366 76.038 92.5526 75.606 92.8526 74.742C93.1646 73.866 93.3566 72.492 93.4286 70.62L93.6086 65.4H102.879ZM115.171 73.248C115.171 73.404 115.159 73.626 115.135 73.914H107.593C107.725 74.622 108.067 75.186 108.619 75.606C109.183 76.014 109.879 76.218 110.707 76.218C111.763 76.218 112.633 75.87 113.317 75.174L114.523 76.56C114.091 77.076 113.545 77.466 112.885 77.73C112.225 77.994 111.481 78.126 110.653 78.126C109.597 78.126 108.667 77.916 107.863 77.496C107.059 77.076 106.435 76.494 105.991 75.75C105.559 74.994 105.343 74.142 105.343 73.194C105.343 72.258 105.553 71.418 105.973 70.674C106.405 69.918 106.999 69.33 107.755 68.91C108.511 68.49 109.363 68.28 110.311 68.28C111.247 68.28 112.081 68.49 112.813 68.91C113.557 69.318 114.133 69.9 114.541 70.656C114.961 71.4 115.171 72.264 115.171 73.248ZM110.311 70.08C109.591 70.08 108.979 70.296 108.475 70.728C107.983 71.148 107.683 71.712 107.575 72.42H113.029C112.933 71.724 112.639 71.16 112.147 70.728C111.655 70.296 111.043 70.08 110.311 70.08ZM124.895 70.296H121.529V78H119.279V70.296H115.895V68.388H124.895V70.296ZM126.527 68.388H128.777V72.294H133.619V68.388H135.869V78H133.619V74.202H128.777V78H126.527V68.388ZM138.884 68.388H141.134V74.724L146.444 68.388H148.496V78H146.246V71.664L140.954 78H138.884V68.388ZM151.523 68.388H153.773V74.724L159.083 68.388H161.135V78H158.885V71.664L153.593 78H151.523V68.388ZM156.185 67.254C155.213 67.254 154.469 67.032 153.953 66.588C153.449 66.132 153.191 65.472 153.179 64.608H154.673C154.685 65.04 154.817 65.382 155.069 65.634C155.333 65.886 155.699 66.012 156.167 66.012C156.623 66.012 156.983 65.886 157.247 65.634C157.523 65.382 157.667 65.04 157.679 64.608H159.209C159.197 65.472 158.933 66.132 158.417 66.588C157.901 67.032 157.157 67.254 156.185 67.254Z" fill="#242424"/>
<defs>
<filter id="filter0_d" x="0" y="0" width="260" height="150" filterUnits="userSpaceOnUse" color-interpolation-filters="sRGB">
<feFlood flood-opacity="0" result="BackgroundImageFix"/>
<feColorMatrix in="SourceAlpha" type="matrix" values="0 0 0 0 0 0 0 0 0 0 0 0 0 0 0 0 0 0 127 0" result="hardAlpha"/>
<feOffset dx="3" dy="3"/>
<feGaussianBlur stdDeviation="2.5"/>
<feColorMatrix type="matrix" values="0 0 0 0 0 0 0 0 0 0 0 0 0 0 0 0 0 0 0.06 0"/>
<feBlend mode="normal" in2="BackgroundImageFix" result="effect1_dropShadow"/>
<feBlend mode="normal" in="SourceGraphic" in2="effect1_dropShadow" result="shape"/>
</filter>
<filter id="filter1_b" x="-4" y="53" width="262" height="38" filterUnits="userSpaceOnUse" color-interpolation-filters="sRGB">
<feFlood flood-opacity="0" result="BackgroundImageFix"/>
<feGaussianBlur in="BackgroundImage" stdDeviation="3.5"/>
<feComposite in2="SourceAlpha" operator="in" result="effect1_backgroundBlur"/>
<feBlend mode="normal" in="SourceGraphic" in2="effect1_backgroundBlur" result="shape"/>
</filter>
<linearGradient id="paint0_linear" x1="336" y1="2" x2="253.036" y2="184.267" gradientUnits="userSpaceOnUse">
<stop stop-color="white" stop-opacity="0.6"/>
<stop offset="1" stop-color="white" stop-opacity="0.4"/>
</linearGradient>
</defs>
</svg>
