<svg width="250" height="140" viewBox="0 0 250 140" fill="none" xmlns="http://www.w3.org/2000/svg">
<mask id="path-1-inside-1_1633:2155" fill="white">
<path fill-rule="evenodd" clip-rule="evenodd" d="M25 0C11.1929 0 0 11.1929 0 25V115C0 128.807 11.1929 140 25 140H225C238.807 140 250 128.807 250 115V25C250 11.1929 238.807 0 225 0H25ZM98.0021 6.77566C97.1035 5.39342 96.3547 4.2262 96.3547 4.16477C96.3547 3.48901 100.758 5.02482 102.825 6.40706C106.898 9.1101 109.384 13.1647 110.493 18.9086C111.331 23.3318 111.87 23.9461 116.693 25.8198C120.946 27.4785 122.773 29.0757 124.361 32.3624C125.469 34.6968 126.128 38.4135 125.469 38.8435C125.289 38.9357 124.121 39.1814 122.833 39.335C119.239 39.7957 116.034 40.8094 112.919 42.4373C111.361 43.2667 110.043 43.9424 109.953 43.9424C109.864 43.9424 109.414 43.0516 108.935 41.9766C107.917 39.6114 106.539 37.9835 103.993 36.1098C101.626 34.3896 100.039 32.5467 98.9007 30.2429C98.062 28.5843 98.0021 28.1849 98.032 25.359C98.032 22.5639 98.1219 22.0417 99.1703 19.3694C101.207 14.0861 100.938 11.1988 98.0021 6.77566ZM154.313 4.68651C154.271 4.83751 154.155 5.35208 154.017 5.96426L154.017 5.96481C153.959 6.22418 153.896 6.50106 153.834 6.77522C153.145 10.0619 151.348 12.8263 148.982 14.2393C148.293 14.6693 146.585 15.4065 145.178 15.9287C141.044 17.4338 140.385 17.8024 138.678 19.4611C135.802 22.2563 135.353 23.6078 135.023 30.4575C134.784 35.3107 134.724 35.6793 133.855 37.6451C133.316 38.7817 132.897 39.826 132.897 39.9489C132.897 40.0717 133.945 40.6246 135.233 41.1775C138.678 42.6519 140.864 44.1263 143.59 46.7986C145.657 48.8566 146.166 49.1945 146.795 49.0409C147.724 48.7952 149.82 46.1536 150.839 43.942C151.528 42.4676 151.618 41.884 151.618 39.181C151.588 36.6622 151.468 35.71 150.809 33.8056C149.82 30.9183 149.611 29.0446 150.15 27.7238C150.359 27.1709 151.378 25.7886 152.366 24.6521C155.362 21.2733 157.159 16.758 157.159 12.6113C157.159 8.9868 154.912 2.75138 154.313 4.68651ZM125.976 19.8623C125.496 19.2787 125.107 18.6644 125.107 18.4801C125.107 17.4664 128.013 18.8487 130.289 20.9374C133.194 23.579 134.393 26.6199 134.393 31.2581C134.393 34.2376 133.794 36.4491 132.476 38.1693L131.487 39.4901L129.271 39.3979C128.043 39.3365 126.874 39.1522 126.695 38.9679C126.455 38.7836 126.305 37.9542 126.305 37.002C126.305 36.0805 126.036 34.514 125.676 33.5004L125.047 31.6267L125.856 29.8758C126.844 27.7871 127.384 24.4083 127.084 22.3503C126.934 21.3981 126.575 20.5381 125.976 19.8623ZM91.9515 34.39C90.0046 35.1272 88.5668 35.9872 88.5668 36.4172C88.5668 36.6323 89.6152 37.0009 90.9331 37.308C94.4676 38.0759 95.9653 39.4274 98.4813 44.1885C98.8408 44.8335 99.4099 45.2328 100.458 45.6014C101.237 45.8779 102.615 46.5844 103.454 47.168C104.322 47.7516 105.131 48.243 105.281 48.243C105.401 48.243 106.239 47.5366 107.108 46.6458C108.576 45.1714 108.695 44.9564 108.546 43.8813C108.126 40.6254 105.041 36.9394 101.237 35.1272C99.2002 34.1442 98.5712 33.9907 96.2049 33.8985C94.1082 33.8064 93.1796 33.9292 91.9515 34.39ZM152.519 44.22C157.491 42.9299 160.067 40.7798 161.056 37.0938C161.445 35.7423 161.775 35.6502 162.374 36.7867C164.47 41.0562 163.122 46.4623 158.959 50.5169C156.263 53.1277 154.346 54.1107 151.68 54.3257C149.314 54.51 149.074 54.3257 147.756 51.8377L146.858 50.179L148.655 48.3667C149.643 47.3838 150.662 46.0937 150.902 45.5408C151.231 44.7729 151.59 44.4657 152.519 44.22ZM120.435 40.687C108.633 43.4515 100.576 53.0657 100.037 65.0143C99.4375 77.6695 107.585 88.6352 119.896 91.7683C122.921 92.5362 128.432 92.444 131.547 91.584C137.358 89.9867 142.48 86.4236 146.135 81.4169C147.423 79.666 149.28 75.6115 150.029 72.9699C150.987 69.5296 150.987 63.3556 150.029 59.6697C148.741 54.6322 145.476 49.4104 141.522 46.0931C139.365 44.2808 134.483 41.7006 131.847 40.9941C129.361 40.3184 122.801 40.1341 120.435 40.687ZM88.5962 48.2433C90.1538 47.3526 92.1606 46.3697 93.0592 46.0625C95.9048 45.1103 98.7204 45.4482 101.925 47.0454C105.011 48.6119 105.041 48.6734 103.243 51.4993C101.506 54.2945 100.158 57.6425 99.619 60.5299C99.4393 61.6357 99.1697 62.9258 99.0499 63.4479C99.0371 63.5098 99.0263 63.5678 99.0162 63.622L99.0162 63.6221C98.9794 63.8195 98.9519 63.9676 98.8701 64.0739C98.6252 64.3925 97.8939 64.3372 94.9725 64.1162L94.2574 64.0623C92.1007 63.878 91.2321 63.9701 88.5662 64.6459C85.0318 65.5366 83.0548 65.6288 81.048 65.0145C77.6034 63.9394 76.1956 62.6493 73.2302 57.919C70.0851 52.9122 67.7188 51.3764 62.8065 51.1C61.3987 51.0078 60.1406 50.8235 60.0208 50.7007C59.7213 50.4242 62.7166 48.2433 64.4838 47.4754C67.7188 46.0318 71.6127 45.6939 74.9375 46.5539C75.926 46.7997 78.0826 47.7212 79.7001 48.5812C83.624 50.6392 84.5825 50.6085 88.5962 48.2433ZM165.844 47.6606C163.807 48.0599 161.141 49.565 158.954 51.5001C156.289 53.8346 154.881 54.6332 152.514 55.1554C151.406 55.3704 150.358 55.7083 150.208 55.8619C150.028 56.0462 150.178 56.8448 150.537 57.9506C151.496 60.9301 151.885 64.5239 151.646 68.8549L151.436 72.7866L152.514 73.0016C154.611 73.4009 158.116 72.9709 159.943 72.1108C162.429 70.9436 162.998 70.4214 165.844 66.6126L166.139 66.2158L166.139 66.2157L166.139 66.2156C167.845 63.9249 168.643 62.8527 169.71 62.3471C170.648 61.9022 171.795 61.896 173.951 61.8843L174.32 61.8823C180.521 61.8516 183.756 60.6229 187.41 56.8448C189.267 54.9404 191.364 51.5616 190.944 51.1623C190.825 51.0394 189.746 51.408 188.548 51.9609C186.511 52.9438 186.182 53.0052 183.216 53.0052C180.341 53.0052 179.922 52.9131 178.424 52.1145C177.525 51.623 176.207 50.8244 175.489 50.3329C172.194 47.9985 168.719 47.0463 165.844 47.6606ZM81.618 70.421C83.2355 67.8715 85.5718 66.3357 89.6155 65.0764C92.8205 64.0934 97.8526 64.9228 98.6913 66.5815C98.8411 66.8886 99.0508 68.0558 99.1406 69.1924L99.3203 71.2503L97.3135 71.8954C96.1753 72.2333 94.6776 72.909 93.9288 73.4312C92.6707 74.2605 92.491 74.322 91.3827 73.9841C90.7537 73.7998 89.1362 73.6462 87.8183 73.6462C84.9727 73.6155 83.505 74.1684 81.2286 76.1957L79.7309 77.5165L79.6411 76.3493C79.5213 74.8134 80.3 72.4483 81.618 70.421ZM96.5018 72.8466C94.6746 73.6145 92.1585 75.5189 91.1401 76.9011C89.942 78.4984 89.4328 80.0649 88.8038 84.0273C87.9651 89.4027 87.9052 89.4949 83.4122 91.7679C77.781 94.6245 74.6658 97.9111 73.288 102.519C72.6889 104.484 72.4493 108.754 72.9286 108.754C73.0484 108.754 73.917 107.863 74.8755 106.757C76.7626 104.607 78.4399 103.563 81.3155 102.734C82.9629 102.273 83.2924 102.273 85.9283 102.734C89.5226 103.348 91.3198 103.348 93.3567 102.734C97.0709 101.597 99.557 98.9248 101.714 93.7644C102.852 90.9999 103.84 89.6484 105.847 88.1126C106.716 87.4676 107.435 86.7611 107.435 86.5154C107.435 86.3003 107.075 85.8089 106.656 85.3789C104.32 83.1673 101.803 78.9899 100.396 74.9967C99.3473 71.9558 99.0478 71.7715 96.5018 72.8466ZM150.003 75.9795C150.363 74.9966 150.782 74.0137 150.962 73.7987C151.172 73.5222 151.621 73.4608 152.34 73.5836C152.939 73.7065 154.616 73.7679 156.084 73.7679C158.63 73.7372 158.78 73.7679 159.768 74.6587C162.464 77.0853 165.669 77.8839 169.024 76.9624C170.102 76.6553 171.031 76.5017 171.12 76.5938C171.929 77.4232 167.885 81.662 165.369 82.6142C159.768 84.7644 151.89 82.7371 149.794 78.6211C149.404 77.8532 149.434 77.5768 150.003 75.9795ZM147.335 81.3245C144.968 84.8569 141.464 88.1742 138.019 90.0787C137.51 90.3858 137.001 90.8159 136.911 91.0616C136.671 91.7373 139.008 95.0854 140.685 96.4369C143.351 98.6178 144.819 98.9864 150.54 98.8635L150.702 98.861C153.931 98.8099 155.311 98.788 156.333 99.383C157.096 99.8275 157.659 100.616 158.642 101.995L158.687 102.058C160.903 105.191 162.97 107.096 165.696 108.478C169.021 110.167 171.627 110.689 174.562 110.259C175.82 110.075 177.018 109.799 177.258 109.645C177.767 109.276 177.258 108.846 174.742 107.464C172.585 106.266 170.548 103.993 169.8 101.904C169.47 101.014 169.051 98.8328 168.871 97.0206C168.302 91.553 167.403 89.4336 164.797 87.1913C162.82 85.5326 160.574 84.519 157.549 83.9968C154.434 83.4439 152.666 82.676 150.51 80.9252C149.581 80.188 148.742 79.5737 148.653 79.5737C148.563 79.5737 147.964 80.3723 147.335 81.3245ZM101.867 94.9324C102.885 92.3522 104.533 90.11 106.36 88.8506C107.138 88.3284 108.157 87.8677 108.606 87.8677C109.595 87.8677 112.71 90.0178 112.62 90.6628C112.59 90.9086 112.29 91.8915 111.961 92.8437C111.602 93.8266 111.332 95.1782 111.332 95.8539C111.332 97.0211 111.152 97.2976 108.966 99.4784C106.749 101.659 106.539 101.997 105.94 104.086C105.461 105.714 105.311 106.789 105.431 107.864C105.551 108.816 105.491 109.431 105.281 109.553C104.772 109.891 102.675 107.342 101.657 105.13C100.818 103.257 100.788 103.042 100.908 100.062C101.028 97.6355 101.238 96.499 101.867 94.9324ZM112.798 92.321C111.57 95.1776 111.78 100.492 113.218 102.918C113.577 103.502 114.985 105.283 116.333 106.881C119.598 110.689 119.777 111.242 118.789 115.174C118.25 117.447 118.07 118.891 118.07 121.501C118.1 125.31 118.549 127.184 120.197 129.948C121.515 132.221 124.69 135.416 125.139 134.955C125.379 134.709 125.379 134.31 125.079 133.419C124.869 132.774 124.69 130.993 124.69 129.488C124.66 125.587 125.408 124.051 129.332 119.904C132.717 116.341 133.706 114.529 133.975 111.457C134.185 109.061 133.586 106.45 132.088 103.41C130.471 100.123 130.141 99.0171 129.931 96.0069L129.752 93.2425L125.858 93.2117C121.724 93.181 119.747 92.8739 116.333 91.6759C115.164 91.2766 114.026 90.9387 113.817 90.9387C113.577 90.9387 113.128 91.5531 112.798 92.321ZM131.132 93.581C131.462 92.8438 132.78 92.1066 134.697 91.6151C135.985 91.2773 136.074 91.308 136.823 92.8438C137.183 93.5503 138.111 94.8096 138.89 95.6697C140.268 97.2055 140.328 97.2977 140.448 99.54C140.537 100.799 140.837 102.642 141.166 103.656C141.646 105.192 142.035 105.745 143.832 107.434C146.348 109.799 146.199 110.106 142.724 109.891C138.021 109.584 134.667 107.065 132.151 101.967C130.893 99.3557 130.803 99.0178 130.803 96.7448C130.803 95.424 130.952 94.011 131.132 93.581Z"/>
</mask>
<path fill-rule="evenodd" clip-rule="evenodd" d="M25 0C11.1929 0 0 11.1929 0 25V115C0 128.807 11.1929 140 25 140H225C238.807 140 250 128.807 250 115V25C250 11.1929 238.807 0 225 0H25ZM98.0021 6.77566C97.1035 5.39342 96.3547 4.2262 96.3547 4.16477C96.3547 3.48901 100.758 5.02482 102.825 6.40706C106.898 9.1101 109.384 13.1647 110.493 18.9086C111.331 23.3318 111.87 23.9461 116.693 25.8198C120.946 27.4785 122.773 29.0757 124.361 32.3624C125.469 34.6968 126.128 38.4135 125.469 38.8435C125.289 38.9357 124.121 39.1814 122.833 39.335C119.239 39.7957 116.034 40.8094 112.919 42.4373C111.361 43.2667 110.043 43.9424 109.953 43.9424C109.864 43.9424 109.414 43.0516 108.935 41.9766C107.917 39.6114 106.539 37.9835 103.993 36.1098C101.626 34.3896 100.039 32.5467 98.9007 30.2429C98.062 28.5843 98.0021 28.1849 98.032 25.359C98.032 22.5639 98.1219 22.0417 99.1703 19.3694C101.207 14.0861 100.938 11.1988 98.0021 6.77566ZM154.313 4.68651C154.271 4.83751 154.155 5.35208 154.017 5.96426L154.017 5.96481C153.959 6.22418 153.896 6.50106 153.834 6.77522C153.145 10.0619 151.348 12.8263 148.982 14.2393C148.293 14.6693 146.585 15.4065 145.178 15.9287C141.044 17.4338 140.385 17.8024 138.678 19.4611C135.802 22.2563 135.353 23.6078 135.023 30.4575C134.784 35.3107 134.724 35.6793 133.855 37.6451C133.316 38.7817 132.897 39.826 132.897 39.9489C132.897 40.0717 133.945 40.6246 135.233 41.1775C138.678 42.6519 140.864 44.1263 143.59 46.7986C145.657 48.8566 146.166 49.1945 146.795 49.0409C147.724 48.7952 149.82 46.1536 150.839 43.942C151.528 42.4676 151.618 41.884 151.618 39.181C151.588 36.6622 151.468 35.71 150.809 33.8056C149.82 30.9183 149.611 29.0446 150.15 27.7238C150.359 27.1709 151.378 25.7886 152.366 24.6521C155.362 21.2733 157.159 16.758 157.159 12.6113C157.159 8.9868 154.912 2.75138 154.313 4.68651ZM125.976 19.8623C125.496 19.2787 125.107 18.6644 125.107 18.4801C125.107 17.4664 128.013 18.8487 130.289 20.9374C133.194 23.579 134.393 26.6199 134.393 31.2581C134.393 34.2376 133.794 36.4491 132.476 38.1693L131.487 39.4901L129.271 39.3979C128.043 39.3365 126.874 39.1522 126.695 38.9679C126.455 38.7836 126.305 37.9542 126.305 37.002C126.305 36.0805 126.036 34.514 125.676 33.5004L125.047 31.6267L125.856 29.8758C126.844 27.7871 127.384 24.4083 127.084 22.3503C126.934 21.3981 126.575 20.5381 125.976 19.8623ZM91.9515 34.39C90.0046 35.1272 88.5668 35.9872 88.5668 36.4172C88.5668 36.6323 89.6152 37.0009 90.9331 37.308C94.4676 38.0759 95.9653 39.4274 98.4813 44.1885C98.8408 44.8335 99.4099 45.2328 100.458 45.6014C101.237 45.8779 102.615 46.5844 103.454 47.168C104.322 47.7516 105.131 48.243 105.281 48.243C105.401 48.243 106.239 47.5366 107.108 46.6458C108.576 45.1714 108.695 44.9564 108.546 43.8813C108.126 40.6254 105.041 36.9394 101.237 35.1272C99.2002 34.1442 98.5712 33.9907 96.2049 33.8985C94.1082 33.8064 93.1796 33.9292 91.9515 34.39ZM152.519 44.22C157.491 42.9299 160.067 40.7798 161.056 37.0938C161.445 35.7423 161.775 35.6502 162.374 36.7867C164.47 41.0562 163.122 46.4623 158.959 50.5169C156.263 53.1277 154.346 54.1107 151.68 54.3257C149.314 54.51 149.074 54.3257 147.756 51.8377L146.858 50.179L148.655 48.3667C149.643 47.3838 150.662 46.0937 150.902 45.5408C151.231 44.7729 151.59 44.4657 152.519 44.22ZM120.435 40.687C108.633 43.4515 100.576 53.0657 100.037 65.0143C99.4375 77.6695 107.585 88.6352 119.896 91.7683C122.921 92.5362 128.432 92.444 131.547 91.584C137.358 89.9867 142.48 86.4236 146.135 81.4169C147.423 79.666 149.28 75.6115 150.029 72.9699C150.987 69.5296 150.987 63.3556 150.029 59.6697C148.741 54.6322 145.476 49.4104 141.522 46.0931C139.365 44.2808 134.483 41.7006 131.847 40.9941C129.361 40.3184 122.801 40.1341 120.435 40.687ZM88.5962 48.2433C90.1538 47.3526 92.1606 46.3697 93.0592 46.0625C95.9048 45.1103 98.7204 45.4482 101.925 47.0454C105.011 48.6119 105.041 48.6734 103.243 51.4993C101.506 54.2945 100.158 57.6425 99.619 60.5299C99.4393 61.6357 99.1697 62.9258 99.0499 63.4479C99.0371 63.5098 99.0263 63.5678 99.0162 63.622L99.0162 63.6221C98.9794 63.8195 98.9519 63.9676 98.8701 64.0739C98.6252 64.3925 97.8939 64.3372 94.9725 64.1162L94.2574 64.0623C92.1007 63.878 91.2321 63.9701 88.5662 64.6459C85.0318 65.5366 83.0548 65.6288 81.048 65.0145C77.6034 63.9394 76.1956 62.6493 73.2302 57.919C70.0851 52.9122 67.7188 51.3764 62.8065 51.1C61.3987 51.0078 60.1406 50.8235 60.0208 50.7007C59.7213 50.4242 62.7166 48.2433 64.4838 47.4754C67.7188 46.0318 71.6127 45.6939 74.9375 46.5539C75.926 46.7997 78.0826 47.7212 79.7001 48.5812C83.624 50.6392 84.5825 50.6085 88.5962 48.2433ZM165.844 47.6606C163.807 48.0599 161.141 49.565 158.954 51.5001C156.289 53.8346 154.881 54.6332 152.514 55.1554C151.406 55.3704 150.358 55.7083 150.208 55.8619C150.028 56.0462 150.178 56.8448 150.537 57.9506C151.496 60.9301 151.885 64.5239 151.646 68.8549L151.436 72.7866L152.514 73.0016C154.611 73.4009 158.116 72.9709 159.943 72.1108C162.429 70.9436 162.998 70.4214 165.844 66.6126L166.139 66.2158L166.139 66.2157L166.139 66.2156C167.845 63.9249 168.643 62.8527 169.71 62.3471C170.648 61.9022 171.795 61.896 173.951 61.8843L174.32 61.8823C180.521 61.8516 183.756 60.6229 187.41 56.8448C189.267 54.9404 191.364 51.5616 190.944 51.1623C190.825 51.0394 189.746 51.408 188.548 51.9609C186.511 52.9438 186.182 53.0052 183.216 53.0052C180.341 53.0052 179.922 52.9131 178.424 52.1145C177.525 51.623 176.207 50.8244 175.489 50.3329C172.194 47.9985 168.719 47.0463 165.844 47.6606ZM81.618 70.421C83.2355 67.8715 85.5718 66.3357 89.6155 65.0764C92.8205 64.0934 97.8526 64.9228 98.6913 66.5815C98.8411 66.8886 99.0508 68.0558 99.1406 69.1924L99.3203 71.2503L97.3135 71.8954C96.1753 72.2333 94.6776 72.909 93.9288 73.4312C92.6707 74.2605 92.491 74.322 91.3827 73.9841C90.7537 73.7998 89.1362 73.6462 87.8183 73.6462C84.9727 73.6155 83.505 74.1684 81.2286 76.1957L79.7309 77.5165L79.6411 76.3493C79.5213 74.8134 80.3 72.4483 81.618 70.421ZM96.5018 72.8466C94.6746 73.6145 92.1585 75.5189 91.1401 76.9011C89.942 78.4984 89.4328 80.0649 88.8038 84.0273C87.9651 89.4027 87.9052 89.4949 83.4122 91.7679C77.781 94.6245 74.6658 97.9111 73.288 102.519C72.6889 104.484 72.4493 108.754 72.9286 108.754C73.0484 108.754 73.917 107.863 74.8755 106.757C76.7626 104.607 78.4399 103.563 81.3155 102.734C82.9629 102.273 83.2924 102.273 85.9283 102.734C89.5226 103.348 91.3198 103.348 93.3567 102.734C97.0709 101.597 99.557 98.9248 101.714 93.7644C102.852 90.9999 103.84 89.6484 105.847 88.1126C106.716 87.4676 107.435 86.7611 107.435 86.5154C107.435 86.3003 107.075 85.8089 106.656 85.3789C104.32 83.1673 101.803 78.9899 100.396 74.9967C99.3473 71.9558 99.0478 71.7715 96.5018 72.8466ZM150.003 75.9795C150.363 74.9966 150.782 74.0137 150.962 73.7987C151.172 73.5222 151.621 73.4608 152.34 73.5836C152.939 73.7065 154.616 73.7679 156.084 73.7679C158.63 73.7372 158.78 73.7679 159.768 74.6587C162.464 77.0853 165.669 77.8839 169.024 76.9624C170.102 76.6553 171.031 76.5017 171.12 76.5938C171.929 77.4232 167.885 81.662 165.369 82.6142C159.768 84.7644 151.89 82.7371 149.794 78.6211C149.404 77.8532 149.434 77.5768 150.003 75.9795ZM147.335 81.3245C144.968 84.8569 141.464 88.1742 138.019 90.0787C137.51 90.3858 137.001 90.8159 136.911 91.0616C136.671 91.7373 139.008 95.0854 140.685 96.4369C143.351 98.6178 144.819 98.9864 150.54 98.8635L150.702 98.861C153.931 98.8099 155.311 98.788 156.333 99.383C157.096 99.8275 157.659 100.616 158.642 101.995L158.687 102.058C160.903 105.191 162.97 107.096 165.696 108.478C169.021 110.167 171.627 110.689 174.562 110.259C175.82 110.075 177.018 109.799 177.258 109.645C177.767 109.276 177.258 108.846 174.742 107.464C172.585 106.266 170.548 103.993 169.8 101.904C169.47 101.014 169.051 98.8328 168.871 97.0206C168.302 91.553 167.403 89.4336 164.797 87.1913C162.82 85.5326 160.574 84.519 157.549 83.9968C154.434 83.4439 152.666 82.676 150.51 80.9252C149.581 80.188 148.742 79.5737 148.653 79.5737C148.563 79.5737 147.964 80.3723 147.335 81.3245ZM101.867 94.9324C102.885 92.3522 104.533 90.11 106.36 88.8506C107.138 88.3284 108.157 87.8677 108.606 87.8677C109.595 87.8677 112.71 90.0178 112.62 90.6628C112.59 90.9086 112.29 91.8915 111.961 92.8437C111.602 93.8266 111.332 95.1782 111.332 95.8539C111.332 97.0211 111.152 97.2976 108.966 99.4784C106.749 101.659 106.539 101.997 105.94 104.086C105.461 105.714 105.311 106.789 105.431 107.864C105.551 108.816 105.491 109.431 105.281 109.553C104.772 109.891 102.675 107.342 101.657 105.13C100.818 103.257 100.788 103.042 100.908 100.062C101.028 97.6355 101.238 96.499 101.867 94.9324ZM112.798 92.321C111.57 95.1776 111.78 100.492 113.218 102.918C113.577 103.502 114.985 105.283 116.333 106.881C119.598 110.689 119.777 111.242 118.789 115.174C118.25 117.447 118.07 118.891 118.07 121.501C118.1 125.31 118.549 127.184 120.197 129.948C121.515 132.221 124.69 135.416 125.139 134.955C125.379 134.709 125.379 134.31 125.079 133.419C124.869 132.774 124.69 130.993 124.69 129.488C124.66 125.587 125.408 124.051 129.332 119.904C132.717 116.341 133.706 114.529 133.975 111.457C134.185 109.061 133.586 106.45 132.088 103.41C130.471 100.123 130.141 99.0171 129.931 96.0069L129.752 93.2425L125.858 93.2117C121.724 93.181 119.747 92.8739 116.333 91.6759C115.164 91.2766 114.026 90.9387 113.817 90.9387C113.577 90.9387 113.128 91.5531 112.798 92.321ZM131.132 93.581C131.462 92.8438 132.78 92.1066 134.697 91.6151C135.985 91.2773 136.074 91.308 136.823 92.8438C137.183 93.5503 138.111 94.8096 138.89 95.6697C140.268 97.2055 140.328 97.2977 140.448 99.54C140.537 100.799 140.837 102.642 141.166 103.656C141.646 105.192 142.035 105.745 143.832 107.434C146.348 109.799 146.199 110.106 142.724 109.891C138.021 109.584 134.667 107.065 132.151 101.967C130.893 99.3557 130.803 99.0178 130.803 96.7448C130.803 95.424 130.952 94.011 131.132 93.581Z" fill="white" fill-opacity="0.4"/>
<path d="M98.0021 6.77566L97.1636 7.32073L97.1689 7.32861L98.0021 6.77566ZM102.825 6.40706L102.269 7.2383L102.272 7.24031L102.825 6.40706ZM110.493 18.9086L111.475 18.7223L111.474 18.7192L110.493 18.9086ZM116.693 25.8198L117.056 24.8881L117.055 24.8877L116.693 25.8198ZM124.361 32.3624L125.264 31.9335L125.261 31.9274L124.361 32.3624ZM125.469 38.8435L125.925 39.7334L125.972 39.7095L126.016 39.681L125.469 38.8435ZM122.833 39.335L122.715 38.342L122.706 38.3431L122.833 39.335ZM112.919 42.4373L112.456 41.551L112.449 41.5546L112.919 42.4373ZM108.935 41.9766L108.016 42.3721L108.022 42.3837L108.935 41.9766ZM103.993 36.1098L104.585 35.3043L104.581 35.3009L103.993 36.1098ZM98.9007 30.2429L99.7973 29.8L99.7931 29.7917L98.9007 30.2429ZM98.032 25.359L99.032 25.3696V25.359H98.032ZM99.1703 19.3694L100.101 19.7346L100.103 19.7291L99.1703 19.3694ZM154.017 5.96426L154.987 6.20799L154.99 6.19606L154.993 6.18405L154.017 5.96426ZM154.313 4.68651L153.358 4.39078L153.354 4.4044L153.35 4.41813L154.313 4.68651ZM154.017 5.96481L153.047 5.72108L153.044 5.73303L153.042 5.74506L154.017 5.96481ZM153.834 6.77522L152.859 6.55337L152.857 6.5617L152.855 6.57007L153.834 6.77522ZM148.982 14.2393L148.469 13.3807L148.46 13.3858L148.452 13.391L148.982 14.2393ZM145.178 15.9287L145.52 16.8684L145.525 16.8663L145.178 15.9287ZM138.678 19.4611L137.981 18.7438L137.981 18.744L138.678 19.4611ZM135.023 30.4575L136.022 30.5068L136.022 30.5056L135.023 30.4575ZM133.855 37.6451L134.759 38.0738L134.764 38.0616L134.77 38.0493L133.855 37.6451ZM135.233 41.1775L134.839 42.0964L134.84 42.0969L135.233 41.1775ZM143.59 46.7986L144.296 46.09L144.29 46.0845L143.59 46.7986ZM146.795 49.0409L147.032 50.0124L147.042 50.0101L147.051 50.0076L146.795 49.0409ZM150.839 43.942L149.933 43.5187L149.93 43.5237L150.839 43.942ZM151.618 39.181H152.618L152.617 39.1691L151.618 39.181ZM150.809 33.8056L149.863 34.1295L149.864 34.1326L150.809 33.8056ZM150.15 27.7238L151.076 28.1017L151.08 28.0901L151.085 28.0784L150.15 27.7238ZM152.366 24.6521L151.618 23.9887L151.612 23.9959L152.366 24.6521ZM125.976 19.8623L125.203 20.4969L125.215 20.5115L125.227 20.5257L125.976 19.8623ZM130.289 20.9374L129.613 21.6742L129.616 21.6773L130.289 20.9374ZM132.476 38.1693L131.682 37.561L131.675 37.5701L132.476 38.1693ZM131.487 39.4901L131.446 40.4892L131.972 40.5111L132.288 40.0892L131.487 39.4901ZM129.271 39.3979L129.221 40.3967L129.229 40.397L129.271 39.3979ZM126.695 38.9679L127.411 38.2697L127.361 38.2187L127.304 38.1752L126.695 38.9679ZM125.676 33.5004L124.728 33.8186L124.731 33.8266L124.734 33.8346L125.676 33.5004ZM125.047 31.6267L124.139 31.2073L123.973 31.5681L124.099 31.9449L125.047 31.6267ZM125.856 29.8758L124.952 29.4481L124.948 29.4565L125.856 29.8758ZM127.084 22.3503L128.074 22.2063L128.072 22.195L127.084 22.3503ZM91.9515 34.39L91.6003 33.4537L91.5974 33.4548L91.9515 34.39ZM90.9331 37.308L90.7061 38.2819L90.7135 38.2836L90.7208 38.2852L90.9331 37.308ZM98.4813 44.1885L97.5972 44.6557L97.6024 44.6655L97.6078 44.6752L98.4813 44.1885ZM100.458 45.6014L100.793 44.659L100.79 44.658L100.458 45.6014ZM103.454 47.168L102.882 47.9888L102.889 47.9935L102.896 47.998L103.454 47.168ZM107.108 46.6458L106.399 45.9402L106.392 45.9476L107.108 46.6458ZM108.546 43.8813L107.554 44.0091L107.555 44.0193L108.546 43.8813ZM101.237 35.1272L100.802 36.0278L100.807 36.0299L101.237 35.1272ZM96.2049 33.8985L96.161 34.8976L96.166 34.8977L96.2049 33.8985ZM161.056 37.0938L160.095 36.817L160.092 36.8259L160.09 36.8348L161.056 37.0938ZM152.519 44.22L152.268 43.252L152.263 43.2533L152.519 44.22ZM162.374 36.7867L163.271 36.3459L163.265 36.333L163.258 36.3204L162.374 36.7867ZM158.959 50.5169L159.655 51.2352L159.657 51.2333L158.959 50.5169ZM151.68 54.3257L151.758 55.3227L151.761 55.3224L151.68 54.3257ZM147.756 51.8377L148.64 51.3695L148.636 51.3613L147.756 51.8377ZM146.858 50.179L146.148 49.4748L145.625 50.0022L145.979 50.6553L146.858 50.179ZM148.655 48.3667L147.95 47.6576L147.945 47.6626L148.655 48.3667ZM150.902 45.5408L151.819 45.9385L151.821 45.9351L150.902 45.5408ZM100.037 65.0143L101.035 65.0616L101.036 65.0594L100.037 65.0143ZM120.435 40.687L120.207 39.7132L120.207 39.7133L120.435 40.687ZM119.896 91.7683L119.649 92.7374L119.65 92.7375L119.896 91.7683ZM131.547 91.584L131.282 90.6197L131.281 90.62L131.547 91.584ZM146.135 81.4169L145.329 80.8243L145.327 80.8273L146.135 81.4169ZM150.029 72.9699L150.991 73.2426L150.992 73.2383L150.029 72.9699ZM150.029 59.6697L149.06 59.9174L149.061 59.9214L150.029 59.6697ZM141.522 46.0931L140.878 46.8586L140.879 46.8591L141.522 46.0931ZM131.847 40.9941L131.585 41.9591L131.588 41.9601L131.847 40.9941ZM93.0592 46.0625L92.7419 45.1142L92.7358 45.1162L93.0592 46.0625ZM88.5962 48.2433L88.0997 47.3752L88.0885 47.3818L88.5962 48.2433ZM101.925 47.0454L102.378 46.1537L102.371 46.1504L101.925 47.0454ZM103.243 51.4993L102.399 50.9626L102.394 50.9714L103.243 51.4993ZM99.619 60.5299L98.636 60.3463L98.6338 60.3579L98.6319 60.3695L99.619 60.5299ZM99.0499 63.4479L98.0752 63.2243L98.0728 63.2348L98.0706 63.2454L99.0499 63.4479ZM99.0162 63.622L99.9649 63.9382L99.9867 63.8728L99.9993 63.805L99.0162 63.622ZM99.0162 63.6221L98.0675 63.3059L98.0457 63.3713L98.033 63.4392L99.0162 63.6221ZM98.8701 64.0739L98.0773 63.4645L98.0773 63.4645L98.8701 64.0739ZM94.9725 64.1162L95.0479 63.1191L95.0477 63.119L94.9725 64.1162ZM94.2574 64.0623L94.1722 65.0587L94.1821 65.0594L94.2574 64.0623ZM88.5662 64.6459L88.8106 65.6155L88.812 65.6152L88.5662 64.6459ZM81.048 65.0145L80.75 65.9691L80.7553 65.9707L81.048 65.0145ZM73.2302 57.919L74.0775 57.3878L74.077 57.3871L73.2302 57.919ZM62.8065 51.1L62.7411 52.0979L62.7503 52.0984L62.8065 51.1ZM60.0208 50.7007L60.7368 50.0025L60.7184 49.9837L60.699 49.9658L60.0208 50.7007ZM64.4838 47.4754L64.8824 48.3926L64.8914 48.3886L64.4838 47.4754ZM74.9375 46.5539L74.6871 47.5221L74.6963 47.5244L74.9375 46.5539ZM79.7001 48.5812L79.2306 49.4642L79.2356 49.4668L79.7001 48.5812ZM158.954 51.5001L159.613 52.2525L159.617 52.249L158.954 51.5001ZM165.844 47.6606L166.036 48.6419L166.044 48.6403L166.053 48.6385L165.844 47.6606ZM152.514 55.1554L152.705 56.1371L152.717 56.1347L152.73 56.1319L152.514 55.1554ZM150.208 55.8619L150.924 56.56L150.924 56.56L150.208 55.8619ZM150.537 57.9506L151.489 57.6443L151.489 57.6415L150.537 57.9506ZM151.646 68.8549L150.647 68.7996L150.647 68.8016L151.646 68.8549ZM151.436 72.7866L150.438 72.7333L150.391 73.5979L151.241 73.7673L151.436 72.7866ZM152.514 73.0016L152.319 73.9823L152.327 73.9839L152.514 73.0016ZM159.943 72.1108L159.518 71.2056L159.517 71.206L159.943 72.1108ZM165.844 66.6126L166.645 67.2111L166.646 67.2099L165.844 66.6126ZM166.139 66.2158L165.358 65.5911L165.347 65.6046L165.337 65.6185L166.139 66.2158ZM166.139 66.2157L165.432 65.5086L165.393 65.5478L165.358 65.591L166.139 66.2157ZM166.139 66.2156L166.846 66.9227L166.898 66.8712L166.941 66.8127L166.139 66.2156ZM169.71 62.3471L170.138 63.2507L170.138 63.2507L169.71 62.3471ZM173.951 61.8843L173.956 62.8843L173.956 62.8843L173.951 61.8843ZM174.32 61.8823L174.315 60.8823L174.315 60.8823L174.32 61.8823ZM187.41 56.8448L186.694 56.1466L186.691 56.1496L187.41 56.8448ZM190.944 51.1623L190.228 51.8604L190.241 51.8737L190.255 51.8865L190.944 51.1623ZM188.548 51.9609L188.129 51.0529L188.121 51.0565L188.114 51.0603L188.548 51.9609ZM178.424 52.1145L177.944 52.9919L177.953 52.9969L178.424 52.1145ZM175.489 50.3329L174.91 51.1489L174.917 51.1537L174.924 51.1585L175.489 50.3329ZM89.6155 65.0764L89.3223 64.1203L89.3181 64.1216L89.6155 65.0764ZM81.618 70.421L82.4564 70.9661L82.4624 70.9567L81.618 70.421ZM98.6913 66.5815L99.5902 66.1432L99.587 66.1367L99.5837 66.1302L98.6913 66.5815ZM99.1406 69.1924L98.1437 69.2712L98.1444 69.2793L99.1406 69.1924ZM99.3203 71.2503L99.6263 72.2024L100.386 71.9582L100.317 71.1633L99.3203 71.2503ZM97.3135 71.8954L97.5981 72.854L97.6088 72.8508L97.6195 72.8474L97.3135 71.8954ZM93.9288 73.4312L94.4792 74.2661L94.4901 74.2589L94.5008 74.2515L93.9288 73.4312ZM91.3827 73.9841L91.6744 73.0275L91.6639 73.0244L91.3827 73.9841ZM87.8183 73.6462L87.8075 74.6462H87.8183V73.6462ZM81.2286 76.1957L81.89 76.9457L81.8937 76.9425L81.2286 76.1957ZM79.7309 77.5165L78.7339 77.5932L78.8879 79.5933L80.3924 78.2665L79.7309 77.5165ZM79.6411 76.3493L80.6381 76.2725L80.638 76.2715L79.6411 76.3493ZM91.1401 76.9011L91.9401 77.5012L91.9452 77.4943L91.1401 76.9011ZM96.5018 72.8466L96.8892 73.7685L96.8908 73.7678L96.5018 72.8466ZM88.8038 84.0273L87.8161 83.8706L87.8157 83.8732L88.8038 84.0273ZM83.4122 91.7679L82.9608 90.8755L82.9598 90.876L83.4122 91.7679ZM73.288 102.519L74.2446 102.81L74.2461 102.805L73.288 102.519ZM74.8755 106.757L74.1239 106.098L74.1199 106.102L74.8755 106.757ZM81.3155 102.734L81.0461 101.771L81.0383 101.773L81.3155 102.734ZM85.9283 102.734L85.7561 103.719L85.7598 103.719L85.9283 102.734ZM93.3567 102.734L93.6454 103.691L93.6493 103.69L93.3567 102.734ZM101.714 93.7644L102.636 94.15L102.638 94.1451L101.714 93.7644ZM105.847 88.1126L105.251 87.3098L105.245 87.3141L105.239 87.3185L105.847 88.1126ZM106.656 85.3789L107.372 84.6807L107.358 84.6664L107.343 84.6526L106.656 85.3789ZM100.396 74.9967L99.4503 75.3227L99.4526 75.3292L100.396 74.9967ZM150.962 73.7987L151.729 74.44L151.744 74.4218L151.759 74.403L150.962 73.7987ZM150.003 75.9795L149.064 75.6361L149.061 75.6439L150.003 75.9795ZM152.34 73.5836L152.541 72.604L152.524 72.6007L152.508 72.5979L152.34 73.5836ZM156.084 73.7679L156.084 74.768L156.096 74.7679L156.084 73.7679ZM159.768 74.6587L159.099 75.4016L159.099 75.402L159.768 74.6587ZM169.024 76.9624L169.289 77.9268L169.298 77.9242L169.024 76.9624ZM171.12 76.5938L171.836 75.8957L171.836 75.8957L171.12 76.5938ZM165.369 82.6142L165.015 81.679L165.011 81.6806L165.369 82.6142ZM149.794 78.6211L148.902 79.0734L148.903 79.075L149.794 78.6211ZM138.019 90.0787L137.535 89.2035L137.519 89.2126L137.503 89.2224L138.019 90.0787ZM147.335 81.3245L148.165 81.8811L148.169 81.8757L147.335 81.3245ZM136.911 91.0616L135.972 90.7181L135.968 90.7274L136.911 91.0616ZM140.685 96.4369L141.318 95.6629L141.312 95.6583L140.685 96.4369ZM150.54 98.8635L150.524 97.8636L150.518 97.8638L150.54 98.8635ZM150.702 98.861L150.718 99.8608L150.718 99.8608L150.702 98.861ZM156.333 99.383L155.829 100.247L155.829 100.247L156.333 99.383ZM158.642 101.995L157.828 102.575L157.828 102.576L158.642 101.995ZM158.687 102.058L159.503 101.48L159.501 101.477L158.687 102.058ZM165.696 108.478L166.149 107.586L166.148 107.586L165.696 108.478ZM174.562 110.259L174.417 109.27L174.417 109.27L174.562 110.259ZM177.258 109.645L177.798 110.487L177.821 110.472L177.844 110.455L177.258 109.645ZM174.742 107.464L174.256 108.338L174.26 108.341L174.742 107.464ZM169.8 101.904L170.741 101.567L170.737 101.558L169.8 101.904ZM168.871 97.0206L169.866 96.9219L169.866 96.917L168.871 97.0206ZM164.797 87.1913L165.45 86.4333L165.44 86.4253L164.797 87.1913ZM157.549 83.9968L157.374 84.9814L157.379 84.9823L157.549 83.9968ZM150.51 80.9252L151.14 80.1488L151.131 80.142L150.51 80.9252ZM106.36 88.8506L105.803 88.0199L105.792 88.0272L106.36 88.8506ZM101.867 94.9324L102.795 95.3051L102.797 95.2996L101.867 94.9324ZM112.62 90.6628L111.629 90.5249L111.628 90.5334L111.627 90.5419L112.62 90.6628ZM111.961 92.8437L112.9 93.1871L112.903 93.179L112.906 93.1707L111.961 92.8437ZM108.966 99.4784L109.667 100.191L109.672 100.186L108.966 99.4784ZM105.94 104.086L106.9 104.368L106.902 104.362L105.94 104.086ZM105.431 107.864L104.437 107.975L104.438 107.982L104.439 107.989L105.431 107.864ZM105.281 109.553L104.776 108.691L104.752 108.705L104.728 108.72L105.281 109.553ZM101.657 105.13L100.744 105.539L100.749 105.549L101.657 105.13ZM100.908 100.062L99.9094 100.013L99.909 100.022L100.908 100.062ZM113.218 102.918L112.357 103.428L112.362 103.435L112.366 103.443L113.218 102.918ZM112.798 92.321L113.717 92.7159L113.717 92.7153L112.798 92.321ZM116.333 106.881L115.568 107.525L115.573 107.531L116.333 106.881ZM118.789 115.174L117.819 114.93L117.816 114.943L118.789 115.174ZM118.07 121.501H117.07L117.07 121.509L118.07 121.501ZM120.197 129.948L121.062 129.447L121.056 129.437L120.197 129.948ZM125.139 134.955L124.423 134.257L124.423 134.257L125.139 134.955ZM125.079 133.419L124.128 133.729L124.131 133.738L125.079 133.419ZM124.69 129.488L125.69 129.488L125.69 129.48L124.69 129.488ZM129.332 119.904L128.607 119.215L128.606 119.217L129.332 119.904ZM133.975 111.457L134.971 111.545L134.971 111.544L133.975 111.457ZM132.088 103.41L131.191 103.851L131.191 103.851L132.088 103.41ZM129.931 96.0069L128.934 96.0718L128.934 96.0764L129.931 96.0069ZM129.752 93.2425L130.75 93.1776L130.689 92.2498L129.76 92.2425L129.752 93.2425ZM125.858 93.2117L125.866 92.2118L125.865 92.2118L125.858 93.2117ZM116.333 91.6759L116.664 90.7323L116.656 90.7297L116.333 91.6759ZM134.697 91.6151L134.945 92.5838L134.95 92.5824L134.697 91.6151ZM131.132 93.581L130.219 93.173L130.214 93.1841L130.209 93.1954L131.132 93.581ZM136.823 92.8438L135.924 93.2821L135.928 93.2897L135.932 93.2973L136.823 92.8438ZM138.89 95.6697L139.634 95.0019L139.631 94.9985L138.89 95.6697ZM140.448 99.54L139.449 99.5933L139.45 99.6022L139.45 99.6111L140.448 99.54ZM141.166 103.656L142.121 103.358L142.118 103.347L141.166 103.656ZM143.832 107.434L143.147 108.163L143.147 108.163L143.832 107.434ZM142.724 109.891L142.659 110.889L142.662 110.889L142.724 109.891ZM132.151 101.967L131.25 102.401L131.254 102.409L132.151 101.967ZM1 25C1 11.7452 11.7452 1 25 1V-1C10.6406 -1 -1 10.6406 -1 25H1ZM1 115V25H-1V115H1ZM25 139C11.7452 139 1 128.255 1 115H-1C-1 129.359 10.6406 141 25 141V139ZM225 139H25V141H225V139ZM249 115C249 128.255 238.255 139 225 139V141C239.359 141 251 129.359 251 115H249ZM249 25V115H251V25H249ZM225 1C238.255 1 249 11.7452 249 25H251C251 10.6406 239.359 -1 225 -1V1ZM25 1H225V-1H25V1ZM95.3547 4.16477C95.3547 4.35413 95.4113 4.49955 95.4149 4.50946C95.431 4.55458 95.4473 4.5909 95.4566 4.61083C95.4761 4.65275 95.4968 4.69153 95.512 4.71913C95.5441 4.77762 95.5852 4.8474 95.6294 4.92076C95.7196 5.07029 95.8461 5.27277 95.9969 5.51051C96.2996 5.98779 96.7141 6.62909 97.1637 7.32071L98.8405 6.23061C98.3915 5.53998 97.9822 4.90656 97.6859 4.43931C97.5371 4.20478 97.4203 4.01755 97.342 3.88776C97.302 3.82145 97.2775 3.77916 97.2652 3.75667C97.2581 3.74377 97.2619 3.74983 97.27 3.76723C97.2735 3.77489 97.2856 3.801 97.2988 3.83802C97.2994 3.83982 97.3547 3.97924 97.3547 4.16477H95.3547ZM103.38 5.57582C102.25 4.82 100.546 4.05721 99.1428 3.56957C98.4413 3.32581 97.7621 3.1321 97.2315 3.04799C96.983 3.0086 96.675 2.97719 96.3894 3.02305C96.2488 3.04562 96.0115 3.10191 95.7898 3.27474C95.5227 3.48297 95.3547 3.80345 95.3547 4.16477H97.3547C97.3547 4.44161 97.221 4.6949 97.0194 4.85206C96.8633 4.97382 96.7226 4.99517 96.7064 4.99776C96.6696 5.00367 96.7218 4.99217 96.9184 5.02333C97.278 5.08033 97.8287 5.23026 98.4863 5.45876C99.8012 5.91565 101.332 6.61188 102.269 7.23829L103.38 5.57582ZM111.474 18.7192C110.326 12.7675 107.718 8.45393 103.377 5.57381L102.272 7.24031C106.078 9.76627 108.442 13.5618 109.511 19.0981L111.474 18.7192ZM117.055 24.8877C114.597 23.9325 113.499 23.3844 112.844 22.6531C112.213 21.9492 111.901 20.9677 111.475 18.7223L109.51 19.0949C109.923 21.2727 110.299 22.81 111.354 23.9874C112.384 25.1375 113.967 25.8334 116.331 26.7519L117.055 24.8877ZM125.261 31.9274C124.427 30.1997 123.498 28.8534 122.177 27.7214C120.869 26.5997 119.232 25.7365 117.056 24.8881L116.33 26.7514C118.407 27.5617 119.81 28.3265 120.876 29.2398C121.929 30.1427 122.707 31.2384 123.46 32.7973L125.261 31.9274ZM126.016 39.681C126.396 39.433 126.549 39.0493 126.616 38.8168C126.692 38.557 126.721 38.2747 126.729 38.0082C126.746 37.4693 126.68 36.8182 126.563 36.1463C126.33 34.8001 125.864 33.1976 125.264 31.9335L123.458 32.7912C123.966 33.8616 124.384 35.2846 124.592 36.4878C124.697 37.0907 124.741 37.5953 124.73 37.9472C124.725 38.1261 124.706 38.2229 124.696 38.2579C124.678 38.32 124.707 38.1465 124.923 38.0061L126.016 39.681ZM122.952 40.3279C123.621 40.2482 124.259 40.1445 124.757 40.0479C125.006 39.9997 125.227 39.952 125.403 39.9082C125.533 39.8761 125.758 39.819 125.925 39.7334L125.013 37.9537C125.09 37.9141 125.102 37.9223 124.922 37.9669C124.789 38 124.603 38.0405 124.377 38.0845C123.924 38.1722 123.334 38.2682 122.715 38.342L122.952 40.3279ZM113.382 43.3236C116.392 41.7508 119.483 40.7726 122.96 40.3269L122.706 38.3431C118.995 38.8188 115.676 39.8679 112.456 41.551L113.382 43.3236ZM109.953 44.9424C110.083 44.9424 110.184 44.9167 110.21 44.9102C110.252 44.8995 110.287 44.8879 110.31 44.8802C110.355 44.8645 110.398 44.8471 110.431 44.8332C110.499 44.8045 110.58 44.7674 110.665 44.727C110.838 44.6449 111.069 44.5297 111.339 44.392C111.882 44.1156 112.607 43.7362 113.389 43.32L112.449 41.5546C111.673 41.9678 110.96 42.3409 110.432 42.6097C110.167 42.7447 109.955 42.8502 109.806 42.9207C109.731 42.9566 109.682 42.9788 109.654 42.9903C109.639 42.9965 109.643 42.9945 109.659 42.9891C109.666 42.9865 109.689 42.9788 109.721 42.9707C109.737 42.9668 109.83 42.9424 109.953 42.9424V44.9424ZM108.022 42.3837C108.266 42.9308 108.506 43.4403 108.701 43.8196C108.797 44.0062 108.891 44.1791 108.974 44.3137C109.013 44.377 109.068 44.4604 109.132 44.5383C109.162 44.5749 109.22 44.6416 109.301 44.7079C109.342 44.7408 109.582 44.9424 109.953 44.9424V42.9424C110.152 42.9424 110.303 43.0022 110.385 43.0422C110.47 43.084 110.53 43.1293 110.563 43.1564C110.628 43.2091 110.667 43.2556 110.675 43.2658C110.696 43.2908 110.696 43.2961 110.673 43.2592C110.632 43.1931 110.567 43.0762 110.48 42.9057C110.308 42.5708 110.084 42.0975 109.848 41.5694L108.022 42.3837ZM103.4 36.9152C105.837 38.7087 107.083 40.205 108.017 42.3721L109.853 41.5811C108.75 39.0179 107.24 37.2582 104.585 35.3044L103.4 36.9152ZM98.0041 30.6859C99.222 33.1508 100.923 35.1144 103.405 36.9186L104.581 35.3009C102.33 33.6649 100.856 31.9426 99.7972 29.8L98.0041 30.6859ZM97.0321 25.3484C97.0174 26.7375 97.0205 27.6425 97.1557 28.4118C97.2987 29.2255 97.5815 29.85 98.0083 30.6942L99.7931 29.7917C99.3812 28.9771 99.2146 28.5727 99.1255 28.0656C99.0286 27.5141 99.0168 26.8065 99.032 25.3696L97.0321 25.3484ZM98.2393 19.0041C97.7168 20.3362 97.3984 21.2151 97.2253 22.1328C97.0522 23.0507 97.032 23.9681 97.032 25.359H99.032C99.032 23.9548 99.0568 23.2135 99.1907 22.5034C99.3246 21.7931 99.5754 21.0749 100.101 19.7346L98.2393 19.0041ZM97.1689 7.32861C98.592 9.47295 99.2969 11.1394 99.455 12.8425C99.614 14.5542 99.2326 16.4277 98.2372 19.0096L100.103 19.7291C101.145 17.0278 101.647 14.8161 101.446 12.6575C101.245 10.4903 100.348 8.50152 98.8353 6.2227L97.1689 7.32861ZM154.993 6.18405C155.136 5.54992 155.243 5.07417 155.277 4.95489L153.35 4.41813C153.299 4.60085 153.175 5.15425 153.042 5.74447L154.993 6.18405ZM154.987 6.20854L154.987 6.20799L153.048 5.72053L153.047 5.72108L154.987 6.20854ZM154.809 6.99708C154.872 6.7217 154.934 6.4438 154.993 6.18456L153.042 5.74506C152.983 6.00457 152.921 6.28042 152.859 6.55337L154.809 6.99708ZM149.494 15.0979C152.152 13.5112 154.08 10.4759 154.813 6.98037L152.855 6.57007C152.21 9.64781 150.544 12.1415 148.469 13.3807L149.494 15.0979ZM145.525 16.8663C146.933 16.3441 148.727 15.577 149.511 15.0876L148.452 13.391C147.858 13.7616 146.238 14.4689 144.83 14.9911L145.525 16.8663ZM139.375 20.1783C140.203 19.3732 140.719 18.9391 141.496 18.5154C142.314 18.0698 143.44 17.6257 145.52 16.8683L144.835 14.989C142.782 15.7368 141.511 16.2295 140.539 16.7592C139.527 17.3107 138.859 17.8903 137.981 18.7438L139.375 20.1783ZM136.022 30.5056C136.188 27.059 136.382 25.1464 136.845 23.7542C137.283 22.4354 137.981 21.5334 139.375 20.1781L137.981 18.744C136.499 20.184 135.534 21.3553 134.947 23.1235C134.384 24.8182 134.188 27.0063 134.025 30.4095L136.022 30.5056ZM134.77 38.0493C135.214 37.044 135.488 36.367 135.662 35.2945C135.827 34.2817 135.904 32.9102 136.022 30.5068L134.025 30.4082C133.904 32.858 133.831 34.0974 133.688 34.9737C133.555 35.7902 133.365 36.2805 132.941 37.241L134.77 38.0493ZM133.897 39.9489C133.897 40.1016 133.856 40.2102 133.875 40.1436C133.88 40.1275 133.891 40.0926 133.912 40.0349C133.952 39.9216 134.016 39.7594 134.099 39.5577C134.264 39.1562 134.496 38.627 134.759 38.0738L132.952 37.2165C132.675 37.7998 132.428 38.361 132.249 38.7966C132.16 39.0133 132.084 39.2063 132.03 39.3589C132.003 39.4341 131.977 39.5099 131.956 39.5789C131.951 39.5974 131.897 39.7654 131.897 39.9489H133.897ZM135.628 40.2586C135.001 39.9897 134.442 39.7245 134.048 39.517C133.847 39.4115 133.709 39.3309 133.63 39.279C133.586 39.2505 133.588 39.2485 133.612 39.2697C133.622 39.2788 133.667 39.3189 133.716 39.3867C133.745 39.4263 133.897 39.6322 133.897 39.9489H131.897C131.897 40.2809 132.057 40.5055 132.102 40.567C132.167 40.6567 132.235 40.7218 132.277 40.7588C132.363 40.8359 132.457 40.9016 132.532 40.9508C132.69 41.0545 132.893 41.1696 133.116 41.2868C133.568 41.5248 134.177 41.8125 134.839 42.0964L135.628 40.2586ZM144.29 46.0845C141.478 43.3277 139.188 41.7827 135.627 40.2582L134.84 42.0969C138.167 43.5212 140.25 44.9249 142.89 47.5127L144.29 46.0845ZM146.558 48.0694C146.536 48.0748 146.534 48.0734 146.543 48.0732C146.547 48.0732 146.552 48.0734 146.557 48.0739C146.562 48.0744 146.564 48.075 146.563 48.0748C146.556 48.073 146.481 48.0522 146.302 47.9278C145.924 47.6648 145.342 47.1322 144.296 46.09L142.884 47.5072C143.905 48.523 144.611 49.1884 145.161 49.5704C145.446 49.7686 145.746 49.932 146.076 50.0147C146.43 50.1033 146.747 50.082 147.032 50.0124L146.558 48.0694ZM149.93 43.5237C149.46 44.5442 148.727 45.69 148 46.6072C147.637 47.0646 147.291 47.4454 146.997 47.7168C146.664 48.0242 146.514 48.0807 146.539 48.0742L147.051 50.0076C147.54 49.8782 148.001 49.5124 148.354 49.1862C148.746 48.8241 149.162 48.3602 149.567 47.8501C150.374 46.8321 151.199 45.5513 151.747 44.3603L149.93 43.5237ZM150.618 39.181C150.618 40.5429 150.593 41.2856 150.499 41.8618C150.412 42.3992 150.26 42.8183 149.933 43.5187L151.745 44.3653C152.106 43.5913 152.344 42.9814 152.474 42.1826C152.597 41.4227 152.618 40.5221 152.618 39.181H150.618ZM149.864 34.1326C150.477 35.9042 150.588 36.7422 150.618 39.1929L152.617 39.1691C152.587 36.5822 152.459 35.5158 151.754 33.4786L149.864 34.1326ZM149.224 27.3458C148.533 29.0381 148.871 31.2322 149.863 34.1295L151.755 33.4817C150.77 30.6043 150.688 29.0511 151.076 28.1017L149.224 27.3458ZM151.612 23.9959C151.1 24.5848 150.579 25.2373 150.157 25.8191C149.761 26.3639 149.374 26.9497 149.215 27.3692L151.085 28.0784C151.135 27.945 151.362 27.5631 151.775 26.9945C152.161 26.4628 152.645 25.856 153.121 25.3084L151.612 23.9959ZM156.159 12.6113C156.159 16.491 154.467 20.7753 151.618 23.9888L153.115 25.3155C156.257 21.7714 158.159 17.025 158.159 12.6113H156.159ZM155.269 4.98224C155.286 4.92485 155.281 4.97311 155.215 5.05373C155.133 5.15271 154.95 5.30284 154.672 5.32072C154.424 5.33661 154.265 5.23592 154.228 5.2101C154.187 5.18157 154.189 5.17238 154.229 5.22285C154.413 5.45327 154.705 6.02828 155.02 6.90244C155.633 8.60729 156.159 10.9529 156.159 12.6113H158.159C158.159 10.6452 157.562 8.06087 156.902 6.22566C156.58 5.32979 156.198 4.48225 155.792 3.97451C155.685 3.84044 155.545 3.68949 155.369 3.56723C155.196 3.44769 154.91 3.30132 154.544 3.32483C154.146 3.35033 153.854 3.56138 153.673 3.77985C153.508 3.97996 153.415 4.20628 153.358 4.39078L155.269 4.98224ZM124.107 18.4801C124.107 18.6565 124.149 18.802 124.174 18.878C124.203 18.9674 124.239 19.0504 124.272 19.1207C124.339 19.262 124.425 19.4108 124.516 19.5545C124.699 19.8448 124.941 20.1782 125.203 20.4969L126.749 19.2277C126.531 18.9628 126.339 18.6972 126.208 18.4883C126.141 18.3825 126.1 18.3067 126.079 18.2627C126.068 18.2405 126.07 18.2406 126.076 18.2588C126.077 18.2638 126.107 18.3497 126.107 18.4801H124.107ZM130.965 20.2005C129.763 19.0977 128.386 18.1701 127.273 17.642C126.739 17.3881 126.164 17.1769 125.66 17.1447C125.415 17.129 125.035 17.1447 124.687 17.3733C124.269 17.6479 124.107 18.0849 124.107 18.4801H126.107C126.107 18.6218 126.036 18.8803 125.786 19.0446C125.606 19.1629 125.47 19.1366 125.533 19.1406C125.646 19.1478 125.939 19.2226 126.416 19.4487C127.325 19.8804 128.539 20.6884 129.613 21.6742L130.965 20.2005ZM135.393 31.2581C135.393 28.8552 135.083 26.8017 134.36 24.9802C133.634 23.1498 132.511 21.6065 130.962 20.1975L129.616 21.6773C130.972 22.9099 131.902 24.2078 132.501 25.7178C133.104 27.2368 133.393 29.0228 133.393 31.2581H135.393ZM133.269 38.7774C134.766 36.8238 135.393 34.3692 135.393 31.2581H133.393C133.393 34.1059 132.821 36.0745 131.682 37.5611L133.269 38.7774ZM132.288 40.0892L133.276 38.7684L131.675 37.5701L130.687 38.8909L132.288 40.0892ZM129.229 40.397L131.446 40.4892L131.529 38.4909L129.312 38.3988L129.229 40.397ZM125.979 39.666C126.136 39.8276 126.315 39.9128 126.402 39.9513C126.51 39.9991 126.622 40.0361 126.725 40.0654C126.931 40.1245 127.174 40.1741 127.428 40.2158C127.94 40.2998 128.577 40.3645 129.221 40.3967L129.321 38.3992C128.736 38.3699 128.175 38.3117 127.751 38.2422C127.537 38.207 127.378 38.1722 127.276 38.1429C127.224 38.1281 127.206 38.12 127.211 38.1222C127.214 38.1236 127.234 38.1323 127.263 38.15C127.289 38.166 127.346 38.2038 127.411 38.2697L125.979 39.666ZM125.305 37.002C125.305 37.5238 125.346 38.0351 125.428 38.4623C125.469 38.6743 125.525 38.8922 125.605 39.0904C125.673 39.2586 125.81 39.5487 126.085 39.7605L127.304 38.1752C127.46 38.2949 127.488 38.4123 127.46 38.3433C127.445 38.3044 127.418 38.221 127.392 38.0835C127.34 37.812 127.305 37.4325 127.305 37.002H125.305ZM124.734 33.8346C125.057 34.7475 125.305 36.2012 125.305 37.002H127.305C127.305 35.9599 127.014 34.2805 126.619 33.1662L124.734 33.8346ZM124.099 31.9449L124.728 33.8186L126.624 33.1821L125.995 31.3084L124.099 31.9449ZM124.948 29.4565L124.139 31.2073L125.955 32.046L126.764 30.2952L124.948 29.4565ZM126.094 22.4944C126.224 23.3871 126.177 24.6365 125.966 25.9416C125.755 27.2422 125.395 28.5125 124.952 29.4481L126.76 30.3036C127.306 29.1504 127.709 27.687 127.94 26.2615C128.17 24.8406 128.243 23.3715 128.074 22.2063L126.094 22.4944ZM125.227 20.5257C125.676 21.0312 125.97 21.7027 126.096 22.5057L128.072 22.195C127.899 21.0935 127.474 20.0449 126.724 19.1989L125.227 20.5257ZM89.5668 36.4172C89.5668 36.6342 89.4813 36.7659 89.47 36.7832C89.4525 36.81 89.4531 36.801 89.5005 36.7573C89.5943 36.6706 89.7698 36.5402 90.0428 36.3768C90.5805 36.0548 91.3695 35.6796 92.3056 35.3252L91.5974 33.4548C90.5866 33.8375 89.6832 34.261 89.0154 34.6608C88.6856 34.8583 88.3799 35.0696 88.1433 35.2882C88.0255 35.3971 87.8985 35.5316 87.7948 35.6906C87.6973 35.8401 87.5668 36.0928 87.5668 36.4172H89.5668ZM91.1601 36.3341C90.5235 36.1857 89.9755 36.0277 89.6018 35.8899C89.4089 35.8187 89.3004 35.7667 89.2564 35.7409C89.2311 35.7261 89.267 35.7429 89.3217 35.7977C89.3522 35.8282 89.5668 36.0426 89.5668 36.4172H87.5668C87.5668 36.8457 87.8142 37.1186 87.9072 37.2116C88.0244 37.3289 88.1525 37.4122 88.246 37.4669C88.4398 37.5804 88.6758 37.68 88.9097 37.7663C89.3897 37.9433 90.0249 38.1231 90.7061 38.2819L91.1601 36.3341ZM99.3655 43.7212C98.0997 41.3261 97.0297 39.6647 95.7622 38.5112C94.4571 37.3235 93.0144 36.7369 91.1454 36.3308L90.7208 38.2852C92.3863 38.6471 93.4597 39.1201 94.4161 39.9904C95.41 40.8949 96.3469 42.2898 97.5972 44.6557L99.3655 43.7212ZM100.79 44.658C99.8503 44.3277 99.545 44.0429 99.3549 43.7017L97.6078 44.6752C98.1366 45.6242 98.9695 46.138 100.127 46.5448L100.79 44.658ZM104.025 46.3471C103.118 45.7164 101.662 44.9674 100.793 44.659L100.124 46.5438C100.813 46.7883 102.111 47.4523 102.882 47.9888L104.025 46.3471ZM105.281 47.243C105.393 47.243 105.474 47.2636 105.497 47.2697C105.529 47.2781 105.549 47.2857 105.552 47.2867C105.557 47.2885 105.542 47.2829 105.501 47.2626C105.422 47.2231 105.304 47.1574 105.148 47.0647C104.839 46.8815 104.437 46.6237 104.011 46.3379L102.896 47.998C103.339 48.2959 103.775 48.5755 104.126 48.784C104.299 48.8872 104.465 48.9808 104.607 49.0517C104.677 49.0865 104.757 49.1239 104.838 49.1549C104.88 49.1712 105.061 49.243 105.281 49.243V47.243ZM106.392 45.9476C105.976 46.3744 105.57 46.754 105.26 47.0218C105.103 47.1571 104.982 47.2545 104.902 47.313C104.861 47.3436 104.847 47.3515 104.854 47.3472C104.857 47.3455 104.884 47.3299 104.927 47.3118C104.945 47.3042 105.084 47.243 105.281 47.243V49.243C105.492 49.243 105.652 49.1763 105.696 49.1579C105.765 49.1291 105.823 49.0975 105.862 49.0747C105.942 49.0282 106.02 48.974 106.087 48.9245C106.225 48.8226 106.391 48.6877 106.567 48.5351C106.924 48.227 107.371 47.808 107.824 47.3439L106.392 45.9476ZM107.555 44.0193C107.625 44.5184 107.589 44.5709 107.547 44.6505C107.439 44.8582 107.173 45.1631 106.399 45.9403L107.817 47.3513C108.511 46.6541 109.039 46.1143 109.32 45.5771C109.667 44.9118 109.616 44.3193 109.536 43.7433L107.555 44.0193ZM100.807 36.0299C102.573 36.8711 104.182 38.154 105.393 39.604C106.612 41.0628 107.376 42.6257 107.554 44.0091L109.537 43.7536C109.296 41.881 108.308 39.973 106.928 38.3217C105.541 36.6617 103.705 35.1954 101.667 34.2244L100.807 36.0299ZM96.166 34.8977C97.344 34.9436 98.0054 35.0033 98.6073 35.1503C99.2059 35.2964 99.7923 35.5403 100.802 36.0278L101.672 34.2265C100.645 33.7311 99.8984 33.4067 99.0817 33.2073C98.2684 33.0087 97.4321 32.9455 96.2438 32.8993L96.166 34.8977ZM92.3028 35.3262C93.3593 34.9299 94.14 34.8087 96.161 34.8975L96.2488 32.8995C94.0764 32.804 93 32.9286 91.6003 33.4537L92.3028 35.3262ZM160.09 36.8348C159.644 38.4985 158.856 39.7727 157.64 40.7877C156.406 41.8185 154.673 42.628 152.268 43.2521L152.77 45.188C155.337 44.5219 157.379 43.6113 158.922 42.3231C160.484 41.019 161.479 39.3751 162.022 37.3528L160.09 36.8348ZM163.258 36.3204C163.098 36.0172 162.916 35.7136 162.701 35.4833C162.514 35.2829 162.053 34.8773 161.4 35.0354C160.842 35.1707 160.568 35.6386 160.456 35.8509C160.313 36.1232 160.198 36.4603 160.095 36.817L162.017 37.3707C162.109 37.0516 162.18 36.8704 162.227 36.7807C162.25 36.7373 162.248 36.7529 162.211 36.7918C162.172 36.8324 162.062 36.933 161.872 36.9791C161.665 37.0292 161.483 36.9866 161.367 36.9312C161.268 36.8842 161.226 36.8344 161.238 36.8469C161.246 36.8552 161.274 36.8882 161.322 36.9617C161.368 37.0331 161.423 37.1286 161.489 37.253L163.258 36.3204ZM159.657 51.2333C164.04 46.9647 165.609 41.106 163.271 36.3459L161.476 37.2275C163.332 41.0065 162.205 45.9599 158.261 49.8004L159.657 51.2333ZM151.761 55.3224C154.73 55.083 156.853 53.9486 159.655 51.2352L158.263 49.7985C155.673 52.3069 153.962 53.1384 151.6 53.3289L151.761 55.3224ZM146.873 52.3058C147.199 52.9225 147.485 53.4456 147.763 53.8597C148.044 54.2785 148.362 54.654 148.785 54.9254C149.636 55.4717 150.647 55.4092 151.758 55.3227L151.603 53.3287C150.347 53.4265 150.055 53.364 149.865 53.2422C149.768 53.1796 149.631 53.054 149.423 52.7442C149.212 52.4298 148.972 51.9968 148.64 51.3696L146.873 52.3058ZM145.979 50.6553L146.877 52.314L148.636 51.3613L147.737 49.7026L145.979 50.6553ZM147.945 47.6626L146.148 49.4748L147.568 50.8831L149.365 49.0709L147.945 47.6626ZM149.984 45.1432C149.922 45.2863 149.684 45.6559 149.276 46.171C148.89 46.6574 148.414 47.196 147.95 47.6576L149.36 49.0758C149.884 48.5545 150.412 47.9566 150.843 47.414C151.25 46.9002 151.641 46.3483 151.819 45.9385L149.984 45.1432ZM152.263 43.2533C151.742 43.3912 151.259 43.5757 150.85 43.9127C150.431 44.2579 150.179 44.688 149.983 45.1465L151.821 45.9351C151.953 45.6257 152.046 45.5183 152.121 45.4565C152.206 45.3864 152.368 45.2945 152.775 45.1867L152.263 43.2533ZM101.036 65.0594C101.554 53.5659 109.289 44.3248 120.663 41.6606L120.207 39.7133C107.977 42.5781 99.5973 52.5654 99.0376 64.9693L101.036 65.0594ZM120.142 90.7991C108.289 87.7826 100.459 77.2397 101.035 65.0616L99.0377 64.967C98.4161 78.0993 106.88 89.4878 119.649 92.7374L120.142 90.7991ZM131.281 90.62C129.835 91.0192 127.771 91.2529 125.672 91.2867C123.57 91.3206 121.534 91.1525 120.142 90.799L119.65 92.7375C121.282 93.152 123.515 93.3217 125.704 93.2865C127.895 93.2512 130.144 93.0088 131.814 92.5479L131.281 90.62ZM145.327 80.8273C141.802 85.6562 136.87 89.084 131.282 90.6197L131.812 92.5482C137.847 90.8894 143.158 87.191 146.942 82.0064L145.327 80.8273ZM149.066 72.6971C148.711 73.9525 148.081 75.576 147.375 77.1095C146.665 78.6528 145.913 80.0312 145.329 80.8243L146.94 82.0094C147.645 81.0517 148.464 79.5274 149.192 77.9453C149.925 76.3534 150.598 74.6289 150.991 73.2426L149.066 72.6971ZM149.061 59.9214C149.511 61.6544 149.747 64.0281 149.747 66.4119C149.747 68.7991 149.511 71.1027 149.065 72.7015L150.992 73.2383C151.505 71.3968 151.747 68.8932 151.747 66.4119C151.747 63.9272 151.504 61.3709 150.996 59.418L149.061 59.9214ZM140.879 46.8591C144.67 50.0402 147.823 55.0798 149.06 59.9174L150.997 59.422C149.658 54.1846 146.281 48.7806 142.165 45.327L140.879 46.8591ZM131.588 41.9601C132.799 42.2846 134.601 43.066 136.398 44.0134C138.191 44.9597 139.88 46.0192 140.878 46.8586L142.165 45.3275C141.008 44.3547 139.176 43.2179 137.331 42.2444C135.487 41.2721 133.531 40.4102 132.106 40.0282L131.588 41.9601ZM120.662 41.6608C121.709 41.4162 123.827 41.3181 126.069 41.3794C128.304 41.4406 130.464 41.6546 131.585 41.9591L132.109 40.0292C130.744 39.658 128.381 39.4419 126.123 39.3802C123.872 39.3186 121.527 39.4048 120.207 39.7132L120.662 41.6608ZM92.7358 45.1162C91.7448 45.455 89.6714 46.4764 88.0998 47.3753L89.0926 49.1114C90.6361 48.2287 92.5765 47.2843 93.3827 47.0087L92.7358 45.1162ZM102.371 46.1504C98.9873 44.4639 95.8945 44.0592 92.7419 45.1142L93.3766 47.0108C95.915 46.1614 98.4534 46.4324 101.479 47.9404L102.371 46.1504ZM104.087 52.0359C104.525 51.3479 104.899 50.7552 105.134 50.2581C105.364 49.7704 105.567 49.1612 105.373 48.514C105.184 47.8793 104.69 47.47 104.237 47.1707C103.77 46.8618 103.131 46.5358 102.378 46.1538L101.473 47.9371C102.263 48.3383 102.784 48.6074 103.134 48.8389C103.499 49.0801 103.478 49.1565 103.457 49.0861C103.432 49.0034 103.498 49.0373 103.325 49.4049C103.156 49.7631 102.861 50.2377 102.4 50.9626L104.087 52.0359ZM100.602 60.7134C101.116 57.9632 102.412 54.7306 104.093 52.0272L102.394 50.9714C100.6 53.8583 99.2007 57.3219 98.636 60.3463L100.602 60.7134ZM100.025 63.6716C100.148 63.1331 100.422 61.8215 100.606 60.6903L98.6319 60.3695C98.4564 61.4498 98.1913 62.7184 98.0752 63.2243L100.025 63.6716ZM99.9993 63.805C100.01 63.7498 100.019 63.7012 100.029 63.6505L98.0706 63.2454C98.0555 63.3184 98.043 63.3858 98.0331 63.4391L99.9993 63.805ZM99.9649 63.9383L99.9649 63.9382L98.0675 63.3058L98.0675 63.3059L99.9649 63.9383ZM99.6629 64.6834C99.9228 64.3454 99.9781 63.919 99.9993 63.805L98.033 63.4392C98.0284 63.4643 98.0244 63.4857 98.0205 63.5059C98.0167 63.5259 98.0134 63.5425 98.0104 63.557C98.0041 63.587 98.0006 63.6003 97.9995 63.6042C97.9984 63.6076 98.0023 63.5934 98.0135 63.569C98.0253 63.5433 98.0454 63.506 98.0773 63.4645L99.6629 64.6834ZM94.8971 65.1134C96.3361 65.2222 97.2973 65.2956 97.9222 65.2974C98.2319 65.2983 98.5356 65.2832 98.805 65.2177C99.1002 65.1459 99.4223 64.9964 99.6629 64.6834L98.0773 63.4645C98.1955 63.3108 98.3343 63.2739 98.3322 63.2744C98.3043 63.2812 98.1967 63.2982 97.9278 63.2974C97.3955 63.2959 96.5303 63.2312 95.0479 63.1191L94.8971 65.1134ZM94.1821 65.0594L94.8973 65.1134L95.0477 63.119L94.3326 63.0651L94.1821 65.0594ZM88.812 65.6152C90.14 65.2786 90.9631 65.1027 91.7052 65.0263C92.4345 64.9512 93.1195 64.9687 94.1722 65.0586L94.3425 63.0659C93.2386 62.9716 92.411 62.943 91.5003 63.0368C90.6024 63.1293 89.6584 63.3374 88.3205 63.6765L88.812 65.6152ZM80.7553 65.9707C83.021 66.6642 85.2109 66.5228 88.8106 65.6155L88.3219 63.6762C84.8526 64.5505 83.0887 64.5933 81.3407 64.0583L80.7553 65.9707ZM72.3829 58.4501C73.8693 60.8212 75.0238 62.4295 76.2868 63.5774C77.5836 64.7562 78.9439 65.4053 80.7501 65.9691L81.3459 64.0599C79.7075 63.5485 78.6416 63.0151 77.632 62.0975C76.5885 61.149 75.5564 59.7471 74.0775 57.3878L72.3829 58.4501ZM62.7503 52.0984C65.1108 52.2312 66.7366 52.6599 68.1342 53.5728C69.5521 54.4991 70.8372 55.9895 72.3834 58.4509L74.077 57.3871C72.4781 54.8417 71.0075 53.0608 69.2279 51.8984C67.428 50.7226 65.4145 50.2452 62.8627 50.1015L62.7503 52.0984ZM59.3049 51.3988C59.4261 51.5231 59.5525 51.5903 59.6069 51.6176C59.6749 51.6519 59.7388 51.6764 59.7875 51.6934C59.8852 51.7275 59.9895 51.7547 60.0849 51.7766C60.2796 51.8213 60.5223 51.8633 60.7878 51.9016C61.3234 51.9789 62.0162 52.0504 62.7411 52.0978L62.8718 50.1021C62.1889 50.0574 61.5488 49.9907 61.0735 49.9221C60.8335 49.8875 60.6513 49.8546 60.5324 49.8273C60.471 49.8132 60.4464 49.805 60.4469 49.8052C60.4469 49.8052 60.4702 49.8131 60.5059 49.8311C60.528 49.8422 60.6305 49.8935 60.7368 50.0025L59.3049 51.3988ZM64.0853 46.5583C63.1083 46.9828 61.8517 47.7659 60.8904 48.4627C60.4081 48.8122 59.965 49.1654 59.6512 49.4663C59.5028 49.6085 59.3357 49.7837 59.2146 49.9709C59.1586 50.0573 59.0607 50.2235 59.0195 50.4419C58.9721 50.6928 58.9927 51.1126 59.3426 51.4355L60.699 49.9658C61.0115 50.2541 61.0203 50.6245 60.9848 50.8128C60.9685 50.8991 60.9429 50.9615 60.9279 50.9939C60.9121 51.0283 60.8985 51.05 60.8936 51.0575C60.8859 51.0695 60.9174 51.023 61.0354 50.9099C61.2542 50.7001 61.6142 50.4082 62.0642 50.082C62.9675 49.4272 64.0921 48.736 64.8824 48.3926L64.0853 46.5583ZM75.188 45.5858C71.6382 44.6676 67.5125 45.0288 64.0763 46.5622L64.8914 48.3886C67.9251 47.0348 71.5873 46.7202 74.6871 47.5221L75.188 45.5858ZM80.1696 47.6983C78.5299 46.8264 76.2873 45.8591 75.1788 45.5835L74.6963 47.5244C75.5647 47.7403 77.6354 48.6159 79.2306 49.4642L80.1696 47.6983ZM88.0885 47.3818C86.056 48.5795 85.0206 49.0364 84.0771 49.0717C83.1457 49.1065 82.1472 48.7355 80.1646 47.6956L79.2356 49.4668C81.1768 50.4849 82.6196 51.1276 84.1518 51.0703C85.6719 51.0134 87.1227 50.2723 89.1039 49.1049L88.0885 47.3818ZM159.617 52.249C161.728 50.3808 164.236 48.9947 166.036 48.6419L165.651 46.6793C163.377 47.1251 160.554 48.7492 158.292 50.7513L159.617 52.249ZM152.73 56.1319C153.987 55.8545 155.029 55.4937 156.116 54.8771C157.185 54.2701 158.264 53.4341 159.613 52.2525L158.296 50.7478C156.979 51.9006 156.021 52.6312 155.128 53.1377C154.253 53.6345 153.408 53.9342 152.299 54.1789L152.73 56.1319ZM150.924 56.56C150.832 56.6541 150.753 56.6904 150.779 56.6764C150.784 56.6737 150.808 56.6616 150.859 56.6407C150.958 56.5997 151.106 56.5465 151.299 56.4865C151.682 56.3672 152.185 56.2379 152.705 56.1371L152.324 54.1737C151.735 54.2879 151.16 54.435 150.705 54.5769C150.478 54.6474 150.267 54.7209 150.093 54.7931C150.006 54.8289 149.915 54.87 149.83 54.9161C149.766 54.9508 149.621 55.0312 149.492 55.1637L150.924 56.56ZM151.489 57.6415C151.315 57.108 151.205 56.6862 151.157 56.3969C151.132 56.2488 151.131 56.1755 151.132 56.158C151.132 56.1504 151.132 56.1851 151.114 56.2447C151.097 56.3012 151.05 56.431 150.924 56.56L149.492 55.1637C149.176 55.4881 149.142 55.8995 149.134 56.063C149.124 56.2816 149.149 56.5116 149.184 56.7244C149.256 57.157 149.4 57.6874 149.586 58.2597L151.489 57.6415ZM152.644 68.9101C152.889 64.493 152.495 60.7706 151.489 57.6443L149.586 58.2568C150.497 61.0895 150.882 64.5548 150.647 68.7996L152.644 68.9101ZM152.435 72.8398L152.644 68.9081L150.647 68.8016L150.438 72.7333L152.435 72.8398ZM152.71 72.0209L151.632 71.8059L151.241 73.7673L152.319 73.9823L152.71 72.0209ZM159.517 71.206C158.738 71.5729 157.521 71.8772 156.21 72.0357C154.901 72.1938 153.612 72.1927 152.701 72.0192L152.327 73.9839C153.513 74.2098 155.025 74.1933 156.45 74.0212C157.871 73.8495 159.321 73.5088 160.369 73.0156L159.517 71.206ZM165.042 66.0141C163.609 67.9334 162.808 68.94 162.077 69.6202C161.384 70.2654 160.733 70.6351 159.518 71.2056L160.368 73.016C161.639 72.4193 162.516 71.9443 163.44 71.0844C164.326 70.2595 165.233 69.1006 166.645 67.2111L165.042 66.0141ZM165.337 65.6185L165.042 66.0153L166.646 67.2099L166.941 66.8131L165.337 65.6185ZM165.358 65.591L165.358 65.5911L166.92 66.8405L166.92 66.8404L165.358 65.591ZM165.432 65.5085L165.432 65.5086L166.846 66.9228L166.846 66.9227L165.432 65.5085ZM169.281 61.4435C168.577 61.7775 168.005 62.2815 167.415 62.9496C166.834 63.6062 166.179 64.4873 165.337 65.6185L166.941 66.8127C167.805 65.6533 168.401 64.8529 168.913 64.2743C169.414 63.7072 169.776 63.4223 170.138 63.2507L169.281 61.4435ZM173.945 60.8844C172.883 60.8901 172.01 60.894 171.287 60.957C170.55 61.0211 169.899 61.1508 169.281 61.4435L170.138 63.2507C170.459 63.0984 170.851 63.0026 171.46 62.9495C172.084 62.8952 172.863 62.8902 173.956 62.8843L173.945 60.8844ZM174.315 60.8823L173.945 60.8844L173.956 62.8843L174.326 62.8823L174.315 60.8823ZM186.691 56.1496C184.933 57.9671 183.329 59.1186 181.462 59.8352C179.581 60.5572 177.358 60.8672 174.315 60.8823L174.325 62.8823C177.483 62.8666 179.978 62.547 182.178 61.7024C184.392 60.8525 186.232 59.5005 188.129 57.54L186.691 56.1496ZM190.255 51.8865C190.071 51.711 190.02 51.5138 190.006 51.4224C189.998 51.374 189.998 51.3378 189.999 51.3188C189.999 51.3086 190 51.3011 190 51.2966C190 51.2942 190.001 51.2925 190.001 51.2914C190.001 51.2909 190.001 51.2904 190.001 51.2902C190.001 51.2899 190.001 51.2898 190.001 51.2898C190.001 51.2898 190.001 51.2899 190.001 51.2901C190.001 51.2904 190.001 51.2908 190.001 51.2913C190 51.2923 190 51.2938 190 51.2957C189.999 51.2997 189.998 51.3052 189.996 51.3125C189.992 51.3271 189.987 51.3469 189.979 51.372C189.963 51.423 189.939 51.4883 189.906 51.5685C189.769 51.8995 189.52 52.3666 189.182 52.9113C188.507 53.9973 187.561 55.2573 186.694 56.1466L188.126 57.5429C189.116 56.5279 190.147 55.1463 190.88 53.967C191.246 53.3789 191.558 52.8075 191.754 52.3332C191.85 52.1022 191.939 51.8453 191.977 51.5962C191.997 51.4716 192.011 51.3035 191.983 51.1195C191.954 50.9339 191.871 50.6635 191.634 50.4381L190.255 51.8865ZM188.967 52.8689C189.544 52.6027 190.078 52.3874 190.469 52.2561C190.669 52.1889 190.803 52.1535 190.874 52.14C190.914 52.1324 190.896 52.1393 190.842 52.1385C190.815 52.1382 190.746 52.1357 190.655 52.1116C190.57 52.0891 190.392 52.0284 190.228 51.8604L191.66 50.4641C191.482 50.2808 191.281 50.2085 191.167 50.1783C191.047 50.1463 190.94 50.1397 190.87 50.1387C190.73 50.1368 190.598 50.1566 190.502 50.175C190.299 50.2133 190.066 50.2815 189.832 50.3602C189.354 50.5208 188.751 50.7662 188.129 51.0529L188.967 52.8689ZM183.216 54.0052C184.674 54.0052 185.601 53.9935 186.422 53.8331C187.272 53.6672 187.969 53.3506 188.983 52.8615L188.114 51.0603C187.09 51.5541 186.605 51.7597 186.039 51.8702C185.445 51.9863 184.724 52.0052 183.216 52.0052V54.0052ZM177.953 52.9969C178.721 53.406 179.311 53.6897 180.118 53.842C180.878 53.9853 181.797 54.0052 183.216 54.0052V52.0052C181.76 52.0052 181.032 51.9792 180.489 51.8767C179.993 51.7832 179.625 51.6216 178.894 51.2321L177.953 52.9969ZM174.924 51.1585C175.675 51.672 177.022 52.4877 177.944 52.9918L178.904 51.2371C178.028 50.7583 176.739 49.9768 176.053 49.5074L174.924 51.1585ZM166.053 48.6385C168.567 48.1013 171.759 48.9159 174.91 51.1489L176.067 49.517C172.629 47.0811 168.871 45.9912 165.635 46.6827L166.053 48.6385ZM89.3181 64.1216C85.1461 65.4209 82.5638 67.0635 80.7736 69.8853L82.4624 70.9567C83.9071 68.6796 85.9975 67.2505 89.9129 66.0311L89.3181 64.1216ZM99.5837 66.1302C99.2214 65.4136 98.4999 64.9288 97.7896 64.6005C97.0462 64.257 96.1466 64.0077 95.204 63.8517C93.331 63.5418 91.1092 63.5723 89.3223 64.1203L89.9087 66.0324C91.3268 65.5975 93.2236 65.5512 94.8775 65.8249C95.6985 65.9607 96.4144 66.1683 96.9506 66.4161C97.5199 66.6791 97.7419 66.92 97.7989 67.0327L99.5837 66.1302ZM100.138 69.1135C100.09 68.5142 100.011 67.9073 99.9236 67.4041C99.8797 67.1528 99.8322 66.9186 99.7828 66.7192C99.7389 66.5415 99.6774 66.3221 99.5902 66.1432L97.7925 67.0197C97.7801 66.9944 97.801 67.0361 97.8413 67.1992C97.8762 67.3405 97.9148 67.5268 97.9533 67.7477C98.0303 68.1891 98.1013 68.734 98.1437 69.2712L100.138 69.1135ZM100.317 71.1633L100.137 69.1054L98.1444 69.2793L98.3241 71.3373L100.317 71.1633ZM97.6195 72.8474L99.6263 72.2024L99.0143 70.2983L97.0075 70.9434L97.6195 72.8474ZM94.5008 74.2515C95.1377 73.8073 96.5299 73.1711 97.5981 72.854L97.0289 70.9367C95.8206 71.2954 94.2175 72.0108 93.3568 72.6109L94.5008 74.2515ZM91.0911 74.9406C91.6335 75.106 92.1913 75.2625 92.8195 75.1209C93.3762 74.9954 93.9008 74.6474 94.4792 74.2661L93.3784 72.5963C92.6987 73.0444 92.5044 73.1417 92.3797 73.1698C92.3264 73.1818 92.2402 73.2001 91.6744 73.0276L91.0911 74.9406ZM87.8183 74.6462C88.4425 74.6462 89.1447 74.6828 89.7644 74.7416C90.4066 74.8025 90.8859 74.8806 91.1016 74.9438L91.6639 73.0244C91.2506 72.9033 90.6066 72.8125 89.9533 72.7505C89.2776 72.6864 88.5121 72.6462 87.8183 72.6462V74.6462ZM81.8937 76.9425C82.9903 75.9658 83.8222 75.4086 84.6694 75.0824C85.512 74.758 86.4494 74.6315 87.8075 74.6462L87.8291 72.6463C86.3416 72.6302 85.1224 72.7648 83.9507 73.216C82.7836 73.6654 81.7433 74.3982 80.5635 75.4489L81.8937 76.9425ZM80.3924 78.2665L81.89 76.9457L80.5672 75.4457L79.0695 76.7665L80.3924 78.2665ZM78.644 76.426L78.7339 77.5932L80.728 77.4397L80.6381 76.2725L78.644 76.426ZM80.7796 69.876C80.0752 70.9595 79.5134 72.1346 79.1414 73.2541C78.7741 74.3596 78.57 75.4767 78.6441 76.427L80.638 76.2715C80.5924 75.686 80.7178 74.8526 81.0394 73.8848C81.3563 72.9309 81.8429 71.9098 82.4564 70.9661L80.7796 69.876ZM91.9452 77.4943C92.3727 76.914 93.1709 76.1597 94.1209 75.441C95.0646 74.7272 96.0772 74.1098 96.8892 73.7685L96.1143 71.9247C95.0992 72.3513 93.9401 73.07 92.9144 73.846C91.895 74.617 90.9259 75.506 90.335 76.308L91.9452 77.4943ZM89.7914 84.1841C90.4161 80.2492 90.8972 78.8915 91.9401 77.5012L90.3402 76.3011C88.9868 78.1053 88.4495 79.8807 87.8161 83.8706L89.7914 84.1841ZM83.8636 92.6602C84.9733 92.0988 85.8675 91.6436 86.5675 91.2001C87.2826 90.7468 87.8556 90.2694 88.2991 89.6322C88.7391 89 89.003 88.28 89.2112 87.4203C89.4169 86.5712 89.5843 85.5118 89.7918 84.1815L87.8157 83.8732C87.6039 85.2305 87.4493 86.1984 87.2674 86.9495C87.0881 87.6899 86.899 88.1428 86.6576 88.4897C86.4196 88.8316 86.0828 89.1394 85.4969 89.5107C84.8957 89.8917 84.0976 90.3004 82.9608 90.8755L83.8636 92.6602ZM74.2461 102.805C75.5222 98.5379 78.3945 95.4346 83.8646 92.6597L82.9598 90.876C77.1675 93.8144 73.8095 97.2843 72.3299 102.232L74.2461 102.805ZM72.9286 107.754C73.321 107.754 73.5554 107.986 73.6396 108.096C73.683 108.152 73.7071 108.199 73.7181 108.223C73.7299 108.248 73.7348 108.264 73.7353 108.265C73.7356 108.266 73.7286 108.243 73.7195 108.187C73.7108 108.133 73.7022 108.063 73.6949 107.974C73.6648 107.609 73.6661 107.066 73.7023 106.43C73.7753 105.15 73.9788 103.682 74.2446 102.81L72.3314 102.227C71.9981 103.321 71.7823 104.97 71.7055 106.317C71.6669 106.994 71.6607 107.641 71.7017 108.138C71.7214 108.377 71.7562 108.64 71.8284 108.868C71.8628 108.977 71.9274 109.15 72.0544 109.315C72.1875 109.488 72.4762 109.754 72.9286 109.754V107.754ZM74.1199 106.102C73.6499 106.645 73.2066 107.129 72.8716 107.472C72.7023 107.646 72.5713 107.773 72.4837 107.85C72.4377 107.891 72.4206 107.904 72.4257 107.9C72.427 107.899 72.4547 107.879 72.5014 107.855C72.513 107.849 72.6832 107.754 72.9286 107.754V109.754C73.1889 109.754 73.3799 109.652 73.4179 109.633C73.4909 109.595 73.5505 109.554 73.5889 109.527C73.6681 109.47 73.7461 109.404 73.8133 109.345C73.9522 109.221 74.1208 109.056 74.3035 108.869C74.6724 108.49 75.1426 107.976 75.6311 107.412L74.1199 106.102ZM81.0383 101.773C77.9893 102.652 76.1439 103.796 74.1239 106.098L75.6271 107.417C77.3813 105.418 78.8906 104.474 81.5926 103.694L81.0383 101.773ZM86.1004 101.749C84.8053 101.522 83.9728 101.388 83.2512 101.388C82.4865 101.388 81.8791 101.538 81.0461 101.771L81.5848 103.697C82.3992 103.469 82.7803 103.388 83.2512 103.388C83.7651 103.388 84.4153 103.484 85.7561 103.719L86.1004 101.749ZM93.0679 101.776C91.2496 102.325 89.633 102.352 86.0967 101.748L85.7598 103.719C89.4123 104.344 91.3901 104.371 93.6454 103.691L93.0679 101.776ZM100.791 93.3788C98.6965 98.3905 96.3851 100.761 93.0641 101.777L93.6493 103.69C97.7566 102.433 100.418 99.4591 102.636 94.15L100.791 93.3788ZM105.239 87.3185C104.183 88.1273 103.359 88.9151 102.647 89.8874C101.941 90.8532 101.374 91.9633 100.789 93.3837L102.638 94.1451C103.192 92.801 103.688 91.8532 104.262 91.0681C104.831 90.2897 105.505 89.6337 106.455 88.9067L105.239 87.3185ZM106.435 86.5154C106.435 86.3263 106.496 86.2043 106.502 86.1922C106.516 86.164 106.521 86.1613 106.501 86.1881C106.463 86.2409 106.385 86.3315 106.26 86.4567C106.014 86.7029 105.656 87.0093 105.251 87.3098L106.443 88.9155C106.907 88.5709 107.343 88.2016 107.673 87.8718C107.836 87.709 107.993 87.5367 108.116 87.3677C108.178 87.2836 108.246 87.1803 108.302 87.0639C108.351 86.9637 108.435 86.7659 108.435 86.5154H106.435ZM105.94 86.077C106.121 86.2623 106.278 86.451 106.383 86.6007C106.436 86.6766 106.463 86.7244 106.472 86.7438C106.477 86.7528 106.47 86.7421 106.462 86.7146C106.455 86.6916 106.435 86.6198 106.435 86.5154H108.435C108.435 86.2287 108.329 85.9899 108.272 85.8713C108.201 85.7247 108.111 85.5824 108.022 85.4547C107.842 85.1974 107.611 84.9254 107.372 84.6807L105.94 86.077ZM99.4526 75.3292C100.897 79.4258 103.486 83.7551 105.968 86.1051L107.343 84.6526C105.153 82.5795 102.71 78.5539 101.339 74.6642L99.4526 75.3292ZM96.8908 73.7678C97.5325 73.4968 97.9482 73.3432 98.2467 73.2791C98.527 73.2189 98.5577 73.2707 98.5239 73.2519C98.5221 73.2509 98.6242 73.3073 98.8096 73.676C98.9907 74.036 99.1864 74.5573 99.4503 75.3227L101.341 74.6708C101.081 73.9157 100.846 73.2736 100.596 72.7774C100.351 72.2899 100.023 71.7972 99.4967 71.5044C98.9388 71.1938 98.3517 71.211 97.827 71.3236C97.3205 71.4323 96.744 71.6588 96.1128 71.9253L96.8908 73.7678ZM150.195 73.1573C150.069 73.3071 149.965 73.5014 149.896 73.6378C149.813 73.8001 149.724 73.9938 149.633 74.2018C149.451 74.6194 149.249 75.13 149.064 75.6361L150.943 76.323C151.117 75.8461 151.304 75.3738 151.467 75.0004C151.548 74.813 151.62 74.6592 151.678 74.546C151.749 74.4069 151.764 74.3978 151.729 74.44L150.195 73.1573ZM152.508 72.5979C152.103 72.5286 151.69 72.4951 151.31 72.5527C150.916 72.6123 150.476 72.785 150.165 73.1944L151.759 74.403C151.658 74.5359 151.547 74.5396 151.609 74.5302C151.686 74.5186 151.858 74.5158 152.171 74.5694L152.508 72.5979ZM156.084 72.7679C155.362 72.7679 154.591 72.7528 153.931 72.7229C153.245 72.6918 152.752 72.6474 152.541 72.604L152.139 74.5633C152.527 74.6428 153.172 74.6905 153.841 74.7208C154.536 74.7524 155.338 74.7679 156.084 74.7679V72.7679ZM160.438 73.9159C159.942 73.4691 159.493 73.0754 158.744 72.8955C158.113 72.7439 157.286 72.7534 156.072 72.768L156.096 74.7679C157.427 74.7518 157.948 74.7612 158.276 74.8401C158.486 74.8905 158.606 74.9576 159.099 75.4016L160.438 73.9159ZM168.759 75.9982C165.75 76.8248 162.893 76.126 160.437 73.9155L159.099 75.402C162.035 78.0446 165.588 78.9431 169.289 77.9267L168.759 75.9982ZM171.836 75.8957C171.668 75.7234 171.484 75.6544 171.4 75.6275C171.303 75.5961 171.216 75.5831 171.159 75.5768C171.045 75.5641 170.936 75.5664 170.853 75.5708C170.681 75.58 170.479 75.6074 170.273 75.643C169.853 75.7155 169.316 75.8395 168.75 76.0007L169.298 77.9242C169.81 77.7782 170.277 77.6719 170.613 77.6138C170.785 77.5842 170.899 77.5712 170.96 77.5679C170.994 77.5661 170.98 77.5692 170.938 77.5645C170.917 77.5622 170.861 77.555 170.788 77.5313C170.728 77.5121 170.561 77.4528 170.404 77.292L171.836 75.8957ZM165.723 83.5495C167.19 82.9946 168.954 81.5695 170.215 80.2485C170.855 79.5782 171.423 78.8754 171.783 78.2497C171.96 77.943 172.122 77.595 172.191 77.2413C172.257 76.8988 172.268 76.3383 171.836 75.8957L170.404 77.292C170.175 77.0568 170.237 76.8101 170.227 76.8619C170.219 76.9025 170.178 77.0291 170.05 77.2513C169.801 77.6833 169.353 78.2553 168.768 78.8674C167.581 80.1112 166.065 81.2817 165.015 81.679L165.723 83.5495ZM148.903 79.075C150.138 81.4994 152.957 83.1502 156.019 83.9361C159.114 84.7305 162.7 84.7102 165.728 83.5478L165.011 81.6806C162.438 82.6684 159.285 82.7095 156.516 81.9989C153.714 81.2796 151.547 79.8588 150.685 78.1672L148.903 79.075ZM149.061 75.6439C148.789 76.4075 148.585 77.008 148.542 77.5295C148.49 78.1642 148.674 78.6232 148.902 79.0734L150.686 78.1689C150.525 77.8512 150.528 77.788 150.536 77.6932C150.553 77.4851 150.648 77.1488 150.945 76.3152L149.061 75.6439ZM138.503 90.9538C142.102 88.9642 145.72 85.5311 148.165 81.8811L146.504 80.7679C144.216 84.1827 140.826 87.3843 137.535 89.2035L138.503 90.9538ZM137.85 91.4051C137.811 91.5114 137.768 91.5465 137.809 91.4986C137.837 91.4659 137.888 91.4137 137.966 91.3463C138.12 91.2117 138.326 91.0613 138.536 90.9349L137.503 89.2224C137.203 89.4032 136.9 89.6214 136.65 89.84C136.525 89.9492 136.4 90.0699 136.291 90.1965C136.196 90.3079 136.056 90.4889 135.972 90.7181L137.85 91.4051ZM141.312 95.6583C140.577 95.0654 139.635 93.9747 138.898 92.9221C138.533 92.4012 138.242 91.9231 138.061 91.5551C137.969 91.3687 137.92 91.2389 137.899 91.1629C137.864 91.0379 137.933 91.1714 137.853 91.3958L135.968 90.7274C135.829 91.1207 135.918 91.5067 135.972 91.6993C136.039 91.9411 136.146 92.1943 136.266 92.4379C136.508 92.93 136.861 93.5001 137.26 94.0696C138.05 95.1979 139.116 96.457 140.058 97.2156L141.312 95.6583ZM150.518 97.8638C147.65 97.9254 145.977 97.857 144.706 97.5433C143.494 97.2439 142.594 96.7069 141.318 95.6629L140.052 97.2109C141.442 98.3479 142.609 99.0856 144.227 99.485C145.787 99.8701 147.708 99.9246 150.561 99.8633L150.518 97.8638ZM150.686 97.8611L150.524 97.8637L150.555 99.8634L150.718 99.8608L150.686 97.8611ZM156.836 98.5189C156.136 98.1114 155.362 97.9497 154.416 97.8822C153.486 97.8159 152.281 97.8358 150.686 97.8611L150.718 99.8608C152.352 99.835 153.451 99.8185 154.274 99.8772C155.081 99.9347 155.508 100.06 155.829 100.247L156.836 98.5189ZM159.456 101.414C158.524 100.108 157.829 99.0969 156.836 98.5188L155.829 100.247C156.364 100.558 156.793 101.125 157.828 102.575L159.456 101.414ZM159.501 101.477L159.456 101.414L157.828 102.576L157.873 102.639L159.501 101.477ZM166.148 107.586C163.602 106.295 161.651 104.516 159.503 101.48L157.871 102.636C160.156 105.866 162.338 107.896 165.244 109.37L166.148 107.586ZM174.417 109.27C171.733 109.663 169.337 109.206 166.149 107.586L165.243 109.369C168.705 111.128 171.52 111.716 174.707 111.249L174.417 109.27ZM176.718 108.803C176.79 108.757 176.797 108.77 176.622 108.823C176.486 108.864 176.299 108.913 176.069 108.966C175.611 109.071 175.023 109.181 174.417 109.27L174.707 111.249C175.359 111.153 176 111.033 176.515 110.915C176.772 110.857 177.008 110.796 177.204 110.737C177.36 110.689 177.606 110.61 177.798 110.487L176.718 108.803ZM174.26 108.341C175.545 109.047 176.199 109.448 176.481 109.692C176.654 109.841 176.481 109.76 176.443 109.478C176.417 109.292 176.464 109.117 176.542 108.987C176.576 108.93 176.61 108.892 176.633 108.869C176.655 108.847 176.67 108.836 176.672 108.835L177.844 110.455C178.079 110.285 178.515 109.873 178.424 109.209C178.355 108.699 177.993 108.355 177.788 108.178C177.314 107.768 176.454 107.264 175.223 106.588L174.26 108.341ZM168.858 102.242C169.7 104.59 171.918 107.04 174.256 108.338L175.227 106.59C173.252 105.493 171.397 103.397 170.741 101.567L168.858 102.242ZM167.876 97.1192C168.058 98.9579 168.487 101.24 168.862 102.251L170.737 101.558C170.453 100.788 170.043 98.7077 169.866 96.9219L167.876 97.1192ZM164.145 87.9493C165.359 88.994 166.126 89.9631 166.675 91.2807C167.238 92.6353 167.594 94.4132 167.876 97.1241L169.866 96.917C169.579 94.1604 169.201 92.1448 168.521 90.5123C167.826 88.8427 166.841 87.6309 165.45 86.4333L164.145 87.9493ZM157.379 84.9823C160.254 85.4786 162.331 86.4272 164.155 87.9574L165.44 86.4253C163.31 84.6381 160.894 83.5594 157.719 83.0114L157.379 84.9823ZM149.879 81.7016C152.186 83.5741 154.116 84.4033 157.374 84.9814L157.723 83.0122C154.751 82.4846 153.147 81.7779 151.14 80.1488L149.879 81.7016ZM148.653 80.5737C148.527 80.5737 148.433 80.5494 148.395 80.5387C148.348 80.5258 148.314 80.5122 148.296 80.5047C148.276 80.4966 148.262 80.4897 148.254 80.4861C148.246 80.4822 148.241 80.4795 148.24 80.4789C148.24 80.4788 148.259 80.4894 148.303 80.5183C148.388 80.5737 148.514 80.6621 148.677 80.781C149 81.0165 149.431 81.3457 149.888 81.7084L151.131 80.142C150.66 79.7675 150.207 79.4209 149.856 79.165C149.682 79.0382 149.524 78.9268 149.397 78.844C149.336 78.8039 149.267 78.7607 149.2 78.7242C149.168 78.7065 149.119 78.6808 149.06 78.6568C149.041 78.6487 148.873 78.5737 148.653 78.5737V80.5737ZM148.169 81.8757C148.475 81.4119 148.771 80.9915 148.995 80.693C149.109 80.5414 149.195 80.4346 149.249 80.3723C149.279 80.3384 149.283 80.337 149.267 80.3516C149.26 80.3574 149.226 80.3887 149.17 80.4245C149.141 80.4428 149.09 80.4737 149.019 80.5023C148.955 80.5284 148.825 80.5737 148.653 80.5737V78.5737C148.34 78.5737 148.122 78.7204 148.09 78.7413C148.015 78.7892 147.958 78.8386 147.925 78.8681C147.857 78.9301 147.794 78.9985 147.745 79.0544C147.642 79.1716 147.522 79.3239 147.397 79.491C147.142 79.8299 146.823 80.2849 146.5 80.7733L148.169 81.8757ZM105.792 88.0272C103.763 89.4261 102.008 91.8499 100.937 94.5653L102.797 95.2996C103.762 92.8546 105.302 90.7938 106.927 89.674L105.792 88.0272ZM108.606 86.8677C108.35 86.8677 108.093 86.9284 107.887 86.9902C107.666 87.0565 107.433 87.1467 107.202 87.2487C106.742 87.4524 106.241 87.7261 105.803 88.02L106.917 89.6812C107.257 89.4529 107.655 89.2352 108.011 89.0779C108.188 88.9994 108.342 88.9418 108.463 88.9055C108.599 88.8646 108.638 88.8677 108.606 88.8677V86.8677ZM113.61 90.8008C113.675 90.3389 113.453 89.9673 113.352 89.8117C113.219 89.6079 113.046 89.4146 112.874 89.2438C112.524 88.8971 112.062 88.5309 111.587 88.2017C111.11 87.8705 110.588 87.5545 110.105 87.3167C109.864 87.1978 109.618 87.0915 109.383 87.0129C109.162 86.9391 108.887 86.8677 108.606 86.8677V88.8677C108.572 88.8677 108.611 88.8635 108.749 88.9097C108.873 88.9513 109.033 89.0179 109.221 89.1108C109.597 89.2962 110.034 89.5581 110.447 89.845C110.864 90.134 111.226 90.4263 111.466 90.6642C111.588 90.7856 111.652 90.8662 111.676 90.9034C111.732 90.9888 111.588 90.8256 111.629 90.5249L113.61 90.8008ZM112.906 93.1707C113.074 92.684 113.236 92.1877 113.36 91.7783C113.471 91.4117 113.585 91.0116 113.613 90.7838L111.627 90.5419C111.629 90.5265 111.622 90.5725 111.584 90.7177C111.551 90.8438 111.504 91.0072 111.446 91.1984C111.33 91.5799 111.177 92.0513 111.016 92.5167L112.906 93.1707ZM112.332 95.8539C112.332 95.3301 112.567 94.0983 112.9 93.1871L111.022 92.5003C110.636 93.555 110.332 95.0262 110.332 95.8539H112.332ZM109.672 100.186C110.736 99.1255 111.417 98.4282 111.806 97.8326C112.02 97.5045 112.164 97.1837 112.245 96.8279C112.322 96.49 112.332 96.1614 112.332 95.8539H110.332C110.332 96.1301 110.32 96.2737 110.295 96.384C110.274 96.4765 110.235 96.58 110.131 96.7395C109.884 97.1192 109.382 97.6505 108.259 98.7704L109.672 100.186ZM106.902 104.362C107.201 103.318 107.37 102.843 107.683 102.364C108.018 101.853 108.542 101.299 109.667 100.191L108.264 98.7656C107.173 99.8391 106.484 100.545 106.01 101.269C105.514 102.027 105.279 102.765 104.979 103.81L106.902 104.362ZM106.425 107.753C106.326 106.867 106.438 105.938 106.9 104.368L104.981 103.803C104.485 105.49 104.296 106.711 104.437 107.975L106.425 107.753ZM105.787 110.416C106.128 110.216 106.28 109.902 106.348 109.719C106.423 109.516 106.458 109.302 106.476 109.11C106.511 108.722 106.488 108.251 106.423 107.739L104.439 107.989C104.494 108.429 104.501 108.741 104.484 108.929C104.475 109.025 104.464 109.048 104.472 109.024C104.474 109.02 104.539 108.829 104.776 108.691L105.787 110.416ZM100.749 105.549C101.298 106.742 102.126 108.004 102.887 108.932C103.265 109.393 103.658 109.809 104.021 110.098C104.197 110.238 104.416 110.39 104.661 110.484C104.878 110.568 105.365 110.698 105.834 110.387L104.728 108.72C105.071 108.493 105.38 108.618 105.381 108.618C105.41 108.629 105.374 108.619 105.266 108.533C105.061 108.37 104.771 108.075 104.433 107.664C103.764 106.848 103.034 105.73 102.565 104.712L100.749 105.549ZM99.909 100.022C99.8504 101.478 99.8199 102.383 99.9339 103.157C100.054 103.972 100.329 104.611 100.744 105.539L102.57 104.722C102.146 103.775 101.987 103.371 101.912 102.865C101.832 102.318 101.846 101.625 101.907 100.102L99.909 100.022ZM100.939 94.5598C100.254 96.265 100.032 97.5213 99.9094 100.013L101.907 100.111C102.024 97.7496 102.221 96.7329 102.795 95.305L100.939 94.5598ZM114.078 102.408C113.482 101.402 113.083 99.6597 113.007 97.7413C112.932 95.834 113.184 93.9564 113.717 92.7159L111.879 91.926C111.185 93.5421 110.927 95.7498 111.009 97.8203C111.09 99.8797 111.516 102.008 112.357 103.428L114.078 102.408ZM117.097 106.236C115.737 104.624 114.382 102.901 114.069 102.394L112.366 103.443C112.772 104.102 114.233 105.943 115.568 107.525L117.097 106.236ZM119.759 115.418C120.243 113.489 120.534 112.103 120.114 110.696C119.711 109.344 118.682 108.085 117.092 106.23L115.573 107.531C117.248 109.485 117.941 110.406 118.197 111.267C118.437 112.07 118.323 112.927 117.819 114.93L119.759 115.418ZM119.07 121.501C119.07 118.967 119.241 117.6 119.762 115.405L117.816 114.943C117.258 117.293 117.07 118.815 117.07 121.501H119.07ZM121.056 129.437C120.265 128.109 119.788 127.042 119.497 125.874C119.203 124.696 119.085 123.366 119.07 121.494L117.07 121.509C117.085 123.446 117.207 124.957 117.556 126.359C117.909 127.772 118.481 129.023 119.338 130.46L121.056 129.437ZM124.423 134.257C124.62 134.055 124.854 134.004 124.996 134C125.062 133.998 125.113 134.006 125.141 134.012C125.17 134.017 125.187 134.024 125.191 134.025C125.195 134.026 125.175 134.019 125.125 133.991C125.078 133.964 125.016 133.925 124.941 133.871C124.627 133.649 124.193 133.267 123.704 132.774C122.726 131.786 121.664 130.486 121.062 129.447L119.332 130.45C120.047 131.684 121.231 133.118 122.283 134.18C122.809 134.712 123.335 135.185 123.784 135.503C124.001 135.656 124.254 135.813 124.513 135.906C124.675 135.965 125.341 136.18 125.855 135.653L124.423 134.257ZM124.131 133.738C124.2 133.941 124.245 134.1 124.274 134.225C124.303 134.351 124.311 134.425 124.312 134.46C124.313 134.494 124.307 134.47 124.325 134.417C124.346 134.356 124.382 134.299 124.423 134.257L125.855 135.653C126.208 135.292 126.324 134.843 126.311 134.398C126.298 134.004 126.183 133.566 126.027 133.101L124.131 133.738ZM123.69 129.488C123.69 130.276 123.736 131.131 123.811 131.875C123.882 132.591 123.987 133.294 124.128 133.729L126.03 133.11C125.962 132.9 125.872 132.389 125.801 131.677C125.733 130.993 125.69 130.204 125.69 129.488H123.69ZM128.606 119.217C126.644 121.29 125.377 122.809 124.628 124.352C123.858 125.94 123.674 127.476 123.69 129.495L125.69 129.48C125.675 127.599 125.85 126.416 126.428 125.224C127.028 123.987 128.097 122.665 130.059 120.592L128.606 119.217ZM132.979 111.37C132.853 112.8 132.568 113.88 131.945 115.015C131.305 116.181 130.286 117.449 128.607 119.215L130.057 120.593C131.764 118.796 132.93 117.377 133.699 115.978C134.483 114.548 134.827 113.186 134.971 111.545L132.979 111.37ZM131.191 103.851C132.637 106.787 133.168 109.212 132.979 111.37L134.971 111.544C135.202 108.911 134.535 106.114 132.985 102.968L131.191 103.851ZM128.934 96.0764C129.04 97.6075 129.181 98.7196 129.522 99.885C129.859 101.038 130.38 102.203 131.191 103.851L132.985 102.968C132.179 101.33 131.726 100.298 131.442 99.3241C131.161 98.3625 131.032 97.4166 130.929 95.9374L128.934 96.0764ZM128.754 93.3073L128.934 96.0718L130.929 95.942L130.75 93.1776L128.754 93.3073ZM125.85 94.2117L129.744 94.2424L129.76 92.2425L125.866 92.2118L125.85 94.2117ZM116.002 92.6195C119.537 93.8598 121.626 94.1803 125.85 94.2117L125.865 92.2118C121.823 92.1817 119.958 91.8879 116.664 90.7323L116.002 92.6195ZM113.817 91.9387C113.725 91.9387 113.712 91.9238 113.895 91.9689C114.029 92.0018 114.212 92.0519 114.433 92.1169C114.873 92.2465 115.436 92.4262 116.009 92.6222L116.656 90.7297C116.061 90.5263 115.471 90.3375 114.997 90.1982C114.762 90.1289 114.547 90.0696 114.372 90.0266C114.247 89.9958 114.013 89.9387 113.817 89.9387V91.9387ZM113.717 92.7153C113.858 92.3865 114.017 92.1104 114.147 91.9342C114.178 91.8919 114.204 91.8597 114.225 91.8365C114.246 91.8125 114.256 91.8037 114.255 91.8051C114.253 91.8061 114.247 91.8118 114.234 91.8203C114.223 91.8287 114.202 91.8423 114.172 91.8574C114.121 91.8837 113.995 91.9387 113.817 91.9387V89.9387C113.378 89.9387 113.068 90.1879 112.951 90.2883C112.792 90.4252 112.652 90.5908 112.535 90.7496C112.298 91.0725 112.068 91.4876 111.879 91.9267L113.717 92.7153ZM134.448 90.6465C133.434 90.9066 132.54 91.2407 131.835 91.631C131.166 92.0014 130.519 92.5033 130.219 93.173L132.045 93.989C132.075 93.9215 132.252 93.6862 132.803 93.3808C133.319 93.0954 134.043 92.8151 134.945 92.5838L134.448 90.6465ZM137.722 92.4055C137.539 92.0297 137.37 91.6915 137.204 91.4253C137.039 91.1623 136.81 90.8582 136.456 90.6574C136.073 90.44 135.686 90.4209 135.365 90.4538C135.072 90.4838 134.747 90.568 134.443 90.6479L134.95 92.5824C135.29 92.4934 135.459 92.4547 135.569 92.4434C135.65 92.4351 135.574 92.4563 135.468 92.3963C135.392 92.3529 135.406 92.3233 135.509 92.4874C135.61 92.6484 135.733 92.89 135.924 93.2821L137.722 92.4055ZM139.631 94.9985C138.882 94.1715 138.018 92.9865 137.715 92.3903L135.932 93.2973C136.348 94.114 137.34 95.4478 138.149 96.3409L139.631 94.9985ZM141.446 99.4866C141.389 98.4175 141.346 97.6458 141.066 96.962C140.785 96.2714 140.284 95.7258 139.634 95.0019L138.146 96.3375C138.874 97.1494 139.092 97.4178 139.215 97.7178C139.34 98.0246 139.386 98.4201 139.449 99.5933L141.446 99.4866ZM142.118 103.347C141.822 102.437 141.532 100.682 141.445 99.4688L139.45 99.6111C139.543 100.917 139.852 102.847 140.215 103.965L142.118 103.347ZM144.517 106.705C143.617 105.859 143.139 105.36 142.822 104.911C142.526 104.49 142.346 104.079 142.121 103.358L140.212 103.954C140.466 104.768 140.721 105.402 141.188 106.064C141.635 106.697 142.25 107.319 143.147 108.163L144.517 106.705ZM142.662 110.889C143.528 110.943 144.253 110.969 144.793 110.928C145.061 110.907 145.348 110.866 145.608 110.771C145.863 110.678 146.238 110.478 146.435 110.044C146.635 109.605 146.534 109.187 146.429 108.929C146.323 108.67 146.157 108.43 145.991 108.223C145.656 107.802 145.144 107.295 144.517 106.705L143.147 108.163C143.779 108.756 144.192 109.174 144.427 109.469C144.483 109.539 144.522 109.594 144.547 109.634C144.574 109.675 144.58 109.692 144.578 109.686C144.576 109.681 144.556 109.633 144.551 109.552C144.545 109.463 144.557 109.343 144.614 109.216C144.672 109.09 144.753 109.005 144.818 108.955C144.878 108.908 144.921 108.893 144.922 108.893C144.923 108.892 144.903 108.899 144.851 108.909C144.801 108.918 144.732 108.927 144.64 108.934C144.255 108.963 143.657 108.947 142.786 108.893L142.662 110.889ZM131.254 102.409C132.559 105.055 134.116 107.1 136.017 108.526C137.929 109.96 140.134 110.724 142.659 110.889L142.789 108.893C140.611 108.751 138.787 108.103 137.217 106.926C135.637 105.741 134.258 103.977 133.047 101.524L131.254 102.409ZM129.803 96.7448C129.803 97.8758 129.821 98.6465 130.037 99.4793C130.246 100.287 130.631 101.116 131.25 102.401L133.051 101.532C132.412 100.206 132.123 99.5605 131.973 98.9786C131.829 98.4215 131.803 97.8867 131.803 96.7448H129.803ZM130.209 93.1954C130.055 93.5652 129.964 94.1681 129.905 94.7247C129.842 95.3319 129.803 96.0501 129.803 96.7448H131.803C131.803 96.1187 131.838 95.47 131.895 94.933C131.923 94.6643 131.955 94.433 131.988 94.252C132.005 94.1617 132.021 94.0901 132.035 94.0365C132.049 93.9791 132.058 93.96 132.055 93.9666L130.209 93.1954Z" fill="url(#paint0_linear_1633:2155)" mask="url(#path-1-inside-1_1633:2155)"/>
<g filter="url(#filter0_b_1633:2155)">
<rect x="1" y="58" width="248" height="24" fill="white" fill-opacity="0.4"/>
</g>
<path d="M100.879 63.4V76H98.5746V65.38H93.6066L93.4986 68.53C93.4386 70.294 93.2946 71.728 93.0666 72.832C92.8386 73.924 92.4726 74.758 91.9686 75.334C91.4646 75.898 90.7686 76.18 89.8806 76.18C89.5686 76.18 89.1426 76.12 88.6026 76L88.7646 73.966C88.9206 74.014 89.1006 74.038 89.3046 74.038C90.0366 74.038 90.5526 73.606 90.8526 72.742C91.1646 71.866 91.3566 70.492 91.4286 68.62L91.6086 63.4H100.879ZM113.171 71.248C113.171 71.404 113.159 71.626 113.135 71.914H105.593C105.725 72.622 106.067 73.186 106.619 73.606C107.183 74.014 107.879 74.218 108.707 74.218C109.763 74.218 110.633 73.87 111.317 73.174L112.523 74.56C112.091 75.076 111.545 75.466 110.885 75.73C110.225 75.994 109.481 76.126 108.653 76.126C107.597 76.126 106.667 75.916 105.863 75.496C105.059 75.076 104.435 74.494 103.991 73.75C103.559 72.994 103.343 72.142 103.343 71.194C103.343 70.258 103.553 69.418 103.973 68.674C104.405 67.918 104.999 67.33 105.755 66.91C106.511 66.49 107.363 66.28 108.311 66.28C109.247 66.28 110.081 66.49 110.813 66.91C111.557 67.318 112.133 67.9 112.541 68.656C112.961 69.4 113.171 70.264 113.171 71.248ZM108.311 68.08C107.591 68.08 106.979 68.296 106.475 68.728C105.983 69.148 105.683 69.712 105.575 70.42H111.029C110.933 69.724 110.639 69.16 110.147 68.728C109.655 68.296 109.043 68.08 108.311 68.08ZM122.895 68.296H119.529V76H117.279V68.296H113.895V66.388H122.895V68.296ZM124.527 66.388H126.777V70.294H131.619V66.388H133.869V76H131.619V72.202H126.777V76H124.527V66.388ZM136.884 66.388H139.134V72.724L144.444 66.388H146.496V76H144.246V69.664L138.954 76H136.884V66.388ZM149.523 66.388H151.773V72.724L157.083 66.388H159.135V76H156.885V69.664L151.593 76H149.523V66.388ZM154.185 65.254C153.213 65.254 152.469 65.032 151.953 64.588C151.449 64.132 151.191 63.472 151.179 62.608H152.673C152.685 63.04 152.817 63.382 153.069 63.634C153.333 63.886 153.699 64.012 154.167 64.012C154.623 64.012 154.983 63.886 155.247 63.634C155.523 63.382 155.667 63.04 155.679 62.608H157.209C157.197 63.472 156.933 64.132 156.417 64.588C155.901 65.032 155.157 65.254 154.185 65.254Z" fill="#242424"/>
<defs>
<filter id="filter0_b_1633:2155" x="-6" y="51" width="262" height="38" filterUnits="userSpaceOnUse" color-interpolation-filters="sRGB">
<feFlood flood-opacity="0" result="BackgroundImageFix"/>
<feGaussianBlur in="BackgroundImage" stdDeviation="3.5"/>
<feComposite in2="SourceAlpha" operator="in" result="effect1_backgroundBlur_1633:2155"/>
<feBlend mode="normal" in="SourceGraphic" in2="effect1_backgroundBlur_1633:2155" result="shape"/>
</filter>
<linearGradient id="paint0_linear_1633:2155" x1="334" y1="2.24261e-07" x2="251.036" y2="182.267" gradientUnits="userSpaceOnUse">
<stop stop-color="white" stop-opacity="0.6"/>
<stop offset="1" stop-color="white" stop-opacity="0.4"/>
</linearGradient>
</defs>
</svg>
