<svg width="252" height="142" viewBox="0 0 252 142" fill="none" xmlns="http://www.w3.org/2000/svg">
<mask id="path-1-outside-1_1633:2176" maskUnits="userSpaceOnUse" x="0" y="0" width="252" height="142" fill="black">
<rect fill="white" width="252" height="142"/>
<path fill-rule="evenodd" clip-rule="evenodd" d="M26 1C12.1929 1 1 12.1929 1 26V116C1 129.807 12.1929 141 26 141H226C239.807 141 251 129.807 251 116V26C251 12.1929 239.807 1 226 1H26ZM99.0021 7.77566C98.1035 6.39342 97.3547 5.2262 97.3547 5.16477C97.3547 4.48901 101.758 6.02482 103.825 7.40706C107.898 10.1101 110.384 14.1647 111.493 19.9086C112.331 24.3318 112.87 24.9461 117.693 26.8198C121.946 28.4785 123.773 30.0757 125.361 33.3624C126.469 35.6968 127.128 39.4135 126.469 39.8435C126.289 39.9357 125.121 40.1814 123.833 40.335C120.239 40.7957 117.034 41.8094 113.919 43.4373C112.361 44.2667 111.043 44.9424 110.953 44.9424C110.864 44.9424 110.414 44.0516 109.935 42.9766C108.917 40.6114 107.539 38.9835 104.993 37.1098C102.626 35.3896 101.039 33.5467 99.9007 31.2429C99.062 29.5843 99.0021 29.1849 99.032 26.359C99.032 23.5639 99.1219 23.0417 100.17 20.3694C102.207 15.0861 101.938 12.1988 99.0021 7.77566ZM155.313 5.68651C155.271 5.83751 155.155 6.35208 155.017 6.96426L155.017 6.96481C154.959 7.22418 154.896 7.50106 154.834 7.77522C154.145 11.0619 152.348 13.8263 149.982 15.2393C149.293 15.6693 147.585 16.4065 146.178 16.9287C142.044 18.4338 141.385 18.8024 139.678 20.4611C136.802 23.2563 136.353 24.6078 136.023 31.4575C135.784 36.3107 135.724 36.6793 134.855 38.6451C134.316 39.7817 133.897 40.826 133.897 40.9489C133.897 41.0717 134.945 41.6246 136.233 42.1775C139.678 43.6519 141.864 45.1263 144.59 47.7986C146.657 49.8566 147.166 50.1945 147.795 50.0409C148.724 49.7952 150.82 47.1536 151.839 44.942C152.528 43.4676 152.618 42.884 152.618 40.181C152.588 37.6622 152.468 36.71 151.809 34.8056C150.82 31.9183 150.611 30.0446 151.15 28.7238C151.359 28.1709 152.378 26.7886 153.366 25.6521C156.362 22.2733 158.159 17.758 158.159 13.6113C158.159 9.9868 155.912 3.75138 155.313 5.68651ZM126.976 20.8623C126.496 20.2787 126.107 19.6644 126.107 19.4801C126.107 18.4664 129.013 19.8487 131.289 21.9374C134.194 24.579 135.393 27.6199 135.393 32.2581C135.393 35.2376 134.794 37.4491 133.476 39.1693L132.487 40.4901L130.271 40.3979C129.043 40.3365 127.874 40.1522 127.695 39.9679C127.455 39.7836 127.305 38.9542 127.305 38.002C127.305 37.0805 127.036 35.514 126.676 34.5004L126.047 32.6267L126.856 30.8758C127.844 28.7871 128.384 25.4083 128.084 23.3503C127.934 22.3981 127.575 21.5381 126.976 20.8623ZM92.9515 35.39C91.0046 36.1272 89.5668 36.9872 89.5668 37.4172C89.5668 37.6323 90.6152 38.0009 91.9331 38.308C95.4676 39.0759 96.9653 40.4274 99.4813 45.1885C99.8408 45.8335 100.41 46.2328 101.458 46.6014C102.237 46.8779 103.615 47.5844 104.454 48.168C105.322 48.7516 106.131 49.243 106.281 49.243C106.401 49.243 107.239 48.5366 108.108 47.6458C109.576 46.1714 109.695 45.9564 109.546 44.8813C109.126 41.6254 106.041 37.9394 102.237 36.1272C100.2 35.1442 99.5712 34.9907 97.2049 34.8985C95.1082 34.8064 94.1796 34.9292 92.9515 35.39ZM153.519 45.22C158.491 43.9299 161.067 41.7798 162.056 38.0938C162.445 36.7423 162.775 36.6502 163.374 37.7867C165.47 42.0562 164.122 47.4623 159.959 51.5169C157.263 54.1277 155.346 55.1107 152.68 55.3257C150.314 55.51 150.074 55.3257 148.756 52.8377L147.858 51.179L149.655 49.3667C150.643 48.3838 151.662 47.0937 151.902 46.5408C152.231 45.7729 152.59 45.4657 153.519 45.22ZM121.435 41.687C109.633 44.4515 101.576 54.0657 101.037 66.0143C100.438 78.6695 108.585 89.6352 120.896 92.7683C123.921 93.5362 129.432 93.444 132.547 92.584C138.358 90.9867 143.48 87.4236 147.135 82.4169C148.423 80.666 150.28 76.6115 151.029 73.9699C151.987 70.5296 151.987 64.3556 151.029 60.6697C149.741 55.6322 146.476 50.4104 142.522 47.0931C140.365 45.2808 135.483 42.7006 132.847 41.9941C130.361 41.3184 123.801 41.1341 121.435 41.687ZM89.5962 49.2433C91.1538 48.3526 93.1606 47.3697 94.0592 47.0625C96.9048 46.1103 99.7204 46.4482 102.925 48.0454C106.011 49.6119 106.041 49.6734 104.243 52.4993C102.506 55.2945 101.158 58.6425 100.619 61.5299C100.439 62.6357 100.17 63.9258 100.05 64.4479C100.037 64.5098 100.026 64.5678 100.016 64.622L100.016 64.6221C99.9794 64.8195 99.9519 64.9676 99.8701 65.0739C99.6252 65.3925 98.8939 65.3372 95.9725 65.1162L95.2574 65.0623C93.1007 64.878 92.2321 64.9701 89.5662 65.6459C86.0318 66.5366 84.0548 66.6288 82.048 66.0145C78.6034 64.9394 77.1956 63.6493 74.2302 58.919C71.0851 53.9122 68.7188 52.3764 63.8065 52.1C62.3987 52.0078 61.1406 51.8235 61.0208 51.7007C60.7213 51.4242 63.7166 49.2433 65.4838 48.4754C68.7188 47.0318 72.6127 46.6939 75.9375 47.5539C76.926 47.7997 79.0826 48.7212 80.7001 49.5812C84.624 51.6392 85.5825 51.6085 89.5962 49.2433ZM166.844 48.6606C164.807 49.0599 162.141 50.565 159.954 52.5001C157.289 54.8346 155.881 55.6332 153.514 56.1554C152.406 56.3704 151.358 56.7083 151.208 56.8619C151.028 57.0462 151.178 57.8448 151.537 58.9506C152.496 61.9301 152.885 65.5239 152.646 69.8549L152.436 73.7866L153.514 74.0016C155.611 74.4009 159.116 73.9709 160.943 73.1108C163.429 71.9436 163.998 71.4214 166.844 67.6126L167.139 67.2158L167.139 67.2157L167.139 67.2156C168.845 64.9249 169.643 63.8527 170.71 63.3471C171.648 62.9022 172.795 62.896 174.951 62.8843L175.32 62.8823C181.521 62.8516 184.756 61.6229 188.41 57.8448C190.267 55.9404 192.364 52.5616 191.944 52.1623C191.825 52.0394 190.746 52.408 189.548 52.9609C187.511 53.9438 187.182 54.0052 184.216 54.0052C181.341 54.0052 180.922 53.9131 179.424 53.1145C178.525 52.623 177.207 51.8244 176.489 51.3329C173.194 48.9985 169.719 48.0463 166.844 48.6606ZM82.618 71.421C84.2355 68.8715 86.5718 67.3357 90.6155 66.0764C93.8205 65.0934 98.8526 65.9228 99.6913 67.5815C99.8411 67.8886 100.051 69.0558 100.141 70.1924L100.32 72.2503L98.3135 72.8954C97.1753 73.2333 95.6776 73.909 94.9288 74.4312C93.6707 75.2605 93.491 75.322 92.3827 74.9841C91.7537 74.7998 90.1362 74.6462 88.8183 74.6462C85.9727 74.6155 84.505 75.1684 82.2286 77.1957L80.7309 78.5165L80.6411 77.3493C80.5213 75.8134 81.3 73.4483 82.618 71.421ZM97.5018 73.8466C95.6746 74.6145 93.1585 76.5189 92.1401 77.9011C90.942 79.4984 90.4328 81.0649 89.8038 85.0273C88.9651 90.4027 88.9052 90.4949 84.4122 92.7679C78.781 95.6245 75.6658 98.9111 74.288 103.519C73.6889 105.484 73.4493 109.754 73.9286 109.754C74.0484 109.754 74.917 108.863 75.8755 107.757C77.7626 105.607 79.4399 104.563 82.3155 103.734C83.9629 103.273 84.2924 103.273 86.9283 103.734C90.5226 104.348 92.3198 104.348 94.3567 103.734C98.0709 102.597 100.557 99.9248 102.714 94.7644C103.852 91.9999 104.84 90.6484 106.847 89.1126C107.716 88.4676 108.435 87.7611 108.435 87.5154C108.435 87.3003 108.075 86.8089 107.656 86.3789C105.32 84.1673 102.803 79.9899 101.396 75.9967C100.347 72.9558 100.048 72.7715 97.5018 73.8466ZM151.003 76.9795C151.363 75.9966 151.782 75.0137 151.962 74.7987C152.172 74.5222 152.621 74.4608 153.34 74.5836C153.939 74.7065 155.616 74.7679 157.084 74.7679C159.63 74.7372 159.78 74.7679 160.768 75.6587C163.464 78.0853 166.669 78.8839 170.024 77.9624C171.102 77.6553 172.031 77.5017 172.12 77.5938C172.929 78.4232 168.885 82.662 166.369 83.6142C160.768 85.7644 152.89 83.7371 150.794 79.6211C150.404 78.8532 150.434 78.5768 151.003 76.9795ZM148.335 82.3245C145.968 85.8569 142.464 89.1742 139.019 91.0787C138.51 91.3858 138.001 91.8159 137.911 92.0616C137.671 92.7373 140.008 96.0854 141.685 97.4369C144.351 99.6178 145.819 99.9864 151.54 99.8635L151.702 99.861C154.931 99.8099 156.311 99.788 157.333 100.383C158.096 100.828 158.659 101.616 159.642 102.995L159.687 103.058C161.903 106.191 163.97 108.096 166.696 109.478C170.021 111.167 172.627 111.689 175.562 111.259C176.82 111.075 178.018 110.799 178.258 110.645C178.767 110.276 178.258 109.846 175.742 108.464C173.585 107.266 171.548 104.993 170.8 102.904C170.47 102.014 170.051 99.8328 169.871 98.0206C169.302 92.553 168.403 90.4336 165.797 88.1913C163.82 86.5326 161.574 85.519 158.549 84.9968C155.434 84.4439 153.666 83.676 151.51 81.9252C150.581 81.188 149.742 80.5737 149.653 80.5737C149.563 80.5737 148.964 81.3723 148.335 82.3245ZM102.867 95.9324C103.885 93.3522 105.533 91.11 107.36 89.8506C108.138 89.3284 109.157 88.8677 109.606 88.8677C110.595 88.8677 113.71 91.0178 113.62 91.6628C113.59 91.9086 113.29 92.8915 112.961 93.8437C112.602 94.8266 112.332 96.1782 112.332 96.8539C112.332 98.0211 112.152 98.2976 109.966 100.478C107.749 102.659 107.539 102.997 106.94 105.086C106.461 106.714 106.311 107.789 106.431 108.864C106.551 109.816 106.491 110.431 106.281 110.553C105.772 110.891 103.675 108.342 102.657 106.13C101.818 104.257 101.788 104.042 101.908 101.062C102.028 98.6355 102.238 97.499 102.867 95.9324ZM113.798 93.321C112.57 96.1776 112.78 101.492 114.218 103.918C114.577 104.502 115.985 106.283 117.333 107.881C120.598 111.689 120.777 112.242 119.789 116.174C119.25 118.447 119.07 119.891 119.07 122.501C119.1 126.31 119.549 128.184 121.197 130.948C122.515 133.221 125.69 136.416 126.139 135.955C126.379 135.709 126.379 135.31 126.079 134.419C125.869 133.774 125.69 131.993 125.69 130.488C125.66 126.587 126.408 125.051 130.332 120.904C133.717 117.341 134.706 115.529 134.975 112.457C135.185 110.061 134.586 107.45 133.088 104.41C131.471 101.123 131.141 100.017 130.931 97.0069L130.752 94.2425L126.858 94.2117C122.724 94.181 120.747 93.8739 117.333 92.6759C116.164 92.2766 115.026 91.9387 114.817 91.9387C114.577 91.9387 114.128 92.5531 113.798 93.321ZM132.132 94.581C132.462 93.8438 133.78 93.1066 135.697 92.6151C136.985 92.2773 137.074 92.308 137.823 93.8438C138.183 94.5503 139.111 95.8096 139.89 96.6697C141.268 98.2055 141.328 98.2977 141.448 100.54C141.537 101.799 141.837 103.642 142.166 104.656C142.646 106.192 143.035 106.745 144.832 108.434C147.348 110.799 147.199 111.106 143.724 110.891C139.021 110.584 135.667 108.065 133.151 102.967C131.893 100.356 131.803 100.018 131.803 97.7448C131.803 96.424 131.952 95.011 132.132 94.581Z"/>
</mask>
<path fill-rule="evenodd" clip-rule="evenodd" d="M26 1C12.1929 1 1 12.1929 1 26V116C1 129.807 12.1929 141 26 141H226C239.807 141 251 129.807 251 116V26C251 12.1929 239.807 1 226 1H26ZM99.0021 7.77566C98.1035 6.39342 97.3547 5.2262 97.3547 5.16477C97.3547 4.48901 101.758 6.02482 103.825 7.40706C107.898 10.1101 110.384 14.1647 111.493 19.9086C112.331 24.3318 112.87 24.9461 117.693 26.8198C121.946 28.4785 123.773 30.0757 125.361 33.3624C126.469 35.6968 127.128 39.4135 126.469 39.8435C126.289 39.9357 125.121 40.1814 123.833 40.335C120.239 40.7957 117.034 41.8094 113.919 43.4373C112.361 44.2667 111.043 44.9424 110.953 44.9424C110.864 44.9424 110.414 44.0516 109.935 42.9766C108.917 40.6114 107.539 38.9835 104.993 37.1098C102.626 35.3896 101.039 33.5467 99.9007 31.2429C99.062 29.5843 99.0021 29.1849 99.032 26.359C99.032 23.5639 99.1219 23.0417 100.17 20.3694C102.207 15.0861 101.938 12.1988 99.0021 7.77566ZM155.313 5.68651C155.271 5.83751 155.155 6.35208 155.017 6.96426L155.017 6.96481C154.959 7.22418 154.896 7.50106 154.834 7.77522C154.145 11.0619 152.348 13.8263 149.982 15.2393C149.293 15.6693 147.585 16.4065 146.178 16.9287C142.044 18.4338 141.385 18.8024 139.678 20.4611C136.802 23.2563 136.353 24.6078 136.023 31.4575C135.784 36.3107 135.724 36.6793 134.855 38.6451C134.316 39.7817 133.897 40.826 133.897 40.9489C133.897 41.0717 134.945 41.6246 136.233 42.1775C139.678 43.6519 141.864 45.1263 144.59 47.7986C146.657 49.8566 147.166 50.1945 147.795 50.0409C148.724 49.7952 150.82 47.1536 151.839 44.942C152.528 43.4676 152.618 42.884 152.618 40.181C152.588 37.6622 152.468 36.71 151.809 34.8056C150.82 31.9183 150.611 30.0446 151.15 28.7238C151.359 28.1709 152.378 26.7886 153.366 25.6521C156.362 22.2733 158.159 17.758 158.159 13.6113C158.159 9.9868 155.912 3.75138 155.313 5.68651ZM126.976 20.8623C126.496 20.2787 126.107 19.6644 126.107 19.4801C126.107 18.4664 129.013 19.8487 131.289 21.9374C134.194 24.579 135.393 27.6199 135.393 32.2581C135.393 35.2376 134.794 37.4491 133.476 39.1693L132.487 40.4901L130.271 40.3979C129.043 40.3365 127.874 40.1522 127.695 39.9679C127.455 39.7836 127.305 38.9542 127.305 38.002C127.305 37.0805 127.036 35.514 126.676 34.5004L126.047 32.6267L126.856 30.8758C127.844 28.7871 128.384 25.4083 128.084 23.3503C127.934 22.3981 127.575 21.5381 126.976 20.8623ZM92.9515 35.39C91.0046 36.1272 89.5668 36.9872 89.5668 37.4172C89.5668 37.6323 90.6152 38.0009 91.9331 38.308C95.4676 39.0759 96.9653 40.4274 99.4813 45.1885C99.8408 45.8335 100.41 46.2328 101.458 46.6014C102.237 46.8779 103.615 47.5844 104.454 48.168C105.322 48.7516 106.131 49.243 106.281 49.243C106.401 49.243 107.239 48.5366 108.108 47.6458C109.576 46.1714 109.695 45.9564 109.546 44.8813C109.126 41.6254 106.041 37.9394 102.237 36.1272C100.2 35.1442 99.5712 34.9907 97.2049 34.8985C95.1082 34.8064 94.1796 34.9292 92.9515 35.39ZM153.519 45.22C158.491 43.9299 161.067 41.7798 162.056 38.0938C162.445 36.7423 162.775 36.6502 163.374 37.7867C165.47 42.0562 164.122 47.4623 159.959 51.5169C157.263 54.1277 155.346 55.1107 152.68 55.3257C150.314 55.51 150.074 55.3257 148.756 52.8377L147.858 51.179L149.655 49.3667C150.643 48.3838 151.662 47.0937 151.902 46.5408C152.231 45.7729 152.59 45.4657 153.519 45.22ZM121.435 41.687C109.633 44.4515 101.576 54.0657 101.037 66.0143C100.438 78.6695 108.585 89.6352 120.896 92.7683C123.921 93.5362 129.432 93.444 132.547 92.584C138.358 90.9867 143.48 87.4236 147.135 82.4169C148.423 80.666 150.28 76.6115 151.029 73.9699C151.987 70.5296 151.987 64.3556 151.029 60.6697C149.741 55.6322 146.476 50.4104 142.522 47.0931C140.365 45.2808 135.483 42.7006 132.847 41.9941C130.361 41.3184 123.801 41.1341 121.435 41.687ZM89.5962 49.2433C91.1538 48.3526 93.1606 47.3697 94.0592 47.0625C96.9048 46.1103 99.7204 46.4482 102.925 48.0454C106.011 49.6119 106.041 49.6734 104.243 52.4993C102.506 55.2945 101.158 58.6425 100.619 61.5299C100.439 62.6357 100.17 63.9258 100.05 64.4479C100.037 64.5098 100.026 64.5678 100.016 64.622L100.016 64.6221C99.9794 64.8195 99.9519 64.9676 99.8701 65.0739C99.6252 65.3925 98.8939 65.3372 95.9725 65.1162L95.2574 65.0623C93.1007 64.878 92.2321 64.9701 89.5662 65.6459C86.0318 66.5366 84.0548 66.6288 82.048 66.0145C78.6034 64.9394 77.1956 63.6493 74.2302 58.919C71.0851 53.9122 68.7188 52.3764 63.8065 52.1C62.3987 52.0078 61.1406 51.8235 61.0208 51.7007C60.7213 51.4242 63.7166 49.2433 65.4838 48.4754C68.7188 47.0318 72.6127 46.6939 75.9375 47.5539C76.926 47.7997 79.0826 48.7212 80.7001 49.5812C84.624 51.6392 85.5825 51.6085 89.5962 49.2433ZM166.844 48.6606C164.807 49.0599 162.141 50.565 159.954 52.5001C157.289 54.8346 155.881 55.6332 153.514 56.1554C152.406 56.3704 151.358 56.7083 151.208 56.8619C151.028 57.0462 151.178 57.8448 151.537 58.9506C152.496 61.9301 152.885 65.5239 152.646 69.8549L152.436 73.7866L153.514 74.0016C155.611 74.4009 159.116 73.9709 160.943 73.1108C163.429 71.9436 163.998 71.4214 166.844 67.6126L167.139 67.2158L167.139 67.2157L167.139 67.2156C168.845 64.9249 169.643 63.8527 170.71 63.3471C171.648 62.9022 172.795 62.896 174.951 62.8843L175.32 62.8823C181.521 62.8516 184.756 61.6229 188.41 57.8448C190.267 55.9404 192.364 52.5616 191.944 52.1623C191.825 52.0394 190.746 52.408 189.548 52.9609C187.511 53.9438 187.182 54.0052 184.216 54.0052C181.341 54.0052 180.922 53.9131 179.424 53.1145C178.525 52.623 177.207 51.8244 176.489 51.3329C173.194 48.9985 169.719 48.0463 166.844 48.6606ZM82.618 71.421C84.2355 68.8715 86.5718 67.3357 90.6155 66.0764C93.8205 65.0934 98.8526 65.9228 99.6913 67.5815C99.8411 67.8886 100.051 69.0558 100.141 70.1924L100.32 72.2503L98.3135 72.8954C97.1753 73.2333 95.6776 73.909 94.9288 74.4312C93.6707 75.2605 93.491 75.322 92.3827 74.9841C91.7537 74.7998 90.1362 74.6462 88.8183 74.6462C85.9727 74.6155 84.505 75.1684 82.2286 77.1957L80.7309 78.5165L80.6411 77.3493C80.5213 75.8134 81.3 73.4483 82.618 71.421ZM97.5018 73.8466C95.6746 74.6145 93.1585 76.5189 92.1401 77.9011C90.942 79.4984 90.4328 81.0649 89.8038 85.0273C88.9651 90.4027 88.9052 90.4949 84.4122 92.7679C78.781 95.6245 75.6658 98.9111 74.288 103.519C73.6889 105.484 73.4493 109.754 73.9286 109.754C74.0484 109.754 74.917 108.863 75.8755 107.757C77.7626 105.607 79.4399 104.563 82.3155 103.734C83.9629 103.273 84.2924 103.273 86.9283 103.734C90.5226 104.348 92.3198 104.348 94.3567 103.734C98.0709 102.597 100.557 99.9248 102.714 94.7644C103.852 91.9999 104.84 90.6484 106.847 89.1126C107.716 88.4676 108.435 87.7611 108.435 87.5154C108.435 87.3003 108.075 86.8089 107.656 86.3789C105.32 84.1673 102.803 79.9899 101.396 75.9967C100.347 72.9558 100.048 72.7715 97.5018 73.8466ZM151.003 76.9795C151.363 75.9966 151.782 75.0137 151.962 74.7987C152.172 74.5222 152.621 74.4608 153.34 74.5836C153.939 74.7065 155.616 74.7679 157.084 74.7679C159.63 74.7372 159.78 74.7679 160.768 75.6587C163.464 78.0853 166.669 78.8839 170.024 77.9624C171.102 77.6553 172.031 77.5017 172.12 77.5938C172.929 78.4232 168.885 82.662 166.369 83.6142C160.768 85.7644 152.89 83.7371 150.794 79.6211C150.404 78.8532 150.434 78.5768 151.003 76.9795ZM148.335 82.3245C145.968 85.8569 142.464 89.1742 139.019 91.0787C138.51 91.3858 138.001 91.8159 137.911 92.0616C137.671 92.7373 140.008 96.0854 141.685 97.4369C144.351 99.6178 145.819 99.9864 151.54 99.8635L151.702 99.861C154.931 99.8099 156.311 99.788 157.333 100.383C158.096 100.828 158.659 101.616 159.642 102.995L159.687 103.058C161.903 106.191 163.97 108.096 166.696 109.478C170.021 111.167 172.627 111.689 175.562 111.259C176.82 111.075 178.018 110.799 178.258 110.645C178.767 110.276 178.258 109.846 175.742 108.464C173.585 107.266 171.548 104.993 170.8 102.904C170.47 102.014 170.051 99.8328 169.871 98.0206C169.302 92.553 168.403 90.4336 165.797 88.1913C163.82 86.5326 161.574 85.519 158.549 84.9968C155.434 84.4439 153.666 83.676 151.51 81.9252C150.581 81.188 149.742 80.5737 149.653 80.5737C149.563 80.5737 148.964 81.3723 148.335 82.3245ZM102.867 95.9324C103.885 93.3522 105.533 91.11 107.36 89.8506C108.138 89.3284 109.157 88.8677 109.606 88.8677C110.595 88.8677 113.71 91.0178 113.62 91.6628C113.59 91.9086 113.29 92.8915 112.961 93.8437C112.602 94.8266 112.332 96.1782 112.332 96.8539C112.332 98.0211 112.152 98.2976 109.966 100.478C107.749 102.659 107.539 102.997 106.94 105.086C106.461 106.714 106.311 107.789 106.431 108.864C106.551 109.816 106.491 110.431 106.281 110.553C105.772 110.891 103.675 108.342 102.657 106.13C101.818 104.257 101.788 104.042 101.908 101.062C102.028 98.6355 102.238 97.499 102.867 95.9324ZM113.798 93.321C112.57 96.1776 112.78 101.492 114.218 103.918C114.577 104.502 115.985 106.283 117.333 107.881C120.598 111.689 120.777 112.242 119.789 116.174C119.25 118.447 119.07 119.891 119.07 122.501C119.1 126.31 119.549 128.184 121.197 130.948C122.515 133.221 125.69 136.416 126.139 135.955C126.379 135.709 126.379 135.31 126.079 134.419C125.869 133.774 125.69 131.993 125.69 130.488C125.66 126.587 126.408 125.051 130.332 120.904C133.717 117.341 134.706 115.529 134.975 112.457C135.185 110.061 134.586 107.45 133.088 104.41C131.471 101.123 131.141 100.017 130.931 97.0069L130.752 94.2425L126.858 94.2117C122.724 94.181 120.747 93.8739 117.333 92.6759C116.164 92.2766 115.026 91.9387 114.817 91.9387C114.577 91.9387 114.128 92.5531 113.798 93.321ZM132.132 94.581C132.462 93.8438 133.78 93.1066 135.697 92.6151C136.985 92.2773 137.074 92.308 137.823 93.8438C138.183 94.5503 139.111 95.8096 139.89 96.6697C141.268 98.2055 141.328 98.2977 141.448 100.54C141.537 101.799 141.837 103.642 142.166 104.656C142.646 106.192 143.035 106.745 144.832 108.434C147.348 110.799 147.199 111.106 143.724 110.891C139.021 110.584 135.667 108.065 133.151 102.967C131.893 100.356 131.803 100.018 131.803 97.7448C131.803 96.424 131.952 95.011 132.132 94.581Z" fill="black" fill-opacity="0.2"/>
<path d="M99.0021 7.77566L98.1636 8.32073L98.1689 8.32861L99.0021 7.77566ZM103.825 7.40706L103.269 8.2383L103.272 8.24031L103.825 7.40706ZM111.493 19.9086L112.475 19.7223L112.474 19.7192L111.493 19.9086ZM117.693 26.8198L118.056 25.8881L118.055 25.8877L117.693 26.8198ZM125.361 33.3624L126.264 32.9335L126.261 32.9274L125.361 33.3624ZM126.469 39.8435L126.925 40.7334L126.972 40.7095L127.016 40.681L126.469 39.8435ZM123.833 40.335L123.715 39.342L123.706 39.3431L123.833 40.335ZM113.919 43.4373L113.456 42.551L113.449 42.5546L113.919 43.4373ZM109.935 42.9766L109.016 43.3721L109.022 43.3837L109.935 42.9766ZM104.993 37.1098L105.585 36.3043L105.581 36.3009L104.993 37.1098ZM99.9007 31.2429L100.797 30.8L100.793 30.7917L99.9007 31.2429ZM99.032 26.359L100.032 26.3696V26.359H99.032ZM100.17 20.3694L101.101 20.7346L101.103 20.7291L100.17 20.3694ZM155.017 6.96426L155.987 7.20799L155.99 7.19606L155.993 7.18405L155.017 6.96426ZM155.313 5.68651L154.358 5.39078L154.354 5.4044L154.35 5.41813L155.313 5.68651ZM155.017 6.96481L154.047 6.72108L154.044 6.73303L154.042 6.74506L155.017 6.96481ZM154.834 7.77522L153.859 7.55337L153.857 7.5617L153.855 7.57007L154.834 7.77522ZM149.982 15.2393L149.469 14.3807L149.46 14.3858L149.452 14.391L149.982 15.2393ZM146.178 16.9287L146.52 17.8684L146.525 17.8663L146.178 16.9287ZM139.678 20.4611L138.981 19.7438L138.981 19.744L139.678 20.4611ZM136.023 31.4575L137.022 31.5068L137.022 31.5056L136.023 31.4575ZM134.855 38.6451L135.759 39.0738L135.764 39.0616L135.77 39.0493L134.855 38.6451ZM136.233 42.1775L135.839 43.0964L135.84 43.0969L136.233 42.1775ZM144.59 47.7986L145.296 47.09L145.29 47.0845L144.59 47.7986ZM147.795 50.0409L148.032 51.0124L148.042 51.0101L148.051 51.0076L147.795 50.0409ZM151.839 44.942L150.933 44.5187L150.93 44.5237L151.839 44.942ZM152.618 40.181H153.618L153.617 40.1691L152.618 40.181ZM151.809 34.8056L150.863 35.1295L150.864 35.1326L151.809 34.8056ZM151.15 28.7238L152.076 29.1017L152.08 29.0901L152.085 29.0784L151.15 28.7238ZM153.366 25.6521L152.618 24.9887L152.612 24.9959L153.366 25.6521ZM126.976 20.8623L126.203 21.4969L126.215 21.5115L126.227 21.5257L126.976 20.8623ZM131.289 21.9374L130.613 22.6742L130.616 22.6773L131.289 21.9374ZM133.476 39.1693L132.682 38.561L132.675 38.5701L133.476 39.1693ZM132.487 40.4901L132.446 41.4892L132.972 41.5111L133.288 41.0892L132.487 40.4901ZM130.271 40.3979L130.221 41.3967L130.229 41.397L130.271 40.3979ZM127.695 39.9679L128.411 39.2697L128.361 39.2187L128.304 39.1752L127.695 39.9679ZM126.676 34.5004L125.728 34.8186L125.731 34.8266L125.734 34.8346L126.676 34.5004ZM126.047 32.6267L125.139 32.2073L124.973 32.5681L125.099 32.9449L126.047 32.6267ZM126.856 30.8758L125.952 30.4481L125.948 30.4565L126.856 30.8758ZM128.084 23.3503L129.074 23.2063L129.072 23.195L128.084 23.3503ZM92.9515 35.39L92.6003 34.4537L92.5974 34.4548L92.9515 35.39ZM91.9331 38.308L91.7061 39.2819L91.7135 39.2836L91.7208 39.2852L91.9331 38.308ZM99.4813 45.1885L98.5972 45.6557L98.6024 45.6655L98.6078 45.6752L99.4813 45.1885ZM101.458 46.6014L101.793 45.659L101.79 45.658L101.458 46.6014ZM104.454 48.168L103.882 48.9888L103.889 48.9935L103.896 48.998L104.454 48.168ZM108.108 47.6458L107.399 46.9402L107.392 46.9476L108.108 47.6458ZM109.546 44.8813L108.554 45.0091L108.555 45.0193L109.546 44.8813ZM102.237 36.1272L101.802 37.0278L101.807 37.0299L102.237 36.1272ZM97.2049 34.8985L97.161 35.8976L97.166 35.8977L97.2049 34.8985ZM162.056 38.0938L161.095 37.817L161.092 37.8259L161.09 37.8348L162.056 38.0938ZM153.519 45.22L153.268 44.252L153.263 44.2533L153.519 45.22ZM163.374 37.7867L164.271 37.3459L164.265 37.333L164.258 37.3204L163.374 37.7867ZM159.959 51.5169L160.655 52.2352L160.657 52.2333L159.959 51.5169ZM152.68 55.3257L152.758 56.3227L152.761 56.3224L152.68 55.3257ZM148.756 52.8377L149.64 52.3695L149.636 52.3613L148.756 52.8377ZM147.858 51.179L147.148 50.4748L146.625 51.0022L146.979 51.6553L147.858 51.179ZM149.655 49.3667L148.95 48.6576L148.945 48.6626L149.655 49.3667ZM151.902 46.5408L152.819 46.9385L152.821 46.9351L151.902 46.5408ZM101.037 66.0143L102.035 66.0616L102.036 66.0594L101.037 66.0143ZM121.435 41.687L121.207 40.7132L121.207 40.7133L121.435 41.687ZM120.896 92.7683L120.649 93.7374L120.65 93.7375L120.896 92.7683ZM132.547 92.584L132.282 91.6197L132.281 91.62L132.547 92.584ZM147.135 82.4169L146.329 81.8243L146.327 81.8273L147.135 82.4169ZM151.029 73.9699L151.991 74.2426L151.992 74.2383L151.029 73.9699ZM151.029 60.6697L150.06 60.9174L150.061 60.9214L151.029 60.6697ZM142.522 47.0931L141.878 47.8586L141.879 47.8591L142.522 47.0931ZM132.847 41.9941L132.585 42.9591L132.588 42.9601L132.847 41.9941ZM94.0592 47.0625L93.7419 46.1142L93.7358 46.1162L94.0592 47.0625ZM89.5962 49.2433L89.0997 48.3752L89.0885 48.3818L89.5962 49.2433ZM102.925 48.0454L103.378 47.1537L103.371 47.1504L102.925 48.0454ZM104.243 52.4993L103.399 51.9626L103.394 51.9714L104.243 52.4993ZM100.619 61.5299L99.636 61.3463L99.6338 61.3579L99.6319 61.3695L100.619 61.5299ZM100.05 64.4479L99.0752 64.2243L99.0728 64.2348L99.0706 64.2454L100.05 64.4479ZM100.016 64.622L100.965 64.9382L100.987 64.8728L100.999 64.805L100.016 64.622ZM100.016 64.6221L99.0675 64.3059L99.0457 64.3713L99.033 64.4392L100.016 64.6221ZM99.8701 65.0739L99.0773 64.4645L99.0773 64.4645L99.8701 65.0739ZM95.9725 65.1162L96.0479 64.1191L96.0477 64.119L95.9725 65.1162ZM95.2574 65.0623L95.1722 66.0587L95.1821 66.0594L95.2574 65.0623ZM89.5662 65.6459L89.8106 66.6155L89.812 66.6152L89.5662 65.6459ZM82.048 66.0145L81.75 66.9691L81.7553 66.9707L82.048 66.0145ZM74.2302 58.919L75.0775 58.3878L75.077 58.3871L74.2302 58.919ZM63.8065 52.1L63.7411 53.0979L63.7503 53.0984L63.8065 52.1ZM61.0208 51.7007L61.7368 51.0025L61.7184 50.9837L61.699 50.9658L61.0208 51.7007ZM65.4838 48.4754L65.8824 49.3926L65.8914 49.3886L65.4838 48.4754ZM75.9375 47.5539L75.6871 48.5221L75.6963 48.5244L75.9375 47.5539ZM80.7001 49.5812L80.2306 50.4642L80.2356 50.4668L80.7001 49.5812ZM159.954 52.5001L160.613 53.2525L160.617 53.249L159.954 52.5001ZM166.844 48.6606L167.036 49.6419L167.044 49.6403L167.053 49.6385L166.844 48.6606ZM153.514 56.1554L153.705 57.1371L153.717 57.1347L153.73 57.1319L153.514 56.1554ZM151.208 56.8619L151.924 57.56L151.924 57.56L151.208 56.8619ZM151.537 58.9506L152.489 58.6443L152.489 58.6415L151.537 58.9506ZM152.646 69.8549L151.647 69.7996L151.647 69.8016L152.646 69.8549ZM152.436 73.7866L151.438 73.7333L151.391 74.5979L152.241 74.7673L152.436 73.7866ZM153.514 74.0016L153.319 74.9823L153.327 74.9839L153.514 74.0016ZM160.943 73.1108L160.518 72.2056L160.517 72.206L160.943 73.1108ZM166.844 67.6126L167.645 68.2111L167.646 68.2099L166.844 67.6126ZM167.139 67.2158L166.358 66.5911L166.347 66.6046L166.337 66.6185L167.139 67.2158ZM167.139 67.2157L166.432 66.5086L166.393 66.5478L166.358 66.591L167.139 67.2157ZM167.139 67.2156L167.846 67.9227L167.898 67.8712L167.941 67.8127L167.139 67.2156ZM170.71 63.3471L171.138 64.2507L171.138 64.2507L170.71 63.3471ZM174.951 62.8843L174.956 63.8843L174.956 63.8843L174.951 62.8843ZM175.32 62.8823L175.315 61.8823L175.315 61.8823L175.32 62.8823ZM188.41 57.8448L187.694 57.1466L187.691 57.1496L188.41 57.8448ZM191.944 52.1623L191.228 52.8604L191.241 52.8737L191.255 52.8865L191.944 52.1623ZM189.548 52.9609L189.129 52.0529L189.121 52.0565L189.114 52.0603L189.548 52.9609ZM179.424 53.1145L178.944 53.9919L178.953 53.9969L179.424 53.1145ZM176.489 51.3329L175.91 52.1489L175.917 52.1537L175.924 52.1585L176.489 51.3329ZM90.6155 66.0764L90.3223 65.1203L90.3181 65.1216L90.6155 66.0764ZM82.618 71.421L83.4564 71.9661L83.4624 71.9567L82.618 71.421ZM99.6913 67.5815L100.59 67.1432L100.587 67.1367L100.584 67.1302L99.6913 67.5815ZM100.141 70.1924L99.1437 70.2712L99.1444 70.2793L100.141 70.1924ZM100.32 72.2503L100.626 73.2024L101.386 72.9582L101.317 72.1633L100.32 72.2503ZM98.3135 72.8954L98.5981 73.854L98.6088 73.8508L98.6195 73.8474L98.3135 72.8954ZM94.9288 74.4312L95.4792 75.2661L95.4901 75.2589L95.5008 75.2515L94.9288 74.4312ZM92.3827 74.9841L92.6744 74.0275L92.6639 74.0244L92.3827 74.9841ZM88.8183 74.6462L88.8075 75.6462H88.8183V74.6462ZM82.2286 77.1957L82.89 77.9457L82.8937 77.9425L82.2286 77.1957ZM80.7309 78.5165L79.7339 78.5932L79.8879 80.5933L81.3924 79.2665L80.7309 78.5165ZM80.6411 77.3493L81.6381 77.2725L81.638 77.2715L80.6411 77.3493ZM92.1401 77.9011L92.9401 78.5012L92.9452 78.4943L92.1401 77.9011ZM97.5018 73.8466L97.8892 74.7685L97.8908 74.7678L97.5018 73.8466ZM89.8038 85.0273L88.8161 84.8706L88.8157 84.8732L89.8038 85.0273ZM84.4122 92.7679L83.9608 91.8755L83.9598 91.876L84.4122 92.7679ZM74.288 103.519L75.2446 103.81L75.2461 103.805L74.288 103.519ZM75.8755 107.757L75.1239 107.098L75.1199 107.102L75.8755 107.757ZM82.3155 103.734L82.0461 102.771L82.0383 102.773L82.3155 103.734ZM86.9283 103.734L86.7561 104.719L86.7598 104.719L86.9283 103.734ZM94.3567 103.734L94.6454 104.691L94.6493 104.69L94.3567 103.734ZM102.714 94.7644L103.636 95.15L103.638 95.1451L102.714 94.7644ZM106.847 89.1126L106.251 88.3098L106.245 88.3141L106.239 88.3185L106.847 89.1126ZM107.656 86.3789L108.372 85.6807L108.358 85.6664L108.343 85.6526L107.656 86.3789ZM101.396 75.9967L100.45 76.3227L100.453 76.3292L101.396 75.9967ZM151.962 74.7987L152.729 75.44L152.744 75.4218L152.759 75.403L151.962 74.7987ZM151.003 76.9795L150.064 76.6361L150.061 76.6439L151.003 76.9795ZM153.34 74.5836L153.541 73.604L153.524 73.6007L153.508 73.5979L153.34 74.5836ZM157.084 74.7679L157.084 75.768L157.096 75.7679L157.084 74.7679ZM160.768 75.6587L160.099 76.4016L160.099 76.402L160.768 75.6587ZM170.024 77.9624L170.289 78.9268L170.298 78.9242L170.024 77.9624ZM172.12 77.5938L172.836 76.8957L172.836 76.8957L172.12 77.5938ZM166.369 83.6142L166.015 82.679L166.011 82.6806L166.369 83.6142ZM150.794 79.6211L149.902 80.0734L149.903 80.075L150.794 79.6211ZM139.019 91.0787L138.535 90.2035L138.519 90.2126L138.503 90.2224L139.019 91.0787ZM148.335 82.3245L149.165 82.8811L149.169 82.8757L148.335 82.3245ZM137.911 92.0616L136.972 91.7181L136.968 91.7274L137.911 92.0616ZM141.685 97.4369L142.318 96.6629L142.312 96.6583L141.685 97.4369ZM151.54 99.8635L151.524 98.8636L151.518 98.8638L151.54 99.8635ZM151.702 99.861L151.718 100.861L151.718 100.861L151.702 99.861ZM157.333 100.383L156.829 101.247L156.829 101.247L157.333 100.383ZM159.642 102.995L158.828 103.575L158.828 103.576L159.642 102.995ZM159.687 103.058L160.503 102.48L160.501 102.477L159.687 103.058ZM166.696 109.478L167.149 108.586L167.148 108.586L166.696 109.478ZM175.562 111.259L175.417 110.27L175.417 110.27L175.562 111.259ZM178.258 110.645L178.798 111.487L178.821 111.472L178.844 111.455L178.258 110.645ZM175.742 108.464L175.256 109.338L175.26 109.341L175.742 108.464ZM170.8 102.904L171.741 102.567L171.737 102.558L170.8 102.904ZM169.871 98.0206L170.866 97.9219L170.866 97.917L169.871 98.0206ZM165.797 88.1913L166.45 87.4333L166.44 87.4253L165.797 88.1913ZM158.549 84.9968L158.374 85.9814L158.379 85.9823L158.549 84.9968ZM151.51 81.9252L152.14 81.1488L152.131 81.142L151.51 81.9252ZM107.36 89.8506L106.803 89.0199L106.792 89.0272L107.36 89.8506ZM102.867 95.9324L103.795 96.3051L103.797 96.2996L102.867 95.9324ZM113.62 91.6628L112.629 91.5249L112.628 91.5334L112.627 91.5419L113.62 91.6628ZM112.961 93.8437L113.9 94.1871L113.903 94.179L113.906 94.1707L112.961 93.8437ZM109.966 100.478L110.667 101.191L110.672 101.186L109.966 100.478ZM106.94 105.086L107.9 105.368L107.902 105.362L106.94 105.086ZM106.431 108.864L105.437 108.975L105.438 108.982L105.439 108.989L106.431 108.864ZM106.281 110.553L105.776 109.691L105.752 109.705L105.728 109.72L106.281 110.553ZM102.657 106.13L101.744 106.539L101.749 106.549L102.657 106.13ZM101.908 101.062L100.909 101.013L100.909 101.022L101.908 101.062ZM114.218 103.918L113.357 104.428L113.362 104.435L113.366 104.443L114.218 103.918ZM113.798 93.321L114.717 93.7159L114.717 93.7153L113.798 93.321ZM117.333 107.881L116.568 108.525L116.573 108.531L117.333 107.881ZM119.789 116.174L118.819 115.93L118.816 115.943L119.789 116.174ZM119.07 122.501H118.07L118.07 122.509L119.07 122.501ZM121.197 130.948L122.062 130.447L122.056 130.437L121.197 130.948ZM126.139 135.955L125.423 135.257L125.423 135.257L126.139 135.955ZM126.079 134.419L125.128 134.729L125.131 134.738L126.079 134.419ZM125.69 130.488L126.69 130.488L126.69 130.48L125.69 130.488ZM130.332 120.904L129.607 120.215L129.606 120.217L130.332 120.904ZM134.975 112.457L135.971 112.545L135.971 112.544L134.975 112.457ZM133.088 104.41L132.191 104.851L132.191 104.851L133.088 104.41ZM130.931 97.0069L129.934 97.0718L129.934 97.0764L130.931 97.0069ZM130.752 94.2425L131.75 94.1776L131.689 93.2498L130.76 93.2425L130.752 94.2425ZM126.858 94.2117L126.866 93.2118L126.865 93.2118L126.858 94.2117ZM117.333 92.6759L117.664 91.7323L117.656 91.7297L117.333 92.6759ZM135.697 92.6151L135.945 93.5838L135.95 93.5824L135.697 92.6151ZM132.132 94.581L131.219 94.173L131.214 94.1841L131.209 94.1954L132.132 94.581ZM137.823 93.8438L136.924 94.2821L136.928 94.2897L136.932 94.2973L137.823 93.8438ZM139.89 96.6697L140.634 96.0019L140.631 95.9985L139.89 96.6697ZM141.448 100.54L140.449 100.593L140.45 100.602L140.45 100.611L141.448 100.54ZM142.166 104.656L143.121 104.358L143.118 104.347L142.166 104.656ZM144.832 108.434L144.147 109.163L144.147 109.163L144.832 108.434ZM143.724 110.891L143.659 111.889L143.662 111.889L143.724 110.891ZM133.151 102.967L132.25 103.401L132.254 103.409L133.151 102.967ZM2 26C2 12.7452 12.7452 2 26 2V0C11.6406 0 0 11.6406 0 26H2ZM2 116V26H0V116H2ZM26 140C12.7452 140 2 129.255 2 116H0C0 130.359 11.6406 142 26 142V140ZM226 140H26V142H226V140ZM250 116C250 129.255 239.255 140 226 140V142C240.359 142 252 130.359 252 116H250ZM250 26V116H252V26H250ZM226 2C239.255 2 250 12.7452 250 26H252C252 11.6406 240.359 0 226 0V2ZM26 2H226V0H26V2ZM96.3547 5.16477C96.3547 5.35413 96.4113 5.49955 96.4149 5.50946C96.431 5.55458 96.4473 5.5909 96.4566 5.61083C96.4761 5.65275 96.4968 5.69153 96.512 5.71913C96.5441 5.77762 96.5852 5.8474 96.6294 5.92076C96.7196 6.07029 96.8461 6.27277 96.9969 6.51051C97.2996 6.98779 97.7141 7.62909 98.1637 8.32071L99.8405 7.23061C99.3915 6.53998 98.9822 5.90656 98.6859 5.43931C98.5371 5.20478 98.4203 5.01755 98.342 4.88776C98.302 4.82145 98.2775 4.77916 98.2652 4.75667C98.2581 4.74377 98.2619 4.74983 98.27 4.76723C98.2735 4.77489 98.2856 4.801 98.2988 4.83802C98.2994 4.83982 98.3547 4.97924 98.3547 5.16477H96.3547ZM104.38 6.57582C103.25 5.82 101.546 5.05721 100.143 4.56957C99.4413 4.32581 98.7621 4.1321 98.2315 4.04799C97.983 4.0086 97.675 3.97719 97.3894 4.02305C97.2488 4.04562 97.0115 4.10191 96.7898 4.27474C96.5227 4.48297 96.3547 4.80345 96.3547 5.16477H98.3547C98.3547 5.44161 98.221 5.6949 98.0194 5.85206C97.8633 5.97382 97.7226 5.99517 97.7064 5.99776C97.6696 6.00367 97.7218 5.99217 97.9184 6.02333C98.278 6.08033 98.8287 6.23026 99.4863 6.45876C100.801 6.91565 102.332 7.61188 103.269 8.23829L104.38 6.57582ZM112.474 19.7192C111.326 13.7675 108.718 9.45393 104.377 6.57381L103.272 8.24031C107.078 10.7663 109.442 14.5618 110.511 20.0981L112.474 19.7192ZM118.055 25.8877C115.597 24.9325 114.499 24.3844 113.844 23.6531C113.213 22.9492 112.901 21.9677 112.475 19.7223L110.51 20.0949C110.923 22.2727 111.299 23.81 112.354 24.9874C113.384 26.1375 114.967 26.8334 117.331 27.7519L118.055 25.8877ZM126.261 32.9274C125.427 31.1997 124.498 29.8534 123.177 28.7214C121.869 27.5997 120.232 26.7365 118.056 25.8881L117.33 27.7514C119.407 28.5617 120.81 29.3265 121.876 30.2398C122.929 31.1427 123.707 32.2384 124.46 33.7973L126.261 32.9274ZM127.016 40.681C127.396 40.433 127.549 40.0493 127.616 39.8168C127.692 39.557 127.721 39.2747 127.729 39.0082C127.746 38.4693 127.68 37.8182 127.563 37.1463C127.33 35.8001 126.864 34.1976 126.264 32.9335L124.458 33.7912C124.966 34.8616 125.384 36.2846 125.592 37.4878C125.697 38.0907 125.741 38.5953 125.73 38.9472C125.725 39.1261 125.706 39.2229 125.696 39.2579C125.678 39.32 125.707 39.1465 125.923 39.0061L127.016 40.681ZM123.952 41.3279C124.621 41.2482 125.259 41.1445 125.757 41.0479C126.006 40.9997 126.227 40.952 126.403 40.9082C126.533 40.8761 126.758 40.819 126.925 40.7334L126.013 38.9537C126.09 38.9141 126.102 38.9223 125.922 38.9669C125.789 39 125.603 39.0405 125.377 39.0845C124.924 39.1722 124.334 39.2682 123.715 39.342L123.952 41.3279ZM114.382 44.3236C117.392 42.7508 120.483 41.7726 123.96 41.3269L123.706 39.3431C119.995 39.8188 116.676 40.8679 113.456 42.551L114.382 44.3236ZM110.953 45.9424C111.083 45.9424 111.184 45.9167 111.21 45.9102C111.252 45.8995 111.287 45.8879 111.31 45.8802C111.355 45.8645 111.398 45.8471 111.431 45.8332C111.499 45.8045 111.58 45.7674 111.665 45.727C111.838 45.6449 112.069 45.5297 112.339 45.392C112.882 45.1156 113.607 44.7362 114.389 44.32L113.449 42.5546C112.673 42.9678 111.96 43.3409 111.432 43.6097C111.167 43.7447 110.955 43.8502 110.806 43.9207C110.731 43.9566 110.682 43.9788 110.654 43.9903C110.639 43.9965 110.643 43.9945 110.659 43.9891C110.666 43.9865 110.689 43.9788 110.721 43.9707C110.737 43.9668 110.83 43.9424 110.953 43.9424V45.9424ZM109.022 43.3837C109.266 43.9308 109.506 44.4403 109.701 44.8196C109.797 45.0062 109.891 45.1791 109.974 45.3137C110.013 45.377 110.068 45.4604 110.132 45.5383C110.162 45.5749 110.22 45.6416 110.301 45.7079C110.342 45.7408 110.582 45.9424 110.953 45.9424V43.9424C111.152 43.9424 111.303 44.0022 111.385 44.0422C111.47 44.084 111.53 44.1293 111.563 44.1564C111.628 44.2091 111.667 44.2556 111.675 44.2658C111.696 44.2908 111.696 44.2961 111.673 44.2592C111.632 44.1931 111.567 44.0762 111.48 43.9057C111.308 43.5708 111.084 43.0975 110.848 42.5694L109.022 43.3837ZM104.4 37.9152C106.837 39.7087 108.083 41.205 109.017 43.3721L110.853 42.5811C109.75 40.0179 108.24 38.2582 105.585 36.3044L104.4 37.9152ZM99.0041 31.6859C100.222 34.1508 101.923 36.1144 104.405 37.9186L105.581 36.3009C103.33 34.6649 101.856 32.9426 100.797 30.8L99.0041 31.6859ZM98.0321 26.3484C98.0174 27.7375 98.0205 28.6425 98.1557 29.4118C98.2987 30.2255 98.5815 30.85 99.0083 31.6942L100.793 30.7917C100.381 29.9771 100.215 29.5727 100.126 29.0656C100.029 28.5141 100.017 27.8065 100.032 26.3696L98.0321 26.3484ZM99.2393 20.0041C98.7168 21.3362 98.3984 22.2151 98.2253 23.1328C98.0522 24.0507 98.032 24.9681 98.032 26.359H100.032C100.032 24.9548 100.057 24.2135 100.191 23.5034C100.325 22.7931 100.575 22.0749 101.101 20.7346L99.2393 20.0041ZM98.1689 8.32861C99.592 10.4729 100.297 12.1394 100.455 13.8425C100.614 15.5542 100.233 17.4277 99.2372 20.0096L101.103 20.7291C102.145 18.0278 102.647 15.8161 102.446 13.6575C102.245 11.4903 101.348 9.50152 99.8353 7.2227L98.1689 8.32861ZM155.993 7.18405C156.136 6.54992 156.243 6.07417 156.277 5.95489L154.35 5.41813C154.299 5.60085 154.175 6.15425 154.042 6.74447L155.993 7.18405ZM155.987 7.20854L155.987 7.20799L154.048 6.72053L154.047 6.72108L155.987 7.20854ZM155.809 7.99708C155.872 7.7217 155.934 7.4438 155.993 7.18456L154.042 6.74506C153.983 7.00457 153.921 7.28042 153.859 7.55337L155.809 7.99708ZM150.494 16.0979C153.152 14.5112 155.08 11.4759 155.813 7.98037L153.855 7.57007C153.21 10.6478 151.544 13.1415 149.469 14.3807L150.494 16.0979ZM146.525 17.8663C147.933 17.3441 149.727 16.577 150.511 16.0876L149.452 14.391C148.858 14.7616 147.238 15.4689 145.83 15.9911L146.525 17.8663ZM140.375 21.1783C141.203 20.3732 141.719 19.9391 142.496 19.5154C143.314 19.0698 144.44 18.6257 146.52 17.8683L145.835 15.989C143.782 16.7368 142.511 17.2295 141.539 17.7592C140.527 18.3107 139.859 18.8903 138.981 19.7438L140.375 21.1783ZM137.022 31.5056C137.188 28.059 137.382 26.1464 137.845 24.7542C138.283 23.4354 138.981 22.5334 140.375 21.1781L138.981 19.744C137.499 21.184 136.534 22.3553 135.947 24.1235C135.384 25.8182 135.188 28.0063 135.025 31.4095L137.022 31.5056ZM135.77 39.0493C136.214 38.044 136.488 37.367 136.662 36.2945C136.827 35.2817 136.904 33.9102 137.022 31.5068L135.025 31.4082C134.904 33.858 134.831 35.0974 134.688 35.9737C134.555 36.7902 134.365 37.2805 133.941 38.241L135.77 39.0493ZM134.897 40.9489C134.897 41.1016 134.856 41.2102 134.875 41.1436C134.88 41.1275 134.891 41.0926 134.912 41.0349C134.952 40.9216 135.016 40.7594 135.099 40.5577C135.264 40.1562 135.496 39.627 135.759 39.0738L133.952 38.2165C133.675 38.7998 133.428 39.361 133.249 39.7966C133.16 40.0133 133.084 40.2063 133.03 40.3589C133.003 40.4341 132.977 40.5099 132.956 40.5789C132.951 40.5974 132.897 40.7654 132.897 40.9489H134.897ZM136.628 41.2586C136.001 40.9897 135.442 40.7245 135.048 40.517C134.847 40.4115 134.709 40.3309 134.63 40.279C134.586 40.2505 134.588 40.2485 134.612 40.2697C134.622 40.2788 134.667 40.3189 134.716 40.3867C134.745 40.4263 134.897 40.6322 134.897 40.9489H132.897C132.897 41.2809 133.057 41.5055 133.102 41.567C133.167 41.6567 133.235 41.7218 133.277 41.7588C133.363 41.8359 133.457 41.9016 133.532 41.9508C133.69 42.0545 133.893 42.1696 134.116 42.2868C134.568 42.5248 135.177 42.8125 135.839 43.0964L136.628 41.2586ZM145.29 47.0845C142.478 44.3277 140.188 42.7827 136.627 41.2582L135.84 43.0969C139.167 44.5212 141.25 45.9249 143.89 48.5127L145.29 47.0845ZM147.558 49.0694C147.536 49.0748 147.534 49.0734 147.543 49.0732C147.547 49.0732 147.552 49.0734 147.557 49.0739C147.562 49.0744 147.564 49.075 147.563 49.0748C147.556 49.073 147.481 49.0522 147.302 48.9278C146.924 48.6648 146.342 48.1322 145.296 47.09L143.884 48.5072C144.905 49.523 145.611 50.1884 146.161 50.5704C146.446 50.7686 146.746 50.932 147.076 51.0147C147.43 51.1033 147.747 51.082 148.032 51.0124L147.558 49.0694ZM150.93 44.5237C150.46 45.5442 149.727 46.69 149 47.6072C148.637 48.0646 148.291 48.4454 147.997 48.7168C147.664 49.0242 147.514 49.0807 147.539 49.0742L148.051 51.0076C148.54 50.8782 149.001 50.5124 149.354 50.1862C149.746 49.8241 150.162 49.3602 150.567 48.8501C151.374 47.8321 152.199 46.5513 152.747 45.3603L150.93 44.5237ZM151.618 40.181C151.618 41.5429 151.593 42.2856 151.499 42.8618C151.412 43.3992 151.26 43.8183 150.933 44.5187L152.745 45.3653C153.106 44.5913 153.344 43.9814 153.474 43.1826C153.597 42.4227 153.618 41.5221 153.618 40.181H151.618ZM150.864 35.1326C151.477 36.9042 151.588 37.7422 151.618 40.1929L153.617 40.1691C153.587 37.5822 153.459 36.5158 152.754 34.4786L150.864 35.1326ZM150.224 28.3458C149.533 30.0381 149.871 32.2322 150.863 35.1295L152.755 34.4817C151.77 31.6043 151.688 30.0511 152.076 29.1017L150.224 28.3458ZM152.612 24.9959C152.1 25.5848 151.579 26.2373 151.157 26.8191C150.761 27.3639 150.374 27.9497 150.215 28.3692L152.085 29.0784C152.135 28.945 152.362 28.5631 152.775 27.9945C153.161 27.4628 153.645 26.856 154.121 26.3084L152.612 24.9959ZM157.159 13.6113C157.159 17.491 155.467 21.7753 152.618 24.9888L154.115 26.3155C157.257 22.7714 159.159 18.025 159.159 13.6113H157.159ZM156.269 5.98224C156.286 5.92485 156.281 5.97311 156.215 6.05373C156.133 6.15271 155.95 6.30284 155.672 6.32072C155.424 6.33661 155.265 6.23592 155.228 6.2101C155.187 6.18157 155.189 6.17238 155.229 6.22285C155.413 6.45327 155.705 7.02828 156.02 7.90244C156.633 9.60729 157.159 11.9529 157.159 13.6113H159.159C159.159 11.6452 158.562 9.06087 157.902 7.22566C157.58 6.32979 157.198 5.48225 156.792 4.97451C156.685 4.84044 156.545 4.68949 156.369 4.56723C156.196 4.44769 155.91 4.30132 155.544 4.32483C155.146 4.35033 154.854 4.56138 154.673 4.77985C154.508 4.97996 154.415 5.20628 154.358 5.39078L156.269 5.98224ZM125.107 19.4801C125.107 19.6565 125.149 19.802 125.174 19.878C125.203 19.9674 125.239 20.0504 125.272 20.1207C125.339 20.262 125.425 20.4108 125.516 20.5545C125.699 20.8448 125.941 21.1782 126.203 21.4969L127.749 20.2277C127.531 19.9628 127.339 19.6972 127.208 19.4883C127.141 19.3825 127.1 19.3067 127.079 19.2627C127.068 19.2405 127.07 19.2406 127.076 19.2588C127.077 19.2638 127.107 19.3497 127.107 19.4801H125.107ZM131.965 21.2005C130.763 20.0977 129.386 19.1701 128.273 18.642C127.739 18.3881 127.164 18.1769 126.66 18.1447C126.415 18.129 126.035 18.1447 125.687 18.3733C125.269 18.6479 125.107 19.0849 125.107 19.4801H127.107C127.107 19.6218 127.036 19.8803 126.786 20.0446C126.606 20.1629 126.47 20.1366 126.533 20.1406C126.646 20.1478 126.939 20.2226 127.416 20.4487C128.325 20.8804 129.539 21.6884 130.613 22.6742L131.965 21.2005ZM136.393 32.2581C136.393 29.8552 136.083 27.8017 135.36 25.9802C134.634 24.1498 133.511 22.6065 131.962 21.1975L130.616 22.6773C131.972 23.9099 132.902 25.2078 133.501 26.7178C134.104 28.2368 134.393 30.0228 134.393 32.2581H136.393ZM134.269 39.7774C135.766 37.8238 136.393 35.3692 136.393 32.2581H134.393C134.393 35.1059 133.821 37.0745 132.682 38.5611L134.269 39.7774ZM133.288 41.0892L134.276 39.7684L132.675 38.5701L131.687 39.8909L133.288 41.0892ZM130.229 41.397L132.446 41.4892L132.529 39.4909L130.312 39.3988L130.229 41.397ZM126.979 40.666C127.136 40.8276 127.315 40.9128 127.402 40.9513C127.51 40.9991 127.622 41.0361 127.725 41.0654C127.931 41.1245 128.174 41.1741 128.428 41.2158C128.94 41.2998 129.577 41.3645 130.221 41.3967L130.321 39.3992C129.736 39.3699 129.175 39.3117 128.751 39.2422C128.537 39.207 128.378 39.1722 128.276 39.1429C128.224 39.1281 128.206 39.12 128.211 39.1222C128.214 39.1236 128.234 39.1323 128.263 39.15C128.289 39.166 128.346 39.2038 128.411 39.2697L126.979 40.666ZM126.305 38.002C126.305 38.5238 126.346 39.0351 126.428 39.4623C126.469 39.6743 126.525 39.8922 126.605 40.0904C126.673 40.2586 126.81 40.5487 127.085 40.7605L128.304 39.1752C128.46 39.2949 128.488 39.4123 128.46 39.3433C128.445 39.3044 128.418 39.221 128.392 39.0835C128.34 38.812 128.305 38.4325 128.305 38.002H126.305ZM125.734 34.8346C126.057 35.7475 126.305 37.2012 126.305 38.002H128.305C128.305 36.9599 128.014 35.2805 127.619 34.1662L125.734 34.8346ZM125.099 32.9449L125.728 34.8186L127.624 34.1821L126.995 32.3084L125.099 32.9449ZM125.948 30.4565L125.139 32.2073L126.955 33.046L127.764 31.2952L125.948 30.4565ZM127.094 23.4944C127.224 24.3871 127.177 25.6365 126.966 26.9416C126.755 28.2422 126.395 29.5125 125.952 30.4481L127.76 31.3036C128.306 30.1504 128.709 28.687 128.94 27.2615C129.17 25.8406 129.243 24.3715 129.074 23.2063L127.094 23.4944ZM126.227 21.5257C126.676 22.0312 126.97 22.7027 127.096 23.5057L129.072 23.195C128.899 22.0935 128.474 21.0449 127.724 20.1989L126.227 21.5257ZM90.5668 37.4172C90.5668 37.6342 90.4813 37.7659 90.47 37.7832C90.4525 37.81 90.4531 37.801 90.5005 37.7573C90.5943 37.6706 90.7698 37.5402 91.0428 37.3768C91.5805 37.0548 92.3695 36.6796 93.3056 36.3252L92.5974 34.4548C91.5866 34.8375 90.6832 35.261 90.0154 35.6608C89.6856 35.8583 89.3799 36.0696 89.1433 36.2882C89.0255 36.3971 88.8985 36.5316 88.7948 36.6906C88.6973 36.8401 88.5668 37.0928 88.5668 37.4172H90.5668ZM92.1601 37.3341C91.5235 37.1857 90.9755 37.0277 90.6018 36.8899C90.4089 36.8187 90.3004 36.7667 90.2564 36.7409C90.2311 36.7261 90.267 36.7429 90.3217 36.7977C90.3522 36.8282 90.5668 37.0426 90.5668 37.4172H88.5668C88.5668 37.8457 88.8142 38.1186 88.9072 38.2116C89.0244 38.3289 89.1525 38.4122 89.246 38.4669C89.4398 38.5804 89.6758 38.68 89.9097 38.7663C90.3897 38.9433 91.0249 39.1231 91.7061 39.2819L92.1601 37.3341ZM100.365 44.7212C99.0997 42.3261 98.0297 40.6647 96.7622 39.5112C95.4571 38.3235 94.0144 37.7369 92.1454 37.3308L91.7208 39.2852C93.3863 39.6471 94.4597 40.1201 95.4161 40.9904C96.41 41.8949 97.3469 43.2898 98.5972 45.6557L100.365 44.7212ZM101.79 45.658C100.85 45.3277 100.545 45.0429 100.355 44.7017L98.6078 45.6752C99.1366 46.6242 99.9695 47.138 101.127 47.5448L101.79 45.658ZM105.025 47.3471C104.118 46.7164 102.662 45.9674 101.793 45.659L101.124 47.5438C101.813 47.7883 103.111 48.4523 103.882 48.9888L105.025 47.3471ZM106.281 48.243C106.393 48.243 106.474 48.2636 106.497 48.2697C106.529 48.2781 106.549 48.2857 106.552 48.2867C106.557 48.2885 106.542 48.2829 106.501 48.2626C106.422 48.2231 106.304 48.1574 106.148 48.0647C105.839 47.8815 105.437 47.6237 105.011 47.3379L103.896 48.998C104.339 49.2959 104.775 49.5755 105.126 49.784C105.299 49.8872 105.465 49.9808 105.607 50.0517C105.677 50.0865 105.757 50.1239 105.838 50.1549C105.88 50.1712 106.061 50.243 106.281 50.243V48.243ZM107.392 46.9476C106.976 47.3744 106.57 47.754 106.26 48.0218C106.103 48.1571 105.982 48.2545 105.902 48.313C105.861 48.3436 105.847 48.3515 105.854 48.3472C105.857 48.3455 105.884 48.3299 105.927 48.3118C105.945 48.3042 106.084 48.243 106.281 48.243V50.243C106.492 50.243 106.652 50.1763 106.696 50.1579C106.765 50.1291 106.823 50.0975 106.862 50.0747C106.942 50.0282 107.02 49.974 107.087 49.9245C107.225 49.8226 107.391 49.6877 107.567 49.5351C107.924 49.227 108.371 48.808 108.824 48.3439L107.392 46.9476ZM108.555 45.0193C108.625 45.5184 108.589 45.5709 108.547 45.6505C108.439 45.8582 108.173 46.1631 107.399 46.9403L108.817 48.3513C109.511 47.6541 110.039 47.1143 110.32 46.5771C110.667 45.9118 110.616 45.3193 110.536 44.7433L108.555 45.0193ZM101.807 37.0299C103.573 37.8711 105.182 39.154 106.393 40.604C107.612 42.0628 108.376 43.6257 108.554 45.0091L110.537 44.7536C110.296 42.881 109.308 40.973 107.928 39.3217C106.541 37.6617 104.705 36.1954 102.667 35.2244L101.807 37.0299ZM97.166 35.8977C98.344 35.9436 99.0054 36.0033 99.6073 36.1503C100.206 36.2964 100.792 36.5403 101.802 37.0278L102.672 35.2265C101.645 34.7311 100.898 34.4067 100.082 34.2073C99.2684 34.0087 98.4321 33.9455 97.2438 33.8993L97.166 35.8977ZM93.3028 36.3262C94.3593 35.9299 95.14 35.8087 97.161 35.8975L97.2488 33.8995C95.0764 33.804 94 33.9286 92.6003 34.4537L93.3028 36.3262ZM161.09 37.8348C160.644 39.4985 159.856 40.7727 158.64 41.7877C157.406 42.8185 155.673 43.628 153.268 44.2521L153.77 46.188C156.337 45.5219 158.379 44.6113 159.922 43.3231C161.484 42.019 162.479 40.3751 163.022 38.3528L161.09 37.8348ZM164.258 37.3204C164.098 37.0172 163.916 36.7136 163.701 36.4833C163.514 36.2829 163.053 35.8773 162.4 36.0354C161.842 36.1707 161.568 36.6386 161.456 36.8509C161.313 37.1232 161.198 37.4603 161.095 37.817L163.017 38.3707C163.109 38.0516 163.18 37.8704 163.227 37.7807C163.25 37.7373 163.248 37.7529 163.211 37.7918C163.172 37.8324 163.062 37.933 162.872 37.9791C162.665 38.0292 162.483 37.9866 162.367 37.9312C162.268 37.8842 162.226 37.8344 162.238 37.8469C162.246 37.8552 162.274 37.8882 162.322 37.9617C162.368 38.0331 162.423 38.1286 162.489 38.253L164.258 37.3204ZM160.657 52.2333C165.04 47.9647 166.609 42.106 164.271 37.3459L162.476 38.2275C164.332 42.0065 163.205 46.9599 159.261 50.8004L160.657 52.2333ZM152.761 56.3224C155.73 56.083 157.853 54.9486 160.655 52.2352L159.263 50.7985C156.673 53.3069 154.962 54.1384 152.6 54.3289L152.761 56.3224ZM147.873 53.3058C148.199 53.9225 148.485 54.4456 148.763 54.8597C149.044 55.2785 149.362 55.654 149.785 55.9254C150.636 56.4717 151.647 56.4092 152.758 56.3227L152.603 54.3287C151.347 54.4265 151.055 54.364 150.865 54.2422C150.768 54.1796 150.631 54.054 150.423 53.7442C150.212 53.4298 149.972 52.9968 149.64 52.3696L147.873 53.3058ZM146.979 51.6553L147.877 53.314L149.636 52.3613L148.737 50.7026L146.979 51.6553ZM148.945 48.6626L147.148 50.4748L148.568 51.8831L150.365 50.0709L148.945 48.6626ZM150.984 46.1432C150.922 46.2863 150.684 46.6559 150.276 47.171C149.89 47.6574 149.414 48.196 148.95 48.6576L150.36 50.0758C150.884 49.5545 151.412 48.9566 151.843 48.414C152.25 47.9002 152.641 47.3483 152.819 46.9385L150.984 46.1432ZM153.263 44.2533C152.742 44.3912 152.259 44.5757 151.85 44.9127C151.431 45.2579 151.179 45.688 150.983 46.1465L152.821 46.9351C152.953 46.6257 153.046 46.5183 153.121 46.4565C153.206 46.3864 153.368 46.2945 153.775 46.1867L153.263 44.2533ZM102.036 66.0594C102.554 54.5659 110.289 45.3248 121.663 42.6606L121.207 40.7133C108.977 43.5781 100.597 53.5654 100.038 65.9693L102.036 66.0594ZM121.142 91.7991C109.289 88.7826 101.459 78.2397 102.035 66.0616L100.038 65.967C99.4161 79.0993 107.88 90.4878 120.649 93.7374L121.142 91.7991ZM132.281 91.62C130.835 92.0192 128.771 92.2529 126.672 92.2867C124.57 92.3206 122.534 92.1525 121.142 91.799L120.65 93.7375C122.282 94.152 124.515 94.3217 126.704 94.2865C128.895 94.2512 131.144 94.0088 132.814 93.5479L132.281 91.62ZM146.327 81.8273C142.802 86.6562 137.87 90.084 132.282 91.6197L132.812 93.5482C138.847 91.8894 144.158 88.191 147.942 83.0064L146.327 81.8273ZM150.066 73.6971C149.711 74.9525 149.081 76.576 148.375 78.1095C147.665 79.6528 146.913 81.0312 146.329 81.8243L147.94 83.0094C148.645 82.0517 149.464 80.5274 150.192 78.9453C150.925 77.3534 151.598 75.6289 151.991 74.2426L150.066 73.6971ZM150.061 60.9214C150.511 62.6544 150.747 65.0281 150.747 67.4119C150.747 69.7991 150.511 72.1027 150.065 73.7015L151.992 74.2383C152.505 72.3968 152.747 69.8932 152.747 67.4119C152.747 64.9272 152.504 62.3709 151.996 60.418L150.061 60.9214ZM141.879 47.8591C145.67 51.0402 148.823 56.0798 150.06 60.9174L151.997 60.422C150.658 55.1846 147.281 49.7806 143.165 46.327L141.879 47.8591ZM132.588 42.9601C133.799 43.2846 135.601 44.066 137.398 45.0134C139.191 45.9597 140.88 47.0192 141.878 47.8586L143.165 46.3275C142.008 45.3547 140.176 44.2179 138.331 43.2444C136.487 42.2721 134.531 41.4102 133.106 41.0282L132.588 42.9601ZM121.662 42.6608C122.709 42.4162 124.827 42.3181 127.069 42.3794C129.304 42.4406 131.464 42.6546 132.585 42.9591L133.109 41.0292C131.744 40.658 129.381 40.4419 127.123 40.3802C124.872 40.3186 122.527 40.4048 121.207 40.7132L121.662 42.6608ZM93.7358 46.1162C92.7448 46.455 90.6714 47.4764 89.0998 48.3753L90.0926 50.1114C91.6361 49.2287 93.5765 48.2843 94.3827 48.0087L93.7358 46.1162ZM103.371 47.1504C99.9873 45.4639 96.8945 45.0592 93.7419 46.1142L94.3766 48.0108C96.915 47.1614 99.4534 47.4324 102.479 48.9404L103.371 47.1504ZM105.087 53.0359C105.525 52.3479 105.899 51.7552 106.134 51.2581C106.364 50.7704 106.567 50.1612 106.373 49.514C106.184 48.8793 105.69 48.47 105.237 48.1707C104.77 47.8618 104.131 47.5358 103.378 47.1538L102.473 48.9371C103.263 49.3383 103.784 49.6074 104.134 49.8389C104.499 50.0801 104.478 50.1565 104.457 50.0861C104.432 50.0034 104.498 50.0373 104.325 50.4049C104.156 50.7631 103.861 51.2377 103.4 51.9626L105.087 53.0359ZM101.602 61.7134C102.116 58.9632 103.412 55.7306 105.093 53.0272L103.394 51.9714C101.6 54.8583 100.201 58.3219 99.636 61.3463L101.602 61.7134ZM101.025 64.6716C101.148 64.1331 101.422 62.8215 101.606 61.6903L99.6319 61.3695C99.4564 62.4498 99.1913 63.7184 99.0752 64.2243L101.025 64.6716ZM100.999 64.805C101.01 64.7498 101.019 64.7012 101.029 64.6505L99.0706 64.2454C99.0555 64.3184 99.043 64.3858 99.0331 64.4391L100.999 64.805ZM100.965 64.9383L100.965 64.9382L99.0675 64.3058L99.0675 64.3059L100.965 64.9383ZM100.663 65.6834C100.923 65.3454 100.978 64.919 100.999 64.805L99.033 64.4392C99.0284 64.4643 99.0244 64.4857 99.0205 64.5059C99.0167 64.5259 99.0134 64.5425 99.0104 64.557C99.0041 64.587 99.0006 64.6003 98.9995 64.6042C98.9984 64.6076 99.0023 64.5934 99.0135 64.569C99.0253 64.5433 99.0454 64.506 99.0773 64.4645L100.663 65.6834ZM95.8971 66.1134C97.3361 66.2222 98.2973 66.2956 98.9222 66.2974C99.2319 66.2983 99.5356 66.2832 99.805 66.2177C100.1 66.1459 100.422 65.9964 100.663 65.6834L99.0773 64.4645C99.1955 64.3108 99.3343 64.2739 99.3322 64.2744C99.3043 64.2812 99.1967 64.2982 98.9278 64.2974C98.3955 64.2959 97.5303 64.2312 96.0479 64.1191L95.8971 66.1134ZM95.1821 66.0594L95.8973 66.1134L96.0477 64.119L95.3326 64.0651L95.1821 66.0594ZM89.812 66.6152C91.14 66.2786 91.9631 66.1027 92.7052 66.0263C93.4345 65.9512 94.1195 65.9687 95.1722 66.0586L95.3425 64.0659C94.2386 63.9716 93.411 63.943 92.5003 64.0368C91.6024 64.1293 90.6584 64.3374 89.3205 64.6765L89.812 66.6152ZM81.7553 66.9707C84.021 67.6642 86.2109 67.5228 89.8106 66.6155L89.3219 64.6762C85.8526 65.5505 84.0887 65.5933 82.3407 65.0583L81.7553 66.9707ZM73.3829 59.4501C74.8693 61.8212 76.0238 63.4295 77.2868 64.5774C78.5836 65.7562 79.9439 66.4053 81.7501 66.9691L82.3459 65.0599C80.7075 64.5485 79.6416 64.0151 78.632 63.0975C77.5885 62.149 76.5564 60.7471 75.0775 58.3878L73.3829 59.4501ZM63.7503 53.0984C66.1108 53.2312 67.7366 53.6599 69.1342 54.5728C70.5521 55.4991 71.8372 56.9895 73.3834 59.4509L75.077 58.3871C73.4781 55.8417 72.0075 54.0608 70.2279 52.8984C68.428 51.7226 66.4145 51.2452 63.8627 51.1015L63.7503 53.0984ZM60.3049 52.3988C60.4261 52.5231 60.5525 52.5903 60.6069 52.6176C60.6749 52.6519 60.7388 52.6764 60.7875 52.6934C60.8852 52.7275 60.9895 52.7547 61.0849 52.7766C61.2796 52.8213 61.5223 52.8633 61.7878 52.9016C62.3234 52.9789 63.0162 53.0504 63.7411 53.0978L63.8718 51.1021C63.1889 51.0574 62.5488 50.9907 62.0735 50.9221C61.8335 50.8875 61.6513 50.8546 61.5324 50.8273C61.471 50.8132 61.4464 50.805 61.4469 50.8052C61.4469 50.8052 61.4702 50.8131 61.5059 50.8311C61.528 50.8422 61.6305 50.8935 61.7368 51.0025L60.3049 52.3988ZM65.0853 47.5583C64.1083 47.9828 62.8517 48.7659 61.8904 49.4627C61.4081 49.8122 60.965 50.1654 60.6512 50.4663C60.5028 50.6085 60.3357 50.7837 60.2146 50.9709C60.1586 51.0573 60.0607 51.2235 60.0195 51.4419C59.9721 51.6928 59.9927 52.1126 60.3426 52.4355L61.699 50.9658C62.0115 51.2541 62.0203 51.6245 61.9848 51.8128C61.9685 51.8991 61.9429 51.9615 61.9279 51.9939C61.9121 52.0283 61.8985 52.05 61.8936 52.0575C61.8859 52.0695 61.9174 52.023 62.0354 51.9099C62.2542 51.7001 62.6142 51.4082 63.0642 51.082C63.9675 50.4272 65.0921 49.736 65.8824 49.3926L65.0853 47.5583ZM76.188 46.5858C72.6382 45.6676 68.5125 46.0288 65.0763 47.5622L65.8914 49.3886C68.9251 48.0348 72.5873 47.7202 75.6871 48.5221L76.188 46.5858ZM81.1696 48.6983C79.5299 47.8264 77.2873 46.8591 76.1788 46.5835L75.6963 48.5244C76.5647 48.7403 78.6354 49.6159 80.2306 50.4642L81.1696 48.6983ZM89.0885 48.3818C87.056 49.5795 86.0206 50.0364 85.0771 50.0717C84.1457 50.1065 83.1472 49.7355 81.1646 48.6956L80.2356 50.4668C82.1768 51.4849 83.6196 52.1276 85.1518 52.0703C86.6719 52.0134 88.1227 51.2723 90.1039 50.1049L89.0885 48.3818ZM160.617 53.249C162.728 51.3808 165.236 49.9947 167.036 49.6419L166.651 47.6793C164.377 48.1251 161.554 49.7492 159.292 51.7513L160.617 53.249ZM153.73 57.1319C154.987 56.8545 156.029 56.4937 157.116 55.8771C158.185 55.2701 159.264 54.4341 160.613 53.2525L159.296 51.7478C157.979 52.9006 157.021 53.6312 156.128 54.1377C155.253 54.6345 154.408 54.9342 153.299 55.1789L153.73 57.1319ZM151.924 57.56C151.832 57.6541 151.753 57.6904 151.779 57.6764C151.784 57.6737 151.808 57.6616 151.859 57.6407C151.958 57.5997 152.106 57.5465 152.299 57.4865C152.682 57.3672 153.185 57.2379 153.705 57.1371L153.324 55.1737C152.735 55.2879 152.16 55.435 151.705 55.5769C151.478 55.6474 151.267 55.7209 151.093 55.7931C151.006 55.8289 150.915 55.87 150.83 55.9161C150.766 55.9508 150.621 56.0312 150.492 56.1637L151.924 57.56ZM152.489 58.6415C152.315 58.108 152.205 57.6862 152.157 57.3969C152.132 57.2488 152.131 57.1755 152.132 57.158C152.132 57.1504 152.132 57.1851 152.114 57.2447C152.097 57.3012 152.05 57.431 151.924 57.56L150.492 56.1637C150.176 56.4881 150.142 56.8995 150.134 57.063C150.124 57.2816 150.149 57.5116 150.184 57.7244C150.256 58.157 150.4 58.6874 150.586 59.2597L152.489 58.6415ZM153.644 69.9101C153.889 65.493 153.495 61.7706 152.489 58.6443L150.586 59.2568C151.497 62.0895 151.882 65.5548 151.647 69.7996L153.644 69.9101ZM153.435 73.8398L153.644 69.9081L151.647 69.8016L151.438 73.7333L153.435 73.8398ZM153.71 73.0209L152.632 72.8059L152.241 74.7673L153.319 74.9823L153.71 73.0209ZM160.517 72.206C159.738 72.5729 158.521 72.8772 157.21 73.0357C155.901 73.1938 154.612 73.1927 153.701 73.0192L153.327 74.9839C154.513 75.2098 156.025 75.1933 157.45 75.0212C158.871 74.8495 160.321 74.5088 161.369 74.0156L160.517 72.206ZM166.042 67.0141C164.609 68.9334 163.808 69.94 163.077 70.6202C162.384 71.2654 161.733 71.6351 160.518 72.2056L161.368 74.016C162.639 73.4193 163.516 72.9443 164.44 72.0844C165.326 71.2595 166.233 70.1006 167.645 68.2111L166.042 67.0141ZM166.337 66.6185L166.042 67.0153L167.646 68.2099L167.941 67.8131L166.337 66.6185ZM166.358 66.591L166.358 66.5911L167.92 67.8405L167.92 67.8404L166.358 66.591ZM166.432 66.5085L166.432 66.5086L167.846 67.9228L167.846 67.9227L166.432 66.5085ZM170.281 62.4435C169.577 62.7775 169.005 63.2815 168.415 63.9496C167.834 64.6062 167.179 65.4873 166.337 66.6185L167.941 67.8127C168.805 66.6533 169.401 65.8529 169.913 65.2743C170.414 64.7072 170.776 64.4223 171.138 64.2507L170.281 62.4435ZM174.945 61.8844C173.883 61.8901 173.01 61.894 172.287 61.957C171.55 62.0211 170.899 62.1508 170.281 62.4435L171.138 64.2507C171.459 64.0984 171.851 64.0026 172.46 63.9495C173.084 63.8952 173.863 63.8902 174.956 63.8843L174.945 61.8844ZM175.315 61.8823L174.945 61.8844L174.956 63.8843L175.326 63.8823L175.315 61.8823ZM187.691 57.1496C185.933 58.9671 184.329 60.1186 182.462 60.8352C180.581 61.5572 178.358 61.8672 175.315 61.8823L175.325 63.8823C178.483 63.8666 180.978 63.547 183.178 62.7024C185.392 61.8525 187.232 60.5005 189.129 58.54L187.691 57.1496ZM191.255 52.8865C191.071 52.711 191.02 52.5138 191.006 52.4224C190.998 52.374 190.998 52.3378 190.999 52.3188C190.999 52.3086 191 52.3011 191 52.2966C191 52.2942 191.001 52.2925 191.001 52.2914C191.001 52.2909 191.001 52.2904 191.001 52.2902C191.001 52.2899 191.001 52.2898 191.001 52.2898C191.001 52.2898 191.001 52.2899 191.001 52.2901C191.001 52.2904 191.001 52.2908 191.001 52.2913C191 52.2923 191 52.2938 191 52.2957C190.999 52.2997 190.998 52.3052 190.996 52.3125C190.992 52.3271 190.987 52.3469 190.979 52.372C190.963 52.423 190.939 52.4883 190.906 52.5685C190.769 52.8995 190.52 53.3666 190.182 53.9113C189.507 54.9973 188.561 56.2573 187.694 57.1466L189.126 58.5429C190.116 57.5279 191.147 56.1463 191.88 54.967C192.246 54.3789 192.558 53.8075 192.754 53.3332C192.85 53.1022 192.939 52.8453 192.977 52.5962C192.997 52.4716 193.011 52.3035 192.983 52.1195C192.954 51.9339 192.871 51.6635 192.634 51.4381L191.255 52.8865ZM189.967 53.8689C190.544 53.6027 191.078 53.3874 191.469 53.2561C191.669 53.1889 191.803 53.1535 191.874 53.14C191.914 53.1324 191.896 53.1393 191.842 53.1385C191.815 53.1382 191.746 53.1357 191.655 53.1116C191.57 53.0891 191.392 53.0284 191.228 52.8604L192.66 51.4641C192.482 51.2808 192.281 51.2085 192.167 51.1783C192.047 51.1463 191.94 51.1397 191.87 51.1387C191.73 51.1368 191.598 51.1566 191.502 51.175C191.299 51.2133 191.066 51.2815 190.832 51.3602C190.354 51.5208 189.751 51.7662 189.129 52.0529L189.967 53.8689ZM184.216 55.0052C185.674 55.0052 186.601 54.9935 187.422 54.8331C188.272 54.6672 188.969 54.3506 189.983 53.8615L189.114 52.0603C188.09 52.5541 187.605 52.7597 187.039 52.8702C186.445 52.9863 185.724 53.0052 184.216 53.0052V55.0052ZM178.953 53.9969C179.721 54.406 180.311 54.6897 181.118 54.842C181.878 54.9853 182.797 55.0052 184.216 55.0052V53.0052C182.76 53.0052 182.032 52.9792 181.489 52.8767C180.993 52.7832 180.625 52.6216 179.894 52.2321L178.953 53.9969ZM175.924 52.1585C176.675 52.672 178.022 53.4877 178.944 53.9918L179.904 52.2371C179.028 51.7583 177.739 50.9768 177.053 50.5074L175.924 52.1585ZM167.053 49.6385C169.567 49.1013 172.759 49.9159 175.91 52.1489L177.067 50.517C173.629 48.0811 169.871 46.9912 166.635 47.6827L167.053 49.6385ZM90.3181 65.1216C86.1461 66.4209 83.5638 68.0635 81.7736 70.8853L83.4624 71.9567C84.9071 69.6796 86.9975 68.2505 90.9129 67.0311L90.3181 65.1216ZM100.584 67.1302C100.221 66.4136 99.4999 65.9288 98.7896 65.6005C98.0462 65.257 97.1466 65.0077 96.204 64.8517C94.331 64.5418 92.1092 64.5723 90.3223 65.1203L90.9087 67.0324C92.3268 66.5975 94.2236 66.5512 95.8775 66.8249C96.6985 66.9607 97.4144 67.1683 97.9506 67.4161C98.5199 67.6791 98.7419 67.92 98.7989 68.0327L100.584 67.1302ZM101.138 70.1135C101.09 69.5142 101.011 68.9073 100.924 68.4041C100.88 68.1528 100.832 67.9186 100.783 67.7192C100.739 67.5415 100.677 67.3221 100.59 67.1432L98.7925 68.0197C98.7801 67.9944 98.801 68.0361 98.8413 68.1992C98.8762 68.3405 98.9148 68.5268 98.9533 68.7477C99.0303 69.1891 99.1013 69.734 99.1437 70.2712L101.138 70.1135ZM101.317 72.1633L101.137 70.1054L99.1444 70.2793L99.3241 72.3373L101.317 72.1633ZM98.6195 73.8474L100.626 73.2024L100.014 71.2983L98.0075 71.9434L98.6195 73.8474ZM95.5008 75.2515C96.1377 74.8073 97.5299 74.1711 98.5981 73.854L98.0289 71.9367C96.8206 72.2954 95.2175 73.0108 94.3568 73.6109L95.5008 75.2515ZM92.0911 75.9406C92.6335 76.106 93.1913 76.2625 93.8195 76.1209C94.3762 75.9954 94.9008 75.6474 95.4792 75.2661L94.3784 73.5963C93.6987 74.0444 93.5044 74.1417 93.3797 74.1698C93.3264 74.1818 93.2402 74.2001 92.6744 74.0276L92.0911 75.9406ZM88.8183 75.6462C89.4425 75.6462 90.1447 75.6828 90.7644 75.7416C91.4066 75.8025 91.8859 75.8806 92.1016 75.9438L92.6639 74.0244C92.2506 73.9033 91.6066 73.8125 90.9533 73.7505C90.2776 73.6864 89.5121 73.6462 88.8183 73.6462V75.6462ZM82.8937 77.9425C83.9903 76.9658 84.8222 76.4086 85.6694 76.0824C86.512 75.758 87.4494 75.6315 88.8075 75.6462L88.8291 73.6463C87.3416 73.6302 86.1224 73.7648 84.9507 74.216C83.7836 74.6654 82.7433 75.3982 81.5635 76.4489L82.8937 77.9425ZM81.3924 79.2665L82.89 77.9457L81.5672 76.4457L80.0695 77.7665L81.3924 79.2665ZM79.644 77.426L79.7339 78.5932L81.728 78.4397L81.6381 77.2725L79.644 77.426ZM81.7796 70.876C81.0752 71.9595 80.5134 73.1346 80.1414 74.2541C79.7741 75.3596 79.57 76.4767 79.6441 77.427L81.638 77.2715C81.5924 76.686 81.7178 75.8526 82.0394 74.8848C82.3563 73.9309 82.8429 72.9098 83.4564 71.9661L81.7796 70.876ZM92.9452 78.4943C93.3727 77.914 94.1709 77.1597 95.1209 76.441C96.0646 75.7272 97.0772 75.1098 97.8892 74.7685L97.1143 72.9247C96.0992 73.3513 94.9401 74.07 93.9144 74.846C92.895 75.617 91.9259 76.506 91.335 77.308L92.9452 78.4943ZM90.7914 85.1841C91.4161 81.2492 91.8972 79.8915 92.9401 78.5012L91.3402 77.3011C89.9868 79.1053 89.4495 80.8807 88.8161 84.8706L90.7914 85.1841ZM84.8636 93.6602C85.9733 93.0988 86.8675 92.6436 87.5675 92.2001C88.2826 91.7468 88.8556 91.2694 89.2991 90.6322C89.7391 90 90.003 89.28 90.2112 88.4203C90.4169 87.5712 90.5843 86.5118 90.7918 85.1815L88.8157 84.8732C88.6039 86.2305 88.4493 87.1984 88.2674 87.9495C88.0881 88.6899 87.899 89.1428 87.6576 89.4897C87.4196 89.8316 87.0828 90.1394 86.4969 90.5107C85.8957 90.8917 85.0976 91.3004 83.9608 91.8755L84.8636 93.6602ZM75.2461 103.805C76.5222 99.5379 79.3945 96.4346 84.8646 93.6597L83.9598 91.876C78.1675 94.8144 74.8095 98.2843 73.3299 103.232L75.2461 103.805ZM73.9286 108.754C74.321 108.754 74.5554 108.986 74.6396 109.096C74.683 109.152 74.7071 109.199 74.7181 109.223C74.7299 109.248 74.7348 109.264 74.7353 109.265C74.7356 109.266 74.7286 109.243 74.7195 109.187C74.7108 109.133 74.7022 109.063 74.6949 108.974C74.6648 108.609 74.6661 108.066 74.7023 107.43C74.7753 106.15 74.9788 104.682 75.2446 103.81L73.3314 103.227C72.9981 104.321 72.7823 105.97 72.7055 107.317C72.6669 107.994 72.6607 108.641 72.7017 109.138C72.7214 109.377 72.7562 109.64 72.8284 109.868C72.8628 109.977 72.9274 110.15 73.0544 110.315C73.1875 110.488 73.4762 110.754 73.9286 110.754V108.754ZM75.1199 107.102C74.6499 107.645 74.2066 108.129 73.8716 108.472C73.7023 108.646 73.5713 108.773 73.4837 108.85C73.4377 108.891 73.4206 108.904 73.4257 108.9C73.427 108.899 73.4547 108.879 73.5014 108.855C73.513 108.849 73.6832 108.754 73.9286 108.754V110.754C74.1889 110.754 74.3799 110.652 74.4179 110.633C74.4909 110.595 74.5505 110.554 74.5889 110.527C74.6681 110.47 74.7461 110.404 74.8133 110.345C74.9522 110.221 75.1208 110.056 75.3035 109.869C75.6724 109.49 76.1426 108.976 76.6311 108.412L75.1199 107.102ZM82.0383 102.773C78.9893 103.652 77.1439 104.796 75.1239 107.098L76.6271 108.417C78.3813 106.418 79.8906 105.474 82.5926 104.694L82.0383 102.773ZM87.1004 102.749C85.8053 102.522 84.9728 102.388 84.2512 102.388C83.4865 102.388 82.8791 102.538 82.0461 102.771L82.5848 104.697C83.3992 104.469 83.7803 104.388 84.2512 104.388C84.7651 104.388 85.4153 104.484 86.7561 104.719L87.1004 102.749ZM94.0679 102.776C92.2496 103.325 90.633 103.352 87.0967 102.748L86.7598 104.719C90.4123 105.344 92.3901 105.371 94.6454 104.691L94.0679 102.776ZM101.791 94.3788C99.6965 99.3905 97.3851 101.761 94.0641 102.777L94.6493 104.69C98.7566 103.433 101.418 100.459 103.636 95.15L101.791 94.3788ZM106.239 88.3185C105.183 89.1273 104.359 89.9151 103.647 90.8874C102.941 91.8532 102.374 92.9633 101.789 94.3837L103.638 95.1451C104.192 93.801 104.688 92.8532 105.262 92.0681C105.831 91.2897 106.505 90.6337 107.455 89.9067L106.239 88.3185ZM107.435 87.5154C107.435 87.3263 107.496 87.2043 107.502 87.1922C107.516 87.164 107.521 87.1613 107.501 87.1881C107.463 87.2409 107.385 87.3315 107.26 87.4567C107.014 87.7029 106.656 88.0093 106.251 88.3098L107.443 89.9155C107.907 89.5709 108.343 89.2016 108.673 88.8718C108.836 88.709 108.993 88.5367 109.116 88.3677C109.178 88.2836 109.246 88.1803 109.302 88.0639C109.351 87.9637 109.435 87.7659 109.435 87.5154H107.435ZM106.94 87.077C107.121 87.2623 107.278 87.451 107.383 87.6007C107.436 87.6766 107.463 87.7244 107.472 87.7438C107.477 87.7528 107.47 87.7421 107.462 87.7146C107.455 87.6916 107.435 87.6198 107.435 87.5154H109.435C109.435 87.2287 109.329 86.9899 109.272 86.8713C109.201 86.7247 109.111 86.5824 109.022 86.4547C108.842 86.1974 108.611 85.9254 108.372 85.6807L106.94 87.077ZM100.453 76.3292C101.897 80.4258 104.486 84.7551 106.968 87.1051L108.343 85.6526C106.153 83.5795 103.71 79.5539 102.339 75.6642L100.453 76.3292ZM97.8908 74.7678C98.5325 74.4968 98.9482 74.3432 99.2467 74.2791C99.527 74.2189 99.5577 74.2707 99.5239 74.2519C99.5221 74.2509 99.6242 74.3073 99.8096 74.676C99.9907 75.036 100.186 75.5573 100.45 76.3227L102.341 75.6708C102.081 74.9157 101.846 74.2736 101.596 73.7774C101.351 73.2899 101.023 72.7972 100.497 72.5044C99.9388 72.1938 99.3517 72.211 98.827 72.3236C98.3205 72.4323 97.744 72.6588 97.1128 72.9253L97.8908 74.7678ZM151.195 74.1573C151.069 74.3071 150.965 74.5014 150.896 74.6378C150.813 74.8001 150.724 74.9938 150.633 75.2018C150.451 75.6194 150.249 76.13 150.064 76.6361L151.943 77.323C152.117 76.8461 152.304 76.3738 152.467 76.0004C152.548 75.813 152.62 75.6592 152.678 75.546C152.749 75.4069 152.764 75.3978 152.729 75.44L151.195 74.1573ZM153.508 73.5979C153.103 73.5286 152.69 73.4951 152.31 73.5527C151.916 73.6123 151.476 73.785 151.165 74.1944L152.759 75.403C152.658 75.5359 152.547 75.5396 152.609 75.5302C152.686 75.5186 152.858 75.5158 153.171 75.5694L153.508 73.5979ZM157.084 73.7679C156.362 73.7679 155.591 73.7528 154.931 73.7229C154.245 73.6918 153.752 73.6474 153.541 73.604L153.139 75.5633C153.527 75.6428 154.172 75.6905 154.841 75.7208C155.536 75.7524 156.338 75.7679 157.084 75.7679V73.7679ZM161.438 74.9159C160.942 74.4691 160.493 74.0754 159.744 73.8955C159.113 73.7439 158.286 73.7534 157.072 73.768L157.096 75.7679C158.427 75.7518 158.948 75.7612 159.276 75.8401C159.486 75.8905 159.606 75.9576 160.099 76.4016L161.438 74.9159ZM169.759 76.9982C166.75 77.8248 163.893 77.126 161.437 74.9155L160.099 76.402C163.035 79.0446 166.588 79.9431 170.289 78.9267L169.759 76.9982ZM172.836 76.8957C172.668 76.7234 172.484 76.6544 172.4 76.6275C172.303 76.5961 172.216 76.5831 172.159 76.5768C172.045 76.5641 171.936 76.5664 171.853 76.5708C171.681 76.58 171.479 76.6074 171.273 76.643C170.853 76.7155 170.316 76.8395 169.75 77.0007L170.298 78.9242C170.81 78.7782 171.277 78.6719 171.613 78.6138C171.785 78.5842 171.899 78.5712 171.96 78.5679C171.994 78.5661 171.98 78.5692 171.938 78.5645C171.917 78.5622 171.861 78.555 171.788 78.5313C171.728 78.5121 171.561 78.4528 171.404 78.292L172.836 76.8957ZM166.723 84.5495C168.19 83.9946 169.954 82.5695 171.215 81.2485C171.855 80.5782 172.423 79.8754 172.783 79.2497C172.96 78.943 173.122 78.595 173.191 78.2413C173.257 77.8988 173.268 77.3383 172.836 76.8957L171.404 78.292C171.175 78.0568 171.237 77.8101 171.227 77.8619C171.219 77.9025 171.178 78.0291 171.05 78.2513C170.801 78.6833 170.353 79.2553 169.768 79.8674C168.581 81.1112 167.065 82.2817 166.015 82.679L166.723 84.5495ZM149.903 80.075C151.138 82.4994 153.957 84.1502 157.019 84.9361C160.114 85.7305 163.7 85.7102 166.728 84.5478L166.011 82.6806C163.438 83.6684 160.285 83.7095 157.516 82.9989C154.714 82.2796 152.547 80.8588 151.685 79.1672L149.903 80.075ZM150.061 76.6439C149.789 77.4075 149.585 78.008 149.542 78.5295C149.49 79.1642 149.674 79.6232 149.902 80.0734L151.686 79.1689C151.525 78.8512 151.528 78.788 151.536 78.6932C151.553 78.4851 151.648 78.1488 151.945 77.3152L150.061 76.6439ZM139.503 91.9538C143.102 89.9642 146.72 86.5311 149.165 82.8811L147.504 81.7679C145.216 85.1827 141.826 88.3843 138.535 90.2035L139.503 91.9538ZM138.85 92.4051C138.811 92.5114 138.768 92.5465 138.809 92.4986C138.837 92.4659 138.888 92.4137 138.966 92.3463C139.12 92.2117 139.326 92.0613 139.536 91.9349L138.503 90.2224C138.203 90.4032 137.9 90.6214 137.65 90.84C137.525 90.9492 137.4 91.0699 137.291 91.1965C137.196 91.3079 137.056 91.4889 136.972 91.7181L138.85 92.4051ZM142.312 96.6583C141.577 96.0654 140.635 94.9747 139.898 93.9221C139.533 93.4012 139.242 92.9231 139.061 92.5551C138.969 92.3687 138.92 92.2389 138.899 92.1629C138.864 92.0379 138.933 92.1714 138.853 92.3958L136.968 91.7274C136.829 92.1207 136.918 92.5067 136.972 92.6993C137.039 92.9411 137.146 93.1943 137.266 93.4379C137.508 93.93 137.861 94.5001 138.26 95.0696C139.05 96.1979 140.116 97.457 141.058 98.2156L142.312 96.6583ZM151.518 98.8638C148.65 98.9254 146.977 98.857 145.706 98.5433C144.494 98.2439 143.594 97.7069 142.318 96.6629L141.052 98.2109C142.442 99.3479 143.609 100.086 145.227 100.485C146.787 100.87 148.708 100.925 151.561 100.863L151.518 98.8638ZM151.686 98.8611L151.524 98.8637L151.555 100.863L151.718 100.861L151.686 98.8611ZM157.836 99.5189C157.136 99.1114 156.362 98.9497 155.416 98.8822C154.486 98.8159 153.281 98.8358 151.686 98.8611L151.718 100.861C153.352 100.835 154.451 100.818 155.274 100.877C156.081 100.935 156.508 101.06 156.829 101.247L157.836 99.5189ZM160.456 102.414C159.524 101.108 158.829 100.097 157.836 99.5188L156.829 101.247C157.364 101.558 157.793 102.125 158.828 103.575L160.456 102.414ZM160.501 102.477L160.456 102.414L158.828 103.576L158.873 103.639L160.501 102.477ZM167.148 108.586C164.602 107.295 162.651 105.516 160.503 102.48L158.871 103.636C161.156 106.866 163.338 108.896 166.244 110.37L167.148 108.586ZM175.417 110.27C172.733 110.663 170.337 110.206 167.149 108.586L166.243 110.369C169.705 112.128 172.52 112.716 175.707 112.249L175.417 110.27ZM177.718 109.803C177.79 109.757 177.797 109.77 177.622 109.823C177.486 109.864 177.299 109.913 177.069 109.966C176.611 110.071 176.023 110.181 175.417 110.27L175.707 112.249C176.359 112.153 177 112.033 177.515 111.915C177.772 111.857 178.008 111.796 178.204 111.737C178.36 111.689 178.606 111.61 178.798 111.487L177.718 109.803ZM175.26 109.341C176.545 110.047 177.199 110.448 177.481 110.692C177.654 110.841 177.481 110.76 177.443 110.478C177.417 110.292 177.464 110.117 177.542 109.987C177.576 109.93 177.61 109.892 177.633 109.869C177.655 109.847 177.67 109.836 177.672 109.835L178.844 111.455C179.079 111.285 179.515 110.873 179.424 110.209C179.355 109.699 178.993 109.355 178.788 109.178C178.314 108.768 177.454 108.264 176.223 107.588L175.26 109.341ZM169.858 103.242C170.7 105.59 172.918 108.04 175.256 109.338L176.227 107.59C174.252 106.493 172.397 104.397 171.741 102.567L169.858 103.242ZM168.876 98.1192C169.058 99.9579 169.487 102.24 169.862 103.251L171.737 102.558C171.453 101.788 171.043 99.7077 170.866 97.9219L168.876 98.1192ZM165.145 88.9493C166.359 89.994 167.126 90.9631 167.675 92.2807C168.238 93.6353 168.594 95.4132 168.876 98.1241L170.866 97.917C170.579 95.1604 170.201 93.1448 169.521 91.5123C168.826 89.8427 167.841 88.6309 166.45 87.4333L165.145 88.9493ZM158.379 85.9823C161.254 86.4786 163.331 87.4272 165.155 88.9574L166.44 87.4253C164.31 85.6381 161.894 84.5594 158.719 84.0114L158.379 85.9823ZM150.879 82.7016C153.186 84.5741 155.116 85.4033 158.374 85.9814L158.723 84.0122C155.751 83.4846 154.147 82.7779 152.14 81.1488L150.879 82.7016ZM149.653 81.5737C149.527 81.5737 149.433 81.5494 149.395 81.5387C149.348 81.5258 149.314 81.5122 149.296 81.5047C149.276 81.4966 149.262 81.4897 149.254 81.4861C149.246 81.4822 149.241 81.4795 149.24 81.4789C149.24 81.4788 149.259 81.4894 149.303 81.5183C149.388 81.5737 149.514 81.6621 149.677 81.781C150 82.0165 150.431 82.3457 150.888 82.7084L152.131 81.142C151.66 80.7675 151.207 80.4209 150.856 80.165C150.682 80.0382 150.524 79.9268 150.397 79.844C150.336 79.8039 150.267 79.7607 150.2 79.7242C150.168 79.7065 150.119 79.6808 150.06 79.6568C150.041 79.6487 149.873 79.5737 149.653 79.5737V81.5737ZM149.169 82.8757C149.475 82.4119 149.771 81.9915 149.995 81.693C150.109 81.5414 150.195 81.4346 150.249 81.3723C150.279 81.3384 150.283 81.337 150.267 81.3516C150.26 81.3574 150.226 81.3887 150.17 81.4245C150.141 81.4428 150.09 81.4737 150.019 81.5023C149.955 81.5284 149.825 81.5737 149.653 81.5737V79.5737C149.34 79.5737 149.122 79.7204 149.09 79.7413C149.015 79.7892 148.958 79.8386 148.925 79.8681C148.857 79.9301 148.794 79.9985 148.745 80.0544C148.642 80.1716 148.522 80.3239 148.397 80.491C148.142 80.8299 147.823 81.2849 147.5 81.7733L149.169 82.8757ZM106.792 89.0272C104.763 90.4261 103.008 92.8499 101.937 95.5653L103.797 96.2996C104.762 93.8546 106.302 91.7938 107.927 90.674L106.792 89.0272ZM109.606 87.8677C109.35 87.8677 109.093 87.9284 108.887 87.9902C108.666 88.0565 108.433 88.1467 108.202 88.2487C107.742 88.4524 107.241 88.7261 106.803 89.02L107.917 90.6812C108.257 90.4529 108.655 90.2352 109.011 90.0779C109.188 89.9994 109.342 89.9418 109.463 89.9055C109.599 89.8646 109.638 89.8677 109.606 89.8677V87.8677ZM114.61 91.8008C114.675 91.3389 114.453 90.9673 114.352 90.8117C114.219 90.6079 114.046 90.4146 113.874 90.2438C113.524 89.8971 113.062 89.5309 112.587 89.2017C112.11 88.8705 111.588 88.5545 111.105 88.3167C110.864 88.1978 110.618 88.0915 110.383 88.0129C110.162 87.9391 109.887 87.8677 109.606 87.8677V89.8677C109.572 89.8677 109.611 89.8635 109.749 89.9097C109.873 89.9513 110.033 90.0179 110.221 90.1108C110.597 90.2962 111.034 90.5581 111.447 90.845C111.864 91.134 112.226 91.4263 112.466 91.6642C112.588 91.7856 112.652 91.8662 112.676 91.9034C112.732 91.9888 112.588 91.8256 112.629 91.5249L114.61 91.8008ZM113.906 94.1707C114.074 93.684 114.236 93.1877 114.36 92.7783C114.471 92.4117 114.585 92.0116 114.613 91.7838L112.627 91.5419C112.629 91.5265 112.622 91.5725 112.584 91.7177C112.551 91.8438 112.504 92.0072 112.446 92.1984C112.33 92.5799 112.177 93.0513 112.016 93.5167L113.906 94.1707ZM113.332 96.8539C113.332 96.3301 113.567 95.0983 113.9 94.1871L112.022 93.5003C111.636 94.555 111.332 96.0262 111.332 96.8539H113.332ZM110.672 101.186C111.736 100.126 112.417 99.4282 112.806 98.8326C113.02 98.5045 113.164 98.1837 113.245 97.8279C113.322 97.49 113.332 97.1614 113.332 96.8539H111.332C111.332 97.1301 111.32 97.2737 111.295 97.384C111.274 97.4765 111.235 97.58 111.131 97.7395C110.884 98.1192 110.382 98.6505 109.259 99.7704L110.672 101.186ZM107.902 105.362C108.201 104.318 108.37 103.843 108.683 103.364C109.018 102.853 109.542 102.299 110.667 101.191L109.264 99.7656C108.173 100.839 107.484 101.545 107.01 102.269C106.514 103.027 106.279 103.765 105.979 104.81L107.902 105.362ZM107.425 108.753C107.326 107.867 107.438 106.938 107.9 105.368L105.981 104.803C105.485 106.49 105.296 107.711 105.437 108.975L107.425 108.753ZM106.787 111.416C107.128 111.216 107.28 110.902 107.348 110.719C107.423 110.516 107.458 110.302 107.476 110.11C107.511 109.722 107.488 109.251 107.423 108.739L105.439 108.989C105.494 109.429 105.501 109.741 105.484 109.929C105.475 110.025 105.464 110.048 105.472 110.024C105.474 110.02 105.539 109.829 105.776 109.691L106.787 111.416ZM101.749 106.549C102.298 107.742 103.126 109.004 103.887 109.932C104.265 110.393 104.658 110.809 105.021 111.098C105.197 111.238 105.416 111.39 105.661 111.484C105.878 111.568 106.365 111.698 106.834 111.387L105.728 109.72C106.071 109.493 106.38 109.618 106.381 109.618C106.41 109.629 106.374 109.619 106.266 109.533C106.061 109.37 105.771 109.075 105.433 108.664C104.764 107.848 104.034 106.73 103.565 105.712L101.749 106.549ZM100.909 101.022C100.85 102.478 100.82 103.383 100.934 104.157C101.054 104.972 101.329 105.611 101.744 106.539L103.57 105.722C103.146 104.775 102.987 104.371 102.912 103.865C102.832 103.318 102.846 102.625 102.907 101.102L100.909 101.022ZM101.939 95.5598C101.254 97.265 101.032 98.5213 100.909 101.013L102.907 101.111C103.024 98.7496 103.221 97.7329 103.795 96.305L101.939 95.5598ZM115.078 103.408C114.482 102.402 114.083 100.66 114.007 98.7413C113.932 96.834 114.184 94.9564 114.717 93.7159L112.879 92.926C112.185 94.5421 111.927 96.7498 112.009 98.8203C112.09 100.88 112.516 103.008 113.357 104.428L115.078 103.408ZM118.097 107.236C116.737 105.624 115.382 103.901 115.069 103.394L113.366 104.443C113.772 105.102 115.233 106.943 116.568 108.525L118.097 107.236ZM120.759 116.418C121.243 114.489 121.534 113.103 121.114 111.696C120.711 110.344 119.682 109.085 118.092 107.23L116.573 108.531C118.248 110.485 118.941 111.406 119.197 112.267C119.437 113.07 119.323 113.927 118.819 115.93L120.759 116.418ZM120.07 122.501C120.07 119.967 120.241 118.6 120.762 116.405L118.816 115.943C118.258 118.293 118.07 119.815 118.07 122.501H120.07ZM122.056 130.437C121.265 129.109 120.788 128.042 120.497 126.874C120.203 125.696 120.085 124.366 120.07 122.494L118.07 122.509C118.085 124.446 118.207 125.957 118.556 127.359C118.909 128.772 119.481 130.023 120.338 131.46L122.056 130.437ZM125.423 135.257C125.62 135.055 125.854 135.004 125.996 135C126.062 134.998 126.113 135.006 126.141 135.012C126.17 135.017 126.187 135.024 126.191 135.025C126.195 135.026 126.175 135.019 126.125 134.991C126.078 134.964 126.016 134.925 125.941 134.871C125.627 134.649 125.193 134.267 124.704 133.774C123.726 132.786 122.664 131.486 122.062 130.447L120.332 131.45C121.047 132.684 122.231 134.118 123.283 135.18C123.809 135.712 124.335 136.185 124.784 136.503C125.001 136.656 125.254 136.813 125.513 136.906C125.675 136.965 126.341 137.18 126.855 136.653L125.423 135.257ZM125.131 134.738C125.2 134.941 125.245 135.1 125.274 135.225C125.303 135.351 125.311 135.425 125.312 135.46C125.313 135.494 125.307 135.47 125.325 135.417C125.346 135.356 125.382 135.299 125.423 135.257L126.855 136.653C127.208 136.292 127.324 135.843 127.311 135.398C127.298 135.004 127.183 134.566 127.027 134.101L125.131 134.738ZM124.69 130.488C124.69 131.276 124.736 132.131 124.811 132.875C124.882 133.591 124.987 134.294 125.128 134.729L127.03 134.11C126.962 133.9 126.872 133.389 126.801 132.677C126.733 131.993 126.69 131.204 126.69 130.488H124.69ZM129.606 120.217C127.644 122.29 126.377 123.809 125.628 125.352C124.858 126.94 124.674 128.476 124.69 130.495L126.69 130.48C126.675 128.599 126.85 127.416 127.428 126.224C128.028 124.987 129.097 123.665 131.059 121.592L129.606 120.217ZM133.979 112.37C133.853 113.8 133.568 114.88 132.945 116.015C132.305 117.181 131.286 118.449 129.607 120.215L131.057 121.593C132.764 119.796 133.93 118.377 134.699 116.978C135.483 115.548 135.827 114.186 135.971 112.545L133.979 112.37ZM132.191 104.851C133.637 107.787 134.168 110.212 133.979 112.37L135.971 112.544C136.202 109.911 135.535 107.114 133.985 103.968L132.191 104.851ZM129.934 97.0764C130.04 98.6075 130.181 99.7196 130.522 100.885C130.859 102.038 131.38 103.203 132.191 104.851L133.985 103.968C133.179 102.33 132.726 101.298 132.442 100.324C132.161 99.3625 132.032 98.4166 131.929 96.9374L129.934 97.0764ZM129.754 94.3073L129.934 97.0718L131.929 96.942L131.75 94.1776L129.754 94.3073ZM126.85 95.2117L130.744 95.2424L130.76 93.2425L126.866 93.2118L126.85 95.2117ZM117.002 93.6195C120.537 94.8598 122.626 95.1803 126.85 95.2117L126.865 93.2118C122.823 93.1817 120.958 92.8879 117.664 91.7323L117.002 93.6195ZM114.817 92.9387C114.725 92.9387 114.712 92.9238 114.895 92.9689C115.029 93.0018 115.212 93.0519 115.433 93.1169C115.873 93.2465 116.436 93.4262 117.009 93.6222L117.656 91.7297C117.061 91.5263 116.471 91.3375 115.997 91.1982C115.762 91.1289 115.547 91.0696 115.372 91.0266C115.247 90.9958 115.013 90.9387 114.817 90.9387V92.9387ZM114.717 93.7153C114.858 93.3865 115.017 93.1104 115.147 92.9342C115.178 92.8919 115.204 92.8597 115.225 92.8365C115.246 92.8125 115.256 92.8037 115.255 92.8051C115.253 92.8061 115.247 92.8118 115.234 92.8203C115.223 92.8287 115.202 92.8423 115.172 92.8574C115.121 92.8837 114.995 92.9387 114.817 92.9387V90.9387C114.378 90.9387 114.068 91.1879 113.951 91.2883C113.792 91.4252 113.652 91.5908 113.535 91.7496C113.298 92.0725 113.068 92.4876 112.879 92.9267L114.717 93.7153ZM135.448 91.6465C134.434 91.9066 133.54 92.2407 132.835 92.631C132.166 93.0014 131.519 93.5033 131.219 94.173L133.045 94.989C133.075 94.9215 133.252 94.6862 133.803 94.3808C134.319 94.0954 135.043 93.8151 135.945 93.5838L135.448 91.6465ZM138.722 93.4055C138.539 93.0297 138.37 92.6915 138.204 92.4253C138.039 92.1623 137.81 91.8582 137.456 91.6574C137.073 91.44 136.686 91.4209 136.365 91.4538C136.072 91.4838 135.747 91.568 135.443 91.6479L135.95 93.5824C136.29 93.4934 136.459 93.4547 136.569 93.4434C136.65 93.4351 136.574 93.4563 136.468 93.3963C136.392 93.3529 136.406 93.3233 136.509 93.4874C136.61 93.6484 136.733 93.89 136.924 94.2821L138.722 93.4055ZM140.631 95.9985C139.882 95.1715 139.018 93.9865 138.715 93.3903L136.932 94.2973C137.348 95.114 138.34 96.4478 139.149 97.3409L140.631 95.9985ZM142.446 100.487C142.389 99.4175 142.346 98.6458 142.066 97.962C141.785 97.2714 141.284 96.7258 140.634 96.0019L139.146 97.3375C139.874 98.1494 140.092 98.4178 140.215 98.7178C140.34 99.0246 140.386 99.4201 140.449 100.593L142.446 100.487ZM143.118 104.347C142.822 103.437 142.532 101.682 142.445 100.469L140.45 100.611C140.543 101.917 140.852 103.847 141.215 104.965L143.118 104.347ZM145.517 107.705C144.617 106.859 144.139 106.36 143.822 105.911C143.526 105.49 143.346 105.079 143.121 104.358L141.212 104.954C141.466 105.768 141.721 106.402 142.188 107.064C142.635 107.697 143.25 108.319 144.147 109.163L145.517 107.705ZM143.662 111.889C144.528 111.943 145.253 111.969 145.793 111.928C146.061 111.907 146.348 111.866 146.608 111.771C146.863 111.678 147.238 111.478 147.435 111.044C147.635 110.605 147.534 110.187 147.429 109.929C147.323 109.67 147.157 109.43 146.991 109.223C146.656 108.802 146.144 108.295 145.517 107.705L144.147 109.163C144.779 109.756 145.192 110.174 145.427 110.469C145.483 110.539 145.522 110.594 145.547 110.634C145.574 110.675 145.58 110.692 145.578 110.686C145.576 110.681 145.556 110.633 145.551 110.552C145.545 110.463 145.557 110.343 145.614 110.216C145.672 110.09 145.753 110.005 145.818 109.955C145.878 109.908 145.921 109.893 145.922 109.893C145.923 109.892 145.903 109.899 145.851 109.909C145.801 109.918 145.732 109.927 145.64 109.934C145.255 109.963 144.657 109.947 143.786 109.893L143.662 111.889ZM132.254 103.409C133.559 106.055 135.116 108.1 137.017 109.526C138.929 110.96 141.134 111.724 143.659 111.889L143.789 109.893C141.611 109.751 139.787 109.103 138.217 107.926C136.637 106.741 135.258 104.977 134.047 102.524L132.254 103.409ZM130.803 97.7448C130.803 98.8758 130.821 99.6465 131.037 100.479C131.246 101.287 131.631 102.116 132.25 103.401L134.051 102.532C133.412 101.206 133.123 100.561 132.973 99.9786C132.829 99.4215 132.803 98.8867 132.803 97.7448H130.803ZM131.209 94.1954C131.055 94.5652 130.964 95.1681 130.905 95.7247C130.842 96.3319 130.803 97.0501 130.803 97.7448H132.803C132.803 97.1187 132.838 96.47 132.895 95.933C132.923 95.6643 132.955 95.433 132.988 95.252C133.005 95.1617 133.021 95.0901 133.035 95.0365C133.049 94.9791 133.058 94.96 133.055 94.9666L131.209 94.1954Z" fill="white" fill-opacity="0.5" mask="url(#path-1-outside-1_1633:2176)"/>
<g filter="url(#filter0_b_1633:2176)">
<rect x="2" y="59" width="248" height="24" fill="black" fill-opacity="0.3"/>
</g>
<path d="M101.879 64.4V77H99.5746V66.38H94.6066L94.4986 69.53C94.4386 71.294 94.2946 72.728 94.0666 73.832C93.8386 74.924 93.4726 75.758 92.9686 76.334C92.4646 76.898 91.7686 77.18 90.8806 77.18C90.5686 77.18 90.1426 77.12 89.6026 77L89.7646 74.966C89.9206 75.014 90.1006 75.038 90.3046 75.038C91.0366 75.038 91.5526 74.606 91.8526 73.742C92.1646 72.866 92.3566 71.492 92.4286 69.62L92.6086 64.4H101.879ZM114.171 72.248C114.171 72.404 114.159 72.626 114.135 72.914H106.593C106.725 73.622 107.067 74.186 107.619 74.606C108.183 75.014 108.879 75.218 109.707 75.218C110.763 75.218 111.633 74.87 112.317 74.174L113.523 75.56C113.091 76.076 112.545 76.466 111.885 76.73C111.225 76.994 110.481 77.126 109.653 77.126C108.597 77.126 107.667 76.916 106.863 76.496C106.059 76.076 105.435 75.494 104.991 74.75C104.559 73.994 104.343 73.142 104.343 72.194C104.343 71.258 104.553 70.418 104.973 69.674C105.405 68.918 105.999 68.33 106.755 67.91C107.511 67.49 108.363 67.28 109.311 67.28C110.247 67.28 111.081 67.49 111.813 67.91C112.557 68.318 113.133 68.9 113.541 69.656C113.961 70.4 114.171 71.264 114.171 72.248ZM109.311 69.08C108.591 69.08 107.979 69.296 107.475 69.728C106.983 70.148 106.683 70.712 106.575 71.42H112.029C111.933 70.724 111.639 70.16 111.147 69.728C110.655 69.296 110.043 69.08 109.311 69.08ZM123.895 69.296H120.529V77H118.279V69.296H114.895V67.388H123.895V69.296ZM125.527 67.388H127.777V71.294H132.619V67.388H134.869V77H132.619V73.202H127.777V77H125.527V67.388ZM137.884 67.388H140.134V73.724L145.444 67.388H147.496V77H145.246V70.664L139.954 77H137.884V67.388ZM150.523 67.388H152.773V73.724L158.083 67.388H160.135V77H157.885V70.664L152.593 77H150.523V67.388ZM155.185 66.254C154.213 66.254 153.469 66.032 152.953 65.588C152.449 65.132 152.191 64.472 152.179 63.608H153.673C153.685 64.04 153.817 64.382 154.069 64.634C154.333 64.886 154.699 65.012 155.167 65.012C155.623 65.012 155.983 64.886 156.247 64.634C156.523 64.382 156.667 64.04 156.679 63.608H158.209C158.197 64.472 157.933 65.132 157.417 65.588C156.901 66.032 156.157 66.254 155.185 66.254Z" fill="white"/>
<defs>
<filter id="filter0_b_1633:2176" x="-5" y="52" width="262" height="38" filterUnits="userSpaceOnUse" color-interpolation-filters="sRGB">
<feFlood flood-opacity="0" result="BackgroundImageFix"/>
<feGaussianBlur in="BackgroundImage" stdDeviation="3.5"/>
<feComposite in2="SourceAlpha" operator="in" result="effect1_backgroundBlur_1633:2176"/>
<feBlend mode="normal" in="SourceGraphic" in2="effect1_backgroundBlur_1633:2176" result="shape"/>
</filter>
</defs>
</svg>
